<svg xmlns="http://www.w3.org/2000/svg" width="135.643" height="26.346" viewBox="0 0 135.643 26.346"><defs><style>.a{fill:#fe8f0a;}.b{fill:none;stroke:#fe8f0a;}</style></defs><g transform="translate(-55.654 -166)"><g transform="translate(164.951 166)"><path class="a" d="M22.488,3.858a13.173,13.173,0,0,0-18.63,18.63,13.173,13.173,0,1,0,18.63-18.63Zm-3.021,6.18L12.1,17.4a.772.772,0,0,1-1.092,0L6.88,13.266a.772.772,0,1,1,1.092-1.092l3.588,3.588,6.816-6.816a.772.772,0,1,1,1.092,1.092Z"/></g><g transform="translate(55.654 166)"><path class="a" d="M22.488,3.858a13.173,13.173,0,0,0-18.63,18.63,13.173,13.173,0,1,0,18.63-18.63ZM13.173,24.8A11.629,11.629,0,1,1,24.8,13.173,11.643,11.643,0,0,1,13.173,24.8Z"/><g transform="translate(6.525 8.633)"><path class="a" d="M142.366,169.7a.787.787,0,0,0-1.113,0l-6.95,6.95-3.659-3.659a.787.787,0,0,0-1.113,1.113l4.215,4.215a.787.787,0,0,0,1.113,0l7.507-7.507A.787.787,0,0,0,142.366,169.7Z" transform="translate(-129.301 -169.467)"/></g></g><g transform="translate(110 166)"><path class="a" d="M22.488,3.858a13.173,13.173,0,0,0-18.63,18.63,13.173,13.173,0,1,0,18.63-18.63ZM13.173,24.8A11.629,11.629,0,1,1,24.8,13.173,11.643,11.643,0,0,1,13.173,24.8Z"/><g transform="translate(6.525 8.633)"><path class="a" d="M142.366,169.7a.787.787,0,0,0-1.113,0l-6.95,6.95-3.659-3.659a.787.787,0,0,0-1.113,1.113l4.215,4.215a.787.787,0,0,0,1.113,0l7.507-7.507A.787.787,0,0,0,142.366,169.7Z" transform="translate(-129.301 -169.467)"/></g></g><line class="b" x2="30.11" transform="translate(135.97 179.5)"/><line class="b" x2="30.11" transform="translate(81.92 179.5)"/></g></svg>