<svg xmlns="http://www.w3.org/2000/svg" width="29.383" height="19.022" viewBox="0 0 29.383 19.022" ><defs><style>.a{fill:#fe8f0a;stroke-width: 0.8px;}</style></defs><g transform="translate(0.5 -91.75)"><g transform="translate(0 92.25)"><path class="a" d="M24.547,100.18a3.24,3.24,0,1,0-3.718,0,5.614,5.614,0,0,0-1.915,1.123,7.265,7.265,0,0,0-2.628-1.432,4.105,4.105,0,1,0-4.246,0,7.326,7.326,0,0,0-2.6,1.415,5.66,5.66,0,0,0-1.893-1.1,3.24,3.24,0,1,0-3.718,0A5.688,5.688,0,0,0,0,105.56v.371a.024.024,0,0,0,.022.022H6.891a7.554,7.554,0,0,0-.062.949v.382a2.986,2.986,0,0,0,2.988,2.988h8.7a2.986,2.986,0,0,0,2.988-2.988V106.9a7.554,7.554,0,0,0-.062-.949h6.913a.024.024,0,0,0,.022-.022v-.371A5.71,5.71,0,0,0,24.547,100.18Zm-4.2-2.656a2.342,2.342,0,1,1,2.387,2.342h-.09A2.338,2.338,0,0,1,20.347,97.523Zm-9.4-1.168a3.207,3.207,0,1,1,3.392,3.2h-.371A3.211,3.211,0,0,1,10.946,96.355ZM3.33,97.523a2.342,2.342,0,1,1,2.387,2.342h-.09A2.342,2.342,0,0,1,3.33,97.523Zm3.718,7.525H.91a4.8,4.8,0,0,1,4.729-4.285h.067a4.748,4.748,0,0,1,3.061,1.14A7.374,7.374,0,0,0,7.048,105.049ZM20.6,107.284a2.092,2.092,0,0,1-2.089,2.089h-8.7a2.092,2.092,0,0,1-2.089-2.089V106.9a6.451,6.451,0,0,1,6.251-6.442c.062.006.129.006.191.006s.129,0,.191-.006A6.451,6.451,0,0,1,20.6,106.9Zm.668-2.235a7.354,7.354,0,0,0-1.7-3.123,4.771,4.771,0,0,1,3.089-1.162h.067a4.8,4.8,0,0,1,4.729,4.285Z" transform="translate(0 -92.25)"/></g></g></svg>