<svg xmlns="http://www.w3.org/2000/svg" width="21.291" height="20.022" viewBox="0 0 21.291 20.022"><defs><style>.a{stroke:#000;}</style></defs><g transform="translate(0.5 -15.517)"><path class="a" d="M55.3,204.012H41.823A1.825,1.825,0,0,1,40,202.189V192.6a.634.634,0,1,1,1.268,0v9.592a.555.555,0,0,0,.555.555H55.3a.555.555,0,0,0,.555-.555V192.6a.634.634,0,1,1,1.268,0v9.592A1.825,1.825,0,0,1,55.3,204.012Z" transform="translate(-38.415 -168.973)"/><path class="a" d="M19.657,25.843a.632.632,0,0,1-.448-.186l-7.886-7.886a1.666,1.666,0,0,0-2.354,0L1.083,25.658a.634.634,0,0,1-.9-.9l7.886-7.886a2.936,2.936,0,0,1,4.147,0l7.886,7.886a.634.634,0,0,1-.448,1.082Z" transform="translate(0)"/><path class="a" d="M181.707,296.226h-5.073a.634.634,0,0,1-.634-.634v-5.628a1.984,1.984,0,0,1,1.982-1.982h2.378a1.984,1.984,0,0,1,1.982,1.982v5.628A.634.634,0,0,1,181.707,296.226Zm-4.439-1.268h3.8v-4.994a.714.714,0,0,0-.713-.713h-2.378a.714.714,0,0,0-.713.713Z" transform="translate(-169.025 -261.188)"/></g></svg>