<svg xmlns="http://www.w3.org/2000/svg" width="13.184" height="21" viewBox="0 0 13.184 21"><defs><style>.a{fill:#fe8f0a;}</style></defs><g transform="translate(-79.268)"><path class="a" d="M85.875,0h-.03a6.583,6.583,0,0,0-6.577,6.575c0,2.376,1.082,5.513,3.217,9.322a51.816,51.816,0,0,0,3.2,5.008.237.237,0,0,0,.19.1h.006a.237.237,0,0,0,.191-.106c.016-.024,1.609-2.43,3.181-5.373,2.121-3.972,3.2-6.982,3.2-8.947A6.584,6.584,0,0,0,85.875,0Zm3.036,6.735A3.051,3.051,0,1,1,85.86,3.684,3.054,3.054,0,0,1,88.911,6.735Z" transform="translate(0 0)"/></g></svg>