<svg xmlns="http://www.w3.org/2000/svg" width="19.938" height="13" viewBox="0 0 19.938 13">
  <g id="visibility_1_" data-name="visibility (1)" transform="translate(0 -106.662)">
    <g id="Group_3599" data-name="Group 3599" transform="translate(0 106.662)">
      <g id="Group_3598" data-name="Group 3598" transform="translate(0 0)">
        <path id="Path_5319" data-name="Path 5319" d="M19.864,112.9c-.157-.255-3.93-6.236-9.895-6.236-5.118,0-9.679,5.947-9.871,6.2a.509.509,0,0,0,0,.6c.192.254,4.753,6.2,9.871,6.2s9.679-5.947,9.871-6.2A.508.508,0,0,0,19.864,112.9Zm-9.895,5.835c-4.1,0-8-4.374-9-5.571.989-1.2,4.886-5.571,9-5.571,4.8,0,8.189,4.367,9.017,5.546C18.03,114.3,14.107,118.733,9.969,118.733Z" transform="translate(0 -106.662)"/>
      </g>
    </g>
    <g id="Group_3601" data-name="Group 3601" transform="translate(6.646 109.448)">
      <g id="Group_3600" data-name="Group 3600" transform="translate(0 0)">
        <path id="Path_5320" data-name="Path 5320" d="M173.985,170.662a3.737,3.737,0,1,0,3.323,3.714A3.539,3.539,0,0,0,173.985,170.662Zm0,6.5a2.8,2.8,0,1,1,2.492-2.786A2.655,2.655,0,0,1,173.985,177.162Z" transform="translate(-170.662 -170.662)"/>
      </g>
    </g>
  </g>
</svg>
