<svg xmlns="http://www.w3.org/2000/svg" width="19.986" height="26.611" viewBox="0 0 19.986 26.611"><defs><style>.a{fill:#fe8f0a;}</style></defs><g transform="translate(-0.499)"><path class="a" d="M19.242.259C18.234-.307,16.826.064,15.279,1.3a12.758,12.758,0,0,0-1.426,1.351,3.207,3.207,0,0,0-.263-.3,3.162,3.162,0,0,0-3.256-.75,3.15,3.15,0,0,0-5.55.1,3.469,3.469,0,0,0-3.6,5.441,2.34,2.34,0,0,0-.094,1.155.514.514,0,0,0-.013.113V26.091a.52.52,0,0,0,.52.52H19.125a.52.52,0,0,0,.52-.52V8.42a.52.52,0,0,0-.273-.458l-.022-.011a14.417,14.417,0,0,0,1.109-4.178C20.6,2.029,20.172.781,19.242.259ZM2.252,3.366a2.426,2.426,0,0,1,2.633-.534.52.52,0,0,0,.691-.324,2.111,2.111,0,0,1,4.006-.045.52.52,0,0,0,.747.284,2.113,2.113,0,0,1,2.827.725A20.381,20.381,0,0,0,11.549,5.8,3.652,3.652,0,0,0,5.126,7.659a.519.519,0,0,0-.488.062L3.12,8.8l-1-.662a1.24,1.24,0,0,1,.127-.813.52.52,0,0,0-.068-.607A2.423,2.423,0,0,1,2.252,3.366Zm6.02,4.341-.007,0-.013.009L6.747,8.793l-.6-.431c-.006-.073-.009-.146-.009-.219A2.614,2.614,0,0,1,10.99,6.8c-.32.608-.606,1.22-.855,1.83L8.856,7.72A.52.52,0,0,0,8.272,7.707ZM2.119,25.571V9.386l.725.479.008.005,0,0,.005,0,0,0,0,0,0,0,0,0,0,0,.005,0,0,0,0,0,.005,0,0,0,0,0,0,0,0,0,0,0,0,0,0,0,0,0,0,0,0,0,0,0,0,0,0,0,0,0h0l0,0H3.1a.51.51,0,0,0,.086,0h.02l.009,0h0l.009,0h0l.009,0h0l.009,0h0l.008,0h0l.008,0h0l.008,0h0l.008,0h0l.008,0h0l.008,0h0l.008,0h0l.008,0h0l.007,0h0l.007,0h0l.007,0h0l.007,0h0l.007,0h0l.007,0h0l.007,0h0l.006,0h0l.006,0h0l.006,0,0,0,.006,0h0l.008-.006L4.939,8.782l.5.355,1.008.718a.557.557,0,0,0,.055.034.519.519,0,0,0,.523-.017l.025-.017L8.555,8.782l1.506,1.073a.517.517,0,0,0,.3.1h.054a.509.509,0,0,0,.108-.023h0l0,0,0,0h0a.525.525,0,0,0,.134-.072l.016-.012h0l1.48-1.054,1.506,1.073c.014.01.029.019.043.028a.52.52,0,0,0,.516,0,.488.488,0,0,0,.043-.028l1.506-1.073,1.506,1.073a.511.511,0,0,0,.095.054.52.52,0,0,0,.332.028l.019,0a.521.521,0,0,0,.143-.066l.386-.255.34-.224V25.571ZM17.92,8.593,17.6,8.8,16.087,7.72c-.014-.01-.029-.019-.043-.028a.52.52,0,0,0-.516,0c-.015.009-.029.018-.043.028L13.978,8.793,12.472,7.72a.526.526,0,0,0-.117-.063l-.01,0a.52.52,0,0,0-.477.066l-.279.2q.109-.226.225-.451l1.938-.544a.52.52,0,0,0-.281-1l-.941.264c.274-.453.559-.886.854-1.3a.565.565,0,0,0,.062-.013l2.087-.587a.52.52,0,1,0-.281-1l-.766.215a12.01,12.01,0,0,1,1.442-1.389c1.16-.93,2.209-1.285,2.8-.951C19.8,1.763,19.782,4.763,17.92,8.593Zm0,0" transform="translate(0)"/><path class="a" d="M65.859,422.725a.52.52,0,0,0-.735,0l-.962.962H53.447l-.962-.962a.52.52,0,0,0-.735.735l.746.746-.746.746a.52.52,0,1,0,.735.735l.962-.962H64.163l.962.962a.52.52,0,0,0,.735-.735l-.746-.746.746-.746A.52.52,0,0,0,65.859,422.725Zm0,0" transform="translate(-48.443 -400.61)"/><path class="a" d="M67.886,259.5h-13.1a.52.52,0,0,1-.52-.52v-4.746a.52.52,0,0,1,.52-.52h13.1a.52.52,0,0,1,.52.52v4.746A.519.519,0,0,1,67.886,259.5Zm-12.577-1.04H67.366V254.75H55.309Zm0,0" transform="translate(-50.976 -240.524)"/><path class="a" d="M266.731,300.4a.522.522,0,0,1-.367-.152.5.5,0,0,1-.064-.079.557.557,0,0,1-.048-.09.536.536,0,0,1-.03-.1.5.5,0,0,1,0-.2.542.542,0,0,1,.03-.1.557.557,0,0,1,.048-.09.511.511,0,0,1,.064-.078.5.5,0,0,1,.079-.065.525.525,0,0,1,.09-.048.542.542,0,0,1,.1-.03.52.52,0,0,1,.2,0,.574.574,0,0,1,.1.03.533.533,0,0,1,.089.048.491.491,0,0,1,.079.065.553.553,0,0,1,.065.078.566.566,0,0,1,.048.09.533.533,0,0,1,.029.1.522.522,0,0,1,0,.2.516.516,0,0,1-.029.1.547.547,0,0,1-.048.09.541.541,0,0,1-.065.079.494.494,0,0,1-.079.065.53.53,0,0,1-.089.048.555.555,0,0,1-.1.03A.511.511,0,0,1,266.731,300.4Zm0,0" transform="translate(-251.901 -283.806)"/><path class="a" d="M101.844,300.407H94.832a.52.52,0,1,1,0-1.039h7.011a.52.52,0,1,1,0,1.039Zm0,0" transform="translate(-88.937 -283.808)"/></g></svg>