<svg xmlns="http://www.w3.org/2000/svg" width="20.834" height="19.245" viewBox="0 0 20.834 19.245"><defs><style>.a{stroke:#000;stroke-width:0.5px;}</style></defs><g transform="translate(1.25 -20.783)"><g transform="translate(-1 21.036)"><path class="a" d="M19.4,26.722h-4.56l-3.206-6.181a.934.934,0,0,0-1.466-.254.934.934,0,0,0-1.467.254L5.321,27.056A.931.931,0,0,0,5.368,28H.935a.339.339,0,1,1,0-.678h3.4a.3.3,0,1,0,0-.6H.935a.934.934,0,0,0-.254,1.834l1.725,9.2a1.254,1.254,0,0,0,1.231,1.022H16.7a1.254,1.254,0,0,0,1.231-1.022l1.725-9.2a.934.934,0,0,0-.254-1.834ZM10.648,20.67a.339.339,0,0,1,.457.145l3.379,6.515a.339.339,0,0,1-.6.312L10.5,21.127A.339.339,0,0,1,10.648,20.67Zm3.966,7.921L14.332,31.5H10.465V28.591Zm-4.447-6.818,3.186,6.144q.021.041.046.079H6.935q.025-.038.046-.079l.311-.6h4.534a.3.3,0,1,0,0-.6H7.6ZM5.85,27.33l3.379-6.515a.339.339,0,1,1,.6.312L6.452,27.642a.339.339,0,0,1-.6-.312ZM1.293,28.591H5.121L5.4,31.5H1.838Zm.657,3.5H5.461L5.743,35H2.495Zm1.687,6.09a.658.658,0,0,1-.646-.536l-.385-2.052H5.8l.251,2.588Zm6.232,0H6.65L6.4,35.595h3.47Zm0-3.184H6.341l-.282-2.906h3.81Zm0-3.5H6L5.72,28.591H9.869Zm3.815,6.686H10.465V35.595h3.47ZM13.993,35H10.465V32.093h3.81Zm3.35,2.647a.658.658,0,0,1-.646.536H14.282l.251-2.588h3.194Zm.5-2.647H14.591l.282-2.906h3.511Zm.657-3.5H14.931l.282-2.906H19.04Zm.9-3.5H14.966a.932.932,0,0,0,.136-.678h4.3a.339.339,0,1,1,0,.678Z" transform="translate(0 -20.036)"/></g></g></svg>