<svg xmlns="http://www.w3.org/2000/svg" width="64.059" height="59.046" viewBox="0 0 64.059 59.046"><defs><style>.a{fill:#fff;}</style></defs><path class="a" d="M61.115,41.1H46.749L36.65,21.626a2.942,2.942,0,0,0-4.62-.8,2.944,2.944,0,0,0-4.62.8L16.765,42.152a2.934,2.934,0,0,0,.146,2.959H2.944a1.067,1.067,0,0,1,0-2.135h10.7a.938.938,0,1,0,0-1.877H2.944a2.944,2.944,0,0,0-.8,5.777L7.58,75.862a3.949,3.949,0,0,0,3.88,3.22H52.6a3.949,3.949,0,0,0,3.88-3.22l5.435-28.986a2.944,2.944,0,0,0-.8-5.777ZM33.544,22.034a1.068,1.068,0,0,1,1.439.456L45.629,43.016a1.068,1.068,0,0,1-1.9.983L33.088,23.473A1.069,1.069,0,0,1,33.544,22.034Zm12.5,24.953-.888,9.156H32.968V46.988ZM32.03,25.508,42.067,44.863q.066.128.144.248H21.848q.078-.12.144-.248l.979-1.887H37.253a.938.938,0,1,0,0-1.877H23.944Zm-13.6,17.507L29.076,22.49a1.067,1.067,0,0,1,1.9.983L20.326,44a1.067,1.067,0,0,1-1.9-.983ZM4.075,46.988H16.134l.888,9.156H5.792ZM6.144,58.02H17.2l.888,9.156H7.86Zm5.315,19.185a2.071,2.071,0,0,1-2.035-1.689L8.212,69.052H18.274l.791,8.153Zm19.632,0H20.95l-.791-8.153H31.091Zm0-10.03H19.977l-.888-9.156h12Zm0-11.032H18.907l-.888-9.156H31.091ZM43.11,77.205H32.968V69.052H43.9Zm.973-10.029H32.968V58.02h12Zm10.553,8.34A2.072,2.072,0,0,1,52.6,77.205H44.995l.791-8.153H55.847Zm1.564-8.34H45.968l.888-9.156h11.06Zm2.069-11.032H47.038l.888-9.156H59.984Zm2.847-11.032H47.149a2.936,2.936,0,0,0,.43-2.135H61.115a1.067,1.067,0,1,1,0,2.135Z" transform="translate(0 -20.036)"/></svg>