<svg xmlns="http://www.w3.org/2000/svg" width="19.124" height="18.284" viewBox="0 0 19.124 18.284"><g transform="translate(0 -370.474)"><g transform="translate(0 370.474)"><path d="M19.075,377.386a.983.983,0,0,0-.935-.679H12.3l-1.8-5.554a.983.983,0,0,0-1.87,0l-1.8,5.554H.983a.983.983,0,0,0-.578,1.778l4.724,3.432-1.8,5.554a.983.983,0,0,0,1.513,1.1l4.724-3.432,4.724,3.432a.983.983,0,0,0,1.513-1.1l-1.8-5.554,4.724-3.432A.982.982,0,0,0,19.075,377.386Zm-6.815,3.36a.983.983,0,0,0-.357,1.1l1.09,3.355-2.854-2.074a.992.992,0,0,0-1.156,0L6.129,385.2l1.09-3.355a.983.983,0,0,0-.357-1.1l-2.854-2.074H7.536a.983.983,0,0,0,.935-.679l1.09-3.355,1.09,3.355a.983.983,0,0,0,.935.679h3.528Z" transform="translate(0 -370.474)"/></g></g></svg>