<svg xmlns="http://www.w3.org/2000/svg" width="25.743" height="25.743" viewBox="0 0 25.743 25.743"><defs><style>.a{fill:none;}</style></defs><path class="a" d="M0,0H25.743V25.743H0Z"/><path d="M12.871,2A10.871,10.871,0,1,1,2,12.871,10.871,10.871,0,0,1,12.871,2Zm0,2.174a8.7,8.7,0,1,0,8.7,8.7A8.7,8.7,0,0,0,12.871,4.174Zm0,1.087a7.581,7.581,0,0,1,3.107.661l-1.7,1.7a5.437,5.437,0,0,0-5.252,9.095L7.49,18.253l-.17-.175A7.61,7.61,0,0,1,12.871,5.261Zm6.949,4.5a7.617,7.617,0,0,1-1.568,8.487l-1.537-1.537a5.442,5.442,0,0,0,1.407-5.252ZM17.483,6.721l1.538,1.537-4.048,4.051a2.17,2.17,0,1,1-1.539-1.539l4.051-4.048Z"/></svg>