<svg xmlns="http://www.w3.org/2000/svg" width="19.061" height="19.061" viewBox="0 0 19.061 19.061"><defs><style>.a{opacity:0.8;}.b{fill:none;stroke:#070606;stroke-linecap:round;stroke-linejoin:round;stroke-width:1.3px;}</style></defs><g class="a" transform="translate(-0.581 -0.581)"><path class="b" d="M14.761,16.913a7.883,7.883,0,0,1-4.65,1.613c-5.48,0-8.611-6.263-8.611-6.263a14.444,14.444,0,0,1,3.961-4.65M8.467,6.188A7.14,7.14,0,0,1,10.111,6c5.48,0,8.611,6.263,8.611,6.263a14.483,14.483,0,0,1-1.691,2.5m-5.261-.838A2.349,2.349,0,1,1,8.452,10.6" transform="translate(0 -2.151)"/><path class="b" d="M1.5,1.5,18.723,18.723"/></g></svg>