<svg xmlns="http://www.w3.org/2000/svg" width="146.059" height="255.267" viewBox="0 0 146.059 255.267"><defs><style>.a{fill:#e0e0e0;}.b{fill:#fff;}.c{fill:#ebebeb;}.d{fill:#4f9e55;}.e{fill:#e6ffe8;}.f{fill:#263238;}.g{fill:#fafafa;}.h,.j{fill:#fe8f0a;}.i{fill:#e8505b;}.j{font-size:12px;font-family:Poppins-Regular, Poppins;}</style></defs><g transform="translate(-125.856 -125.724)"><path class="a" d="M126.19,372.941a4.872,4.872,0,0,1,.551-.688l1.569-1.886c1.322-1.59,3.139-3.793,5.08-6.277s3.648-4.784,4.866-6.449c.585-.805,1.067-1.473,1.445-1.982a4.917,4.917,0,0,1,.558-.688,6.826,6.826,0,0,1-.434.709c-.317.482-.785,1.184-1.377,2.03-1.177,1.707-2.856,4.027-4.818,6.518s-3.786,4.674-5.155,6.229c-.688.778-1.246,1.377-1.638,1.824A5.587,5.587,0,0,1,126.19,372.941Z" transform="translate(-0.334 -26.647)"/><path class="b" d="M306.1,299.249l-4.88,2.946-.3-.5,4.433-2.677-.688-1.156.447-.269Z" transform="translate(-54.799 -8.761)"/><path class="b" d="M305.282,308.541l-.447.268-2.065-3.441.358-.213,3.214.833a1.913,1.913,0,0,0,1.6-.076c.564-.344.688-.95.22-1.7a1.92,1.92,0,0,0-1.377-1l.089-.544a2.574,2.574,0,0,1,1.748,1.308c.6.991.475,1.92-.344,2.416a2.361,2.361,0,0,1-2.01.124l-2.636-.688Z" transform="translate(-55.376 -10.345)"/><path class="b" d="M310.984,315.913l-.585-.977-1.287.778-.3-.5,1.287-.778-1.666-2.753.365-.22,4.818.633.337.557-4.66-.592,1.28,2.12,1.129-.688.3.489-1.129.688.585.977Z" transform="translate(-57.14 -13.085)"/><path class="a" d="M199,69.521c0,.1-6.5-.688-14.454-1.79s-14.454-2.065-14.454-2.154,6.5.688,14.454,1.8S199.012,69.424,199,69.521Z" transform="translate(-14.018 63.561)"/><path class="a" d="M187.823,78.214c0,.1-6.5-.688-14.489-1.79S158.88,74.36,158.88,74.277s6.5.688,14.489,1.79S187.871,78.084,187.823,78.214Z" transform="translate(-10.524 60.849)"/><path class="a" d="M236.8,65.8a17.717,17.717,0,0,1-3.565-.413,20.568,20.568,0,0,1-3.5-.736,15.541,15.541,0,0,1,3.558.385A18.218,18.218,0,0,1,236.8,65.8Z" transform="translate(-32.609 63.858)"/><path class="a" d="M233.142,74.593a17.717,17.717,0,0,1-3.565-.413,20.181,20.181,0,0,1-3.5-.736,15.5,15.5,0,0,1,3.552.385A18.218,18.218,0,0,1,233.142,74.593Z" transform="translate(-31.471 61.118)"/><path class="a" d="M225.222,82.952a18.432,18.432,0,0,1-3.565-.413,21.193,21.193,0,0,1-3.5-.736,15.091,15.091,0,0,1,3.558.385A17.9,17.9,0,0,1,225.222,82.952Z" transform="translate(-29.002 58.514)"/><path class="a" d="M212.027,94.84a18.7,18.7,0,0,1-3.565-.42A20.181,20.181,0,0,1,205,93.684a15.5,15.5,0,0,1,3.552.385,17.332,17.332,0,0,1,3.476.771Z" transform="translate(-24.9 54.809)"/><path class="a" d="M201.8,100.462a17.716,17.716,0,0,1-3.565-.413,20.18,20.18,0,0,1-3.5-.736,15.046,15.046,0,0,1,3.552.385,18.22,18.22,0,0,1,3.51.764Z" transform="translate(-21.702 53.056)"/><path class="a" d="M188.1,110.062a18.385,18.385,0,0,1-3.565-.413,20.986,20.986,0,0,1-3.5-.736,15.019,15.019,0,0,1,3.552.385,18.219,18.219,0,0,1,3.51.764Z" transform="translate(-17.432 50.063)"/><path class="a" d="M146.648,143.311c0,.1-3.958-.454-8.81-1.239s-8.762-1.5-8.748-1.6,3.958.454,8.81,1.239S146.662,143.214,146.648,143.311Z" transform="translate(-1.238 40.216)"/><path class="c" d="M335.743,159.55a4.33,4.33,0,0,0-.234-.613,2.705,2.705,0,0,0-1.17-1.232,2.561,2.561,0,0,0-2.416,0,2.512,2.512,0,0,0,.688,4.66,2.567,2.567,0,0,0,2.326-.688,2.712,2.712,0,0,0,.771-1.514c.055-.406,0-.647.055-.647a1.211,1.211,0,0,1,.083.688,2.65,2.65,0,0,1-.73,1.673,2.753,2.753,0,0,1-2.567.819,2.822,2.822,0,0,1-.757-5.272,2.753,2.753,0,0,1,2.691.055,2.657,2.657,0,0,1,1.17,1.377,1.231,1.231,0,0,1,.09.7Z" transform="translate(-63.948 35.031)"/><path class="d" d="M238.371,315.887l-86.608-.406A18.866,18.866,0,0,1,133,296.539l.922-217.129a18.866,18.866,0,0,1,18.949-18.79l86.608.4a18.873,18.873,0,0,1,18.79,18.949L257.347,297.1a18.866,18.866,0,0,1-18.976,18.79Z" transform="translate(-2.457 65.104)"/><path class="e" d="M240.891,69.892,224.1,69.85a4.178,4.178,0,0,0-4.1,4.247v3.042a4.178,4.178,0,0,1-4.1,4.247l-32.735-.151a4.171,4.171,0,0,1-4.054-4.281V73.87a4.171,4.171,0,0,0-4.054-4.281h-5.906l-14.7-.069a13.208,13.208,0,0,0-13.277,13.133l-.895,211.932a13.208,13.208,0,0,0,13.146,13.27l86.436.4a13.215,13.215,0,0,0,13.277-13.16l.895-211.932A13.215,13.215,0,0,0,240.891,69.892Z" transform="translate(-4.729 62.33)"/><path class="f" d="M157.106,101.285a.351.351,0,0,1-.255-.1l-1.315-1.377a.358.358,0,0,1-.1-.248.372.372,0,0,1,.11-.241l1.315-1.26a.346.346,0,0,1,.475.5l-1.067,1.019,1.081,1.129a.337.337,0,0,1,0,.482A.323.323,0,0,1,157.106,101.285Z" transform="translate(-9.452 53.464)"/><g transform="translate(0 -40)"><rect class="d" width="93.649" height="24.18" rx="5" transform="translate(147 364)"/><g transform="translate(-0.406 0.085)"><path class="g" d="M208.35,376.5h2.175a2.677,2.677,0,1,1,0,5.341H208.35Zm2.141,4.852a2.189,2.189,0,1,0,0-4.364h-1.576v4.364Z" transform="translate(-25.944 -3.355)"/><path class="g" d="M216.819,379.068a2.808,2.808,0,1,1,2.808,2.719,2.691,2.691,0,0,1-2.808-2.719Zm5.045,0a2.244,2.244,0,1,0-2.237,2.216,2.168,2.168,0,0,0,2.237-2.216Z" transform="translate(-28.584 -3.255)"/><path class="g" d="M231.274,376.5v5.341h-.468l-3.441-4.336v4.336H226.8V376.5h.468l3.441,4.336V376.5Z" transform="translate(-31.695 -3.358)"/><path class="g" d="M239.606,381.352v.489H235.82V376.5h3.669v.489h-3.1v1.92h2.753v.482h-2.753v1.982Z" transform="translate(-34.507 -3.358)"/></g></g><path class="h" d="M175.585,229.577h-2.9V228.2h7.44v1.377h-2.9v7.392h-1.631Z" transform="translate(-14.826 12.868)"/><path class="h" d="M191.644,232.9v3.834h-1.569V233.1c0-1.191-.585-1.762-1.59-1.762a1.781,1.781,0,0,0-1.865,2.017v3.38H185.05V227.44h1.569v3.38a2.987,2.987,0,0,1,2.23-.853A2.615,2.615,0,0,1,191.644,232.9Z" transform="translate(-18.682 13.105)"/><path class="h" d="M202.908,233.964v3.923h-1.48v-.812a2.368,2.368,0,0,1-2.106.9c-1.528,0-2.492-.84-2.492-2s.75-2,2.753-2h1.728v-.1c0-.915-.551-1.452-1.666-1.452a3.324,3.324,0,0,0-2.065.688l-.613-1.143a4.708,4.708,0,0,1,2.829-.826C201.765,231.121,202.908,232.037,202.908,233.964Zm-1.569,1.831v-.778H199.7c-1.06,0-1.377.406-1.377.895s.475.922,1.28.922A1.7,1.7,0,0,0,201.338,235.795Z" transform="translate(-22.354 11.95)"/><path class="h" d="M215.157,234.04v3.834h-1.562V234.24c0-1.191-.592-1.762-1.59-1.762a1.786,1.786,0,0,0-1.872,2.017v3.38H208.57v-6.69h1.494v.867a2.9,2.9,0,0,1,2.3-.943A2.615,2.615,0,0,1,215.157,234.04Z" transform="translate(-26.013 11.963)"/><path class="h" d="M223.753,233.862l-1.163,1.108v1.762H221V227.44h1.562v5.61l3.249-3.008h1.879L224.9,232.85l3.056,3.882h-1.907Z" transform="translate(-29.887 13.105)"/><path class="h" d="M243.339,231.22l-3.139,7.234a2.592,2.592,0,0,1-2.581,1.975,2.753,2.753,0,0,1-1.79-.613l.626-1.156a1.707,1.707,0,0,0,1.156.468c.551,0,.874-.262,1.177-.929l.11-.262-2.918-6.718h1.631l2.1,4.949,2.12-4.949Z" transform="translate(-34.51 11.927)"/><path class="h" d="M247.079,234.409a3.565,3.565,0,1,1,3.559,3.441,3.366,3.366,0,0,1-3.559-3.441Zm5.548,0a1.989,1.989,0,1,0-1.989,2.065,1.948,1.948,0,0,0,1.989-2.065Z" transform="translate(-38.016 12.083)"/><path class="h" d="M266.045,231.22v6.69h-1.494v-.853A2.705,2.705,0,0,1,262.4,238a2.647,2.647,0,0,1-2.877-2.96v-3.82h1.562v3.607c0,1.218.578,1.8,1.569,1.8a1.818,1.818,0,0,0,1.831-2.017V231.22Z" transform="translate(-41.895 11.927)"/><path class="h" d="M271.59,236.081a.97.97,0,0,1,1.019-.964.971.971,0,1,1,0,1.941.984.984,0,0,1-1.019-.977Zm.089-7.881h1.858l-.317,5.864h-1.239Z" transform="translate(-45.657 12.868)"/><circle class="h" cx="18.019" cy="18.019" r="18.019" transform="translate(176.142 191.897)"/><path class="b" d="M230.838,171.9c.234.186-3.132,4.715-7.516,10.111-.936,1.136-1.831,2.216-2.65,3.221l-.365.441-.392-.406c-3.441-3.524-5.754-6.14-5.589-6.312s2.753,2.175,6.3,5.6l-.75.041,2.609-3.262C226.874,175.931,230.618,171.711,230.838,171.9Z" transform="translate(-27.805 30.42)"/><path class="h" d="M261.264,171.622c-.537-1.893-2.994-1.714-2.994-1.714l.069,1.322c1.418-.248,2.306,1.418,2.306,1.418Z" transform="translate(-41.505 31.04)"/><path class="h" d="M261.264,171.622c-.537-1.893-2.994-1.714-2.994-1.714l.069,1.322c1.418-.248,2.306,1.418,2.306,1.418Z" transform="translate(-105.505 124.04)"/><path class="a" d="M185.434,177.385c-.537-1.893-2.994-1.707-2.994-1.707l.069,1.315c1.418-.241,2.306,1.425,2.306,1.425Z" transform="translate(-17.868 29.241)"/><path class="a" d="M228.2,138.574c2.85.867,4.625-2.423,4.625-2.423l-1.735-.991c-.847,2.017-3.7,1.783-3.7,1.783Z" transform="translate(-31.879 41.87)"/><path class="a" d="M228.2,138.574c2.85.867,4.625-2.423,4.625-2.423l-1.735-.991c-.847,2.017-3.7,1.783-3.7,1.783Z" transform="translate(-50.879 165.87)"/><path class="h" d="M204.877,145.27c-1.328.138-1.487,1.81-1.487,1.81l.888.1c0-.977,1.211-1.377,1.211-1.377Z" transform="translate(-24.398 38.718)"/><path class="h" d="M204.877,145.27c-1.328.138-1.487,1.81-1.487,1.81l.888.1c0-.977,1.211-1.377,1.211-1.377Z" transform="translate(15.602 142.718)"/><path class="a" d="M284.313,162.146c.193-1.321-1.377-1.886-1.377-1.886l-.317.833c.95.241,1.032,1.521,1.032,1.521Z" transform="translate(-49.095 34.046)"/><path class="a" d="M284.313,162.146c.193-1.321-1.377-1.886-1.377-1.886l-.317.833c.95.241,1.032,1.521,1.032,1.521Z" transform="translate(-66.095 144.046)"/><path class="h" d="M216.04,119.146c.193-1.322-1.377-1.886-1.377-1.886l-.323.833c.95.241,1.032,1.521,1.032,1.521Z" transform="translate(-27.812 47.449)"/><path class="h" d="M169.123,150.6c-.241,2.065,2.505,2.567,2.505,2.567l.5-1.377c-1.645-.145-1.886-2.065-1.886-2.065Z" transform="translate(-13.712 37.328)"/><path class="h" d="M169.123,150.6c-.241,2.065,2.505,2.567,2.505,2.567l.5-1.377c-1.645-.145-1.886-2.065-1.886-2.065Z" transform="translate(26.288 141.328)"/><path class="h" d="M257.653,139.246c1.335.076,1.762-1.549,1.762-1.549l-.86-.248c-.158.97-1.425,1.17-1.425,1.17Z" transform="translate(-41.15 41.156)"/><path class="a" d="M267.473,147.95a3.056,3.056,0,0,1-1.1.1,3.09,3.09,0,0,1-1.1-.1A5.562,5.562,0,0,1,267.473,147.95Z" transform="translate(-43.687 37.917)"/><path class="a" d="M270.12,143.6a5.733,5.733,0,0,1,0,2.237,5.735,5.735,0,0,1,0-2.237Z" transform="translate(-45.164 39.239)"/><path class="a" d="M272,147.8a5.925,5.925,0,0,1,2.2,0A5.563,5.563,0,0,1,272,147.8Z" transform="translate(-45.785 37.961)"/><path class="a" d="M270.23,151.19a5.7,5.7,0,0,1,0-2.23,5.7,5.7,0,0,1,0,2.23Z" transform="translate(-45.198 37.568)"/><path class="a" d="M272.51,149.91a1.29,1.29,0,0,1-.475-.4c-.213-.255-.358-.5-.31-.544s.255.145.475.406S272.552,149.869,272.51,149.91Z" transform="translate(-45.696 37.567)"/><path class="a" d="M272.349,145.4c.041.041-.11.262-.33.489s-.44.372-.482.33.1-.255.33-.482S272.308,145.356,272.349,145.4Z" transform="translate(-45.638 38.681)"/><path class="a" d="M268.7,146.362c-.034.048-.241-.062-.454-.241s-.358-.358-.317-.406.241.062.454.241S268.739,146.314,268.7,146.362Z" transform="translate(-44.513 38.583)"/><path class="a" d="M268.569,148.828c.041.041-.09.255-.289.482s-.406.372-.454.33.09-.255.3-.475S268.521,148.793,268.569,148.828Z" transform="translate(-44.48 37.611)"/><path class="i" d="M180.363,138.948a5.562,5.562,0,0,1-2.2,0,3.057,3.057,0,0,1,1.1-.1A3.09,3.09,0,0,1,180.363,138.948Z" transform="translate(-16.534 40.725)"/><path class="i" d="M183.01,134.69a6.112,6.112,0,0,1,0,2.237,5.734,5.734,0,0,1,0-2.237Z" transform="translate(-18.011 42.016)"/><path class="i" d="M184.86,138.89a5.562,5.562,0,0,1,2.2,0,3.055,3.055,0,0,1-1.1.1,3.091,3.091,0,0,1-1.1-.1Z" transform="translate(-18.622 40.741)"/><path class="i" d="M183.12,142.277a5.732,5.732,0,0,1,0-2.237,6.113,6.113,0,0,1,0,2.237Z" transform="translate(-18.046 40.348)"/><path class="i" d="M185.391,140.993c-.048.041-.255-.138-.475-.4s-.351-.5-.31-.537.262.145.475.4S185.439,140.959,185.391,140.993Z" transform="translate(-18.541 40.345)"/><path class="i" d="M185.229,136.487c.041.041-.1.255-.33.482s-.44.379-.482.337.1-.262.33-.489S185.188,136.446,185.229,136.487Z" transform="translate(-18.482 41.458)"/><path class="i" d="M181.579,137.445c-.034.048-.241-.055-.454-.234s-.351-.358-.317-.406.241.062.454.241S181.627,137.4,181.579,137.445Z" transform="translate(-17.358 41.36)"/><path class="i" d="M181.453,139.917c.041.041-.083.255-.289.475s-.406.372-.447.337.083-.255.289-.482S181.412,139.876,181.453,139.917Z" transform="translate(-17.328 40.389)"/><path d="M287.6,97.348a66.064,66.064,0,0,1-9.719,0,66.067,66.067,0,0,1,9.719,0Z" transform="translate(-47.617 53.719)"/><path d="M287.6,100.288a66.059,66.059,0,0,1-9.719,0,66.067,66.067,0,0,1,9.719,0Z" transform="translate(-47.617 52.803)"/><path d="M287.6,103.229a66.062,66.062,0,0,1-9.719,0,66.064,66.064,0,0,1,9.719,0Z" transform="translate(-47.617 51.885)"/><text class="j" transform="translate(193 274)"><tspan x="-24.504" y="0">Verified!</tspan></text></g></svg>