<svg xmlns="http://www.w3.org/2000/svg" width="53.938" height="53.938" viewBox="0 0 53.938 53.938"><defs><style>.a{opacity:0.1;}.b{fill:none;}</style></defs><g class="a"><path class="b" d="M0,0H53.938V53.938H0Z"/><path d="M42.454,7.495H6.495V38.959L27.378,18.071a2.247,2.247,0,0,1,3.178,0l11.9,11.92ZM2,5.232A2.247,2.247,0,0,1,4.229,3h40.49a2.231,2.231,0,0,1,2.229,2.232v35.99a2.247,2.247,0,0,1-2.229,2.232H4.229A2.232,2.232,0,0,1,2,41.222ZM15.485,20.979a4.495,4.495,0,1,1,4.495-4.495A4.495,4.495,0,0,1,15.485,20.979Z" transform="translate(2.495 3.742)"/></g></svg>