<svg xmlns="http://www.w3.org/2000/svg" width="312.592" height="230.866" viewBox="0 0 312.592 230.866"><defs><style>.a{fill:rgba(79,158,85,0.25);}.b{fill:#4f9e55;}.c{fill:#f2f2f2;}.d{fill:#008264;}.e{fill:#007344;}.f{fill:#fe8f0a;}.g{fill:#e6a800;}.h{fill:#fff;}.i{fill:#542b2b;}.j{fill:#ecc93e;}.k{fill:#fe6120;}.l{fill:#edb49b;}.m{fill:#f2c9b7;}.n{fill:#009779;}.o{fill:#42b7a1;}.p{fill:#f15a24;}</style></defs><g transform="translate(0.01 -0.04)"><g transform="translate(-0.01 0.04)"><path class="a" d="M306.942,164.364a29.655,29.655,0,0,0-7.653-12.587c-6.18-5.935-15.06-9.283-19.233-16.766-5.2-9.34-.994-20.8.629-31.361,2.379-15.218-2.731-33.318-16.854-39.46-12.31-5.343-27.691-.138-39.309-6.816C210.96,49.608,209.7,30.381,199.588,18.455c-8.049-9.478-21.045-13.33-33.066-14.192C150.586,3.124,132.965,7.247,123.342,20c-8.937,11.863-10.321,29.976-23.349,37.132C90.905,62.1,79.64,59.508,69.476,61.534,48.89,65.612,39.3,85.733,44.094,104.89c2.058,8.226,4.777,16.942,2.045,24.966-3.9,11.454-17.068,16.716-24.375,26.357-8.811,11.643-7.653,28.9.39,41.084S43.9,217.047,58.028,220.634s28.95,3.638,43.545,3.663l119.205.22c15.419,0,31.052,0,45.943-3.971S295.928,208,303.537,194.579A38.982,38.982,0,0,0,306.942,164.364Z" transform="translate(-5.786 -1.538)"/><path class="b" d="M39.153,159.132a5.312,5.312,0,1,1-5.293-5.312A5.312,5.312,0,0,1,39.153,159.132Z" transform="translate(-10.568 -57.039)"/><path class="b" d="M46.035,138.417a2.517,2.517,0,1,1-2.517-2.517A2.517,2.517,0,0,1,46.035,138.417Z" transform="translate(-15.19 -50.397)"/><path class="b" d="M53.555,175.827a2.517,2.517,0,1,1-2.517-2.517A2.517,2.517,0,0,1,53.555,175.827Z" transform="translate(-17.978 -64.263)"/><path class="b" d="M448.76,159.132a5.305,5.305,0,1,0,1.552-3.756A5.312,5.312,0,0,0,448.76,159.132Z" transform="translate(-166.327 -57.039)"/><path class="b" d="M445.2,138.417a2.517,2.517,0,1,0,2.517-2.517A2.517,2.517,0,0,0,445.2,138.417Z" transform="translate(-165.007 -50.397)"/><path class="b" d="M442.87,171.827a2.517,2.517,0,1,0,2.517-2.517A2.517,2.517,0,0,0,442.87,171.827Z" transform="translate(-164.144 -62.78)"/><path class="b" d="M318.646,13.913a5.305,5.305,0,1,0-.359-7.5,5.305,5.305,0,0,0,.359,7.5Z" transform="translate(-117.456 -1.76)"/><path class="b" d="M300.245,4.42a2.517,2.517,0,1,0-.17-3.556,2.517,2.517,0,0,0,.17,3.556Z" transform="translate(-110.974 -0.04)"/><path class="b" d="M329.515,41.17a2.517,2.517,0,1,0-.17-3.556A2.517,2.517,0,0,0,329.515,41.17Z" transform="translate(-121.823 -13.661)"/><path class="b" d="M169.474,13.913a5.305,5.305,0,1,1,.359-7.5,5.305,5.305,0,0,1-.359,7.5Z" transform="translate(-59.521 -1.76)"/><path class="b" d="M142.1,24.062a2.517,2.517,0,1,1,.12-2.568A2.517,2.517,0,0,1,142.1,24.062Z" transform="translate(-50.95 -7.497)"/><path class="b" d="M161.872,41.168a2.517,2.517,0,1,1,.176-3.556A2.517,2.517,0,0,1,161.872,41.168Z" transform="translate(-58.432 -13.66)"/><path class="c" d="M310.386,358.245c0,2.184-64.886,3.959-144.933,3.959S20.52,360.429,20.52,358.245s64.892-3.965,144.933-3.965S310.386,356.055,310.386,358.245Z" transform="translate(-7.599 -131.339)"/><path class="b" d="M87.877,242.524l-2.442-2.668L75.913,245.7s3.392-5.5,6-9.629c-1.567-1.661-3.241-3.436-5-5.268l-8.333,7.389s2.379-6.514,4.324-11.5C66.422,220.1,59.059,212.982,51.614,206.7l-6.048,10.976L47.334,203.2l-1.668-1.315C44.628,207.2,43.243,214.14,43.2,214.36l.183-14.211h0q-1.133-.837-2.247-1.643c-.352,5.551-.856,13.336-.9,12.965s-.831-8.641-1.385-14.557a68.347,68.347,0,0,0-10.793-6.149c.692,2.864,1.466,7.055.724,9.245a.629.629,0,0,1-1.171,0l-3.55-10.7c-.629-.189-1.3-.352-1.92-.478a7.407,7.407,0,0,0-4.632.51,7.489,7.489,0,0,0-3.952,9.472c1.888,5.035,6.023,12.883,14.708,24.84,4.594.434,11.7,1.334,11.7,1.334l-7.332,4.519c2.889,3.776,6.174,7.892,9.919,12.392l.787.994,14.374-4.657-9.126,11.215,11.75,14.8a10.561,10.561,0,0,0,11.895,3.373,36.19,36.19,0,0,0,8.861-4.9c-.629-.8-1.259-1.611-1.964-2.436l-.334-.415-1.466-1.762-.088-.1-.73-.881-.063-.069c-.252-.308-.51-.629-.768-.919l-1.259-1.479-1.02-1.189-.094-.113-.818-.944h0l-.944-1.089-.629-.73c-.352-.409-.711-.812-1.07-1.221-.189-.214-.378-.422-.56-.629l-.812-.913c-.447-.5-.894-1.007-1.347-1.5-.724-.812-1.448-1.617-2.184-2.423l-.094-.107L64.113,243c-.283-.308-.56-.629-.843-.919L61.532,240.2l-1.259-1.4-1.4-1.492-1.4-1.5-1.435-1.523h0l-1.68-1.775q-1.171-1.259-2.341-2.454h0c-.113-.126-.227-.245-.346-.365l-1.221-1.259h0c-.145-.151-.289-.3-.428-.447l-1.259-1.29h0l-1.013-1.045-.459-.472-1.057-1.089-1.183-1.227-1.1-1.12-1.089-1.108L41.261,219h0l-1.171-1.171c-1.259-1.259-2.454-2.467-3.631-3.644l-1.315-1.309-1.932-1.888-1.586-1.567-1.127-1.1c-.5-.5-1.007-.988-1.492-1.466l-1.02-.982-.453-.447-.516-.5-.088-.082c-.277-.277-.554-.541-.824-.806-.717-.7-1.4-1.366-2.045-1.989l-1.076-1.038-.629-.6-.806-.831-.277-.264-1.492-1.422-.088-.088-.107-.1-.145-.138a17.23,17.23,0,0,1-1.259-1.649,1.8,1.8,0,0,1,.409.12l.12.05a5.473,5.473,0,0,1,.686.371l.1.057.1.063.7.472.138.1.157.113.233.176.334.258c.239.183.485.384.749.6.629.5,1.259,1.07,2,1.706l.39.346.485.434h0l.415.371.548.51c1.523,1.416,1.888,1.781,2.3,2.152.541.516,1.1,1.045,1.661,1.6l1.057,1.032.466.459L33,208.658h0c.7.7,1.416,1.416,2.146,2.152l1.032,1.051.629.629.629.629h0l.39.4h0q1.108,1.189,2.266,2.417l1.139,1.177.05.057,1.183,1.227.629.629,1.221,1.259c1.02,1.07,2.058,2.159,3.1,3.26l.938.988c.315.34.629.68.957,1.013l.982,1.089.214.227v.031l.919.894c1.215,1.259,2.429,2.593,3.644,3.9l.856.919.359.39.957,1.026.113.126,1.3,1.4,2.933,3.147h0c.3.334.629.629.906.982h0l1.259,1.385,2.222,2.417.3.334h0q.415.466.831.906c.3.334.629.661.9.988s.541.6.818.894h0l.132.151c.22.233.434.472.629.711h0l.214.239h0c.51.554,1.013,1.114,1.51,1.661l.843.925.78.856.736.806h0l.5.548,2.14,2.36.8.881.189.214h0l.78.862.85.938.661.73.2.227.68.755,1.12,1.259c.164.189.334.371.5.554l.245.271a57.634,57.634,0,0,0,5.173-4.632A10.516,10.516,0,0,0,87.877,242.524Z" transform="translate(-4.841 -69.956)"/><path class="d" d="M66.491,264.141c2.4,0,10.416-1.768,12.782-2.675l-.063-.069c-.252-.308-.51-.629-.768-.919L77.184,259c-.34-.4-.673-.793-1.02-1.19l-.094-.113h0a40.8,40.8,0,0,1-10.2,1.548c-.736,0-.629-1.108.076-1.133a39.962,39.962,0,0,0,9.308-1.347h0l-.944-1.089-.629-.73c-.352-.409-.711-.812-1.07-1.221-.189-.214-.378-.422-.56-.629a8.564,8.564,0,0,1-2.31.5c-1.07.132-2.133.277-3.2.378a40.034,40.034,0,0,1-6.5.145.568.568,0,0,1,.082-1.133,39.282,39.282,0,0,0,6.205-.126c.938-.094,1.888-.214,2.794-.334a12.121,12.121,0,0,0,2.121-.346c-.447-.5-.894-1.007-1.347-1.5q-1.076-1.215-2.184-2.423l-.094-.107-.743-.824c-.283-.308-.56-.629-.843-.919l-1.737-1.888-1.259-1.4-1.4-1.492-1.4-1.5a.484.484,0,0,1-.132,0c-3.977-.7-7.848,1.259-11.819,1.259-.736,0-.629-1.133.076-1.133,3.512,0,6.923-1.517,10.4-1.391l.038-.239h0l-1.68-1.775-1.259-1.347h-.126a6.564,6.564,0,0,0-2.272.415c-.749.214-1.5.384-2.259.585-1.819.485-3.619,1.038-5.4,1.649-.686.233-1.189-.787-.5-1.026,1.888-.629,3.776-1.259,5.664-1.743a27.529,27.529,0,0,1,3.814-.988h0c-.113-.126-.227-.245-.346-.365l-1.221-1.259h0c-.145-.151-.29-.3-.428-.447l-1.259-1.29h0c-4.154.107-7.6,3.147-11.712,3.65-.724.082-.944-1.032-.214-1.12,3.858-.441,7.105-3.052,10.913-3.575l-.459-.472-1.057-1.089-1.189-1.246-1.1-1.12-1.089-1.108-1.611-1.636h0a21.054,21.054,0,0,1-5.96-1.12c-2.423-.585-4.808-1.259-7.225-1.888-.711-.176-.34-1.259.365-1.076,2.329.579,4.619,1.259,6.961,1.806a39.558,39.558,0,0,0,4.689,1.108c-1.259-1.259-2.454-2.467-3.631-3.644-3.147-.3-6.205-1.259-9.34-1.712-.717-.1-.629-1.259.082-1.133,2.668.4,5.28,1.139,7.942,1.536l-1.932-1.888-1.586-1.567-1.127-1.1c-2.971-.629-5.973-1.145-8.93-1.857-.711-.17-.34-1.259.365-1.076,2.341.56,4.714.994,7.074,1.466l-1.02-.982-.453-.447-.516-.5-.088-.082c-.277-.277-.554-.541-.824-.806-.717-.7-1.4-1.366-2.045-1.989a13.676,13.676,0,0,1-2.593.094,12,12,0,0,1-2.517-.415c-.7-.208-.334-1.259.365-1.082a11.221,11.221,0,0,0,3.688.365l-.629-.6c-.29-.271-.56-.535-.818-.787l-.277-.264-1.492-1.422-.088-.088-.107-.1-.227-.214-.1-.094c-.132-.132-.264-.252-.384-.365l-.1-.1-.239-.227-.1-.094-.076-.069-.094-.094-.5-.472H20.6a.176.176,0,0,1,.082,0h.145a1.592,1.592,0,0,1,.516.132l.12.05a5.473,5.473,0,0,1,.686.371l.1.057.1.063.7.472.138.1.157.113.233.176.334.258c.239.183.491.384.749.6.629.5,1.259,1.07,2,1.706.132.113.264.227.39.346l.485.434h0a.566.566,0,0,1,.415.371l.548.51c1.523,1.416,1.888,1.781,2.3,2.152.541.516,1.1,1.045,1.661,1.6l1.057,1.032.466.459a8.736,8.736,0,0,1,.069-1.259c.044-.428.1-.843.138-1.259.214-2.31.724-4.663.4-6.986-.1-.724,1.013-.938,1.12-.214a22.207,22.207,0,0,1-.264,6.054c-.094.806-.17,1.611-.245,2.417s-.239,1.97.4,2.643a.5.5,0,0,1,.151.352h0c.7.7,1.416,1.416,2.146,2.152.359-3.707.3-7.433.283-11.152,0-.736,1.127-.629,1.133.076a99.992,99.992,0,0,1-.384,12.128l.629.629.629.629h0a.5.5,0,0,1,.39.4h0q1.12,1.083,2.278,2.31l1.139,1.177.05.057,1.183,1.227.629.629,1.221,1.259c1.02,1.07,2.058,2.159,3.1,3.26a33.4,33.4,0,0,1,3.008-8.389c.346-.629,1.259,0,.95.629a33.286,33.286,0,0,0-3.021,8.748c.315.34.629.68.957,1.013l.982,1.089.214.227c.969-2.568,4.405-9.768,4.638-10.617.189-.711,1.259-.346,1.076.359-.233.875-4.324,9.629-4.512,10.114-.057.151-.208.51-.29.7a.547.547,0,0,1,0,.4c1.215,1.259,2.429,2.593,3.644,3.9l.856.919.359.39c.85-4.217,2.442-8.257,3.147-12.505.126-.711,1.259-.629,1.133.082-.774,4.563-2.555,8.893-3.342,13.449l.113.126,1.3,1.4,2.933,3.147h0c.875-3.015,3.38-10.334,4.405-12.065.371-.629,1.315,0,.944.629-1.1,1.888-3.826,10.07-4.443,12.417h0l1.259,1.385,2.222,2.417,1.158,1.259.9.988a88.929,88.929,0,0,1,5.368-8.66c.453-.573,1.4.05.95.629a82.918,82.918,0,0,0-5.488,8.893v.031h0l.132.151.629.711h0a.629.629,0,0,1,.214.239h0c.51.554,1.013,1.114,1.51,1.662.806-1.945,4.966-9.937,5.073-10.762.088-.73,1.221-.629,1.133.076s-4.405,9.371-5.356,11.612l.774.856.736.806h0l.5.548,2.14,2.36c2.064-3.361,4.368-6.577,6.407-9.95.378-.629,1.322,0,.95.629-2.089,3.468-4.456,6.753-6.558,10.208l.189.214h0c1.706-1.888,6.923-7.206,8.351-8.484a.569.569,0,0,1,.749.856c-1.435,1.259-6.854,6.753-8.333,8.459v.031l.85.938.661.73.2.227.5.554.176.2,1.12,1.259c.164.189.334.371.5.554l.245.271c-.466.371-.925.724-1.378,1.051-.629-.8-1.259-1.611-1.964-2.436l-.334-.415-1.322-1.693-.088-.1h0c-2.838,1.4-10.982,2.908-13.588,2.926C65.686,265.28,65.768,264.141,66.491,264.141Z" transform="translate(-7.603 -74.278)"/><path class="e" d="M88.334,266.362c-5.268-5.91-10.516-11.593-15.734-16.992l.881.919c1.215,1.259,2.429,2.593,3.644,3.9l.856.919.359.39.957,1.026.113.126,1.3,1.4,2.933,3.147h0c.3.334.629.629.906.982h0l1.259,1.385,2.222,2.417Z" transform="translate(-26.903 -92.454)"/><path class="f" d="M54.536,290.955a5.035,5.035,0,0,1-.931-9.491c4.267-1.888,12.285-5.381,17.534-7.81a21.852,21.852,0,0,0-10.7-16.533,48.555,48.555,0,0,0-5.664-3.008c-2.926,8.238-8.282,12-11.5,13.594a4.405,4.405,0,0,1-2.87.352,4.474,4.474,0,0,1-1.718-.78,4.405,4.405,0,0,1-1.127-5.866A36.452,36.452,0,0,0,42.289,249.9a106.489,106.489,0,0,0-15.935-2.517,48.981,48.981,0,0,1-.629,11.076,4.169,4.169,0,0,1-8.182-.239,61.142,61.142,0,0,0-2.914-11.379c-5.343-.038-9.679.208-12.2.4-1.561.113-2.436.214-2.436.214l.39,17.559c3.4,1.51,8.471,3.776,12.851,5.746a4.267,4.267,0,0,1-1.108,8.112,44.892,44.892,0,0,1-11.429.208l.258,11.958c5.255,3.619,16.137,5.916,22.449,4.066,4.091-1.19,3.883,6.224-2.341,8.351-2.977,1.032-13.135,3.776-19.51.919a22.027,22.027,0,0,0,12.77,16.288c15.828,6.841,29.73-8.666,34.809-15.35a85.156,85.156,0,0,0-4.9-10.007,141.037,141.037,0,0,0-9.151-14.009c-.629-.856,9.667,9.144,15.992,21.278l.094-.139c6.6-.7,12.587-5.595,16.275-12.1l-11.511.73A5.1,5.1,0,0,1,54.536,290.955Z" transform="translate(0.01 -91.514)"/><path class="g" d="M43.762,324.034a40.279,40.279,0,0,0,10.7-8.874,37.765,37.765,0,0,0,2.31-3.147c-.629-1.359-1.378-2.8-2.215-4.33a37.043,37.043,0,0,1-2.819,3.959,36.891,36.891,0,0,1-4.638,4.5c-3.776,3.147-8.326,4.89-13.015,6.168a33.657,33.657,0,0,1-7.854,1.391c2.209-.856,8.811-2.857,13.569-5.45a40.593,40.593,0,0,0,10.7-8.874c1.02-1.221,1.888-2.587,2.819-3.915h0q-.667-1.177-1.429-2.417c-.434.4-.887.793-1.359,1.177a23.087,23.087,0,0,1-8.9,4.141,21.877,21.877,0,0,1-5.362.919,70.319,70.319,0,0,0,9.277-3.657,26.7,26.7,0,0,0,5.444-4.034c-.132-.214-.264-.428-.4-.629a22.723,22.723,0,0,1-2.775.7,25.622,25.622,0,0,1-4.405.327,22.932,22.932,0,0,1-9.5-2.473,22.2,22.2,0,0,1-4.72-2.706,73.705,73.705,0,0,0,9.478,3.084,27.693,27.693,0,0,0,9.478.038c.51-.094,1.026-.214,1.542-.352l-3.2-4.022h0l-.485.044a16.522,16.522,0,0,1-1.926.22,16.734,16.734,0,0,1-2.964-.17,15.734,15.734,0,0,1-6.142-2.517,15.557,15.557,0,0,1-2.92-2.234,50.68,50.68,0,0,0,6.073,2.908,18.643,18.643,0,0,0,6.344.869,7.694,7.694,0,0,0,1.064-.1l.233-.031-5.526-6.923-.164.113-.5.088a15.161,15.161,0,0,1-1.926.227,17.355,17.355,0,0,1-2.964-.176,15.608,15.608,0,0,1-6.142-2.517,14.811,14.811,0,0,1-2.914-2.234,48.173,48.173,0,0,0,6.067,2.908,18.483,18.483,0,0,0,6.344.868,8.777,8.777,0,0,0,1.064-.094l.447-.063-6.91-8.6s4.519,4.821,9.44,10.391a.214.214,0,0,1,0-.063v-.837a14.545,14.545,0,0,0-.913-4.89,39.155,39.155,0,0,0-2.517-4.613,11.669,11.669,0,0,1,1.844,2.184,12.109,12.109,0,0,1,2.178,4.676,12.953,12.953,0,0,1,.245,2.3,11.561,11.561,0,0,1-.1,1.5,1.329,1.329,0,0,1-.05.384.668.668,0,0,1-.076.126c.541.629,1.089,1.259,1.63,1.888l.17-.346c.164-.34.315-.68.447-1.026a19.434,19.434,0,0,0,1.259-6.577,50.94,50.94,0,0,0-.881-6.986,15.59,15.59,0,0,1,1.315,3.612,16.262,16.262,0,0,1,.447,6.923,18.207,18.207,0,0,1-.806,3,16.324,16.324,0,0,1-.9,1.831c-.12.227-.208.39-.239.441,1.529,1.781,3.015,3.55,4.324,5.192l.151-.3c.164-.34.315-.68.447-1.026a19.277,19.277,0,0,0,1.259-6.577,51.135,51.135,0,0,0-.906-6.973,15.885,15.885,0,0,1,1.259,3.638,16.363,16.363,0,0,1,.447,6.923,17.623,17.623,0,0,1-.812,3,16.365,16.365,0,0,1-.856,1.831c-.12.227-.208.384-.239.441l.245.308c.277-.176.548-.365.824-.56a26.7,26.7,0,0,0,4.984-4.588,74.014,74.014,0,0,0,5.337-8.421,22.254,22.254,0,0,1-1.888,5.091,23.184,23.184,0,0,1-5.746,7.961q-.7.585-1.416,1.114c-.34.245-.686.485-1.032.717.094.126.2.245.3.371l.239.308c.34.428.686.875,1.032,1.328,1.29,1.693,2.618,3.549,3.9,5.526l.522.057a17.684,17.684,0,0,0,5.532-.283,52.172,52.172,0,0,0,7.772-2.983,17.531,17.531,0,0,1-3.883,2.662,16.186,16.186,0,0,1-7.785,2.366,9.383,9.383,0,0,1-1.032-.038c.862,1.4,1.7,2.845,2.473,4.33h0c-.227.359-.9,1.359-1.945,2.731-.227-.566-.478-1.158-.743-1.762a33.159,33.159,0,0,1-2.19,2.983,37.325,37.325,0,0,1-4.67,4.487c-3.776,3.147-8.326,4.884-13.015,6.161a32.417,32.417,0,0,1-7.854,1.4C32.4,328.628,38.979,326.633,43.762,324.034Z" transform="translate(-9.493 -102.421)"/><path class="b" d="M363.177,242.524c.755-.824,1.567-1.712,2.436-2.65l9.522,5.847s-3.392-5.5-6-9.629c1.567-1.662,3.241-3.436,5-5.268l8.333,7.389s-2.379-6.514-4.324-11.5c6.482-6.589,13.846-13.707,21.291-19.988l6.036,10.957L403.7,203.2l1.668-1.315c1.045,5.318,2.423,12.253,2.467,12.474l-.183-14.211h0q1.12-.837,2.24-1.643c.352,5.551.856,13.336.9,12.965s.831-8.641,1.385-14.557a68.35,68.35,0,0,1,10.812-6.149c-.692,2.864-1.466,7.055-.724,9.245a.629.629,0,0,0,1.171,0l3.55-10.7c.629-.189,1.3-.352,1.919-.478a7.407,7.407,0,0,1,4.632.51,7.489,7.489,0,0,1,3.952,9.472c-1.888,5.035-6.023,12.883-14.708,24.84-4.594.434-11.7,1.334-11.7,1.334l7.332,4.519c-2.889,3.776-6.174,7.892-9.919,12.392l-.787.994-14.343-4.645,9.126,11.215-11.75,14.783a10.554,10.554,0,0,1-11.895,3.373,36.19,36.19,0,0,1-8.861-4.9c.629-.8,1.29-1.611,1.964-2.436l.334-.415,1.435-1.743.088-.1.73-.881.063-.069c.252-.308.51-.629.768-.919l1.259-1.479,1.02-1.189.094-.113.818-.944h0l.944-1.089.629-.73c.352-.409.711-.812,1.07-1.221l.566-.629c.264-.308.535-.629.812-.913.441-.5.894-1.007,1.341-1.5.724-.812,1.448-1.617,2.184-2.423l.094-.107.717-.793.843-.919,1.737-1.888,1.3-1.4,1.391-1.492,1.4-1.5,1.435-1.523h0l1.68-1.775q1.171-1.259,2.341-2.454h0c.113-.126.233-.245.346-.365l1.221-1.259h0l.434-.447,1.259-1.29h0l1.013-1.045.459-.472,1.057-1.089,1.139-1.164,1.1-1.12,1.082-1.108,1.611-1.636h0l1.171-1.183q1.888-1.888,3.638-3.644l1.309-1.309,1.932-1.888,1.592-1.567c.378-.371.749-.743,1.12-1.1l1.492-1.466,1.076-1.051c.151-.151.3-.3.459-.447l.51-.5.088-.082c.277-.277.554-.541.824-.806l2.045-1.989,1.082-1.038.629-.6c.289-.271.56-.535.818-.787l.283-.264,1.485-1.422.088-.088.107-.1.145-.138a17.237,17.237,0,0,0,1.259-1.649,1.886,1.886,0,0,0-.409.12l-.12.05a5.472,5.472,0,0,0-.686.371l-.1.057-.1.063-.7.472-.138.1-.157.113-.233.176-.334.258c-.239.183-.485.384-.749.6-.629.5-1.259,1.07-2,1.706l-.39.346-.485.434h0l-.415.371c-.176.17-.365.334-.548.51-1.523,1.416-1.888,1.781-2.3,2.152l-1.662,1.6-1.057,1.032-.466.459-1.813,1.724h0l-2.146,2.152-1,1.051-.629.629-.629.629h0l-.39.4h0q-1.152,1.171-2.335,2.4l-1.139,1.177-.05.057-1.183,1.227-.629.629-1.2,1.322-3.1,3.26-.938.988-.95,1.013-.982,1.032-.214.227v.031l-.862.919c-1.215,1.259-2.429,2.593-3.644,3.9l-.856.919-.359.39-.957,1.026-.113.126-1.3,1.4-2.933,3.147h0l-.906.982h0l-1.259,1.385-2.222,2.417-.3.334h0q-.415.466-.831.906c-.3.334-.6.661-.9.988s-.541.6-.818.894h0l-.132.151c-.22.233-.434.472-.629.711h0l-.214.239h0c-.51.554-1.013,1.114-1.51,1.661l-.843.925-.78.856-.73.806h0l-.5.548-2.316,2.436-.8.881-.189.214h0l-.78.862-.85.938-.629.73-.2.227-.68.755-1.12,1.259c-.164.189-.334.371-.5.554l-.245.271a56.754,56.754,0,0,1-5.167-4.632,10.5,10.5,0,0,1-.3-14.494Z" transform="translate(-133.584 -69.956)"/><path class="d" d="M389.632,264.141c-2.4,0-10.416-1.768-12.782-2.675l.063-.069c.252-.308.51-.629.768-.919L378.939,259c.34-.4.673-.793,1.02-1.19l.094-.113h0a40.809,40.809,0,0,0,10.2,1.548c.73,0,.629-1.108-.082-1.133a40.014,40.014,0,0,1-9.308-1.347h0l.944-1.089.629-.73c.352-.409.711-.812,1.07-1.221l.566-.629a8.464,8.464,0,0,0,2.31.5c1.064.132,2.127.277,3.2.378a40.034,40.034,0,0,0,6.5.145.568.568,0,0,0-.082-1.133,39.283,39.283,0,0,1-6.205-.126c-.938-.094-1.888-.214-2.788-.334a11.962,11.962,0,0,1-2.121-.346c.441-.5.887-1.007,1.341-1.5.724-.812,1.448-1.617,2.184-2.423l.094-.107.717-.793.843-.919,1.737-1.888,1.3-1.4,1.391-1.492,1.4-1.5a.486.486,0,0,0,.132,0c3.978-.7,7.848,1.259,11.819,1.259.736,0,.629-1.133-.076-1.133-3.512,0-6.923-1.517-10.4-1.391l-.038-.239h0l1.68-1.775,1.259-1.347h.126a6.563,6.563,0,0,1,2.272.415c.749.214,1.5.384,2.259.585,1.819.485,3.619,1.038,5.406,1.649.68.233,1.183-.787.491-1.026-1.888-.629-3.776-1.259-5.664-1.743a27.524,27.524,0,0,0-3.814-.988h0c.113-.126.233-.245.346-.365l1.221-1.259h0l.434-.447,1.259-1.29h0c4.154.107,7.6,3.147,11.712,3.65.724.082.944-1.032.214-1.12-3.858-.441-7.105-3.052-10.913-3.575l.459-.472,1.057-1.089,1.139-1.164c.365-.378.73-.749,1.1-1.12l1.082-1.108,1.611-1.636h0a21.054,21.054,0,0,0,5.96-1.12c2.423-.585,4.808-1.259,7.225-1.888.711-.176.34-1.259-.365-1.076-2.329.579-4.619,1.259-6.954,1.806a39.948,39.948,0,0,1-4.695,1.082q1.888-1.888,3.638-3.644c3.147-.3,6.2-1.259,9.333-1.712.717-.1.629-1.259-.082-1.133-2.669.4-5.274,1.139-7.942,1.536l1.932-1.888,1.592-1.567c.378-.371.749-.743,1.12-1.1,2.97-.629,5.972-1.145,8.93-1.857.711-.17.34-1.259-.365-1.076-2.341.56-4.714.994-7.074,1.466l1.089-1.07.453-.447.516-.5.088-.082c.277-.277.554-.541.824-.806l2.045-1.989a13.674,13.674,0,0,0,2.593.094,12,12,0,0,0,2.517-.415c.7-.208.34-1.259-.365-1.082a11.2,11.2,0,0,1-3.682.365l.629-.6c.289-.271.56-.535.818-.787l.283-.264,1.485-1.422.088-.088.107-.1.227-.214.1-.094.384-.365.1-.1.239-.227.1-.094.076-.069.094-.094.5-.472h-.069a.176.176,0,0,0-.082,0h-.138a1.637,1.637,0,0,0-.516.132l-.12.05a5.474,5.474,0,0,0-.686.371l-.1.057-.1.063-.7.472-.138.1-.157.113-.233.176-.334.258c-.239.183-.491.384-.749.6-.629.5-1.259,1.07-2,1.706l-.39.346-.485.434h0a.566.566,0,0,0-.415.371c-.176.17-.365.334-.547.51-1.523,1.416-1.888,1.781-2.3,2.152l-1.662,1.6-1.057,1.032-.466.459a8.729,8.729,0,0,0-.069-1.259c-.044-.428-.1-.843-.138-1.259-.214-2.31-.724-4.663-.4-6.986.1-.724-1.013-.938-1.12-.214a22.207,22.207,0,0,0,.264,6.054c.094.806.17,1.611.245,2.417s.239,1.97-.4,2.643a.5.5,0,0,0-.151.352h0l-2.146,2.152c-.359-3.707-.3-7.433-.283-11.152,0-.736-1.127-.629-1.133.076a99.986,99.986,0,0,0,.384,12.128l-.629.629-.629.629h0a.5.5,0,0,0-.39.4h0q-1.152,1.171-2.335,2.4l-1.139,1.177-.05.057-1.183,1.227-.629.629-1.215,1.227-3.1,3.26a33.4,33.4,0,0,0-3.008-8.389c-.346-.629-1.259,0-.944.629a33.272,33.272,0,0,1,3.015,8.748c-.315.34-.629.68-.957,1.013l-.975,1.032-.214.227c-.969-2.568-4.405-9.767-4.638-10.617-.189-.711-1.259-.346-1.076.359.239.875,4.324,9.629,4.512,10.114.057.151.208.51.289.7a.547.547,0,0,0,0,.4c-1.215,1.259-2.429,2.593-3.644,3.9l-.856.919-.359.39c-.85-4.217-2.442-8.257-3.147-12.505-.126-.711-1.259-.629-1.133.082.774,4.563,2.555,8.893,3.342,13.449l-.113.126-1.3,1.4-2.933,3.147h0c-.875-3.015-3.38-10.334-4.405-12.065-.371-.629-1.315,0-.944.629,1.1,1.888,3.826,10.07,4.443,12.417h0l-1.259,1.385-2.222,2.417-1.158,1.259c-.3.334-.6.661-.9.988a88.917,88.917,0,0,0-5.368-8.66c-.453-.573-1.4.05-.95.629a80.935,80.935,0,0,1,5.456,8.918v.031h0l-.132.151-.629.711h0a.629.629,0,0,0-.214.239h0c-.51.554-1.013,1.114-1.51,1.661-.806-1.945-4.966-9.937-5.035-10.762-.094-.73-1.259-.629-1.139.076s4.405,9.371,5.362,11.611l-.78.856c-.245.271-.491.535-.73.806h0l-.5.548-2.247,2.392c-2.064-3.361-4.368-6.577-6.407-9.95-.378-.629-1.322,0-.95.629,2.089,3.468,4.456,6.753,6.558,10.208l-.189.214h0c-1.706-1.888-6.891-7.206-8.351-8.484a.569.569,0,1,0-.749.856c1.435,1.259,6.854,6.753,8.333,8.458v.031l-.85.938-.629.73-.2.227c-.164.189-.334.371-.5.554-.063.069-.126.132-.183.2l-1.12,1.259c-.164.189-.334.371-.5.554l-.245.271c.466.371.925.724,1.378,1.051.629-.8,1.29-1.611,1.964-2.436l.334-.415,1.435-1.743.088-.1h0c2.838,1.4,10.988,2.908,13.588,2.926C390.444,265.28,390.356,264.141,389.632,264.141Z" transform="translate(-135.897 -74.278)"/><path class="e" d="M399.12,266.362c5.268-5.91,10.516-11.593,15.734-16.992l-.862.919c-1.215,1.259-2.429,2.593-3.644,3.9l-.856.919-.359.39-.957,1.026-.113.126-1.3,1.4-2.933,3.147h0l-.906.982h0l-1.259,1.385-2.222,2.417Z" transform="translate(-147.928 -92.454)"/><path class="f" d="M400.286,290.97a5.035,5.035,0,0,0,.931-9.491c-4.267-1.888-12.285-5.381-17.527-7.81a21.861,21.861,0,0,1,10.668-16.533,49.092,49.092,0,0,1,5.633-3.008c2.983,8.238,8.339,12,11.555,13.575a4.405,4.405,0,0,0,2.87.352,4.475,4.475,0,0,0,1.718-.78,4.405,4.405,0,0,0,1.108-5.847,36.344,36.344,0,0,1-4.733-11.523,106.484,106.484,0,0,1,15.935-2.517,48.984,48.984,0,0,0,.629,11.077,4.166,4.166,0,0,0,5.664,2.939,4.273,4.273,0,0,0,1.674-1.259,4.211,4.211,0,0,0,.837-1.888,61.141,61.141,0,0,1,2.914-11.379c5.343-.038,9.679.208,12.2.4,1.561.113,2.436.214,2.436.214l-.39,17.559c-3.4,1.51-8.471,3.776-12.851,5.746a4.267,4.267,0,0,0,1.114,8.112,44.836,44.836,0,0,0,11.423.208l-.258,11.958c-5.255,3.619-16.13,5.916-22.449,4.066-4.091-1.189-3.883,6.224,2.341,8.352,2.977,1.032,13.135,3.776,19.51.919a22.027,22.027,0,0,1-12.713,16.288c-15.822,6.835-29.737-8.691-34.8-15.375a85.155,85.155,0,0,1,4.9-10.007,140.078,140.078,0,0,1,9.138-14.009c.629-.856-9.673,9.145-16,21.278l-.094-.138c-6.6-.7-12.587-5.595-16.275-12.1l11.511.73a5.1,5.1,0,0,0,1.385-.1Z" transform="translate(-142.209 -91.529)"/><path class="g" d="M426.342,324.034a40.354,40.354,0,0,1-10.7-8.874,37.755,37.755,0,0,1-2.31-3.147c.629-1.359,1.378-2.8,2.215-4.33a31.505,31.505,0,0,0,7.47,8.44c3.776,3.147,8.326,4.89,13.015,6.168a33.651,33.651,0,0,0,7.861,1.391c-2.215-.856-8.811-2.857-13.575-5.45a40.593,40.593,0,0,1-10.7-8.874c-1.02-1.221-1.888-2.587-2.819-3.915h0c.453-.787.925-1.592,1.429-2.417.434.4.887.793,1.359,1.177a23.086,23.086,0,0,0,8.9,4.141,21.873,21.873,0,0,0,5.362.919,70.328,70.328,0,0,1-9.277-3.657,26.7,26.7,0,0,1-5.444-4.034c.132-.214.264-.428.4-.629a22.722,22.722,0,0,0,2.775.7,25.616,25.616,0,0,0,4.405.327,22.908,22.908,0,0,0,9.5-2.473,22.2,22.2,0,0,0,4.72-2.706,73.708,73.708,0,0,1-9.478,3.084,27.692,27.692,0,0,1-9.472.038c-.516-.094-1.032-.214-1.548-.352l3.2-4.022h0l.491.088a16.535,16.535,0,0,0,1.926.22,16.7,16.7,0,0,0,2.964-.17,19.391,19.391,0,0,0,9.063-4.733A50.689,50.689,0,0,1,432,293.857a18.622,18.622,0,0,1-6.338.868,7.678,7.678,0,0,1-1.07-.1l-.233-.031,5.526-6.923.164.113.5.088a15.177,15.177,0,0,0,1.913.182,17.352,17.352,0,0,0,2.964-.176,15.607,15.607,0,0,0,6.142-2.517,15.043,15.043,0,0,0,2.92-2.234,48.786,48.786,0,0,1-6.073,2.908,18.483,18.483,0,0,1-6.344.869,8.784,8.784,0,0,1-1.064-.094l-.441-.063,6.929-8.6s-4.519,4.821-9.44,10.391a.214.214,0,0,0,0-.063c0-.283-.031-.56-.031-.837a14.546,14.546,0,0,1,.913-4.89,39.159,39.159,0,0,1,2.517-4.613,11.672,11.672,0,0,0-1.844,2.184,12.2,12.2,0,0,0-2.178,4.676,13.566,13.566,0,0,0-.245,2.3,11.554,11.554,0,0,0,.1,1.5.658.658,0,0,0,.126.51c-.541.629-1.089,1.259-1.63,1.888l-.17-.346c-.164-.34-.315-.68-.447-1.026a19.434,19.434,0,0,1-1.259-6.577,50.943,50.943,0,0,1,.881-6.986,15.591,15.591,0,0,0-1.259,3.638,16.364,16.364,0,0,0-.447,6.923,17.62,17.62,0,0,0,.812,3,15.32,15.32,0,0,0,.856,1.831c.12.227.208.39.239.441-1.529,1.781-3.008,3.549-4.324,5.192l-.151-.3c-.164-.34-.315-.68-.447-1.026a19.277,19.277,0,0,1-1.259-6.577,48.282,48.282,0,0,1,.875-6.986,15.882,15.882,0,0,0-1.259,3.638,16.364,16.364,0,0,0-.447,6.923,17.63,17.63,0,0,0,.812,3,16.367,16.367,0,0,0,.856,1.831c.12.227.208.384.239.441l-.246.308c-.277-.176-.547-.365-.818-.56a26.553,26.553,0,0,1-4.991-4.588,74,74,0,0,1-5.337-8.421,22.252,22.252,0,0,0,1.888,5.091,23.184,23.184,0,0,0,5.746,7.961q.7.585,1.416,1.114c.34.245.686.485,1.032.717l-.29.371-.245.308c-.34.428-.686.875-1.032,1.328-1.29,1.693-2.618,3.55-3.9,5.526l-.522.057a17.687,17.687,0,0,1-5.532-.283,52.455,52.455,0,0,1-7.772-2.983,17.534,17.534,0,0,0,3.883,2.662,16.191,16.191,0,0,0,7.791,2.366,9.311,9.311,0,0,0,1.026-.038c-.862,1.4-1.7,2.845-2.473,4.33h0c.227.359.894,1.359,1.938,2.731.227-.566.478-1.158.743-1.762a33.15,33.15,0,0,0,2.19,2.983,37.323,37.323,0,0,0,4.638,4.5c3.776,3.147,8.326,4.884,13.015,6.161a32.412,32.412,0,0,0,7.854,1.4C437.7,328.628,431.125,326.633,426.342,324.034Z" transform="translate(-147.987 -102.421)"/><path class="b" d="M111.226,179.882H64.56V168.806l43.312-62.136h17.792v60.462h11.958v12.751H125.664v19.592H111.226Zm.629-12.763v-45.5l-30.41,45.508Z" transform="translate(-23.923 -39.562)"/><path class="f" d="M234.369,56.21c26.294,0,33.519,20.624,33.519,47.44,0,27.326-7.225,47.956-33.519,47.956s-33.519-20.63-33.519-47.956C200.85,76.846,208.069,56.21,234.369,56.21Zm0,13.405c-17.15,0-19.082,16.5-19.082,34.035,0,18.434,1.932,34.551,19.082,34.551s19.076-16.118,19.076-34.551c0-17.534-1.932-34.035-19.076-34.035Z" transform="translate(-74.439 -20.859)"/><path class="b" d="M350.963,180.867H304.29v-11.1l43.318-62.136H365.4v60.462h11.989v12.776H365.4v19.592H350.963Zm.629-12.763V122.583l-30.41,45.508Z" transform="translate(-112.779 -39.918)"/><rect class="b" width="41.814" height="46.396" transform="translate(45.389 174.783)"/><rect class="b" width="41.814" height="42.941" transform="translate(45.389 174.783)"/><path class="h" d="M96.758,319.6a16.07,16.07,0,1,1,16.048-16.092A15.726,15.726,0,0,1,96.758,319.6Zm0-4.475c6.237,0,10.756-4.519,10.756-11.618S103,291.985,96.758,291.985,86,296.39,86,303.508,90.522,315.126,96.758,315.126Z" transform="translate(-29.909 -106.572)"/><path class="i" d="M295.808,355.451H57.712a1.982,1.982,0,0,1-1.982-1.989h0a1.982,1.982,0,0,1,1.982-1.982h238.1a1.982,1.982,0,0,1,1.982,1.982h0a1.982,1.982,0,0,1-1.982,1.989Z" transform="translate(-20.65 -130.301)"/><rect class="f" width="41.814" height="46.396" transform="translate(101.98 174.783)"/><rect class="f" width="41.814" height="42.941" transform="translate(101.98 174.783)"/><path class="h" d="M185.8,319.6a16.07,16.07,0,1,1,16.048-16.092A15.724,15.724,0,0,1,185.8,319.6Zm0-4.475c6.243,0,10.762-4.519,10.762-11.618s-4.519-11.523-10.762-11.523-10.756,4.405-10.756,11.523S179.565,315.126,185.8,315.126Z" transform="translate(-62.915 -106.572)"/><rect class="b" width="41.814" height="46.396" transform="translate(231.638 174.783)"/><rect class="b" width="41.814" height="42.941" transform="translate(231.638 174.783)"/><path class="h" d="M394.941,318.481c-6.293,0-11.121-3.436-11.121-8.993h5.513c.227,2.574,2.033,4.657,5.607,4.657s5.664-1.945,5.664-4.613c0-7.6-16.684-2.668-16.684-14.242,0-5.513,4.405-8.949,10.806-8.949,6.01,0,10.258,3.147,10.7,8.547h-5.664c-.182-2.127-2.033-4.072-5.286-4.16-2.983-.088-5.293,1.353-5.293,4.405,0,7.093,16.64,2.662,16.64,14.148C405.791,313.962,401.945,318.481,394.941,318.481Z" transform="translate(-142.257 -106.157)"/><path class="i" d="M234.454,180.534l1.982.321,5.2,1.29,13.506-.4,4.821-7.772-2.089-4.89-21.889.938a28.422,28.422,0,0,0-1.529,10.516Z" transform="translate(-86.884 -62.695)"/><path class="i" d="M262.053,207.076l-2.1,6.583v.629l-3.631-.422.2-.629,4.129-35.546a3.212,3.212,0,0,1,.088-.491,10.1,10.1,0,0,1,.762-1.989,3.638,3.638,0,0,1,6.583.258,14.821,14.821,0,0,1,1.051,6.8h0C268.781,189.454,265.175,198.4,262.053,207.076Z" transform="translate(-94.999 -64.239)"/><path class="j" d="M257.9,248.329a2.782,2.782,0,0,1-4.865-.957l-.283-1.007a2.8,2.8,0,0,1,0-1.592l2.184-6.923,3.631.422-.094,8.377A2.776,2.776,0,0,1,257.9,248.329Z" transform="translate(-93.633 -88.184)"/><path class="i" d="M235.805,207.324l.818,6.86-.107.629,3.638.271-.069-.629,2.668-35.684a2.7,2.7,0,0,0,0-.5,9.21,9.21,0,0,0-.371-2.1,3.631,3.631,0,0,0-6.507-.994,14.859,14.859,0,0,0-2.316,6.476h0C232.545,188.7,234.389,198.192,235.805,207.324Z" transform="translate(-86.454 -64.355)"/><path class="j" d="M236.292,249.118a2.782,2.782,0,0,0,4.953,0l.472-.931a2.832,2.832,0,0,0,.283-1.573l-.837-7.212-3.638-.271-1.492,8.238A2.769,2.769,0,0,0,236.292,249.118Z" transform="translate(-87.463 -88.659)"/><path class="k" d="M256.152,139.685c-1.007,3.82,1.038,8.414,2.775,11.958a21.778,21.778,0,0,1-22.1.5l1.013-2.681a16.419,16.419,0,0,0,1.013-9.195L236.8,128.69a5.456,5.456,0,0,1,3.738-6.168l2.788-.881.868-.277a10.831,10.831,0,0,1,3.2-.485h1.139a10.7,10.7,0,0,1,4.877,1.2h0l2.631,1.378a5.456,5.456,0,0,1,2.75,6.243Z" transform="translate(-87.732 -44.829)"/><path class="l" d="M253.326,121.223h0a2.152,2.152,0,0,1-2.146-2.159v-4.342a.592.592,0,0,1,.592-.592h3.147a.629.629,0,0,1,.592.592v4.349a2.152,2.152,0,0,1-2.184,2.152Z" transform="translate(-93.094 -42.327)"/><path class="m" d="M242.939,102.246a1.58,1.58,0,0,1,.887.264,12.109,12.109,0,0,1,2.58-5.148A4.085,4.085,0,0,1,248.112,96a3.034,3.034,0,0,1,1.032-.308,6.474,6.474,0,0,1,.7,0,6.594,6.594,0,0,1,.7,0,3.046,3.046,0,0,1,1.026.308,4.066,4.066,0,0,1,1.7,1.372,12.052,12.052,0,0,1,2.555,5.154,1.643,1.643,0,0,1,.894-.258c.913.082,1.208,1.536.957,2.637a2.848,2.848,0,0,1-2.36,2.108,10.026,10.026,0,0,1-1.819,2.587,5.507,5.507,0,0,1-2.882,1.831h-.1a1.777,1.777,0,0,1-.2.044.491.491,0,0,1-.138,0h-.887l-.2-.044H249a5.538,5.538,0,0,1-2.876-1.85,10.114,10.114,0,0,1-1.806-2.593,2.834,2.834,0,0,1-2.347-2.115C241.718,103.782,242.02,102.328,242.939,102.246Z" transform="translate(-89.648 -35.491)"/><path class="i" d="M248.957,107.006a.189.189,0,0,0,.182-.1,1.177,1.177,0,0,1,1.567-.629.187.187,0,0,0,.157-.34,1.548,1.548,0,0,0-2.058.762.183.183,0,0,0,.076.252.12.12,0,0,0,.076.057Z" transform="translate(-92.205 -39.237)"/><path class="i" d="M257.731,106.784a.157.157,0,0,0,.164.031.994.994,0,0,1,1.328.478.157.157,0,1,0,.283-.126,1.3,1.3,0,0,0-1.724-.629.157.157,0,0,0-.088.208.152.152,0,0,0,.038.038Z" transform="translate(-95.503 -39.469)"/><path class="i" d="M253.177,114.882a.183.183,0,0,0-.151-.132,1.171,1.171,0,0,1-1.108-1.259.189.189,0,0,0-.176-.2.182.182,0,0,0-.2.17,1.529,1.529,0,0,0,1.429,1.655.183.183,0,0,0,.208-.164.107.107,0,0,0-.006-.069Z" transform="translate(-93.228 -42.016)"/><path class="i" d="M255.191,112.187a.63.63,0,0,0,.359-.1c.34-.22.428-.73.233-1.359l-.441-2.1a.148.148,0,1,0-.289.063l.441,2.108c.183.6.063.919-.107,1.032s-.441.044-.686-.164a.157.157,0,0,0-.214,0,.151.151,0,0,0,0,.208,1.114,1.114,0,0,0,.7.308Z" transform="translate(-94.304 -40.246)"/><path class="i" d="M257.68,109.3a.573.573,0,1,0,.57-.513A.573.573,0,0,0,257.68,109.3Z" transform="translate(-95.503 -40.347)"/><path class="i" d="M250.348,109.278a.573.573,0,1,0,.57-.513A.573.573,0,0,0,250.348,109.278Z" transform="translate(-92.784 -40.339)"/><path class="i" d="M256.741,96.519c-1.447-5.249-9.793-6.8-12.939-.73-2.234,4.311.988,9.692,1.636,9.774a25.05,25.05,0,0,0,.585-5.117c.869-.227,1.724-.522,2.58-.812l1.888-.629a1.945,1.945,0,0,0,.749-.245l.227-.076c-.138.183-.277.422-.409.629a12.118,12.118,0,0,0-.793.944,5.589,5.589,0,0,1,.843-.365c.541-.239,1.038-.56,1.58-.8.145-.069.3-.126.447-.189.22.258.428.485.548.629.818.78,1.391.762,1.441,1.982.063,1.536.466,3.046.384,4.556a25.52,25.52,0,0,0,1.4-5.343A16.2,16.2,0,0,0,256.741,96.519Z" transform="translate(-90.071 -34.075)"/><path class="k" d="M272.627,139.313l.327.233-.862.988c1.8-2.045,5.582-.522,7.439-1.177-.277-.428-13.877-13.714-13.877-13.714a3.338,3.338,0,1,0-4.11,5.261Z" transform="translate(-96.459 -46.333)"/><path class="k" d="M229.64,140.542l-.252.315,1.114.7a16.711,16.711,0,0,0-7.552-1.976,4.608,4.608,0,0,1,.661-1.4l8.811-12.725a3.336,3.336,0,1,1,5.431,3.877Z" transform="translate(-82.63 -46.007)"/><rect class="n" width="41.814" height="46.396" transform="translate(138.451 81.746)"/><rect class="o" width="41.814" height="43.639" transform="translate(138.451 81.746)"/><path class="h" d="M243.758,171.071a16.07,16.07,0,1,1,16.048-16.092A15.726,15.726,0,0,1,243.758,171.071Zm0-4.475c6.237,0,10.756-4.519,10.756-11.618s-4.519-11.53-10.756-11.53S233,147.854,233,154.978s4.519,11.63,10.762,11.63Z" transform="translate(-84.394 -51.52)"/><path class="m" d="M283.308,144.19h0l-.031,1.466-.629-.057s-3.084-.629-4.689,1.561h0s-.063.673.472.384a.277.277,0,0,0,.12-.063h.031a1.975,1.975,0,0,1,.5-.214l.1-.038a6.841,6.841,0,0,1,3.191-.5,10.4,10.4,0,0,0-1.3.233l-.164.038c-1.089.264-2.454.768-2.933,1.668a.934.934,0,0,0,0,.189.414.414,0,0,0,0,.094c.044.107.138.17.371.094,0,0,.422-.466,3.971-1.385-.692.233-4.009,1.372-3.9,1.888a.918.918,0,0,0,0,.245.321.321,0,0,0,.34.283,1.028,1.028,0,0,0,.22-.031,24.131,24.131,0,0,1,3.222-1.429c-.843.321-2.643,1.1-2.517,1.737,0,0,0,.629,2.058-.428l.151-.076a1.976,1.976,0,0,1,1.082-.214.113.113,0,0,1,.063,0,2.726,2.726,0,0,1,.472.088h.057a2.266,2.266,0,0,0,2.517-2.3v-.982a1.321,1.321,0,0,0-.308-.824A4.55,4.55,0,0,0,283.308,144.19Z" transform="translate(-103.018 -53.469)"/><path class="m" d="M218.361,144.19l.031,1.466.629-.057s3.084-.629,4.689,1.561h0s.063.673-.466.384a.3.3,0,0,1-.126-.063h-.031a1.933,1.933,0,0,0-.491-.214l-.107-.038a6.822,6.822,0,0,0-3.191-.5,10.614,10.614,0,0,1,1.3.233l.164.038c1.083.264,2.454.768,2.926,1.668a.925.925,0,0,1,0,.189.41.41,0,0,1-.031.094c-.038.107-.138.17-.371.094,0,0-.422-.466-3.965-1.385.686.233,4,1.372,3.9,1.888a.921.921,0,0,1,0,.245.327.327,0,0,1-.346.283,1.083,1.083,0,0,1-.22-.031,23.679,23.679,0,0,0-3.222-1.429c.843.321,2.643,1.1,2.549,1.737,0,0,0,.629-2.058-.428l-.151-.076a2.007,2.007,0,0,0-1.089-.214.113.113,0,0,0-.063,0,2.656,2.656,0,0,0-.466.088H218.1a2.259,2.259,0,0,1-2.517-2.3v-.982a1.259,1.259,0,0,1,.3-.824A4.588,4.588,0,0,1,218.361,144.19Z" transform="translate(-79.898 -53.469)"/><path class="i" d="M314.813,171.209a23.9,23.9,0,0,0,5.444,12.845c2.165,2.75,4.072,5.035,5.444,8.868,1.227,3.43.629,6.967.3,10.561a12.689,12.689,0,0,0-3.468-6.784c-.692,2.2-.736,4.657-1.724,6.816a26.1,26.1,0,0,1-5.305,7.395c-1.888,1.932-3.908,3.606-5.784,5.62a11.088,11.088,0,0,1-2.517,2.178c-1.2.686-1.592.031-2.631-1.032-.837-.85-1.724-1.661-2.612-2.436-2.1-1.838-4.223-2.92-5.6-6.174a25.365,25.365,0,0,1-1.831-8.811c-2.1,1.259-3.147,4.808-4.405,7.313a47.535,47.535,0,0,1,1.139-11.423,26.144,26.144,0,0,1,2.247-6.923c1.057-1.888,2.631-3.015,3.984-4.405,3.1-3.147,5.035-9.088,6.111-14.475" transform="translate(-107.524 -63.162)"/><path class="p" d="M335.147,215.777l.252.321-1.127.7a16.63,16.63,0,0,1,7.552-1.976,4.57,4.57,0,0,0-.673-1.4L332.34,200.7a3.336,3.336,0,1,0-5.431,3.87Z" transform="translate(-120.916 -73.872)"/><path class="p" d="M296.95,214.083l-.245.315,1.108.7a16.71,16.71,0,0,0-7.552-1.976,4.632,4.632,0,0,1,.68-1.4L299.751,199a3.342,3.342,0,1,1,5.438,3.877Z" transform="translate(-107.579 -73.222)"/><path class="m" d="M322.328,197.674c-.4,2.952-2.517,5.2-5.1,5.2-2.788,0-5.035-2.65-5.161-5.973h1.888a.554.554,0,0,0,.227-.038,1.1,1.1,0,0,0,.856-.824l.082-.327,4.166.151-.069.8a.573.573,0,0,0,.5.629l1.857.283Z" transform="translate(-115.663 -72.565)"/><path class="p" d="M332.172,360.465h.2a2.014,2.014,0,0,1,1.5.686c.862.994,3.147.982,4.405.7l.2-.057a.673.673,0,0,0,.22-1.189l-4.45-3.594a1.142,1.142,0,0,1,0-.227l-2.6.057c-.088.308-.151.51-.151.51C331.171,358.81,330.7,360.453,332.172,360.465Z" transform="translate(-122.737 -132.269)"/><path class="p" d="M305.325,360.465h-.214a2.027,2.027,0,0,0-1.5.686c-.856.994-3.147.982-4.405.7a.808.808,0,0,1-.2-.057.673.673,0,0,1-.22-1.189l4.449-3.594a.783.783,0,0,0,0-.227l2.605.057c.088.308.151.51.151.51C306.326,358.81,306.8,360.453,305.325,360.465Z" transform="translate(-110.636 -132.269)"/><path class="n" d="M302.236,284.288l-.308,2.039a62.187,62.187,0,0,0-.2,16.747c.686,5.6,1.536,12.455,1.957,15.45l2.662.107,4.619-52.5,9.012,52.431,2.719.227c.126-2.379.453-7.131.768-11.649a70.519,70.519,0,0,0-1.731-21.241h0l1.353-17.452a27.917,27.917,0,0,0-1-15.507H301.329a33.312,33.312,0,0,0-1.674,12.9Z" transform="translate(-111.033 -93.777)"/><path class="l" d="M321.01,193.967l-.063.629-4.267-.22c0-.183.183-.906.2-1.082.031-.315.069-.629.107-.944l.233-1.7,4.129,1.183Z" transform="translate(-117.371 -70.69)"/><path class="p" d="M323.584,236.044c-5.633,1.888-11.882,3.147-17.181,1.888a14.123,14.123,0,0,1-5.412-2.517s2.127-7.64,4.33-13.393a10.3,10.3,0,0,0,.579-3.493c-.17-3.222-1.611-5.589-2.02-8.7-.359-2.662,2.115-10.428,2.612-11.958.063-.176.088-.264.088-.264h1.385c.113,3.323,2.373,5.973,5.161,5.973,2.568,0,4.695-2.247,5.1-5.2,1.2.17,2.706.365,2.706.365a25.805,25.805,0,0,0-.378,5.815c.164,1.133.453,2.253.579,3.38a7.974,7.974,0,0,1-.755,4.336,17.835,17.835,0,0,0-1.668,5.563c-.4,4.072,1.372,7.716,2.813,11.429A52.159,52.159,0,0,1,323.584,236.044Z" transform="translate(-111.556 -73.269)"/><path class="m" d="M308.725,174.172a1.6,1.6,0,0,1,.906.308,12.354,12.354,0,0,1,2.876-5.192,4.167,4.167,0,0,1,1.813-1.334,2.952,2.952,0,0,1,1.076-.271,5.446,5.446,0,0,1,.717,0,7.143,7.143,0,0,1,.724.057,3,3,0,0,1,1.038.359,4.185,4.185,0,0,1,1.7,1.485A12.443,12.443,0,0,1,321.992,175a1.668,1.668,0,0,1,.944-.2c.938.126,1.183,1.636.875,2.757a2.941,2.941,0,0,1-2.517,2.077,10.454,10.454,0,0,1-1.982,2.58,5.664,5.664,0,0,1-3.052,1.775h-.1l-.208.038H315a1.042,1.042,0,0,1-.138,0,.805.805,0,0,1-.2-.057h-.1a5.7,5.7,0,0,1-2.889-2.033,10.528,10.528,0,0,1-1.75-2.744,2.927,2.927,0,0,1-2.329-2.278C307.4,175.714,307.774,174.228,308.725,174.172Z" transform="translate(-113.985 -62.172)"/><path class="i" d="M320.307,187.606a2.48,2.48,0,0,0,1.775-1.737.176.176,0,0,0-.113-.214.17.17,0,0,0-.214.113,2.36,2.36,0,0,1-2.731,1.555.176.176,0,0,0-.2.138.17.17,0,0,0,.132.2A3.4,3.4,0,0,0,320.307,187.606Z" transform="translate(-118.166 -68.835)"/><path class="i" d="M324.32,182.017a.579.579,0,1,1-.51-.629.585.585,0,0,1,.51.629Z" transform="translate(-119.775 -67.255)"/><path class="i" d="M316.839,181.7a.579.579,0,1,1-.51-.629.579.579,0,0,1,.51.629Z" transform="translate(-117.002 -67.136)"/><path class="i" d="M325.12,179.422h0a.176.176,0,0,0,.094-.22,1.4,1.4,0,0,0-1.775-.913.172.172,0,0,0,.107.327,1.07,1.07,0,0,1,1.347.7.176.176,0,0,0,.227.1Z" transform="translate(-119.833 -66.082)"/><path class="i" d="M316.858,178.46h0a.17.17,0,0,0-.063-.233,1.4,1.4,0,0,0-1.951.428.17.17,0,0,0,.05.233.176.176,0,0,0,.239-.05,1.064,1.064,0,0,1,1.492-.308A.182.182,0,0,0,316.858,178.46Z" transform="translate(-116.681 -66.001)"/><path class="i" d="M318.98,184.951a.157.157,0,0,0,.17-.151.164.164,0,0,0-.151-.176s-.321,0-.4-.2-.057-.327.428-.875a.17.17,0,0,0,0-.233.164.164,0,0,0-.233,0c-.453.516-.629.919-.478,1.227s.661.39.68.39Z" transform="translate(-117.959 -67.955)"/><path class="i" d="M320.785,165.141a6.255,6.255,0,0,0-1.435-.931,8.1,8.1,0,0,0-4.135-.673,6.923,6.923,0,0,0-6.331,5.066c-.963,3.354-.629,7.716,2.24,10.07.233.182.459.378.68.554.088-.22-.1-.422-.183-.629a6.934,6.934,0,0,1-.258-.938,6.645,6.645,0,0,1-.132-2.392c.113-.938.441-1.945.629-2.926a4.745,4.745,0,0,0,1.932-.919,10.2,10.2,0,0,0,1.447-1.586c.3-.4.554-.868.894-1.259,0,.447.082.875.113,1.315.031.554-.138,1.208-.076,1.731,0,.2-.1.157.132.208.12.031.459-.157.554-.214a5.557,5.557,0,0,0,.673-.629,3.675,3.675,0,0,0,1.013-1.385,2.9,2.9,0,0,0,.762,1.536c.308.422.573.856.862,1.3a5.035,5.035,0,0,1,.762,3.4c-.063.573-.3,1.139-.371,1.7,0-.1.441-.4.529-.491a6.625,6.625,0,0,0,.541-.629,7.318,7.318,0,0,0,.78-1.429,10.958,10.958,0,0,0,.749-3.2A7.915,7.915,0,0,0,320.785,165.141Z" transform="translate(-114.302 -60.625)"/><rect class="f" width="41.814" height="46.396" transform="translate(181.423 137.45)"/><rect class="f" width="41.814" height="46.396" transform="translate(181.423 135.461)"/><path class="h" d="M318.36,244.3h-5.7v12.751H307.51V225.63h10.85c7.458,0,11.121,4.248,11.121,9.358C329.481,239.463,326.542,244.3,318.36,244.3Zm0-4.2c4.022,0,5.828-1.945,5.828-5.1,0-3.26-1.806-5.154-5.828-5.154h-5.7v10.258Z" transform="translate(-113.972 -83.655)"/><path class="m" d="M351.559,241.45h0l-.038,1.46-.629-.057s-3.078-.629-4.689,1.561h0s-.057.673.472.384a.226.226,0,0,0,.126-.057h0a2.1,2.1,0,0,1,.5-.22l.1-.038a6.873,6.873,0,0,1,3.2-.5,10.951,10.951,0,0,0-1.3.227l-.164.038c-1.089.264-2.454.768-2.933,1.668a.86.86,0,0,0,0,.182.361.361,0,0,0,0,.1c.044.1.138.17.371.088,0,0,.422-.466,3.971-1.378-.692.233-4,1.366-3.9,1.888a.879.879,0,0,0,0,.239.321.321,0,0,0,.34.283.977.977,0,0,0,.22-.031,24.121,24.121,0,0,1,3.222-1.429c-.837.327-2.643,1.1-2.517,1.743,0,0,0,.629,2.058-.428l.151-.082a2,2,0,0,1,1.089-.214.1.1,0,0,1,.057,0,2.162,2.162,0,0,1,.472.094h.063a2.266,2.266,0,0,0,2.517-2.3v-.988a1.259,1.259,0,0,0-.3-.818,4.55,4.55,0,0,0-2.448-1.422Z" transform="translate(-128.31 -89.519)"/><path class="m" d="M286.6,241.45h0l.038,1.46.629-.057s3.077-.629,4.682,1.561h0c0,.107.063.673-.466.384a.227.227,0,0,1-.126-.057h0a2.094,2.094,0,0,0-.5-.22l-.107-.038a6.829,6.829,0,0,0-3.191-.5,10.944,10.944,0,0,1,1.3.227l.164.038c1.089.264,2.454.768,2.933,1.668a1.733,1.733,0,0,1,0,.182.364.364,0,0,1,0,.1c-.044.1-.145.17-.378.088,0,0-.415-.466-3.965-1.378.692.233,4,1.366,3.9,1.888a.877.877,0,0,1,0,.239.321.321,0,0,1-.34.283.977.977,0,0,1-.22-.031,24.125,24.125,0,0,0-3.222-1.429c.837.327,2.643,1.1,2.517,1.743,0,0,0,.629-2.058-.428l-.151-.082a2,2,0,0,0-1.089-.214.114.114,0,0,0-.063,0,2.186,2.186,0,0,0-.466.094h-.063a2.266,2.266,0,0,1-2.517-2.3v-.988a1.259,1.259,0,0,1,.3-.818A4.55,4.55,0,0,1,286.6,241.45Z" transform="translate(-105.202 -89.519)"/></g></g></svg>