<svg id="Layer_2" data-name="Layer 2" xmlns="http://www.w3.org/2000/svg" width="259.473" height="252.144" viewBox="0 0 259.473 252.144">
  <g id="Plant">
    <path id="Path_5481" data-name="Path 5481" d="M336.775,323.257a23.13,23.13,0,0,0-9.9-3.4,6.591,6.591,0,0,0-4.685.862.976.976,0,0,0-.482.851,1.089,1.089,0,0,0,.459.567,14.229,14.229,0,0,0,14.605,1.134" transform="translate(-139.235 -138.4)" fill="#e0e0e0"/>
    <path id="Path_5482" data-name="Path 5482" d="M339.793,313.573a48.243,48.243,0,0,1-6.392-5.621,16.166,16.166,0,0,1-4.01-7.413,3,3,0,0,1,.318-2.479c5.1,3.97,9.075,9.126,10.085,15.513" transform="translate(-142.509 -129)" fill="#e0e0e0"/>
    <path id="Path_5483" data-name="Path 5483" d="M347.929,314.15a23.189,23.189,0,0,1,.113-8.395,11.355,11.355,0,0,1,4.475-6.926c.879,2.059.5,4.43-.119,6.58a31.962,31.962,0,0,1-4.436,9.336" transform="translate(-150.441 -129.333)" fill="#e0e0e0"/>
    <path id="Path_5484" data-name="Path 5484" d="M347.478,341.62a14.681,14.681,0,0,0-7.941,4.016A15.065,15.065,0,0,0,335,353.429c2.978-.182,5.5-2.269,7.328-4.634s3.1-4.929,5.1-7.13" transform="translate(-144.987 -147.852)" fill="#e0e0e0"/>
    <path id="Path_5485" data-name="Path 5485" d="M357.854,330.013a19.58,19.58,0,0,1,2.269-18.513,23.514,23.514,0,0,1-2.269,18.513" transform="translate(-154.291 -134.816)" fill="#e0e0e0"/>
    <path id="Path_5486" data-name="Path 5486" d="M360.046,357.979a14.146,14.146,0,0,0-13.533,7.793c-.17.335-.318.76-.091,1.061a1,1,0,0,0,.9.261c2.666-.17,5.031-1.775,6.982-3.6s3.653-3.971,5.808-5.519" transform="translate(-149.88 -154.92)" fill="#e0e0e0"/>
    <path id="Path_5487" data-name="Path 5487" d="M369.3,342.936a25.184,25.184,0,0,1-.25-14.078c.493-1.815,1.327-3.721,3-4.572a.6.6,0,0,1,.465-.079.607.607,0,0,1,.289.335,8.51,8.51,0,0,1,.709,4.038,25.654,25.654,0,0,1-.635,4.09c-.527,2.5-.805,5.19-2.178,7.345a14.221,14.221,0,0,0-.874,1.611c-.261.567-.261.743-.5,1.174" transform="translate(-159.34 -140.309)" fill="#e0e0e0"/>
    <path id="Path_5488" data-name="Path 5488" d="M400.63,350a18.162,18.162,0,0,1,3.182-14.929c.232-.295.533-.613.907-.567.567.051.72.811.692,1.384a26.9,26.9,0,0,1-4.782,14.123" transform="translate(-173.182 -144.772)" fill="#e0e0e0"/>
    <path id="Path_5489" data-name="Path 5489" d="M403.74,359.8a21.7,21.7,0,0,0,17.822-3.624,14.447,14.447,0,0,0-9.643-1.18,13.747,13.747,0,0,0-8.173,4.8" transform="translate(-174.738 -153.487)" fill="#e0e0e0"/>
    <path id="Path_5490" data-name="Path 5490" d="M406.08,350.867a20.588,20.588,0,0,1,16.171-9.348,9.968,9.968,0,0,1-5.286,5.848,29.2,29.2,0,0,1-7.765,2.269c-1.032.2-2.45.42-3.12,1.231" transform="translate(-175.75 -147.809)" fill="#e0e0e0"/>
    <path id="Path_5491" data-name="Path 5491" d="M399.775,315.532a46.928,46.928,0,0,0,2.07-9.472,15.777,15.777,0,0,0-1.889-9.37,20.618,20.618,0,0,0-.278,19.166" transform="translate(-172.015 -128.407)" fill="#e0e0e0"/>
    <path id="Path_5492" data-name="Path 5492" d="M420.13,310.821c3.658-6.653,11.123-11.968,18.678-12.711-2.916,7.255-10.862,12.864-18.678,12.711" transform="translate(-181.831 -129.021)" fill="#e0e0e0"/>
    <path id="Path_5493" data-name="Path 5493" d="M416.07,321.985c5.456.828,10.108,4.316,15.207,6.426a6.806,6.806,0,0,0,3.437.658,2.689,2.689,0,0,0,1.7-4.759,7.3,7.3,0,0,0-2.5-1.514,27.768,27.768,0,0,0-17.368-.97" transform="translate(-180.074 -138.881)" fill="#e0e0e0"/>
    <path id="Path_5494" data-name="Path 5494" d="M410.5,329.36c1.237.357,1.656,1,2.637,1.832a28.428,28.428,0,0,0,11.531,5.922c.437.108,1.015.153,1.237-.244s-.051-.771-.3-1.078a15.881,15.881,0,0,0-6.96-4.73c-2.666-.987-4.969-2.184-8.145-1.929" transform="translate(-177.663 -142.433)" fill="#e0e0e0"/>
    <path id="Path_5495" data-name="Path 5495" d="M404.21,288.333A21.814,21.814,0,0,0,420.948,294a1.134,1.134,0,0,0,.76-.272c.42-.459-.085-1.168-.567-1.549a19.277,19.277,0,0,0-16.92-3.874" transform="translate(-174.941 -124.524)" fill="#e0e0e0"/>
    <path id="Path_5496" data-name="Path 5496" d="M411.66,282.614a23.323,23.323,0,0,1,20.884-3.449,16.668,16.668,0,0,1-9.954,4.367,31.462,31.462,0,0,1-10.93-.919" transform="translate(-178.165 -120.349)" fill="#e0e0e0"/>
    <path id="Path_5497" data-name="Path 5497" d="M406.534,256.082c-.482-4.912-.17-8.792-.51-13.721-.028-.4-.108-.868-.476-1.01-.516-.2-.942.431-1.134.953a15.717,15.717,0,0,0,2.093,13.664" transform="translate(-174.718 -104.44)" fill="#e0e0e0"/>
    <path id="Path_5498" data-name="Path 5498" d="M408.08,256.523a28.864,28.864,0,0,0,8.134-7.907c1.605-2.2,2.961-4.827,2.6-7.527A7.761,7.761,0,0,0,412.941,244a16.448,16.448,0,0,0-2.989,6.018c-.652,2.155-1.106,4.379-1.872,6.5" transform="translate(-176.616 -104.342)" fill="#e0e0e0"/>
    <path id="Path_5499" data-name="Path 5499" d="M422.092,255.005a65.582,65.582,0,0,0,20.017-11.8c-2.388-.964-5.1-.386-7.521.567a23.688,23.688,0,0,0-12.6,11.168" transform="translate(-182.636 -105.042)" fill="#e0e0e0"/>
    <path id="Path_5500" data-name="Path 5500" d="M412,268.576a40.772,40.772,0,0,0,11.117.051,46.436,46.436,0,0,0,10.374-3.449,1.213,1.213,0,0,0,.709-.533.811.811,0,0,0-.255-.885,2.166,2.166,0,0,0-.885-.42,19.018,19.018,0,0,0-11.214.675,51.86,51.86,0,0,0-9.847,4.56" transform="translate(-178.312 -113.73)" fill="#e0e0e0"/>
    <path id="Path_5501" data-name="Path 5501" d="M373.427,276.683a19.673,19.673,0,0,1-.182-16.273c1.537,2.337,1.7,5.309,1.441,8.088s-1.134,5.644-1.18,8.434" transform="translate(-160.817 -112.705)" fill="#e0e0e0"/>
    <path id="Path_5502" data-name="Path 5502" d="M344.213,280.139a22.688,22.688,0,0,0-16.863,7.186,15.841,15.841,0,0,0,9.234-1.7,45.984,45.984,0,0,0,7.912-5.3" transform="translate(-141.676 -121.242)" fill="#e0e0e0"/>
    <path id="Path_5503" data-name="Path 5503" d="M333.04,275.924c-3.08-.25-6.046-.63-9.007.278a10.761,10.761,0,0,0-6.863,5.819,16.358,16.358,0,0,0,8.446-1.594,48.678,48.678,0,0,0,7.425-4.5" transform="translate(-137.27 -119.291)" fill="#e0e0e0"/>
    <path id="Path_5504" data-name="Path 5504" d="M349.048,272.726c-2.768-1.815-5.615-3.664-8.837-4.413s-6.943-.2-9.211,2.235c2.615,1.531,5.78,1.7,8.809,1.7s6.738-.034,9.591.976" transform="translate(-143.256 -115.99)" fill="#e0e0e0"/>
    <path id="Path_5505" data-name="Path 5505" d="M358.75,261.814c-4.736-4.651-6.529-13.006-4.623-19.364a29.5,29.5,0,0,1,4.623,19.364" transform="translate(-152.941 -104.932)" fill="#e0e0e0"/>
    <path id="Path_5506" data-name="Path 5506" d="M385.81,241.7c.891-2.076,1.52-4.254,2.326-6.37a18.236,18.236,0,0,1,3.307-5.871,8.723,8.723,0,0,1,5.865-3.04,23.618,23.618,0,0,1-11.384,15.314" transform="translate(-166.977 -97.994)" fill="#e0e0e0"/>
    <path id="Path_5507" data-name="Path 5507" d="M372.312,251.832c-1.48-2.036-3.188-4.793-5.19-6.313a8.675,8.675,0,0,0-7.062-1.855,16.449,16.449,0,0,0,12.252,8.168" transform="translate(-155.833 -105.38)" fill="#e0e0e0"/>
    <path id="Path_5508" data-name="Path 5508" d="M380.577,242.018a35.073,35.073,0,0,1-2.337-7.566,11.8,11.8,0,0,1,1.185-7.691c2.6,4.912,3.437,10.21,1.282,15.314" transform="translate(-163.627 -98.141)" fill="#e0e0e0"/>
    <path id="Path_5509" data-name="Path 5509" d="M385.85,218.819c1.475-4.872,5.933-8.463,10.749-10.108a4.09,4.09,0,0,1,1.889-.284,1.65,1.65,0,0,1,1.39,1.163c.17.828-.51,1.571-1.134,2.121a36.658,36.658,0,0,1-12.87,7.107" transform="translate(-166.995 -90.201)" fill="#e0e0e0"/>
    <path id="Path_5510" data-name="Path 5510" d="M385.939,207.235a34.9,34.9,0,0,1,1.4-9.3,11.772,11.772,0,0,1,5.859-7.073c.482,3.176-.913,6.33-2.6,9.075s-3.721,5.309-4.736,8.355" transform="translate(-166.999 -82.604)" fill="#e0e0e0"/>
    <path id="Path_5511" data-name="Path 5511" d="M378.846,210.508c-1.219-3.551-1.344-8.06-3.471-11.151-1.486-2.161-3.863-3.636-5.145-5.927a9.008,9.008,0,0,0,.3,6.727,19.456,19.456,0,0,0,3.931,5.632c1.577,1.7,2.921,2.944,4.384,4.719" transform="translate(-160.013 -83.716)" fill="#e0e0e0"/>
    <path id="Path_5512" data-name="Path 5512" d="M385.711,327.155c-.091,0-.176-23.686-.182-52.9s.062-52.9.159-52.9.176,23.681.182,52.9S385.8,327.155,385.711,327.155Z" transform="translate(-166.856 -95.804)" fill="#e0e0e0"/>
    <path id="Path_5513" data-name="Path 5513" d="M406.522,282.8a5.041,5.041,0,0,1-.891.335l-2.45.822c-2.065.709-4.906,1.7-7.986,2.989s-5.927,2.371-7.567,3.789a5.586,5.586,0,0,0-1.52,2.014c-.233.567-.272.9-.306.89a.771.771,0,0,1,0-.25,4.232,4.232,0,0,1,.17-.692,5.389,5.389,0,0,1,1.486-2.144,13.259,13.259,0,0,1,3.284-2.036c1.31-.613,2.768-1.253,4.311-1.889,3.091-1.265,5.95-2.269,8.043-2.9,1.044-.329,1.895-.567,2.484-.726A5.112,5.112,0,0,1,406.522,282.8Z" transform="translate(-166.97 -122.395)" fill="#e0e0e0"/>
    <path id="Path_5514" data-name="Path 5514" d="M414.556,253.42a1.41,1.41,0,0,1-.25.267l-.76.715-2.836,2.575-9.444,8.406c-3.687,3.284-6.869,6.421-9.075,8.78-1.1,1.18-1.974,2.155-2.569,2.836l-.686.783a1.34,1.34,0,0,1-.255.261,1.7,1.7,0,0,1,.2-.3c.142-.193.352-.476.635-.828.567-.709,1.412-1.7,2.5-2.915a119.7,119.7,0,0,1,9.03-8.871c3.7-3.273,7.067-6.211,9.512-8.332l2.91-2.5.8-.664a1.308,1.308,0,0,1,.289-.216Z" transform="translate(-168.22 -109.679)" fill="#e0e0e0"/>
    <path id="Path_5515" data-name="Path 5515" d="M403.854,274.142c-.1-.045.669-1.821,1.441-4.073s1.134-4.146,1.236-4.129a14.1,14.1,0,0,1-.913,4.243,27.749,27.749,0,0,1-1.134,2.836,4.716,4.716,0,0,1-.63,1.123Z" transform="translate(-174.783 -115.098)" fill="#e0e0e0"/>
    <path id="Path_5516" data-name="Path 5516" d="M375.416,292.474a4.1,4.1,0,0,1-.567-.658l-1.458-1.866c-1.22-1.582-2.91-3.76-4.8-6.148s-3.636-4.538-4.9-6.075l-1.492-1.843a4.126,4.126,0,0,1-.51-.7,3.927,3.927,0,0,1,.613.618c.38.408.919,1.015,1.571,1.77,1.31,1.509,3.086,3.63,4.98,6.018s3.562,4.6,4.73,6.239c.567.811,1.055,1.469,1.373,1.934A4.6,4.6,0,0,1,375.416,292.474Z" transform="translate(-156.538 -119.097)" fill="#e0e0e0"/>
    <path id="Path_5517" data-name="Path 5517" d="M376.1,289.929a8.389,8.389,0,0,1-1.9-3.562,10.1,10.1,0,0,1-.431-3.585h.148c-.068.272-.114.42-.142.414s-.028-.159,0-.437h.153a15.788,15.788,0,0,0,.607,3.488A25.731,25.731,0,0,0,376.1,289.929Z" transform="translate(-161.757 -122.378)" fill="#e0e0e0"/>
    <path id="Path_5518" data-name="Path 5518" d="M359.739,281.282a5.8,5.8,0,0,0-1.327-.771,8.843,8.843,0,0,0-3.687-.295,22.489,22.489,0,0,0-3.71.6,11.231,11.231,0,0,1-1.526.363,5.45,5.45,0,0,1,1.464-.6,17.077,17.077,0,0,1,3.749-.7,7.986,7.986,0,0,1,3.8.408A2.354,2.354,0,0,1,359.739,281.282Z" transform="translate(-151.258 -121.098)" fill="#e0e0e0"/>
    <path id="Path_5519" data-name="Path 5519" d="M354.121,277.6c0,.051-.771-.312-2.031-.743a20.523,20.523,0,0,0-10.249-.783c-1.31.238-2.1.482-2.121.425a1.793,1.793,0,0,1,.539-.227,11.615,11.615,0,0,1,1.537-.431,18.066,18.066,0,0,1,10.374.788,13.373,13.373,0,0,1,1.452.658C353.957,277.45,354.133,277.575,354.121,277.6Z" transform="translate(-147.03 -119.2)" fill="#e0e0e0"/>
    <path id="Path_5520" data-name="Path 5520" d="M383.8,258.015a42.9,42.9,0,0,1-1.48-5.15,36.825,36.825,0,0,1-1.134-5.235,37.206,37.206,0,0,1,1.48,5.15A37.823,37.823,0,0,1,383.8,258.015Z" transform="translate(-164.97 -107.173)" fill="#e0e0e0"/>
    <path id="Path_5521" data-name="Path 5521" d="M382.9,261.681a25.569,25.569,0,0,0-1.645-3.086,13.611,13.611,0,0,0-2.422-2.5,2.336,2.336,0,0,1,.936.482,7.538,7.538,0,0,1,1.764,1.821A6.9,6.9,0,0,1,382.9,261.681Z" transform="translate(-163.957 -110.839)" fill="#e0e0e0"/>
    <path id="Path_5522" data-name="Path 5522" d="M369.3,359.25c-.034,0-.108-.567-.374-1.577a22.208,22.208,0,0,0-1.583-4.1,56.761,56.761,0,0,0-8.395-11.832c-1.877-2.138-3.693-4.158-5.235-6.1a42.687,42.687,0,0,1-3.749-5.4,25.714,25.714,0,0,1-1.889-4.01c-.176-.493-.3-.879-.374-1.134a1.878,1.878,0,0,1-.1-.408c.034,0,.2.567.567,1.509a29.22,29.22,0,0,0,1.974,3.936,45.612,45.612,0,0,0,3.783,5.326c1.548,1.911,3.369,3.919,5.247,6.069a53.606,53.606,0,0,1,8.361,11.951,20.6,20.6,0,0,1,1.492,4.169,9.916,9.916,0,0,1,.21,1.191A1.925,1.925,0,0,1,369.3,359.25Z" transform="translate(-150.44 -140.525)" fill="#e0e0e0"/>
    <path id="Path_5523" data-name="Path 5523" d="M404.556,348.37a7.934,7.934,0,0,1-.981.567,21.988,21.988,0,0,0-2.541,1.7,28.77,28.77,0,0,0-3.341,3.046c-1.174,1.236-2.382,2.672-3.613,4.214-2.462,3.091-4.765,5.825-6.148,8.009-.7,1.083-1.208,2-1.543,2.638a7.93,7.93,0,0,1-.539.987.974.974,0,0,1,.091-.278c.074-.176.176-.442.329-.771a26.4,26.4,0,0,1,1.458-2.706,89.768,89.768,0,0,1,6.086-8.094c1.237-1.543,2.456-2.983,3.653-4.22a27.106,27.106,0,0,1,3.4-3.018,17.225,17.225,0,0,1,2.626-1.605,7.1,7.1,0,0,1,.766-.34A.906.906,0,0,1,404.556,348.37Z" transform="translate(-166.995 -150.774)" fill="#e0e0e0"/>
    <path id="Path_5524" data-name="Path 5524" d="M409.611,360.442a15.767,15.767,0,0,1-2.07.3,27.191,27.191,0,0,0-4.912.964,14.9,14.9,0,0,0-4.4,2.308c-1.015.788-1.492,1.435-1.537,1.4a1.512,1.512,0,0,1,.306-.476,8.135,8.135,0,0,1,1.078-1.106,13.263,13.263,0,0,1,4.447-2.445,22.537,22.537,0,0,1,5-.885A11.394,11.394,0,0,1,409.611,360.442Z" transform="translate(-171.686 -155.988)" fill="#e0e0e0"/>
    <path id="Path_5525" data-name="Path 5525" d="M397.743,362.536c-.108-.057.828-1.486,1.548-3.4s.839-3.636.964-3.613a3.342,3.342,0,0,1-.034,1.134,12.015,12.015,0,0,1-.607,2.62,12.475,12.475,0,0,1-1.2,2.4C398.044,362.23,397.783,362.565,397.743,362.536Z" transform="translate(-172.138 -153.868)" fill="#e0e0e0"/>
    <path id="Path_5526" data-name="Path 5526" d="M410.578,315.94a1.606,1.606,0,0,1-.329.176l-.976.442c-.425.181-.942.414-1.526.72s-1.271.613-1.979,1.044l-1.134.641c-.391.227-.783.493-1.191.749-.834.5-1.668,1.134-2.558,1.764a48.087,48.087,0,0,0-5.337,4.708,48.594,48.594,0,0,0-4.538,5.5c-.607.913-1.2,1.77-1.7,2.621-.244.42-.5.817-.709,1.214l-.607,1.134c-.4.726-.692,1.418-.97,2.014s-.5,1.134-.669,1.554l-.408.987a1.342,1.342,0,0,1-.164.335,1.593,1.593,0,0,1,.1-.357l.352-1.015a16.334,16.334,0,0,1,.618-1.577c.267-.607.539-1.31.93-2.048l.567-1.168c.2-.4.454-.805.7-1.237.465-.862,1.055-1.73,1.656-2.654a42.274,42.274,0,0,1,9.926-10.272c.908-.63,1.753-1.248,2.6-1.747.42-.255.811-.516,1.208-.737l1.134-.63c.72-.414,1.412-.715,2.014-1a16.228,16.228,0,0,1,1.554-.675l1-.386A1.7,1.7,0,0,1,410.578,315.94Z" transform="translate(-166.964 -136.738)" fill="#e0e0e0"/>
    <path id="Path_5527" data-name="Path 5527" d="M403.41,331.537a2.421,2.421,0,0,1,.811-1.214,5.1,5.1,0,0,1,3.278-1.254,8.848,8.848,0,0,1,3.454.675,4.847,4.847,0,0,1,1.3.63,7.448,7.448,0,0,1-1.384-.4,10.387,10.387,0,0,0-3.363-.567,5.326,5.326,0,0,0-3.131,1.1A9.435,9.435,0,0,0,403.41,331.537Z" transform="translate(-174.595 -142.42)" fill="#e0e0e0"/>
    <path id="Path_5528" data-name="Path 5528" d="M399.5,332.723a12.7,12.7,0,0,0,.93-3.035,13.632,13.632,0,0,0-.21-3.159c.1-.028.227.306.386.879a6.348,6.348,0,0,1,.165,2.32,6.239,6.239,0,0,1-.692,2.223C399.782,332.467,399.538,332.745,399.5,332.723Z" transform="translate(-172.901 -141.32)" fill="#e0e0e0"/>
    <path id="Path_5529" data-name="Path 5529" d="M357,391.6c.51,9.075,3.239,18.258,7.436,27.56h18.241c4-9.211,6.54-18.4,6.994-27.56Z" transform="translate(-154.509 -169.483)" fill="#e0e0e0"/>
    <path id="Path_5530" data-name="Path 5530" d="M388.919,417.29c0,.1-6.007.17-13.414.17s-13.414-.074-13.414-.17,6.007-.17,13.414-.17S388.919,417.2,388.919,417.29Z" transform="translate(-156.712 -180.528)" fill="#fafafa"/>
    <path id="Path_5531" data-name="Path 5531" d="M389.485,423.07c0,.1-5.632.176-12.581.176s-12.575-.079-12.575-.176,5.632-.17,12.575-.17S389.485,422.957,389.485,423.07Z" transform="translate(-157.681 -183.03)" fill="#fafafa"/>
    <path id="Path_5532" data-name="Path 5532" d="M370.506,402.08a51.939,51.939,0,0,1,0,8.4,50.25,50.25,0,0,1,0-8.4Z" transform="translate(-160.278 -174.019)" fill="#fafafa"/>
    <path id="Path_5533" data-name="Path 5533" d="M387.74,402.08a55.717,55.717,0,0,1,0,8.7,55.677,55.677,0,0,1,0-8.7Z" transform="translate(-167.739 -174.019)" fill="#fafafa"/>
    <path id="Path_5534" data-name="Path 5534" d="M403.92,402a57.974,57.974,0,0,1,0,8.877,57.968,57.968,0,0,1,0-8.877Z" transform="translate(-174.742 -173.984)" fill="#fafafa"/>
    <path id="Path_5535" data-name="Path 5535" d="M389.578,401.95c0,.091-7.045.17-15.734.17s-15.734-.08-15.734-.17,7.039-.17,15.734-.17S389.578,401.854,389.578,401.95Z" transform="translate(-154.989 -173.889)" fill="#fafafa"/>
    <rect id="Rectangle_920" data-name="Rectangle 920" width="43.709" height="45.563" transform="translate(200.801 0.011)" fill="#e0e0e0"/>
    <rect id="Rectangle_921" data-name="Rectangle 921" width="43.709" height="45.563" transform="translate(197.84 0.011)" fill="#fafafa"/>
    <path id="Path_5536" data-name="Path 5536" d="M392.517,45.592H348.78V0h43.737Zm-43.714,0h43.675V.028H348.8Z" transform="translate(-150.951)" fill="#e0e0e0"/>
    <rect id="Rectangle_922" data-name="Rectangle 922" width="31.962" height="33.312" transform="translate(203.717 6.137)" fill="#fff"/>
    <path id="Path_5537" data-name="Path 5537" d="M354.711,70a5.246,5.246,0,0,1-.788.913c-.51.567-1.231,1.271-2.031,2.065s-1.543,1.5-2.087,2a5.5,5.5,0,0,1-.925.771,4.965,4.965,0,0,1,.783-.913c.51-.567,1.231-1.271,2.036-2.065s1.548-1.5,2.093-2a4.967,4.967,0,0,1,.919-.766Z" transform="translate(-150.994 -30.296)" fill="#e0e0e0"/>
    <path id="Path_5538" data-name="Path 5538" d="M415.5,69.8a5.138,5.138,0,0,1,.919.788c.539.51,1.271,1.231,2.059,2.036s1.5,1.543,2,2.087a4.948,4.948,0,0,1,.766.925,5.5,5.5,0,0,1-.924-.788c-.539-.51-1.271-1.231-2.065-2.036s-1.5-1.543-2-2.087A5.166,5.166,0,0,1,415.5,69.8Z" transform="translate(-179.827 -30.209)" fill="#e0e0e0"/>
    <path id="Path_5539" data-name="Path 5539" d="M415.35,6.607a5.381,5.381,0,0,1,.788-.919c.51-.539,1.231-1.265,2.031-2.059s1.52-1.509,2.087-2.008a5.16,5.16,0,0,1,.925-.771,4.963,4.963,0,0,1-.783.913c-.51.567-1.231,1.271-2.036,2.065s-1.548,1.5-2.076,2a5.047,5.047,0,0,1-.936.777Z" transform="translate(-179.762 -0.368)" fill="#e0e0e0"/>
    <path id="Path_5540" data-name="Path 5540" d="M354.62,6.671a4.857,4.857,0,0,1-.919-.788c-.539-.51-1.271-1.225-2.059-2.031s-1.5-1.543-2-2.087a4.944,4.944,0,0,1-.76-.925,5.184,5.184,0,0,1,.913.788c.539.5,1.27,1.225,2.065,2.031s1.5,1.548,2,2.093a5.285,5.285,0,0,1,.76.919Z" transform="translate(-150.994 -0.364)" fill="#e0e0e0"/>
    <path id="Path_5541" data-name="Path 5541" d="M390.962,43.938V41.511c0-1.577,0-3.874-.034-6.806,0-5.837-.034-14.146-.062-24.1l.125.125H359.125l.142-.142V43.9l-.119-.125,23.08.062,6.477.034h2.144a.624.624,0,0,1,.153,0h-8.724l-23.153.062H359V10.36h32.138v.119c-.028,9.988-.051,18.326-.062,24.18,0,2.9,0,5.19-.034,6.761v2.229A.931.931,0,0,1,390.962,43.938Z" transform="translate(-155.374 -4.484)" fill="#e0e0e0"/>
    <rect id="Rectangle_923" data-name="Rectangle 923" width="10.663" height="10.663" transform="translate(214.363 17.464)" fill="#ebebeb"/>
    <rect id="Rectangle_924" data-name="Rectangle 924" width="49.914" height="72.352" transform="translate(4.135 72.001)" fill="#e0e0e0"/>
    <rect id="Rectangle_925" data-name="Rectangle 925" width="49.914" height="72.352" transform="translate(1.639 72.001)" fill="#f5f5f5"/>
    <rect id="Rectangle_926" data-name="Rectangle 926" width="37.509" height="56.675" transform="translate(7.839 79.839)" fill="#fff"/>
    <path id="Path_5542" data-name="Path 5542" d="M51.28,197.275v-4.192c0-2.711,0-6.67-.034-11.673,0-9.994-.034-24.146-.062-40.839l.1.164h-37.5l.136-.136c0,21.378,0,41.094-.028,56.675l-.108-.108,27.305.057h7.583l-7.521.028-27.368.057h-.108V197.2c0-15.581,0-35.3-.028-56.675v-.136H51.41v.125c0,16.7-.045,30.879-.062,40.89v15.524A.982.982,0,0,1,51.28,197.275Z" transform="translate(-5.903 -60.76)" fill="#e0e0e0"/>
    <path id="Path_5543" data-name="Path 5543" d="M85.945,126.94a8.1,8.1,0,0,1-.885,1.293c-.567.777-1.407,1.832-2.343,2.972s-1.821,2.15-2.467,2.836a8.746,8.746,0,0,1-1.1,1.134,9.424,9.424,0,0,1,.953-1.248l2.4-2.915,2.4-2.9a9.9,9.9,0,0,1,1.038-1.168Z" transform="translate(-34.256 -54.939)" fill="#e0e0e0"/>
    <path id="Path_5544" data-name="Path 5544" d="M80.29,240.36a46.382,46.382,0,0,0,6.546,8.185" transform="translate(-34.749 -104.027)" fill="#fff"/>
    <path id="Path_5545" data-name="Path 5545" d="M86.844,248.545a7.6,7.6,0,0,1-1.134-1.038c-.669-.681-1.56-1.651-2.467-2.785A35.073,35.073,0,0,1,81.07,241.7a7.6,7.6,0,0,1-.76-1.339,10.087,10.087,0,0,1,.919,1.231c.567.777,1.327,1.832,2.229,2.961s1.764,2.116,2.394,2.836A10.9,10.9,0,0,1,86.844,248.545Z" transform="translate(-34.758 -104.027)" fill="#e0e0e0"/>
    <path id="Path_5546" data-name="Path 5546" d="M2.87,248.241q3.267-4.039,6.54-8.071" transform="translate(-1.242 -103.945)" fill="#fff"/>
    <path id="Path_5547" data-name="Path 5547" d="M9.41,240.17a49.385,49.385,0,0,1-3.165,4.118,49.09,49.09,0,0,1-3.375,3.97,49.962,49.962,0,0,1,3.165-4.124A50.989,50.989,0,0,1,9.41,240.17Z" transform="translate(-1.242 -103.945)" fill="#e0e0e0"/>
    <path id="Path_5548" data-name="Path 5548" d="M2.89,126.94a46.307,46.307,0,0,1,3.171,3.795,44.585,44.585,0,0,1,2.961,3.97,46.814,46.814,0,0,1-3.176-3.795,44.744,44.744,0,0,1-2.955-3.97Z" transform="translate(-1.251 -54.939)" fill="#e0e0e0"/>
    <rect id="Rectangle_927" data-name="Rectangle 927" width="12.558" height="35.66" transform="translate(21.1 91.348)" fill="#e0e0e0"/>
    <path id="Path_5549" data-name="Path 5549" d="M39.168,37.614a20.5,20.5,0,0,0-11.191,26.7L40.688,95.35l5.7-2.337L33.683,61.981A14.311,14.311,0,0,1,60.172,51.136L65.844,48.8A20.5,20.5,0,0,0,39.168,37.614Z" transform="translate(-11.449 -15.624)" fill="#ff725e"/>
    <g id="Group_3676" data-name="Group 3676" transform="translate(15.004 20.476)" opacity="0.3">
      <path id="Path_5550" data-name="Path 5550" d="M39.168,37.614a20.5,20.5,0,0,0-11.191,26.7L40.688,95.35l5.7-2.337L33.683,61.981A14.311,14.311,0,0,1,60.172,51.136L65.844,48.8A20.5,20.5,0,0,0,39.168,37.614Z" transform="translate(-26.453 -36.099)" fill="#fe8f0a"/>
    </g>
    <rect id="Rectangle_928" data-name="Rectangle 928" width="55.183" height="35.405" rx="5.81" transform="translate(17.001 68.62) rotate(-22.27)" fill="#fe8f0a"/>
    <g id="Group_3677" data-name="Group 3677" transform="translate(42.882 65.675)" opacity="0.5">
      <path id="Path_5551" data-name="Path 5551" d="M84.478,118.642a4.611,4.611,0,1,0-3.755,6.341l2.609,6.381,2.331-.953-2.615-6.387A4.583,4.583,0,0,0,84.478,118.642Z" transform="translate(-75.603 -115.788)"/>
    </g>
    <path id="Path_5552" data-name="Path 5552" d="M48.551,152.671c-.119.051-2.45-5.371-5.207-12.11s-4.906-12.246-4.787-12.291,2.45,5.371,5.207,12.115S48.664,152.625,48.551,152.671Z" transform="translate(-16.685 -55.515)" fill="#fafafa"/>
    <path id="Path_5553" data-name="Path 5553" d="M77.728,126.826a1.356,1.356,0,0,1-.618-.079,5.531,5.531,0,0,1-1.531-.692,6.46,6.46,0,0,1-1.548-9.847,5.558,5.558,0,0,1,1.276-1.134,1.54,1.54,0,0,1,.567-.267,14.5,14.5,0,0,0-1.588,1.588,6.392,6.392,0,0,0,1.475,9.37A14.4,14.4,0,0,0,77.728,126.826Z" transform="translate(-31.336 -49.687)" fill="#fafafa"/>
    <path id="Path_5554" data-name="Path 5554" d="M16.6,145.205l.278-.805.528.669a3.534,3.534,0,0,0,1.634,1.134l.805.272-.692.533a3.579,3.579,0,0,0-1.134,1.639l-.284.817-.528-.664a3.579,3.579,0,0,0-1.639-1.134l-.8-.278.664-.528a3.534,3.534,0,0,0,1.168-1.656Z" transform="translate(-6.392 -62.496)" fill="#4f9e55"/>
    <path id="Path_5555" data-name="Path 5555" d="M64.611,89.645l.159-.465.306.386a2.1,2.1,0,0,0,.953.675l.465.159-.386.306a2.059,2.059,0,0,0-.675.947l-.159.465-.306-.386a2.087,2.087,0,0,0-.947-.669L63.55,90.9l.391-.306A2.139,2.139,0,0,0,64.611,89.645Z" transform="translate(-27.504 -38.597)" fill="#4f9e55"/>
    <path id="Path_5556" data-name="Path 5556" d="M6.035,95.97,6.5,94.62l.891,1.134a6,6,0,0,0,2.745,1.917l1.35.459-1.134.891a6,6,0,0,0-1.946,2.745l-.465,1.35-.885-1.134a6,6,0,0,0-2.745-1.945L3,99.594,4.134,98.7a5.944,5.944,0,0,0,1.9-2.734Z" transform="translate(-1.298 -40.951)" fill="#fe8f0a"/>
    <path id="Path_5557" data-name="Path 5557" d="M206.285,255.967l-83.725-.051a18.241,18.241,0,0,1-18.23-18.241l.04-209.9A18.241,18.241,0,0,1,122.622,9.54l83.725.051a18.236,18.236,0,0,1,18.23,18.241l-.04,209.9A18.241,18.241,0,0,1,206.285,255.967Z" transform="translate(-45.154 -4.129)" fill="#263238"/>
    <path id="Path_5558" data-name="Path 5558" d="M210.472,22.69H194.239a4.033,4.033,0,0,0-3.919,4.129v2.944a4.033,4.033,0,0,1-3.97,4.118H154.71a4.038,4.038,0,0,1-3.942-4.124V26.774a4.038,4.038,0,0,0-3.942-4.124H126.934A12.779,12.779,0,0,0,114.15,35.418L114.11,240.3a12.779,12.779,0,0,0,12.768,12.779l83.56.045a12.768,12.768,0,0,0,12.779-12.768l.04-204.885A12.768,12.768,0,0,0,210.472,22.69Z" transform="translate(-49.386 -9.803)" fill="#fff"/>
    <path id="Path_5559" data-name="Path 5559" d="M194.2,400.154a1.605,1.605,0,1,1-1.617-1.594A1.605,1.605,0,0,1,194.2,400.154Z" transform="translate(-82.66 -172.496)" fill="#263238"/>
    <path id="Path_5560" data-name="Path 5560" d="M210.04,400.024a1.605,1.605,0,1,1-1.617-1.594,1.605,1.605,0,0,1,1.617,1.594Z" transform="translate(-89.515 -172.439)" fill="#263238"/>
    <path id="Path_5561" data-name="Path 5561" d="M225.89,399.888a1.605,1.605,0,1,1-1.617-1.588A1.605,1.605,0,0,1,225.89,399.888Z" transform="translate(-96.375 -172.383)" fill="#263238"/>
    <path id="Path_5562" data-name="Path 5562" d="M277.7,59.144c0,.051-2.116.108-4.719.125s-4.713,0-4.713-.045,2.11-.108,4.713-.13S277.7,59.093,277.7,59.144Z" transform="translate(-116.106 -25.572)" fill="#263238"/>
    <path id="Path_5563" data-name="Path 5563" d="M277.733,63.4c0,.051-2.11.108-4.713.13s-4.719,0-4.719-.051,2.11-.108,4.719-.125S277.733,63.355,277.733,63.4Z" transform="translate(-116.119 -27.417)" fill="#263238"/>
    <path id="Path_5564" data-name="Path 5564" d="M277.8,67.654c0,.045-2.116.108-4.719.125s-4.713,0-4.713-.045,2.11-.108,4.713-.13S277.8,67.6,277.8,67.654Z" transform="translate(-116.15 -29.255)" fill="#263238"/>
    <path id="Path_5565" data-name="Path 5565" d="M133.67,66.579h.76l2.019-.04-.051.045V65.127a8.345,8.345,0,0,1,0-.839.76.76,0,0,1,.664-.613h.964a.777.777,0,0,1,.652.771v2.127l-.085-.079h2.541l-.085.091c0-1.027,0-2.082-.028-3.165v-.811a.68.68,0,0,0-.1-.329,2.342,2.342,0,0,0-.261-.278l-1.134-1.095-1.072-1.055-.516-.51a1.169,1.169,0,0,0-.533-.4.686.686,0,0,0-.567.113c-.153.13-.318.318-.471.465l-.913.919c-.567.6-1.168,1.134-1.605,1.656a1.827,1.827,0,0,0-.125.953v-.488a1.055,1.055,0,0,1,.142-.528c.471-.567,1.032-1.083,1.611-1.7l.9-.925c.165-.159.3-.318.488-.488a.879.879,0,0,1,.732-.142,1.362,1.362,0,0,1,.6.437c.176.164.346.335.522.51l1.078,1.055,1.134,1.089a2.132,2.132,0,0,1,.284.306.851.851,0,0,1,.13.425v4.061h-2.711V64.452a.618.618,0,0,0-.522-.624h-.925a.63.63,0,0,0-.567.5v2.326h-2.762A.931.931,0,0,1,133.67,66.579Z" transform="translate(-57.852 -25.428)" fill="#263238"/>
    <path id="Path_5566" data-name="Path 5566" d="M165.652,155.879c0,1.963-1.475,3.188-3.834,3.188h-1.775V161.5H158v-8.82h3.817C164.177,152.68,165.652,153.9,165.652,155.879Zm-2.07,0c0-.97-.63-1.537-1.877-1.537h-1.662V157.4H161.7c1.248,0,1.877-.567,1.877-1.52Z" transform="translate(-68.382 -66.079)" fill="#263238"/>
    <path id="Path_5567" data-name="Path 5567" d="M179.339,159.128V163H177.49v-.845a2.223,2.223,0,0,1-2.065.942c-1.588,0-2.535-.879-2.535-2.053s.845-2.025,2.91-2.025h1.565c0-.845-.5-1.339-1.565-1.339a3.262,3.262,0,0,0-1.94.652l-.709-1.373a5.247,5.247,0,0,1,2.927-.817C178.142,156.116,179.339,157.069,179.339,159.128Zm-1.963,1.7v-.692h-1.35c-.919,0-1.208.34-1.208.794s.414.817,1.134.817a1.446,1.446,0,0,0,1.424-.9Z" transform="translate(-74.826 -67.576)" fill="#263238"/>
    <path id="Path_5568" data-name="Path 5568" d="M186.24,162.349l.658-1.412a4.605,4.605,0,0,0,2.354.652c.908,0,1.248-.238,1.248-.618,0-1.106-4.1.028-4.1-2.683,0-1.282,1.134-2.189,3.137-2.189a5.536,5.536,0,0,1,2.609.567l-.652,1.4a3.891,3.891,0,0,0-1.957-.5c-.879,0-1.259.278-1.259.63,0,1.134,4.1.04,4.1,2.711,0,1.259-1.174,2.15-3.2,2.15A5.848,5.848,0,0,1,186.24,162.349Z" transform="translate(-80.604 -67.558)" fill="#263238"/>
    <path id="Path_5569" data-name="Path 5569" d="M198,162.349l.652-1.412a4.64,4.64,0,0,0,2.36.652c.908,0,1.248-.238,1.248-.618,0-1.106-4.1.028-4.1-2.683,0-1.282,1.134-2.189,3.137-2.189a5.553,5.553,0,0,1,2.609.567l-.658,1.4a3.856,3.856,0,0,0-1.951-.5c-.885,0-1.259.278-1.259.63,0,1.134,4.1.04,4.1,2.711,0,1.259-1.174,2.15-3.2,2.15A5.836,5.836,0,0,1,198,162.349Z" transform="translate(-85.694 -67.558)" fill="#263238"/>
    <path id="Path_5570" data-name="Path 5570" d="M220.993,156.27l-2.456,6.806h-1.911l-1.526-4.209-1.577,4.209h-1.889l-2.445-6.806h1.855l1.6,4.589,1.662-4.589h1.662l1.617,4.589,1.651-4.589Z" transform="translate(-90.537 -67.633)" fill="#263238"/>
    <path id="Path_5571" data-name="Path 5571" d="M230.37,159.588a3.732,3.732,0,1,1,3.727,3.488A3.485,3.485,0,0,1,230.37,159.588Zm5.456,0a1.736,1.736,0,1,0-1.73,1.877,1.7,1.7,0,0,0,1.736-1.877Z" transform="translate(-99.703 -67.56)" fill="#263238"/>
    <path id="Path_5572" data-name="Path 5572" d="M250.019,156.092v1.815a4.041,4.041,0,0,0-.442-.028,1.668,1.668,0,0,0-1.8,1.889v3.2H245.81v-6.806h1.877v.9A2.734,2.734,0,0,1,250.019,156.092Z" transform="translate(-106.386 -67.552)" fill="#263238"/>
    <path id="Path_5573" data-name="Path 5573" d="M261.651,151.74v9.353h-1.877v-.783a2.615,2.615,0,0,1-2.116.879,3.488,3.488,0,0,1,0-6.977,2.592,2.592,0,0,1,2.025.817v-3.29Zm-1.906,5.961a1.736,1.736,0,1,0-1.7,1.877,1.7,1.7,0,0,0,1.7-1.877Z" transform="translate(-110.004 -65.673)" fill="#263238"/>
    <path id="Path_5574" data-name="Path 5574" d="M222.415,180.967c0,.085-20.986.147-46.9.147s-46.913-.062-46.913-.147,20.987-.147,46.913-.147S222.415,180.888,222.415,180.967Z" transform="translate(-55.658 -78.258)" fill="#e0e0e0"/>
    <path id="Path_5575" data-name="Path 5575" d="M218.585,333.238c0,.079-20.987.147-46.908.147s-46.908-.068-46.908-.147,20.987-.148,46.908-.148S218.585,333.152,218.585,333.238Z" transform="translate(-54 -144.16)" fill="#e0e0e0"/>
    <path id="Path_5576" data-name="Path 5576" d="M212.995,344.668c0,.079-11.667.147-26.057.147s-26.057-.068-26.057-.147,11.662-.148,26.057-.148S212.995,344.588,212.995,344.668Z" transform="translate(-69.628 -149.107)" fill="#e0e0e0"/>
    <path id="Path_5577" data-name="Path 5577" d="M139.785,222.947l1.775.964-.8,1.333-1.792-1.055.034,1.968h-1.531v-1.985l-1.8,1.072-.783-1.333,1.781-.964-1.781-.976.783-1.339,1.8,1.078V219.72H139l-.034,1.991,1.792-1.078.8,1.339Z" transform="translate(-58.38 -95.094)" fill="#4f9e55"/>
    <path id="Path_5578" data-name="Path 5578" d="M175.7,222.947l1.775.964-.8,1.333-1.792-1.055.034,1.968h-1.537v-1.985l-1.792,1.072-.783-1.333,1.775-.964-1.775-.976.783-1.339,1.792,1.078V219.72h1.537l-.034,1.991,1.792-1.078.8,1.339Z" transform="translate(-73.926 -95.094)" fill="#4f9e55"/>
    <path id="Path_5579" data-name="Path 5579" d="M210.682,222.947l1.775.964-.8,1.333-1.77-1.055.034,1.968h-1.531v-1.985l-1.8,1.072-.783-1.333,1.781-.964-1.781-.976.783-1.339,1.8,1.078V219.72h1.5l-.034,1.991,1.792-1.078.8,1.339Z" transform="translate(-89.074 -95.094)" fill="#4f9e55"/>
    <path id="Path_5580" data-name="Path 5580" d="M244.539,222.947l1.775.964-.794,1.333-1.792-1.055.034,1.968h-1.531v-1.985l-1.8,1.072-.783-1.333,1.781-.964-1.781-.976.783-1.339,1.8,1.078V219.72h1.531l-.034,1.991,1.792-1.078.8,1.339Z" transform="translate(-103.72 -95.094)" fill="#4f9e55"/>
    <path id="Path_5581" data-name="Path 5581" d="M278.139,222.947l1.781.964-.8,1.333-1.792-1.055.028,1.968h-1.531v-1.985l-1.792,1.072-.783-1.333,1.775-.964-1.775-.976.783-1.339,1.792,1.078V219.72h1.531l-.028,1.991,1.792-1.078.8,1.339Z" transform="translate(-118.262 -95.094)" fill="#4f9e55"/>
    <path id="Path_5582" data-name="Path 5582" d="M139.479,229.432h-8.6a4.016,4.016,0,0,1-4.01-4.01V210.17a4.016,4.016,0,0,1,4.01-4.01h8.6a4.01,4.01,0,0,1,4,4.01v15.252a4.01,4.01,0,0,1-4,4.01Zm-8.6-22.989a3.732,3.732,0,0,0-3.727,3.727v15.252a3.726,3.726,0,0,0,3.727,3.726h8.6a3.727,3.727,0,0,0,3.721-3.726V210.17a3.726,3.726,0,0,0-3.721-3.727Z" transform="translate(-54.909 -89.225)" fill="#263238"/>
    <path id="Path_5583" data-name="Path 5583" d="M174.663,229.432H166.07a4.016,4.016,0,0,1-4.01-4.01V210.17a4.016,4.016,0,0,1,4.01-4.01h8.593a4.016,4.016,0,0,1,4.01,4.01v15.252a4.016,4.016,0,0,1-4.01,4.01Zm-8.593-22.989a3.732,3.732,0,0,0-3.727,3.727v15.252a3.726,3.726,0,0,0,3.727,3.726h8.593a3.726,3.726,0,0,0,3.726-3.726V210.17a3.726,3.726,0,0,0-3.726-3.727Z" transform="translate(-70.139 -89.225)" fill="#263238"/>
    <path id="Path_5584" data-name="Path 5584" d="M208.889,229.432h-8.6a4.016,4.016,0,0,1-4.01-4.01V210.17a4.016,4.016,0,0,1,4.01-4.01h8.6a4.01,4.01,0,0,1,4,4.01v15.252a4.01,4.01,0,0,1-4,4.01Zm-8.6-22.989a3.732,3.732,0,0,0-3.727,3.727v15.252a3.726,3.726,0,0,0,3.727,3.726h8.6a3.727,3.727,0,0,0,3.721-3.726V210.17a3.727,3.727,0,0,0-3.721-3.727Z" transform="translate(-84.949 -89.225)" fill="#263238"/>
    <path id="Path_5585" data-name="Path 5585" d="M243.516,229.432H234.94a4.016,4.016,0,0,1-4.01-4.01V210.17a4.016,4.016,0,0,1,4.01-4.01h8.6a4.01,4.01,0,0,1,4,4.01v15.252a4.01,4.01,0,0,1-4.027,4.01Zm-8.576-22.989a3.732,3.732,0,0,0-3.727,3.727v15.252a3.726,3.726,0,0,0,3.727,3.726h8.6a3.726,3.726,0,0,0,3.721-3.726V210.17a3.726,3.726,0,0,0-3.721-3.727Z" transform="translate(-99.946 -89.225)" fill="#263238"/>
    <path id="Path_5586" data-name="Path 5586" d="M277.1,229.432H268.51a4.016,4.016,0,0,1-4.01-4.01V210.17a4.016,4.016,0,0,1,4.01-4.01H277.1a4.016,4.016,0,0,1,4.01,4.01v15.252a4.016,4.016,0,0,1-4.01,4.01Zm-8.593-22.989a3.726,3.726,0,0,0-3.727,3.727v15.252a3.726,3.726,0,0,0,3.727,3.726H277.1a3.726,3.726,0,0,0,3.727-3.726V210.17a3.727,3.727,0,0,0-3.726-3.727Z" transform="translate(-114.475 -89.225)" fill="#263238"/>
    <path id="Path_5709" data-name="Path 5709" d="M8.434,0H87.871a8.434,8.434,0,1,1,0,16.869H8.434A8.434,8.434,0,0,1,8.434,0Z" transform="translate(72.097 158.63)" fill="#4f9e55"/>
    <path id="Path_5587" data-name="Path 5587" d="M190.57,288.57h2.592a2.851,2.851,0,1,1,0,5.672H190.57Zm2.53,4.617a1.77,1.77,0,1,0,0-3.534h-1.208v3.534Z" transform="translate(-82.478 -124.892)" fill="#fff"/>
    <path id="Path_5588" data-name="Path 5588" d="M201.707,292.8a2.416,2.416,0,1,1,2.416,2.269,2.269,2.269,0,0,1-2.416-2.269Zm3.534,0a1.134,1.134,0,1,0-1.134,1.214,1.106,1.106,0,0,0,1.134-1.214Z" transform="translate(-87.296 -125.615)" fill="#fff"/>
    <path id="Path_5589" data-name="Path 5589" d="M216.191,292.727v2.513H214.92v-2.32c0-.709-.329-1.032-.891-1.032a1.043,1.043,0,0,0-1.049,1.18v2.172H211.71v-4.39h1.214v.516a1.923,1.923,0,0,1,1.452-.567A1.7,1.7,0,0,1,216.191,292.727Z" transform="translate(-91.627 -125.856)" fill="#fff"/>
    <path id="Path_5590" data-name="Path 5590" d="M225.75,293.375h-3.318a1.174,1.174,0,0,0,1.254.885,1.492,1.492,0,0,0,1.1-.425l.681.732a2.563,2.563,0,0,1-4.316-1.56,2.235,2.235,0,0,1,2.343-2.269,2.167,2.167,0,0,1,2.269,2.269A2.449,2.449,0,0,1,225.75,293.375Zm-3.335-.743h2.161a1.095,1.095,0,0,0-2.161,0Z" transform="translate(-95.713 -125.829)" fill="#fff"/>
    <circle id="Ellipse_374" data-name="Ellipse 374" cx="17.044" cy="17.044" r="17.044" transform="translate(102.255 44.004)" fill="#4f9e55"/>
    <path id="Path_5591" data-name="Path 5591" d="M204.784,98.418H204.5V96.824a3.324,3.324,0,1,1,6.648,0v1.3h-.284v-1.3a3.04,3.04,0,1,0-6.08,0Z" transform="translate(-88.507 -40.467)" fill="#fff"/>
    <path id="Path_5592" data-name="Path 5592" d="M210.262,113.173h-8.451a1.407,1.407,0,0,1-1.4-1.4v-8.451a1.4,1.4,0,0,1,1.4-1.4h8.451a1.4,1.4,0,0,1,1.4,1.4v8.451A1.407,1.407,0,0,1,210.262,113.173Zm-8.451-10.97a1.134,1.134,0,0,0-1.134,1.134v8.451a1.134,1.134,0,0,0,1.134,1.134h8.451a1.134,1.134,0,0,0,1.134-1.134v-8.451a1.134,1.134,0,0,0-1.134-1.134Z" transform="translate(-86.737 -44.111)" fill="#fff"/>
    <path id="Path_5593" data-name="Path 5593" d="M209.387,110.3a1.327,1.327,0,1,1,1.327-1.327A1.327,1.327,0,0,1,209.387,110.3Zm0-2.371a1.044,1.044,0,1,0,1.044,1.044A1.044,1.044,0,0,0,209.387,107.934Z" transform="translate(-90.048 -46.591)" fill="#fff"/>
    <rect id="Rectangle_930" data-name="Rectangle 930" width="0.284" height="2.394" transform="translate(119.158 63.51)" fill="#fff"/>
    <path id="Path_5594" data-name="Path 5594" d="M401.793,404.04l-10.7-24.69-12.28,7.884L391.833,409.8l6.529-2.927Z" transform="translate(-163.948 -164.182)" fill="#ffbe9d"/>
    <path id="Path_5595" data-name="Path 5595" d="M410.267,420.46l.352.7s14.265-1.219,15.53.97L402.53,433.886l-3.59-8.015A15.138,15.138,0,0,0,410.267,420.46Z" transform="translate(-172.66 -181.974)" fill="#4f9e55"/>
    <g id="Group_3678" data-name="Group 3678" transform="translate(229.584 244.973)" opacity="0.6">
      <path id="Path_5596" data-name="Path 5596" d="M405.1,432.136a1.072,1.072,0,0,0-.119,1.429,1.027,1.027,0,0,0,1.418.13,1.134,1.134,0,0,0,.119-1.514,1.078,1.078,0,0,0-1.492.028" transform="translate(-404.765 -431.896)" fill="#fff"/>
    </g>
    <g id="Group_3679" data-name="Group 3679" transform="translate(229.008 239.421)" opacity="0.6">
      <path id="Path_5597" data-name="Path 5597" d="M404.612,434.6l-.862-1.934L426.7,422.109s1.282-.068,1.531.732Z" transform="translate(-403.75 -422.107)" fill="#fff"/>
    </g>
    <path id="Path_5598" data-name="Path 5598" d="M418.537,421.708c.051.119-.5.459-.879,1.134s-.448,1.287-.567,1.293-.289-.743.187-1.526S418.509,421.589,418.537,421.708Z" transform="translate(-180.46 -182.501)" fill="#263238"/>
    <path id="Path_5599" data-name="Path 5599" d="M424.268,421.356c.085.1-.318.539-.465,1.225s0,1.254-.125,1.3-.516-.567-.312-1.407S424.211,421.242,424.268,421.356Z" transform="translate(-183.206 -182.353)" fill="#263238"/>
    <path id="Path_5600" data-name="Path 5600" d="M429.657,423.5c-.1.074-.567-.42-.567-1.2s.4-1.3.494-1.225-.068.567-.045,1.214S429.765,423.434,429.657,423.5Z" transform="translate(-185.709 -182.237)" fill="#263238"/>
    <path id="Path_5601" data-name="Path 5601" d="M373.137,409.908,373.545,383l-14.435,2.127,2.575,25.933,7.158.017Z" transform="translate(-155.422 -165.761)" fill="#ffbe9d"/>
    <path id="Path_5602" data-name="Path 5602" d="M374.855,428.05l.04.783s13.5,4.765,13.749,7.277l-26.364.987.028-8.786A15.06,15.06,0,0,0,374.855,428.05Z" transform="translate(-156.794 -185.259)" fill="#4f9e55"/>
    <g id="Group_3680" data-name="Group 3680" transform="translate(207.569 245.748)" opacity="0.6">
      <path id="Path_5603" data-name="Path 5603" d="M366.672,433.272a1.083,1.083,0,0,0-.692,1.259,1.038,1.038,0,0,0,1.242.7,1.134,1.134,0,0,0,.732-1.333,1.078,1.078,0,0,0-1.373-.567" transform="translate(-365.953 -433.262)" fill="#fff"/>
    </g>
    <g id="Group_3681" data-name="Group 3681" transform="translate(205.486 249.547)" opacity="0.6">
      <path id="Path_5604" data-name="Path 5604" d="M362.28,442.251v-2.116l25.263-.176s1.2.471,1.095,1.3Z" transform="translate(-362.28 -439.96)" fill="#fff"/>
    </g>
    <path id="Path_5605" data-name="Path 5605" d="M382.886,429.481c0,.125-.641.21-1.259.647s-.93.993-1.055.947.045-.8.805-1.316S382.908,429.362,382.886,429.481Z" transform="translate(-164.694 -185.834)" fill="#263238"/>
    <path id="Path_5606" data-name="Path 5606" d="M388.347,431.353c.034.125-.51.363-.93.924s-.522,1.134-.647,1.134-.238-.726.289-1.412S388.341,431.228,388.347,431.353Z" transform="translate(-167.348 -186.668)" fill="#263238"/>
    <path id="Path_5607" data-name="Path 5607" d="M392.49,435.4c-.113.034-.318-.607,0-1.322s.9-1.021.959-.919-.3.5-.567,1.089S392.621,435.379,392.49,435.4Z" transform="translate(-169.795 -187.46)" fill="#263238"/>
    <path id="Path_5608" data-name="Path 5608" d="M346.176,220.831l-.539-21.191-20.624,1.089-.692,2.518a113.385,113.385,0,0,0-2.7,11.792c-1.384,8.877-1.22,16.959,2.269,26.443S332.83,269,332.83,269l20.459,56.51,23.822-7.833Z" transform="translate(-138.846 -86.404)" fill="#263238"/>
    <path id="Path_5609" data-name="Path 5609" d="M372.779,198.44l1.8,5.865c2.643,1.7,6.914,10.039,7.306,13.454a198.49,198.49,0,0,1,.357,28.808c-.664,11.27-6.239,77.242-6.239,77.242l-22.541,1.185,2.348-106.668.992-19.047Z" transform="translate(-152.976 -85.884)" fill="#263238"/>
    <path id="Path_5610" data-name="Path 5610" d="M319.42,223.8a3.626,3.626,0,0,0,.783.233,12.938,12.938,0,0,0,2.2.295,14.333,14.333,0,0,0,12.609-6.239,12.587,12.587,0,0,0,1.095-1.928,3.518,3.518,0,0,0,.289-.76c-.057-.034-.482,1.055-1.565,2.558a14.787,14.787,0,0,1-12.416,6.154A29.683,29.683,0,0,1,319.42,223.8Z" transform="translate(-138.244 -93.224)" fill="#455a64"/>
    <path id="Path_5611" data-name="Path 5611" d="M386,210.24a1.536,1.536,0,0,0,.131.488,10.335,10.335,0,0,0,.522,1.276,16.382,16.382,0,0,0,5.944,6.744,12.457,12.457,0,0,0,1.2.681,1.779,1.779,0,0,0,.471.187c.028-.045-.6-.391-1.543-1.049a19.853,19.853,0,0,1-3.335-2.984,19.536,19.536,0,0,1-2.535-3.681C386.312,210.886,386.051,210.217,386,210.24Z" transform="translate(-167.06 -90.991)" fill="#455a64"/>
    <path id="Path_5612" data-name="Path 5612" d="M357.409,242s.057.147.153.437.233.737.414,1.3c.363,1.134.891,2.836,1.565,5l5.712,18.406c4.889,15.519,11.1,37.129,19.427,60.526q1.429,4.2,2.836,8.3l.045.147-.142.045L363.6,343.983l-.13.045-.045-.13-13.7-38-3.9-10.885c-.448-1.259-.788-2.229-1.027-2.9q-.17-.488-.255-.749l-.085-.255s.04.085.1.25l.284.743,1.066,2.881,3.97,10.856c3.4,9.314,8.173,22.49,13.794,37.946l-.17-.085,23.822-7.839-.1.193q-1.4-4.1-2.836-8.3c-8.327-23.4-14.5-45.025-19.342-60.56-2.371-7.776-4.288-14.072-5.621-18.434-.652-2.172-1.163-3.863-1.509-5.02-.17-.567-.295-1-.386-1.3Z" transform="translate(-149.081 -104.737)" fill="#455a64"/>
    <path id="Path_5613" data-name="Path 5613" d="M360.131,120.824s-1.078-6.035-4.169-8.916-15.955-6.154-15.955-6.154.153,4.47-2.728,5.672a7.218,7.218,0,0,1-8.508-1.7,12.325,12.325,0,0,1-2.932-5.6s-15.269,2.223-17.441,6.364-4.447,19.852-4.447,19.852l13.84,2.184-.454,26.874,36.358-1.911-2.07-25.07,9.971.891Z" transform="translate(-131.549 -45.063)" fill="#455a64"/>
    <path id="Path_5614" data-name="Path 5614" d="M332.3,143.826a2.829,2.829,0,0,0,0-.607c0-.391-.034-.953-.074-1.645-.074-1.39-.193-3.307-.352-5.422s-.312-4.027-.442-5.411c-.068-.7-.125-1.254-.17-1.639a2.345,2.345,0,0,0-.108-.6,2.41,2.41,0,0,0,0,.607c0,.386.034.947.074,1.645.074,1.384.193,3.3.352,5.422s.312,4.027.442,5.411c.062.7.125,1.254.17,1.639A2.069,2.069,0,0,0,332.3,143.826Z" transform="translate(-143.315 -55.614)" fill="#263238"/>
    <path id="Path_5615" data-name="Path 5615" d="M390.69,132.88c-.085,0-.794,2.745-1.588,6.165a63.668,63.668,0,0,0-1.282,6.239,63.057,63.057,0,0,0,1.588-6.165A63.67,63.67,0,0,0,390.69,132.88Z" transform="translate(-167.847 -57.51)" fill="#263238"/>
    <path id="Path_5616" data-name="Path 5616" d="M314.36,113.522c0,.057.658.142,1.7.471a11.912,11.912,0,0,1,6.438,5.031c.567.908.805,1.531.862,1.509a1.58,1.58,0,0,0-.131-.454,7.643,7.643,0,0,0-.567-1.185,10.873,10.873,0,0,0-6.568-5.1,7.94,7.94,0,0,0-1.265-.244A1.35,1.35,0,0,0,314.36,113.522Z" transform="translate(-136.054 -49.127)" fill="#263238"/>
    <path id="Path_5617" data-name="Path 5617" d="M395.587,120a6.3,6.3,0,0,0-.539,1.917,6.379,6.379,0,0,0-.232,1.985,12.781,12.781,0,0,0,.771-3.9Z" transform="translate(-170.873 -51.936)" fill="#263238"/>
    <path id="Path_5618" data-name="Path 5618" d="M308.26,151.05s5.2,20.6,5.757,22.348,1.571,6.511,6.591,7.243c6.767.981,33.028-1.339,33.028-1.339l-5.292-6.018-23.363-5.247-3.942-14.974Z" transform="translate(-133.414 -65.374)" fill="#ffbe9d"/>
    <path id="Path_5619" data-name="Path 5619" d="M379.089,184a1.4,1.4,0,0,0-.17.488,6.565,6.565,0,0,0-.193,1.4,8,8,0,0,0,1.18,4.481,9.075,9.075,0,0,0,1.617,2.008,4.929,4.929,0,0,0,1.815,1.078,4.849,4.849,0,0,0,1.4.244,1.667,1.667,0,0,0,.516-.045,10.655,10.655,0,0,1-1.838-.408,5.106,5.106,0,0,1-1.7-1.078,9.884,9.884,0,0,1-1.543-1.962,8.4,8.4,0,0,1-1.225-4.311C378.942,184.732,379.146,184,379.089,184Z" transform="translate(-163.909 -79.635)" fill="#eb996e"/>
    <path id="Path_5620" data-name="Path 5620" d="M320.985,144.654a2.228,2.228,0,0,1-.624-.062l-1.7-.244c-1.418-.2-3.4-.437-5.553-.715a55.231,55.231,0,0,1-5.53-.964c-.7-.17-1.259-.318-1.639-.448a2.641,2.641,0,0,1-.567-.216c0-.045.873.176,2.269.454s3.358.567,5.525.873,4.135.567,5.547.805c.709.125,1.276.244,1.668.34A2.2,2.2,0,0,1,320.985,144.654Z" transform="translate(-132.163 -61.457)" fill="#ff725e"/>
    <path id="Path_5621" data-name="Path 5621" d="M320.7,133.279a2.072,2.072,0,0,1-.533,0c-.346,0-.845,0-1.463-.045-1.231-.062-2.932-.193-4.8-.425s-3.556-.527-4.765-.771c-.607-.119-1.095-.227-1.429-.312a1.657,1.657,0,0,1-.51-.165,16.648,16.648,0,0,1,1.98.267c1.214.193,2.9.448,4.759.681s3.556.4,4.787.51a14.8,14.8,0,0,1,1.979.261Z" transform="translate(-132.951 -56.939)" fill="#ff725e"/>
    <path id="Path_5622" data-name="Path 5622" d="M320.7,123.858a7.223,7.223,0,0,1-1.617,0,33.754,33.754,0,0,1-7.652-1.441,7.12,7.12,0,0,1-1.514-.567,10.527,10.527,0,0,1,1.571.369c.964.25,2.3.567,3.783.851s2.836.459,3.834.567A10.17,10.17,0,0,1,320.7,123.858Z" transform="translate(-134.133 -52.736)" fill="#ff725e"/>
    <path id="Path_5623" data-name="Path 5623" d="M336.338,112.28a11.545,11.545,0,0,1-1.826.567c-1.134.289-2.717.652-4.47,1s-3.358.624-4.538.788a11.269,11.269,0,0,1-1.894.2,11.8,11.8,0,0,1,1.855-.414l4.492-.874,4.487-.919A12.877,12.877,0,0,1,336.338,112.28Z" transform="translate(-140.057 -48.594)" fill="#ff725e"/>
    <path id="Path_5624" data-name="Path 5624" d="M383.293,118.233a2.786,2.786,0,0,1-.647-.227l-1.736-.709c-1.458-.607-3.477-1.435-5.723-2.314s-4.294-1.634-5.78-2.178l-1.753-.652a3.516,3.516,0,0,1-.635-.272,2.9,2.9,0,0,1,.675.159c.425.125,1.032.312,1.787.567,1.5.493,3.568,1.219,5.82,2.1s4.26,1.741,5.672,2.4c.72.329,1.3.6,1.7.8a3.029,3.029,0,0,1,.618.329Z" transform="translate(-158.845 -48.421)" fill="#ff725e"/>
    <path id="Path_5625" data-name="Path 5625" d="M366.423,129.644a1.368,1.368,0,0,1-.352-.034l-1.01-.164-3.687-.647c-3.114-.567-7.419-1.3-12.206-1.877-2.394-.278-4.679-.476-6.767-.567s-3.97-.153-5.542-.13c-.788,0-1.5.034-2.133.051s-1.163.045-1.605.074l-1.015.051a1.574,1.574,0,0,1-.357,0,2.2,2.2,0,0,1,.352-.057l1.01-.108c.442-.045.981-.1,1.611-.125s1.344-.085,2.133-.1c1.583-.051,3.471,0,5.564.068s4.39.295,6.806.567c4.8.567,9.075,1.367,12.206,1.963,1.554.3,2.808.567,3.67.743l1,.216A1.753,1.753,0,0,1,366.423,129.644Z" transform="translate(-143.58 -54.53)" fill="#ff725e"/>
    <path id="Path_5626" data-name="Path 5626" d="M352.151,146.078a3.867,3.867,0,0,1-.777,0c-.5-.034-1.225-.1-2.116-.187-1.787-.182-4.248-.51-6.943-1s-5.1-1.055-6.846-1.514c-.868-.227-1.565-.425-2.042-.567a3.491,3.491,0,0,1-.737-.261,4.238,4.238,0,0,1,.766.147l2.065.476c1.747.4,4.163.936,6.852,1.424s5.133.851,6.909,1.089l2.1.278a3.642,3.642,0,0,1,.766.113Z" transform="translate(-143.987 -61.695)" fill="#ff725e"/>
    <path id="Path_5627" data-name="Path 5627" d="M379.971,149.01a54.376,54.376,0,0,1-5.768.2,55.108,55.108,0,0,1-5.763-.1,54.11,54.11,0,0,1,5.763-.2A55.26,55.26,0,0,1,379.971,149.01Z" transform="translate(-159.46 -64.434)" fill="#ff725e"/>
    <path id="Path_5628" data-name="Path 5628" d="M348.385,160.709a2.314,2.314,0,0,1-.63-.028c-.4-.034-.981-.108-1.7-.21-1.429-.2-3.4-.567-5.542-1.049s-4.061-1.061-5.428-1.514c-.686-.227-1.236-.42-1.617-.567a2.7,2.7,0,0,1-.567-.25,2.224,2.224,0,0,1,.613.142l1.639.471c1.384.4,3.3.925,5.434,1.424s4.089.879,5.508,1.134l1.673.306A2.838,2.838,0,0,1,348.385,160.709Z" transform="translate(-144.078 -67.988)" fill="#ff725e"/>
    <path id="Path_5629" data-name="Path 5629" d="M374.35,163.282a10.389,10.389,0,0,1-1.826,0c-1.134-.04-2.683-.153-4.39-.374s-3.244-.51-4.345-.76a9.2,9.2,0,0,1-1.758-.488,13.9,13.9,0,0,1,1.8.278c1.134.193,2.638.448,4.339.669s3.244.363,4.362.459A12.29,12.29,0,0,1,374.35,163.282Z" transform="translate(-156.686 -69.966)" fill="#ff725e"/>
    <path id="Path_5630" data-name="Path 5630" d="M360.585,176.347a1.2,1.2,0,0,1-.233.091c-.153.051-.38.13-.681.2a21.775,21.775,0,0,1-2.552.533,33.187,33.187,0,0,1-8.582.068,66.172,66.172,0,0,1-8.446-1.582c-1.066-.261-1.923-.488-2.518-.647a6.928,6.928,0,0,1-.913-.284,5.49,5.49,0,0,1,.942.164l2.541.567a82.071,82.071,0,0,0,8.423,1.486,36.077,36.077,0,0,0,8.508,0c1.083-.136,1.957-.3,2.558-.431A6.022,6.022,0,0,1,360.585,176.347Z" transform="translate(-145.705 -75.623)" fill="#ff725e"/>
    <path id="Path_5631" data-name="Path 5631" d="M397.6,139.9a17.278,17.278,0,0,1-2.876.233,11.709,11.709,0,0,1-2.893-.062,17.623,17.623,0,0,1,2.876-.238A11.526,11.526,0,0,1,397.6,139.9Z" transform="translate(-169.583 -60.494)" fill="#ff725e"/>
    <path id="Path_5632" data-name="Path 5632" d="M398.207,127.662a8.433,8.433,0,0,1-3.137-.2A8.128,8.128,0,0,1,398.207,127.662Z" transform="translate(-170.985 -55.134)" fill="#ff725e"/>
    <path id="Path_5633" data-name="Path 5633" d="M358.259,156.437c-.028-.051.6-.357,1.446-1.061a10.453,10.453,0,0,0,1.35-1.378,11.082,11.082,0,0,0,1.259-1.991,11.215,11.215,0,0,0,.777-2.223,10.15,10.15,0,0,0,.233-1.911c.028-1.134-.119-1.781-.062-1.792s.068.159.136.465a3.969,3.969,0,0,1,.091.567,7.207,7.207,0,0,1,.051.76,9.073,9.073,0,0,1-.176,1.968,10.5,10.5,0,0,1-.777,2.3,10.617,10.617,0,0,1-1.316,2.031,9.013,9.013,0,0,1-1.435,1.367,6.237,6.237,0,0,1-.624.431,3.321,3.321,0,0,1-.5.278C358.43,156.391,358.271,156.459,358.259,156.437Z" transform="translate(-155.053 -63.223)" fill="#263238"/>
    <g id="Group_3682" data-name="Group 3682" transform="translate(199.95 87.695)" opacity="0.3">
      <path id="Path_5634" data-name="Path 5634" d="M360.642,154.61l-2.212,3.273a10.465,10.465,0,0,1-5.91,3.681,6.182,6.182,0,0,0,8.122-6.954Z" transform="translate(-352.52 -154.61)"/>
    </g>
    <path id="Path_5635" data-name="Path 5635" d="M373.63,78.58a11,11,0,0,0,6.086-1.242,12.97,12.97,0,0,1-5.315-7.8A56.91,56.91,0,0,1,372.455,57.9L367.43,80.231a13.528,13.528,0,0,0,7.969-.618A2.206,2.206,0,0,1,373.63,78.58Z" transform="translate(-159.023 -25.059)" fill="#263238"/>
    <path id="Path_5636" data-name="Path 5636" d="M341.094,90.056a15.74,15.74,0,0,1-1.214-7.986l-10.13-3.84a17.889,17.889,0,0,1-3.233,7.618c-.618.839-1.356,1.815-1.066,2.836a2.133,2.133,0,0,0,1.571,1.327,6.107,6.107,0,0,0,2.155,0l-1.293,1.412a77.672,77.672,0,0,1,13.21-1.367Z" transform="translate(-140.826 -33.858)" fill="#263238"/>
    <path id="Path_5637" data-name="Path 5637" d="M343.5,40.242c-3.193-.335-5.893,1.066-8.44,3.023a16.324,16.324,0,0,0-5.275,17.8,12.552,12.552,0,0,0,6.676,7.272,12.687,12.687,0,0,0,12.949-2.269A15.887,15.887,0,0,0,354.581,53.7a15.257,15.257,0,0,0-3-8.9,11.622,11.622,0,0,0-8.077-4.538" transform="translate(-142.379 -17.395)" fill="#263238"/>
    <path id="Path_5638" data-name="Path 5638" d="M339.738,51.616a17.6,17.6,0,0,0,.21-3.874c.221-2.836,2.348-5.258,4.9-6.529,2.382-1.185,5.383-1.134,8.389-.4a11.287,11.287,0,0,1,5.491,3.086,8.865,8.865,0,0,1,2.15,7.85l-14.572-1.134a15.946,15.946,0,0,1-4.186,3.165,2.978,2.978,0,0,1-1.486.34,1.339,1.339,0,0,1-1.185-.851A2.748,2.748,0,0,1,339.738,51.616Z" transform="translate(-146.889 -17.437)" fill="#263238"/>
    <path id="Path_5639" data-name="Path 5639" d="M353.753,48.18l-12.427,3.494a2.365,2.365,0,0,0-2.048,2.45l1.94,27.26a8.508,8.508,0,0,0,2.11,5.025l1.3,1.469a6.231,6.231,0,0,0,10.334-1.452,3,3,0,0,0,.238-.732,4.575,4.575,0,0,0,.079-.624,19.726,19.726,0,0,0-.051-4.141c-.034-2.439-.062-3.437-.062-3.4s5.1-.987,6-7.72c.442-3.346.13-8.809-.272-13.267C360.542,52.513,357.746,47.652,353.753,48.18Z" transform="translate(-146.838 -20.835)" fill="#ffbe9d"/>
    <path id="Path_5640" data-name="Path 5640" d="M371.882,69.921a.856.856,0,0,1-.811.885.817.817,0,0,1-.9-.749.856.856,0,0,1,.805-.891.822.822,0,0,1,.907.754Z" transform="translate(-160.208 -29.933)" fill="#263238"/>
    <path id="Path_5641" data-name="Path 5641" d="M372.826,67.346c-.108.119-.771-.346-1.7-.318s-1.588.5-1.7.4.051-.255.34-.482a2.348,2.348,0,0,1,1.35-.454,2.269,2.269,0,0,1,1.356.4C372.775,67.09,372.877,67.289,372.826,67.346Z" transform="translate(-159.869 -28.776)" fill="#263238"/>
    <path id="Path_5642" data-name="Path 5642" d="M356.443,70.74a.862.862,0,0,1-.805.891.828.828,0,0,1-.907-.754.862.862,0,0,1,.805-.879.828.828,0,0,1,.908.743Z" transform="translate(-153.526 -30.293)" fill="#263238"/>
    <path id="Path_5643" data-name="Path 5643" d="M356.806,68.066c-.108.119-.771-.346-1.7-.318s-1.588.5-1.7.4.057-.255.346-.482a2.348,2.348,0,0,1,1.35-.454,2.269,2.269,0,0,1,1.35.4C356.749,67.816,356.852,68.015,356.806,68.066Z" transform="translate(-152.936 -29.088)" fill="#263238"/>
    <path id="Path_5644" data-name="Path 5644" d="M365.17,74.786a6.409,6.409,0,0,1,1.5-.312c.238,0,.459-.079.493-.244a1.231,1.231,0,0,0-.176-.7l-.749-1.781a32.768,32.768,0,0,1-1.7-4.662,32.161,32.161,0,0,1,2.065,4.538l.715,1.787a1.355,1.355,0,0,1,.147.925.567.567,0,0,1-.38.357,1.576,1.576,0,0,1-.4.068A6.125,6.125,0,0,1,365.17,74.786Z" transform="translate(-157.766 -29.036)" fill="#263238"/>
    <path id="Path_5645" data-name="Path 5645" d="M360.406,98.285a17.072,17.072,0,0,1-9.036-2.155s2.377,4.577,9.075,3.772Z" transform="translate(-152.072 -41.605)" fill="#eb996e"/>
    <path id="Path_5646" data-name="Path 5646" d="M362.98,84.164a1.662,1.662,0,0,0-1.509-.567,1.5,1.5,0,0,0-1.038.567.976.976,0,0,0-.045,1.134,1.134,1.134,0,0,0,1.22.272,3.483,3.483,0,0,0,1.168-.737,1,1,0,0,0,.255-.278.318.318,0,0,0,0-.346" transform="translate(-155.906 -36.173)" fill="#eb996e"/>
    <path id="Path_5647" data-name="Path 5647" d="M360.794,81.92c.147,0,.176.987,1.055,1.7a4.724,4.724,0,0,0,1.957.692c.011.125-.232.2-.686.227a2.524,2.524,0,0,1-1.628-.522,2.167,2.167,0,0,1-.822-1.412C360.618,82.164,360.72,81.914,360.794,81.92Z" transform="translate(-156.091 -35.455)" fill="#263238"/>
    <path id="Path_5648" data-name="Path 5648" d="M356.355,63.306c-.085.25-1.015.159-2.093.318s-1.951.476-2.1.255c-.068-.108.079-.346.425-.6a3.6,3.6,0,0,1,1.548-.567,3.54,3.54,0,0,1,1.651.147C356.185,62.994,356.389,63.182,356.355,63.306Z" transform="translate(-152.406 -27.124)" fill="#263238"/>
    <path id="Path_5649" data-name="Path 5649" d="M372.375,60.159c-.153.21-.8,0-1.565,0s-1.412.176-1.566-.04c-.068-.1.028-.318.306-.522a2.269,2.269,0,0,1,2.524,0C372.352,59.836,372.449,60.051,372.375,60.159Z" transform="translate(-159.799 -25.628)" fill="#263238"/>
    <path id="Path_5650" data-name="Path 5650" d="M335.419,49.9c1.055-3.925,6.415-9.523,10.476-9.427l6.642,3.585a6.239,6.239,0,0,1-4.016,4.963c-1.134.4-2.5.567-3.131,1.571s-.176,2.479-.777,3.545c-.828,1.475-3.278,1.52-3.88,3.1-.267.692-.074,1.492-.352,2.178-.363.919-2.581,2.155-3.534,1.9s-1.027-1.849-1.373-2.672a4.436,4.436,0,0,1-.272-2.966C335.527,53.764,334.915,51.768,335.419,49.9Z" transform="translate(-145.015 -17.514)" fill="#263238"/>
    <path id="Path_5651" data-name="Path 5651" d="M339.524,77.067c0-.5-.624-1.662-1.134-1.7-1.327-.176-3.693,0-3.63,3.341.1,4.572,4.662,3.534,4.668,3.4S339.569,78.785,339.524,77.067Z" transform="translate(-144.882 -32.598)" fill="#ffbe9d"/>
    <path id="Path_5652" data-name="Path 5652" d="M338.9,81.493a1.537,1.537,0,0,1-.21.119.8.8,0,0,1-.6,0,1.963,1.963,0,0,1-.947-1.747,2.58,2.58,0,0,1,.2-1.134.936.936,0,0,1,.567-.624.414.414,0,0,1,.476.21c.062.125.04.221.062.227s.1-.079.057-.267a.527.527,0,0,0-.187-.284.607.607,0,0,0-.442-.108,1.134,1.134,0,0,0-.817.726,2.677,2.677,0,0,0-.25,1.282,2.054,2.054,0,0,0,1.2,1.945.856.856,0,0,0,.726-.13C338.9,81.6,338.921,81.5,338.9,81.493Z" transform="translate(-145.772 -33.706)" fill="#eb996e"/>
    <path id="Path_5653" data-name="Path 5653" d="M326.922,53.207h0c-.079-1.429-1.917-2.24-3.329-2.473a5.944,5.944,0,0,0-4.055,1.049,2.918,2.918,0,0,0-1.514,1.9c-.108.834.743,1.747,1.5,1.407a2.706,2.706,0,1,0,2.921,4.447,6.058,6.058,0,0,1-2.161,3.4,6.806,6.806,0,0,0,6.636-9.722Z" transform="translate(-137.572 -21.943)" fill="#263238"/>
    <path id="Path_5654" data-name="Path 5654" d="M319.809,85.324c0-.221.567-.318,1.4-.567a7.941,7.941,0,0,0,4.935-3.857c.437-.732.669-1.265.885-1.231s.34.647.113,1.622a6.1,6.1,0,0,1-5.791,4.538C320.348,85.806,319.781,85.528,319.809,85.324Z" transform="translate(-138.412 -34.48)" fill="#263238"/>
    <path id="Path_5655" data-name="Path 5655" d="M328.872,61.569a4.193,4.193,0,0,1-.261-1.356,10.1,10.1,0,0,1,1.7-6.364,4.2,4.2,0,0,1,.9-1.049,15.165,15.165,0,0,0-1.985,4.169A15.217,15.217,0,0,0,328.872,61.569Z" transform="translate(-142.211 -22.852)" fill="#ff725e"/>
    <path id="Path_5656" data-name="Path 5656" d="M363.38,44.407c.539,1.832,3.517,4.021,4.85,5.388,2.541,2.6,3.069,3.488,3.449,9.642a12.949,12.949,0,0,0,1.446-6.738,9.937,9.937,0,0,0-3.063-6.358,7.759,7.759,0,0,0-6.682-1.94" transform="translate(-157.27 -19.161)" fill="#263238"/>
    <path id="Path_5657" data-name="Path 5657" d="M399.92,133.915s-3.052,12.677-4.305,18.151c-1.333,5.819-4.226,19.018-11.962,17.113-5.888-1.458-4.577-9.075-4.577-9.075l5.008-17.424,4.651.527,4.271-10.51,4.606-4.855Z" transform="translate(-164.009 -55.329)" fill="#ffbe9d"/>
    <path id="Path_5658" data-name="Path 5658" d="M382.456,172.138a6.552,6.552,0,0,1-.153-2.836,8.884,8.884,0,0,1,1.089-2.87,25.024,25.024,0,0,1,2.269-3.074,24.481,24.481,0,0,0,2.269-3.131,18.991,18.991,0,0,0,1.373-2.836,17.52,17.52,0,0,0,.635-2.025,3.325,3.325,0,0,0,.142-.766,4.9,4.9,0,0,0-.261.732c-.153.476-.38,1.134-.726,1.974a20.728,20.728,0,0,1-1.412,2.774,26.869,26.869,0,0,1-2.269,3.08,23.1,23.1,0,0,0-2.269,3.125,8.706,8.706,0,0,0-1.061,2.983,5.492,5.492,0,0,0,.091,2.127,3.741,3.741,0,0,0,.187.567C382.41,172.076,382.444,172.138,382.456,172.138Z" transform="translate(-165.336 -66.91)" fill="#eb996e"/>
    <path id="Path_5659" data-name="Path 5659" d="M403.12,130.4c0-.227.113-3.914.187-4.884a4.936,4.936,0,0,1,.5-1.747,1.486,1.486,0,0,1,2.314-.414l.085.079a6.523,6.523,0,0,1,1.821-2.2c1.083-.7,1.974-1.191,2.9-.63a1.605,1.605,0,0,1,.9,1.339s1.378-.187,1.974.374,0,2.229,0,2.229,1.225-.369,1.526.522a2.49,2.49,0,0,1-.261,1.826s.97.295,1.078,1-.964,1.492-.964,1.492l-3.363,2.677a6.421,6.421,0,0,1-2.592,3.4C406.892,136.389,403.12,130.4,403.12,130.4Z" transform="translate(-174.469 -52.091)" fill="#ffbe9d"/>
    <path id="Path_5660" data-name="Path 5660" d="M406.362,131c.034,0,.028.142-.074.318a1.135,1.135,0,0,1-.567.493,1.174,1.174,0,0,1-.771.028c-.187-.062-.278-.153-.261-.187a2.92,2.92,0,0,0,.925-.125C406.078,131.346,406.282,131,406.362,131Z" transform="translate(-175.147 -56.696)" fill="#eb996e"/>
    <path id="Path_5661" data-name="Path 5661" d="M412,124.235c-.051.068-.374-.159-.431-.567s.187-.743.255-.692,0,.318.045.647S412.067,124.173,412,124.235Z" transform="translate(-178.124 -53.221)" fill="#eb996e"/>
    <path id="Path_5662" data-name="Path 5662" d="M418.077,127.73a3.524,3.524,0,0,1-.743.783,22.86,22.86,0,0,1-2.093,1.537,3.273,3.273,0,0,1-1.339.618,1.2,1.2,0,0,1-1.134-.42.839.839,0,0,1-.091-.828c.091-.187.2-.227.216-.216s-.062.091-.108.255a.788.788,0,0,0,.153.658,1.038,1.038,0,0,0,.947.278,3.21,3.21,0,0,0,1.208-.6c.845-.567,1.6-1.061,2.127-1.452A5.941,5.941,0,0,1,418.077,127.73Z" transform="translate(-178.575 -55.281)" fill="#eb996e"/>
    <path id="Path_5663" data-name="Path 5663" d="M419.809,131.91a21.727,21.727,0,0,1-3.2,1.628,3.272,3.272,0,0,1-1.39.408,1.1,1.1,0,0,1-1.044-.618.635.635,0,0,1,0-.5.619.619,0,0,1,.244-.284c.187-.1.306-.045.3-.028a.493.493,0,0,0-.233.125.482.482,0,0,0-.108.6.89.89,0,0,0,.845.431,3.277,3.277,0,0,0,1.265-.408A20.939,20.939,0,0,1,419.809,131.91Z" transform="translate(-179.23 -57.09)" fill="#eb996e"/>
    <path id="Path_5664" data-name="Path 5664" d="M419.5,136.1c0,.034-.182.17-.567.261a2.6,2.6,0,0,1-.669.074,1.878,1.878,0,0,1-.834-.193.5.5,0,0,1-.244-.482.8.8,0,0,1,.182-.414,2.6,2.6,0,0,1,.482-.465c.306-.233.533-.3.567-.267s-.159.17-.408.425a3.907,3.907,0,0,0-.4.471c-.13.193-.176.38,0,.476a1.82,1.82,0,0,0,.686.164,3.194,3.194,0,0,0,.618,0C419.27,136.117,419.491,136.054,419.5,136.1Z" transform="translate(-180.557 -58.257)" fill="#eb996e"/>
    <path id="Path_5665" data-name="Path 5665" d="M411.452,136.061a2.745,2.745,0,1,0-3.483,2.547l-.028.76.749.567-.788.437-.034.959.749.567-.788.442-.028.822.454.346-.477.267v.476l.567.647,1.134-.675.216-5.672A2.739,2.739,0,0,0,411.452,136.061Zm-2.672-2.11a.783.783,0,1,1-.566.207.789.789,0,0,1,.566-.207Z" transform="translate(-175.699 -57.656)" fill="#263238"/>
    <path id="Path_5666" data-name="Path 5666" d="M411.452,136.061a2.745,2.745,0,1,0-3.483,2.547l-.028.76.749.567-.788.437-.034.959.749.567-.788.442-.028.822.454.346-.477.267v.476l.567.647,1.134-.675.216-5.672A2.739,2.739,0,0,0,411.452,136.061Zm-2.672-2.11a.783.783,0,1,1-.566.207.789.789,0,0,1,.566-.207Z" transform="translate(-175.699 -57.656)" fill="none"/>
    <path id="Path_5667" data-name="Path 5667" d="M410.293,134.494a.9.9,0,0,0-.187.028.789.789,0,0,0-.431.272.766.766,0,0,0-.13.715.754.754,0,0,0,.692.522.771.771,0,0,0,.732-.465.783.783,0,0,0-.079-.726.8.8,0,0,0-.408-.306c-.113-.034-.187-.034-.187-.04h.04a.567.567,0,0,1,.147,0,.783.783,0,0,1,.437.3.811.811,0,0,1,.1.777.789.789,0,0,1-.3.369.851.851,0,0,1-.488.147.839.839,0,0,1-.459-.181.811.811,0,0,1-.272-.391.828.828,0,0,1,.153-.766.794.794,0,0,1,.465-.272.735.735,0,0,1,.142,0Z" transform="translate(-177.212 -58.2)" fill="#263238"/>
    <path id="Path_5668" data-name="Path 5668" d="M411.373,136.139v.216a2.688,2.688,0,0,1-.647,1.492,2.836,2.836,0,0,1-1.134.783h0c-.057,1.469-.125,3.4-.2,5.672h0l-1.134.675h0l-.567-.647h0v-.476h0l.477-.272v.057l-.459-.34h0a7.893,7.893,0,0,1,.028-.822h0l.788-.442v.057l-.749-.567h0v-.959h0l.788-.437v.057l-.749-.567h0a6.921,6.921,0,0,1,.028-.766v.034a2.836,2.836,0,0,1-1.134-.635,2.55,2.55,0,0,1-.414-.482,2.768,2.768,0,0,1,4.4-3.352,2.666,2.666,0,0,1,.528.97l.034.1v.1a.346.346,0,0,0,.034.187c.034.057,0,.21,0,.289v.181a.288.288,0,0,1,0,.062v-.244a.981.981,0,0,0-.034-.289,1.317,1.317,0,0,0-.04-.182v-.1l-.034-.1a2.708,2.708,0,1,0-5.1,1.8,2.62,2.62,0,0,0,.284.567,2.67,2.67,0,0,0,.408.471,2.762,2.762,0,0,0,1.106.618h.028v.028a7.039,7.039,0,0,1-.028.766h0l.754.567.04.034h-.045l-.788.442h0v.925l.749.567.04.028h-.045l-.788.437v-.028a7.694,7.694,0,0,1-.028.822V143.4l.459.346h.04l-.045.028-.477.267v.448h0l.567.647h-.04l1.134-.675v.028c.091-2.269.164-4.22.221-5.672h0a2.8,2.8,0,0,0,1.1-.766,2.713,2.713,0,0,0,.511-.862,2.928,2.928,0,0,0,.147-.607v-.165a.352.352,0,0,0-.006-.284Z" transform="translate(-175.621 -57.734)" fill="#263238"/>
    <path id="Path_5669" data-name="Path 5669" d="M410.943,135.821a2.751,2.751,0,1,0-3.483,2.547h0l-.028.766.749.567-.788.442-.034.953.749.567-.789.437-.034.822.459.346-.482.267v.482l.567.647,1.134-.681.216-5.672A2.751,2.751,0,0,0,410.943,135.821Zm-2.672-2.11a.325.325,0,1,1,0-.028Z" transform="translate(-175.474 -57.547)" fill="#ff725e"/>
    <path id="Path_5670" data-name="Path 5670" d="M410.943,135.821a2.751,2.751,0,1,0-3.483,2.547h0l-.028.766.749.567-.788.442-.034.953.749.567-.789.437-.034.822.459.346-.482.267v.482l.567.647,1.134-.681.216-5.672A2.751,2.751,0,0,0,410.943,135.821Zm-2.672-2.11a.325.325,0,1,1,0-.028Z" transform="translate(-175.474 -57.547)" fill="none"/>
    <path id="Path_5671" data-name="Path 5671" d="M409.782,134.217a.975.975,0,0,0-.193.028.8.8,0,0,0-.425.272.76.76,0,1,0,1.288.771.748.748,0,0,0-.074-.72.788.788,0,0,0-.408-.306,1.9,1.9,0,0,0-.187-.045h.193a.788.788,0,0,1,.442.306.817.817,0,0,1,.1.771.8.8,0,0,1-.3.374.817.817,0,0,1-.494.142.8.8,0,0,1-.476-.182.771.771,0,0,1-.272-.391.8.8,0,0,1,.153-.766.788.788,0,0,1,.459-.267.481.481,0,0,1,.147,0Z" transform="translate(-176.984 -58.081)" fill="#263238"/>
    <path id="Path_5672" data-name="Path 5672" d="M410.9,135.836v.216a2.731,2.731,0,0,1-1.781,2.269h0c-.051,1.469-.119,3.4-.2,5.672h0l-1.134.675h-.028l-.567-.647h0v-.476h0l.476-.267v.057l-.454-.346h0a7.98,7.98,0,0,1,.028-.822h0l.788-.437v.057l-.749-.567h0v-.272a5.889,5.889,0,0,1,.028-.7h0l.788-.437v.057c-.25-.187-.5-.38-.749-.567h0a6.834,6.834,0,0,1,.028-.766v.034a2.8,2.8,0,0,1-1.554-1.134,2.551,2.551,0,0,1-.289-.567,2.784,2.784,0,0,1,3.494-3.636,2.756,2.756,0,0,1,1.208.834,2.6,2.6,0,0,1,.528.964l.034.108v.1a.336.336,0,0,0,.034.182c.034.057,0,.216,0,.295v.125a.532.532,0,0,0,0-.062V135.6a1.127,1.127,0,0,0-.028-.289c-.028-.113-.028-.119-.04-.182v-.1l-.034-.1a2.7,2.7,0,0,0-.533-.959,2.723,2.723,0,0,0-4.611,2.757,2.905,2.905,0,0,0,.289.567,2.461,2.461,0,0,0,.408.471,2.7,2.7,0,0,0,1.106.618h.028a6.906,6.906,0,0,1-.028.766h0l.749.567.045.034h-.045l-.788.442v-.028a5.864,5.864,0,0,1-.028.7v.227l.749.567.045.034h-.045l-.788.442h0a6.475,6.475,0,0,1-.034.822v-.028l.459.34.04.034h-.045l-.482.267v.454h0l.567.647h-.04l1.134-.675h0c.085-2.269.165-4.22.221-5.672h0a2.745,2.745,0,0,0,1.616-1.628,2.83,2.83,0,0,0,.148-.607v-.159a.2.2,0,0,1,.034-.091Z" transform="translate(-175.436 -57.562)" fill="#263238"/>
    <path id="Path_5673" data-name="Path 5673" d="M410.863,136.1a3.677,3.677,0,0,0-.068-.567,2.232,2.232,0,0,0-.244-.652,2.435,2.435,0,0,0-.567-.7A2.331,2.331,0,0,0,409,133.7a2.411,2.411,0,0,0-1.878.357c-.1.068-.187.147-.278.221a2.729,2.729,0,0,0-.244.267,2.388,2.388,0,0,0-.108,2.836,2.758,2.758,0,0,0,.227.284,2.068,2.068,0,0,0,.261.238,2.321,2.321,0,0,0,.567.352,2.422,2.422,0,0,0,1.254.153,2.389,2.389,0,0,0,1.021-.408,2.417,2.417,0,0,0,.641-.658,2.484,2.484,0,0,0,.289-.624,3.883,3.883,0,0,0,.113-.567v.34a.913.913,0,0,1-.057.25,2.213,2.213,0,0,1-.289.641,2.422,2.422,0,0,1-2.966.947,2.268,2.268,0,0,1-.607-.357,2.718,2.718,0,0,1-.272-.244,2.269,2.269,0,0,1-.227-.295,2.433,2.433,0,0,1,.108-2.9,2.273,2.273,0,0,1,.25-.272,2.68,2.68,0,0,1,.289-.227,2.411,2.411,0,0,1,.63-.312,2.524,2.524,0,0,1,1.293-.051,2.422,2.422,0,0,1,1.838,1.883,1.445,1.445,0,0,1,.034.25,1.213,1.213,0,0,1,0,.187v.108Z" transform="translate(-175.723 -57.827)" fill="#263238"/>
    <path id="Path_5674" data-name="Path 5674" d="M410.557,134.93a1.948,1.948,0,0,0-.034-.227.9.9,0,0,0-.318-.5.852.852,0,0,0-.374-.176.84.84,0,0,0-.471,0,.907.907,0,0,0-.425.295.886.886,0,0,0-.187.522.887.887,0,0,0,1.021.919.936.936,0,0,0,.386-.153.908.908,0,0,0,.352-.476,1.959,1.959,0,0,0,.051-.221v.057a.873.873,0,0,1-.028.17.925.925,0,0,1-.352.51.94.94,0,0,1-1.339-.238.936.936,0,0,1,.04-1.134,1.01,1.01,0,0,1,.459-.318.959.959,0,0,1,.5,0,.936.936,0,0,1,.7.732.646.646,0,0,1,0,.17A.39.39,0,0,1,410.557,134.93Z" transform="translate(-176.87 -57.96)" fill="#263238"/>
    <path id="Path_5675" data-name="Path 5675" d="M411,148.145s0-1.293.074-2.893.125-2.893.142-2.893,0,1.3-.074,2.9S411.034,148.145,411,148.145Z" transform="translate(-177.88 -61.613)" fill="#263238"/>
    <path id="Path_5676" data-name="Path 5676" d="M410.569,132.048a.386.386,0,0,1-.369,0V128.56l.369.028Z" transform="translate(-177.533 -55.64)" fill="#e0e0e0"/>
    <path id="Path_5677" data-name="Path 5677" d="M410.377,132.1a.385.385,0,0,1-.187-.051h0V128.54l.4.028v3.483h0A.391.391,0,0,1,410.377,132.1Zm-.164-.074a.352.352,0,0,0,.335,0v-3.437h-.34Z" transform="translate(-177.529 -55.632)" fill="#263238"/>
    <path id="Path_5678" data-name="Path 5678" d="M406.368,125.54a7.647,7.647,0,0,0,.981.72,1.327,1.327,0,0,1,.6,1.015,1.231,1.231,0,0,1-.726.959,2.269,2.269,0,0,1-3.074-.925" transform="translate(-174.915 -54.333)" fill="#ffbe9d"/>
    <path id="Path_5679" data-name="Path 5679" d="M404.147,127.307a5.634,5.634,0,0,0,.771.692,2.24,2.24,0,0,0,2.269.062.964.964,0,0,0,.567-.987,1.605,1.605,0,0,0-.63-.822c-.539-.363-.839-.681-.794-.715a7.137,7.137,0,0,1,.913.539,1.7,1.7,0,0,1,.783.936,1.049,1.049,0,0,1-.119.766,1.662,1.662,0,0,1-.567.567,2.382,2.382,0,0,1-1.452.295,2.308,2.308,0,0,1-1.134-.442A1.584,1.584,0,0,1,404.147,127.307Z" transform="translate(-174.912 -54.331)" fill="#eb996e"/>
    <path id="Path_5680" data-name="Path 5680" d="M412.686,122.974a13.439,13.439,0,0,0-1.7,2.5,2.11,2.11,0,0,0-.255.9.891.891,0,0,0,.414.788.908.908,0,0,0,.777,0,2.319,2.319,0,0,0,.647-.459,15.6,15.6,0,0,0,2.11-2.343,2.3,2.3,0,0,0,.374-.669.913.913,0,0,0-.045-.743" transform="translate(-177.762 -53.208)" fill="#ffbe9d"/>
    <path id="Path_5681" data-name="Path 5681" d="M414.907,122.92a.6.6,0,0,1,.159.425,1.832,1.832,0,0,1-.465,1.134,13.456,13.456,0,0,1-1.134,1.4c-.227.25-.477.5-.743.754a2.835,2.835,0,0,1-.964.686,1.066,1.066,0,0,1-.652,0,.868.868,0,0,1-.5-.425,1.39,1.39,0,0,1,0-1.134,7.083,7.083,0,0,1,.908-1.565,6.976,6.976,0,0,1,1.078-1.248,13.2,13.2,0,0,1-.9,1.367,7.752,7.752,0,0,0-.817,1.537,1.134,1.134,0,0,0,0,.9.63.63,0,0,0,.8.261,2.638,2.638,0,0,0,.851-.613c.267-.25.516-.493.743-.732a17.451,17.451,0,0,0,1.134-1.333,1.888,1.888,0,0,0,.522-1.01,2.172,2.172,0,0,0-.017-.4Z" transform="translate(-177.657 -53.199)" fill="#eb996e"/>
    <path id="Path_5682" data-name="Path 5682" d="M246.166,444.159c0,.085-55.115.148-123.083.148S0,444.244,0,444.159,55.1,444,123.083,444,246.166,444.079,246.166,444.159Z" transform="translate(0 -192.162)" fill="#263238"/>
    <path id="Path_5683" data-name="Path 5683" d="M44.241,282.238c5.394-8.258,5.19-20.329-1.259-27.793-2-2.32-4.8-4.333-7.85-4.073s-5.638,2.949-6.591,5.933-.618,6.239-.062,9.313c.783,4.316,2.093,8.741,5.1,11.945s6.806,6.778,10.675,4.674" transform="translate(-12.092 -108.351)" fill="#4f9e55"/>
    <path id="Path_5684" data-name="Path 5684" d="M44.259,364.324a12.342,12.342,0,0,0-3.443-14.016,5.16,5.16,0,0,0-4.413-1.384,4.238,4.238,0,0,0-2.836,3.653,10.21,10.21,0,0,0,.8,4.8,11.98,11.98,0,0,0,3.7,5.672c1.832,1.361,4.4,2.677,6.2,1.248" transform="translate(-14.515 -150.965)" fill="#4f9e55"/>
    <path id="Path_5685" data-name="Path 5685" d="M75.148,355.872a17.849,17.849,0,0,1,9-18.842c2.059-1.072,4.589-1.7,6.665-.664s3.142,3.647,2.972,6.018a14.771,14.771,0,0,1-2.564,6.568c-1.758,2.836-3.919,5.559-6.926,6.977s-7.022,2.5-9.143-.057" transform="translate(-32.386 -145.349)" fill="#4f9e55"/>
    <path id="Path_5686" data-name="Path 5686" d="M73.169,317.043c-2.586-8.338,1.8-18.451,9.075-23.255,2.269-1.486,5.139-2.518,7.674-1.554s4.084,3.88,4.163,6.653a17.243,17.243,0,0,1-2.212,7.941c-1.7,3.483-3.908,6.926-7.238,8.928s-8.724,4-11.486,1.271" transform="translate(-31.344 -126.316)" fill="#fe8f0a"/>
    <path id="Path_5687" data-name="Path 5687" d="M64.582,381.631a1.929,1.929,0,0,0,.079-.408c.045-.3.108-.686.176-1.163.034-.255.074-.533.119-.84s.119-.641.187-.992c.136-.709.278-1.526.51-2.405.108-.442.221-.908.335-1.39s.289-.976.437-1.492c.278-1.032.692-2.1,1.078-3.244a56.505,56.505,0,0,1,7.374-13.772c.737-.953,1.4-1.883,2.11-2.689L78,352.057,78.994,351c.607-.681,1.2-1.248,1.7-1.753.255-.255.493-.493.72-.709l.635-.567.874-.788a1.655,1.655,0,0,0,.289-.295,1.7,1.7,0,0,0-.335.238l-.919.737-.658.567-.743.686c-.533.493-1.134,1.055-1.77,1.7l-1,1.044-1.015,1.18c-.726.8-1.4,1.73-2.155,2.683a60.538,60.538,0,0,0-4.22,6.659,59.626,59.626,0,0,0-3.2,7.2c-.38,1.134-.783,2.235-1.049,3.278-.147.516-.284,1.021-.42,1.5s-.216.953-.318,1.4c-.216.89-.34,1.7-.459,2.428-.057.357-.113.692-.164,1s-.057.567-.085.845c-.045.482-.079.868-.108,1.174A1.361,1.361,0,0,0,64.582,381.631Z" transform="translate(-27.946 -150.133)" fill="#263238"/>
    <path id="Path_5688" data-name="Path 5688" d="M64.286,365.388a.607.607,0,0,0,0-.164,2.7,2.7,0,0,0-.034-.488c-.04-.448-.1-1.072-.17-1.849-.04-.408-.085-.851-.136-1.339s-.045-1.027-.079-1.6c-.04-1.134-.147-2.445-.108-3.891v-2.269c0-.788.079-1.605.119-2.456.057-1.7.289-3.494.493-5.388a77.106,77.106,0,0,1,7.028-23.7c.862-1.7,1.645-3.335,2.524-4.787.431-.732.811-1.458,1.236-2.121l1.225-1.906c.754-1.231,1.554-2.269,2.212-3.2.34-.459.641-.9.942-1.293l.839-1.049,1.134-1.458.295-.386c.062-.091.1-.136.091-.142s-.045.034-.119.119l-.318.363L80.253,307.8l-.868,1.032c-.306.386-.618.822-.964,1.282-.675.925-1.492,1.951-2.269,3.182-.4.6-.817,1.236-1.248,1.9s-.822,1.384-1.259,2.116c-.891,1.452-1.7,3.091-2.564,4.793A75.438,75.438,0,0,0,64.025,345.9c-.2,1.906-.42,3.715-.459,5.422-.034.851-.1,1.668-.108,2.462s0,1.548,0,2.269c0,1.452.1,2.757.164,3.9.04.567.062,1.134.108,1.6s.113.936.164,1.339c.1.783.176,1.4.233,1.849a2.82,2.82,0,0,0,.074.476A.675.675,0,0,0,64.286,365.388Z" transform="translate(-27.463 -132.392)" fill="#263238"/>
    <path id="Path_5689" data-name="Path 5689" d="M40.14,268a1.136,1.136,0,0,0,.074.153l.233.437c.221.4.533.953.919,1.645.2.357.437.749.669,1.191l.72,1.452.834,1.667c.278.6.567,1.242.845,1.911s.613,1.367.913,2.11.567,1.52.9,2.326c.153.4.312.805.471,1.225l.437,1.282.9,2.683c1.134,3.7,2.229,7.822,3.142,12.195s1.509,8.6,1.968,12.444.686,7.334.766,10.266c.074,1.463.091,2.791.091,3.97v5.366a.658.658,0,0,0,0,.17.794.794,0,0,0,0-.17,2.7,2.7,0,0,1,.034-.488c0-.459.051-1.089.091-1.889s.062-1.821.062-2.989,0-2.5-.04-3.97c-.051-2.932-.312-6.421-.692-10.289a125.309,125.309,0,0,0-1.946-12.478A122.642,122.642,0,0,0,48.353,286l-.919-2.717c-.147-.437-.295-.862-.442-1.288l-.482-1.225-.919-2.326c-.306-.737-.635-1.435-.936-2.1s-.567-1.31-.873-1.906-.567-1.134-.856-1.662-.522-1-.749-1.441-.488-.822-.7-1.18l-.981-1.617-.261-.414a.838.838,0,0,0-.1-.119Z" transform="translate(-17.372 -115.99)" fill="#263238"/>
    <path id="Path_5690" data-name="Path 5690" d="M43.38,357.3a7.519,7.519,0,0,0,.567,1c.4.635.936,1.566,1.571,2.734s1.339,2.586,2.048,4.2a50.754,50.754,0,0,1,1.985,5.354,54.929,54.929,0,0,1,1.384,5.547,40.549,40.549,0,0,1,.675,4.617c.108,1.327.216,2.4.244,3.142a6.884,6.884,0,0,0,.1,1.134,8.224,8.224,0,0,0,.04-1.163,30.777,30.777,0,0,0-.13-3.159c-.13-1.333-.3-2.915-.607-4.657a52.752,52.752,0,0,0-1.367-5.587,50.376,50.376,0,0,0-2.025-5.383,46.686,46.686,0,0,0-2.121-4.192c-.669-1.134-1.242-2.07-1.7-2.683a7.544,7.544,0,0,0-.658-.908Z" transform="translate(-18.775 -154.638)" fill="#263238"/>
    <path id="Path_5691" data-name="Path 5691" d="M65.185,401.58H41.47l2.87,24.225H62.23Z" transform="translate(-17.948 -173.803)" fill="#455a64"/>
    <path id="Path_5692" data-name="Path 5692" d="M64.927,439.68l-2.014,2.615H44.95l-2.07-2.535Z" transform="translate(-18.558 -190.292)" fill="#263238"/>
    <path id="Path_5693" data-name="Path 5693" d="M43.1,414.006c0,.1,4.923.176,10.992.176s10.987-.079,10.987-.176-4.918-.176-10.987-.176S43.1,413.926,43.1,414.006Z" transform="translate(-18.654 -179.104)" fill="#fafafa"/>
    <path id="Path_5694" data-name="Path 5694" d="M43.1,416.862c0,.1,4.923.176,10.992.176s10.987-.079,10.987-.176-4.918-.181-10.987-.181S43.1,416.754,43.1,416.862Z" transform="translate(-18.654 -180.338)" fill="#fafafa"/>
    <path id="Path_5695" data-name="Path 5695" d="M43.62,419.606c0,.1,4.747.176,10.607.176s10.607-.079,10.607-.176-4.747-.176-10.607-.176S43.62,419.509,43.62,419.606Z" transform="translate(-18.879 -181.528)" fill="#fafafa"/>
    <path id="Path_5696" data-name="Path 5696" d="M76.885,309.56a.988.988,0,0,0,0,.227,3.224,3.224,0,0,0,.051.658c.062.607.147,1.424.244,2.416.216,2.036.533,4.844.9,7.941a1.048,1.048,0,0,0,.04.352v.1h.108c3.046.051,5.785.079,7.765.085H89.21a.719.719,0,0,0-.221-.028l-.635-.034-2.331-.1c-1.98-.051-4.719-.108-7.765-.159l.113.108a1.082,1.082,0,0,0-.04-.352c-.363-3.1-.7-5.91-.964-7.941l-.318-2.4c-.04-.261-.074-.476-.1-.652S76.9,309.554,76.885,309.56Z" transform="translate(-33.273 -133.976)" fill="#263238"/>
    <path id="Path_5697" data-name="Path 5697" d="M86.392,296.79a.679.679,0,0,0,0,.232V300.2c.034,2.11.091,5.025.17,8.242v.51h.125a74.631,74.631,0,0,1,7.986-.193c1.015.034,1.838.074,2.4.1l.652.034a.885.885,0,0,0,.227,0,.985.985,0,0,0-.221-.045l-.652-.074c-.567-.057-1.384-.125-2.4-.176a62.682,62.682,0,0,0-8,.108l.13.113v-.38c-.079-3.216-.165-6.131-.238-8.241-.04-1.027-.074-1.872-.1-2.5a3.427,3.427,0,0,0-.04-.681,1.086,1.086,0,0,0-.045-.238Z" transform="translate(-37.386 -128.45)" fill="#263238"/>
    <path id="Path_5698" data-name="Path 5698" d="M95.966,292.44a4.538,4.538,0,0,0-.147.692c-.091.493-.2,1.134-.352,1.906-.306,1.611-.783,3.829-1.463,6.239l-.074.255.244-.113.284-.136a20.289,20.289,0,0,1,6.319-1.832c.845-.1,1.531-.142,2-.159a5.714,5.714,0,0,0,.743-.04.977.977,0,0,1-.193-.028,3.664,3.664,0,0,0-.567,0,16.574,16.574,0,0,0-2.019.085,19.11,19.11,0,0,0-6.4,1.8l-.289.136.17.142a61.83,61.83,0,0,0,1.4-6.3c.136-.805.227-1.463.278-1.917a3.494,3.494,0,0,0,.074-.737Z" transform="translate(-40.653 -126.567)" fill="#263238"/>
    <path id="Path_5699" data-name="Path 5699" d="M38.49,366.471c0,.04.686-.034,1.792-.074a30.284,30.284,0,0,1,4.311.136l.993.125H45.7v-.113c.261-1.435.476-2.7.618-3.608a10.553,10.553,0,0,0,.187-1.458,9.421,9.421,0,0,0-.34,1.429c-.187.9-.431,2.161-.7,3.59l.136-.091c-.323-.051-.658-.091-1-.13a24.247,24.247,0,0,0-4.345-.068c-.567.04-1,.1-1.31.142a1.81,1.81,0,0,0-.454.119Z" transform="translate(-16.658 -156.448)" fill="#263238"/>
    <path id="Path_5700" data-name="Path 5700" d="M34.54,358.2c0,.034.664-.119,1.736-.25a19.117,19.117,0,0,1,4.209-.045l.743.1h.125v-.125c.147-1.475.267-2.779.346-3.721a9.641,9.641,0,0,0,.074-1.509,10.932,10.932,0,0,0-.233,1.492c-.119.936-.267,2.24-.425,3.715l.136-.108-.754-.1a16.333,16.333,0,0,0-4.254.114,12.076,12.076,0,0,0-1.265.267,1.516,1.516,0,0,0-.437.17Z" transform="translate(-14.949 -152.626)" fill="#263238"/>
    <path id="Path_5701" data-name="Path 5701" d="M31.7,283.3a1.022,1.022,0,0,0,.238.125l.692.306,2.564,1.095,8.508,3.517.459.187.108.045.045-.108c1.4-3.165,2.66-6.012,3.59-8.105l1.055-2.45.278-.669a1.482,1.482,0,0,0,.079-.238.856.856,0,0,0-.125.221l-.306.647-1.134,2.422c-.942,2.087-2.229,4.923-3.658,8.077l.159-.062-.471-.187-8.508-3.454-2.592-1.021-.709-.267A1.483,1.483,0,0,0,31.7,283.3Z" transform="translate(-13.72 -119.885)" fill="#263238"/>
    <path id="Path_5702" data-name="Path 5702" d="M28,265.347a1.67,1.67,0,0,0,.21.153c.142.091.369.244.624.4l2.314,1.446,7.725,4.708.119.074.051-.136c.045-.119.1-.244.142-.374l3.239-8.729c.391-1.1.715-2,.953-2.66l.25-.726a.982.982,0,0,0,.068-.255,1.22,1.22,0,0,0-.113.238q-.119.284-.289.715c-.255.652-.607,1.543-1.027,2.626-.856,2.269-2.019,5.326-3.307,8.712-.045.125-.1.255-.136.374l.17-.062L31.233,267.2l-2.354-1.378-.647-.363A1.209,1.209,0,0,0,28,265.347Z" transform="translate(-12.118 -112.203)" fill="#263238"/>
    <path id="Path_5703" data-name="Path 5703" d="M29.24,255.991a4.242,4.242,0,0,0,.51.3c.335.181.817.454,1.4.817a24.8,24.8,0,0,1,4.294,3.364l.3.289-.1-.4c-.1-.425-.2-.874-.272-1.333a15.473,15.473,0,0,1,.335-6.319,18.719,18.719,0,0,1,.607-1.838,4.291,4.291,0,0,0,.255-.669,4.379,4.379,0,0,0-.34.63,14.3,14.3,0,0,0-1.095,8.236c.074.465.176.919.284,1.35l.2-.113a22.826,22.826,0,0,0-4.384-3.33c-.6-.346-1.095-.6-1.441-.76A2.493,2.493,0,0,0,29.24,255.991Z" transform="translate(-12.655 -108.286)" fill="#263238"/>
    <path id="Path_5704" data-name="Path 5704" d="M77,354.15a2.952,2.952,0,0,0,.108.613c.079.391.2.959.329,1.668a41.284,41.284,0,0,1,.641,5.615v.108h.057l.533.034c2.354.142,4.481.255,6.024.329l1.826.068a3.581,3.581,0,0,0,.692-.011,3.452,3.452,0,0,0-.664-.085l-1.821-.148c-1.543-.113-3.67-.255-6.018-.4l-.533-.034.113.113a35.421,35.421,0,0,0-.72-5.627c-.153-.7-.295-1.271-.408-1.656A3.283,3.283,0,0,0,77,354.15Z" transform="translate(-33.325 -153.275)" fill="#263238"/>
    <path id="Path_5705" data-name="Path 5705" d="M85.159,342.37a3.154,3.154,0,0,0,.04.618c.051.437.113,1,.193,1.7.17,1.429.425,3.4.726,5.627v.1h.1l.76.045c2.411.164,4.583.414,6.154.618l1.86.25a3.363,3.363,0,0,0,.681.068,3.979,3.979,0,0,0-.669-.159c-.431-.085-1.066-.2-1.849-.323-1.565-.25-3.744-.528-6.16-.692l-.766-.045.113.1c-.306-2.223-.567-4.2-.805-5.621-.1-.675-.193-1.236-.261-1.673A3.085,3.085,0,0,0,85.159,342.37Z" transform="translate(-36.856 -148.177)" fill="#263238"/>
    <path id="Path_5706" data-name="Path 5706" d="M94.826,337.3c-.034,0,.113.652.278,1.7a29.891,29.891,0,0,1,.386,4.2v.17h.136l.4-.051a36.933,36.933,0,0,1,4.475-.267h1.367a1.813,1.813,0,0,0,.5,0,1.928,1.928,0,0,0-.493-.079c-.323-.034-.788-.068-1.367-.091a28.042,28.042,0,0,0-4.538.2l-.4.051.136.113a24.624,24.624,0,0,0-.459-4.22c-.108-.527-.21-.953-.289-1.236A1.508,1.508,0,0,0,94.826,337.3Z" transform="translate(-41.038 -145.982)" fill="#263238"/>
    <path id="Path_5707" data-name="Path 5707" d="M39.75,349.07a21.12,21.12,0,0,0,1.061,2.411,20.474,20.474,0,0,0,1.134,2.365,10.93,10.93,0,0,0-.919-2.467,11.271,11.271,0,0,0-1.276-2.309Z" transform="translate(-17.204 -151.076)" fill="#263238"/>
    <path id="Path_5708" data-name="Path 5708" d="M34.5,354.613a24.737,24.737,0,0,1,2.694.567,25.03,25.03,0,0,1,2.53,1.078,6.127,6.127,0,0,0-2.462-1.3A6.126,6.126,0,0,0,34.5,354.613Z" transform="translate(-14.932 -153.461)" fill="#263238"/>
  </g>
</svg>
