<svg id="Layer_2" data-name="Layer 2" xmlns="http://www.w3.org/2000/svg" width="179.473" height="174.404" viewBox="0 0 179.473 174.404">
  <g id="Plant">
    <path id="Path_5481" data-name="Path 5481" d="M332.13,322.186a16,16,0,0,0-6.846-2.354,4.559,4.559,0,0,0-3.241.6.675.675,0,0,0-.333.588.754.754,0,0,0,.318.392,9.842,9.842,0,0,0,10.1.785" transform="translate(-195.495 -194.323)" fill="#e0e0e0"/>
    <path id="Path_5482" data-name="Path 5482" d="M336.55,308.79a33.37,33.37,0,0,1-4.422-3.888,11.182,11.182,0,0,1-2.774-5.128,2.077,2.077,0,0,1,.22-1.714c3.531,2.746,6.277,6.313,6.976,10.73" transform="translate(-200.092 -181.124)" fill="#e0e0e0"/>
    <path id="Path_5483" data-name="Path 5483" d="M347.828,309.427a16.04,16.04,0,0,1,.078-5.806,7.854,7.854,0,0,1,3.1-4.79,6.869,6.869,0,0,1-.082,4.551,22.108,22.108,0,0,1-3.068,6.458" transform="translate(-211.229 -181.592)" fill="#e0e0e0"/>
    <path id="Path_5484" data-name="Path 5484" d="M343.631,341.62a10.154,10.154,0,0,0-5.492,2.778A10.42,10.42,0,0,0,335,349.788c2.06-.126,3.805-1.569,5.069-3.205s2.142-3.409,3.531-4.932" transform="translate(-203.571 -207.594)" fill="#e0e0e0"/>
    <path id="Path_5485" data-name="Path 5485" d="M357.436,324.305a13.543,13.543,0,0,1,1.569-12.805,16.264,16.264,0,0,1-1.569,12.805" transform="translate(-216.635 -189.291)" fill="#e0e0e0"/>
    <path id="Path_5486" data-name="Path 5486" d="M355.809,357.971a9.784,9.784,0,0,0-9.361,5.391c-.118.231-.22.526-.063.734a.69.69,0,0,0,.62.18,8.141,8.141,0,0,0,4.83-2.491,43.3,43.3,0,0,1,4.017-3.817" transform="translate(-210.442 -217.518)" fill="#e0e0e0"/>
    <path id="Path_5487" data-name="Path 5487" d="M368.947,337.157a17.419,17.419,0,0,1-.173-9.737,4.744,4.744,0,0,1,2.075-3.162.412.412,0,0,1,.322-.055.42.42,0,0,1,.2.231,5.885,5.885,0,0,1,.49,2.793,17.743,17.743,0,0,1-.439,2.829c-.365,1.73-.557,3.59-1.507,5.081a9.836,9.836,0,0,0-.6,1.114c-.18.392-.18.514-.345.812" transform="translate(-223.724 -197.003)" fill="#e0e0e0"/>
    <path id="Path_5488" data-name="Path 5488" d="M400.481,345.224a12.562,12.562,0,0,1,2.2-10.326c.161-.2.369-.424.628-.392.392.035.5.561.479.957a18.6,18.6,0,0,1-3.307,9.769" transform="translate(-243.159 -203.269)" fill="#e0e0e0"/>
    <path id="Path_5489" data-name="Path 5489" d="M403.74,358.206a15.009,15.009,0,0,0,12.327-2.507,9.993,9.993,0,0,0-6.67-.816,9.509,9.509,0,0,0-5.653,3.323" transform="translate(-245.343 -215.506)" fill="#e0e0e0"/>
    <path id="Path_5490" data-name="Path 5490" d="M406.08,347.986a14.241,14.241,0,0,1,11.185-6.466,6.9,6.9,0,0,1-3.656,4.045,20.2,20.2,0,0,1-5.371,1.569,3.777,3.777,0,0,0-2.158.851" transform="translate(-246.765 -207.533)" fill="#e0e0e0"/>
    <path id="Path_5491" data-name="Path 5491" d="M399.058,309.723a32.463,32.463,0,0,0,1.432-6.552,10.913,10.913,0,0,0-1.306-6.481,14.261,14.261,0,0,0-.192,13.257" transform="translate(-241.52 -180.291)" fill="#e0e0e0"/>
    <path id="Path_5492" data-name="Path 5492" d="M420.13,306.9a17.544,17.544,0,0,1,12.919-8.792c-2.017,5.018-7.513,8.9-12.919,8.792" transform="translate(-255.303 -181.154)" fill="#e0e0e0"/>
    <path id="Path_5493" data-name="Path 5493" d="M416.07,321.648c3.774.573,6.991,2.986,10.518,4.445a4.707,4.707,0,0,0,2.377.455,1.86,1.86,0,0,0,1.177-3.292,5.05,5.05,0,0,0-1.726-1.048,19.207,19.207,0,0,0-12.013-.671" transform="translate(-252.836 -194.998)" fill="#e0e0e0"/>
    <path id="Path_5494" data-name="Path 5494" d="M410.5,329.28a4.5,4.5,0,0,1,1.824,1.267,19.664,19.664,0,0,0,7.976,4.1c.3.075.7.106.855-.169s-.035-.534-.208-.745a10.985,10.985,0,0,0-4.814-3.272c-1.844-.683-3.437-1.51-5.634-1.334" transform="translate(-249.451 -199.985)" fill="#e0e0e0"/>
    <path id="Path_5495" data-name="Path 5495" d="M404.21,288.144a15.089,15.089,0,0,0,11.577,3.923.784.784,0,0,0,.526-.188c.29-.318-.059-.808-.392-1.071a13.333,13.333,0,0,0-11.7-2.68" transform="translate(-245.629 -174.84)" fill="#e0e0e0"/>
    <path id="Path_5496" data-name="Path 5496" d="M411.66,281.214a16.132,16.132,0,0,1,14.445-2.385,11.529,11.529,0,0,1-6.885,3.021,21.761,21.761,0,0,1-7.56-.636" transform="translate(-250.156 -168.978)" fill="#e0e0e0"/>
    <path id="Path_5497" data-name="Path 5497" d="M405.659,251.529c-.333-3.4-.118-6.081-.353-9.49-.02-.275-.075-.6-.33-.7-.357-.137-.651.3-.785.659a10.871,10.871,0,0,0,1.448,9.451" transform="translate(-245.316 -146.641)" fill="#e0e0e0"/>
    <path id="Path_5498" data-name="Path 5498" d="M408.08,251.764a19.964,19.964,0,0,0,5.626-5.469,7.479,7.479,0,0,0,1.8-5.206,5.368,5.368,0,0,0-4.061,2.017,11.377,11.377,0,0,0-2.068,4.163c-.451,1.491-.765,3.029-1.295,4.5" transform="translate(-247.98 -146.503)" fill="#e0e0e0"/>
    <path id="Path_5499" data-name="Path 5499" d="M422.061,251.213a45.362,45.362,0,0,0,13.845-8.164,7.115,7.115,0,0,0-5.2.392,16.384,16.384,0,0,0-8.714,7.725" transform="translate(-256.433 -147.486)" fill="#e0e0e0"/>
    <path id="Path_5500" data-name="Path 5500" d="M412,266.788a28.2,28.2,0,0,0,7.69.035,32.119,32.119,0,0,0,7.176-2.385.839.839,0,0,0,.49-.369.561.561,0,0,0-.177-.612,1.5,1.5,0,0,0-.612-.29,13.154,13.154,0,0,0-7.756.467A35.869,35.869,0,0,0,412,266.788" transform="translate(-250.362 -159.684)" fill="#e0e0e0"/>
    <path id="Path_5501" data-name="Path 5501" d="M372.856,271.666a13.607,13.607,0,0,1-.126-11.256,8.661,8.661,0,0,1,1,5.595c-.18,1.922-.785,3.9-.816,5.834" transform="translate(-225.797 -158.245)" fill="#e0e0e0"/>
    <path id="Path_5502" data-name="Path 5502" d="M339.014,280.138a15.693,15.693,0,0,0-11.664,4.971,10.957,10.957,0,0,0,6.387-1.177,31.807,31.807,0,0,0,5.473-3.664" transform="translate(-198.923 -170.232)" fill="#e0e0e0"/>
    <path id="Path_5503" data-name="Path 5503" d="M328.147,275.833a16.287,16.287,0,0,0-6.23.192,7.443,7.443,0,0,0-4.747,4.025,11.315,11.315,0,0,0,5.842-1.1,33.668,33.668,0,0,0,5.135-3.115" transform="translate(-192.737 -167.493)" fill="#e0e0e0"/>
    <path id="Path_5504" data-name="Path 5504" d="M343.484,271.269a19.6,19.6,0,0,0-6.112-3.052A6.674,6.674,0,0,0,331,269.763a11.933,11.933,0,0,0,6.093,1.177,21.1,21.1,0,0,1,6.634.675" transform="translate(-201.141 -162.858)" fill="#e0e0e0"/>
    <path id="Path_5505" data-name="Path 5505" d="M357.094,255.844c-3.276-3.217-4.516-9-3.2-13.394a20.4,20.4,0,0,1,3.2,13.394" transform="translate(-214.739 -147.331)" fill="#e0e0e0"/>
    <path id="Path_5506" data-name="Path 5506" d="M385.81,236.989c.616-1.436,1.051-2.942,1.609-4.406a12.613,12.613,0,0,1,2.287-4.061,6.034,6.034,0,0,1,4.057-2.1,16.336,16.336,0,0,1-7.874,10.593" transform="translate(-234.447 -137.59)" fill="#e0e0e0"/>
    <path id="Path_5507" data-name="Path 5507" d="M368.534,249.259a21.164,21.164,0,0,0-3.59-4.367,6,6,0,0,0-4.884-1.283,11.377,11.377,0,0,0,8.474,5.649" transform="translate(-218.8 -147.961)" fill="#e0e0e0"/>
    <path id="Path_5508" data-name="Path 5508" d="M379.8,237.314a24.259,24.259,0,0,1-1.616-5.234,8.159,8.159,0,0,1,.82-5.32c1.8,3.4,2.378,7.062.887,10.593" transform="translate(-229.744 -137.797)" fill="#e0e0e0"/>
    <path id="Path_5509" data-name="Path 5509" d="M385.85,215.611c1.02-3.37,4.1-5.853,7.435-6.991a2.829,2.829,0,0,1,1.306-.2,1.141,1.141,0,0,1,.961.8c.118.573-.353,1.087-.785,1.467a25.356,25.356,0,0,1-8.9,4.916" transform="translate(-234.472 -126.648)" fill="#e0e0e0"/>
    <path id="Path_5510" data-name="Path 5510" d="M385.915,202.186a24.141,24.141,0,0,1,.969-6.434,8.142,8.142,0,0,1,4.053-4.892c.333,2.2-.632,4.378-1.8,6.277s-2.574,3.672-3.276,5.779" transform="translate(-234.478 -115.981)" fill="#e0e0e0"/>
    <path id="Path_5511" data-name="Path 5511" d="M376.032,205.243c-.844-2.456-.93-5.575-2.4-7.713-1.028-1.495-2.672-2.515-3.558-4.1a6.231,6.231,0,0,0,.208,4.653,13.457,13.457,0,0,0,2.719,3.9c1.091,1.177,2.02,2.036,3.033,3.264" transform="translate(-224.669 -117.543)" fill="#e0e0e0"/>
    <path id="Path_5512" data-name="Path 5512" d="M385.655,294.536c-.063,0-.122-16.384-.126-36.588s.043-36.588.11-36.588.122,16.38.126,36.588S385.714,294.536,385.655,294.536Z" transform="translate(-234.277 -134.515)" fill="#e0e0e0"/>
    <path id="Path_5513" data-name="Path 5513" d="M400.131,282.8a3.486,3.486,0,0,1-.616.231l-1.695.569c-1.428.49-3.394,1.177-5.524,2.068a21.516,21.516,0,0,0-5.234,2.621,3.864,3.864,0,0,0-1.051,1.393c-.161.392-.188.62-.212.616a.535.535,0,0,1,0-.173,2.928,2.928,0,0,1,.118-.479,3.727,3.727,0,0,1,1.028-1.483,9.171,9.171,0,0,1,2.272-1.408c.906-.424,1.915-.867,2.982-1.306,2.138-.875,4.115-1.569,5.563-2,.722-.228,1.31-.392,1.718-.5A3.537,3.537,0,0,1,400.131,282.8Z" transform="translate(-234.437 -171.851)" fill="#e0e0e0"/>
    <path id="Path_5514" data-name="Path 5514" d="M406.578,253.42a.975.975,0,0,1-.173.184l-.526.494-1.962,1.781-6.532,5.814c-2.55,2.272-4.751,4.441-6.277,6.073-.761.816-1.365,1.491-1.777,1.962l-.475.541a.927.927,0,0,1-.177.18,1.177,1.177,0,0,1,.141-.208c.1-.133.243-.33.439-.573.392-.49.977-1.177,1.726-2.017a82.783,82.783,0,0,1,6.246-6.136c2.558-2.264,4.888-4.3,6.579-5.763l2.013-1.726.553-.459a.9.9,0,0,1,.2-.149Z" transform="translate(-236.191 -153.997)" fill="#e0e0e0"/>
    <path id="Path_5515" data-name="Path 5515" d="M403.851,271.613c-.067-.031.463-1.259,1-2.817s.785-2.868.855-2.856a9.756,9.756,0,0,1-.632,2.935,19.193,19.193,0,0,1-.785,1.962,3.262,3.262,0,0,1-.435.777Z" transform="translate(-245.407 -161.605)" fill="#e0e0e0"/>
    <path id="Path_5516" data-name="Path 5516" d="M371.184,287.142a2.839,2.839,0,0,1-.392-.455l-1.008-1.291c-.844-1.095-2.013-2.6-3.323-4.253s-2.515-3.139-3.386-4.2l-1.032-1.275a2.855,2.855,0,0,1-.353-.486,2.717,2.717,0,0,1,.424.428c.263.282.636.7,1.087,1.224.906,1.044,2.134,2.511,3.445,4.163s2.464,3.182,3.272,4.316c.392.561.73,1.016.949,1.338A3.186,3.186,0,0,1,371.184,287.142Z" transform="translate(-219.79 -167.22)" fill="#e0e0e0"/>
    <path id="Path_5517" data-name="Path 5517" d="M375.373,287.719a5.8,5.8,0,0,1-1.314-2.464,6.988,6.988,0,0,1-.3-2.48h.1c-.047.188-.079.29-.1.286s-.02-.11,0-.3h.106a10.921,10.921,0,0,0,.42,2.413A17.8,17.8,0,0,0,375.373,287.719Z" transform="translate(-227.118 -171.826)" fill="#e0e0e0"/>
    <path id="Path_5518" data-name="Path 5518" d="M356.579,280.826a4.008,4.008,0,0,0-.918-.534,6.116,6.116,0,0,0-2.55-.2,15.552,15.552,0,0,0-2.566.416,7.77,7.77,0,0,1-1.055.251,3.77,3.77,0,0,1,1.012-.416,11.812,11.812,0,0,1,2.593-.487,5.524,5.524,0,0,1,2.629.283A1.628,1.628,0,0,1,356.579,280.826Z" transform="translate(-212.377 -170.029)" fill="#e0e0e0"/>
    <path id="Path_5519" data-name="Path 5519" d="M349.681,276.925c0,.035-.534-.216-1.4-.514a14.2,14.2,0,0,0-7.089-.541c-.906.165-1.456.333-1.467.294a1.24,1.24,0,0,1,.373-.157,8.038,8.038,0,0,1,1.063-.3,12.5,12.5,0,0,1,7.176.545,9.252,9.252,0,0,1,1,.455C349.567,276.823,349.689,276.91,349.681,276.925Z" transform="translate(-206.44 -167.365)" fill="#e0e0e0"/>
    <path id="Path_5520" data-name="Path 5520" d="M382.992,254.813a29.676,29.676,0,0,1-1.024-3.562,25.478,25.478,0,0,1-.785-3.621,25.726,25.726,0,0,1,1.024,3.562A26.16,26.16,0,0,1,382.992,254.813Z" transform="translate(-231.629 -150.479)" fill="#e0e0e0"/>
    <path id="Path_5521" data-name="Path 5521" d="M381.643,259.96a17.688,17.688,0,0,0-1.138-2.134,9.415,9.415,0,0,0-1.675-1.726,1.616,1.616,0,0,1,.647.333,5.214,5.214,0,0,1,1.22,1.259A4.775,4.775,0,0,1,381.643,259.96Z" transform="translate(-230.206 -155.626)" fill="#e0e0e0"/>
    <path id="Path_5522" data-name="Path 5522" d="M362.606,348.594c-.024,0-.075-.392-.259-1.091a15.36,15.36,0,0,0-1.095-2.836,39.26,39.26,0,0,0-5.806-8.184c-1.3-1.479-2.554-2.876-3.621-4.217a29.525,29.525,0,0,1-2.593-3.735,17.785,17.785,0,0,1-1.306-2.774c-.122-.341-.208-.608-.259-.785a1.3,1.3,0,0,1-.067-.282c.024,0,.141.392.392,1.044a20.21,20.21,0,0,0,1.365,2.723,31.547,31.547,0,0,0,2.617,3.684c1.071,1.322,2.33,2.711,3.629,4.2a37.078,37.078,0,0,1,5.783,8.266,14.248,14.248,0,0,1,1.032,2.884,6.862,6.862,0,0,1,.145.824A1.333,1.333,0,0,1,362.606,348.594Z" transform="translate(-211.228 -197.306)" fill="#e0e0e0"/>
    <path id="Path_5523" data-name="Path 5523" d="M398.789,348.37a5.487,5.487,0,0,1-.679.392,15.211,15.211,0,0,0-1.758,1.177,19.9,19.9,0,0,0-2.311,2.107c-.812.855-1.648,1.848-2.5,2.915-1.7,2.138-3.3,4.029-4.253,5.54-.483.749-.836,1.381-1.067,1.824a5.487,5.487,0,0,1-.373.683.675.675,0,0,1,.063-.192c.051-.122.122-.306.228-.534a18.258,18.258,0,0,1,1.008-1.871,62.093,62.093,0,0,1,4.21-5.6c.855-1.067,1.7-2.064,2.527-2.919a18.749,18.749,0,0,1,2.354-2.087,11.912,11.912,0,0,1,1.816-1.11,4.909,4.909,0,0,1,.53-.235A.627.627,0,0,1,398.789,348.37Z" transform="translate(-234.472 -211.696)" fill="#e0e0e0"/>
    <path id="Path_5524" data-name="Path 5524" d="M405.627,360.434a10.911,10.911,0,0,1-1.432.208,18.805,18.805,0,0,0-3.4.667,10.306,10.306,0,0,0-3.044,1.6c-.7.545-1.032.993-1.063.965a1.044,1.044,0,0,1,.212-.33,5.627,5.627,0,0,1,.745-.765,9.174,9.174,0,0,1,3.076-1.691,15.589,15.589,0,0,1,3.456-.612A7.881,7.881,0,0,1,405.627,360.434Z" transform="translate(-241.059 -219.017)" fill="#e0e0e0"/>
    <path id="Path_5525" data-name="Path 5525" d="M397.741,360.373c-.075-.039.573-1.028,1.071-2.354s.581-2.515.667-2.5a2.311,2.311,0,0,1-.024.785,8.311,8.311,0,0,1-.42,1.813,8.63,8.63,0,0,1-.832,1.66C397.949,360.161,397.768,360.392,397.741,360.373Z" transform="translate(-241.694 -216.041)" fill="#e0e0e0"/>
    <path id="Path_5526" data-name="Path 5526" d="M402.932,315.94a1.111,1.111,0,0,1-.228.122l-.675.306c-.294.126-.651.286-1.055.5s-.879.424-1.369.722l-.785.443c-.271.157-.541.341-.824.518-.577.349-1.153.785-1.769,1.22a33.262,33.262,0,0,0-3.692,3.256,33.61,33.61,0,0,0-3.139,3.806c-.42.632-.828,1.224-1.177,1.813-.169.29-.345.565-.49.84l-.42.785c-.279.5-.479.981-.671,1.393s-.349.785-.463,1.075l-.283.683a.929.929,0,0,1-.114.231,1.1,1.1,0,0,1,.067-.247l.243-.7a11.3,11.3,0,0,1,.428-1.091c.184-.42.373-.906.643-1.416l.392-.808c.141-.279.314-.557.483-.855.322-.6.73-1.2,1.146-1.836a29.24,29.24,0,0,1,6.866-7.105c.628-.435,1.212-.863,1.8-1.208.29-.177.561-.357.836-.51l.785-.435c.5-.286.977-.494,1.393-.691a11.223,11.223,0,0,1,1.075-.467l.694-.267A1.178,1.178,0,0,1,402.932,315.94Z" transform="translate(-234.429 -191.989)" fill="#e0e0e0"/>
    <path id="Path_5527" data-name="Path 5527" d="M403.41,330.776a1.675,1.675,0,0,1,.561-.84,3.531,3.531,0,0,1,2.268-.867,6.12,6.12,0,0,1,2.389.467,3.352,3.352,0,0,1,.9.435,5.152,5.152,0,0,1-.957-.279,7.186,7.186,0,0,0-2.326-.392,3.684,3.684,0,0,0-2.166.761A6.527,6.527,0,0,0,403.41,330.776Z" transform="translate(-245.143 -199.968)" fill="#e0e0e0"/>
    <path id="Path_5528" data-name="Path 5528" d="M399.5,330.812a8.783,8.783,0,0,0,.643-2.1,9.43,9.43,0,0,0-.145-2.185c.071-.02.157.212.267.608a4.391,4.391,0,0,1,.114,1.6,4.315,4.315,0,0,1-.479,1.538C399.694,330.636,399.525,330.828,399.5,330.812Z" transform="translate(-242.764 -198.423)" fill="#e0e0e0"/>
    <path id="Path_5529" data-name="Path 5529" d="M357,391.6a54.076,54.076,0,0,0,5.143,19.063h12.617A54.773,54.773,0,0,0,379.6,391.6Z" transform="translate(-216.94 -237.966)" fill="#e0e0e0"/>
    <path id="Path_5530" data-name="Path 5530" d="M380.647,417.238c0,.067-4.155.118-9.279.118s-9.278-.051-9.278-.118,4.155-.118,9.278-.118S380.647,417.175,380.647,417.238Z" transform="translate(-220.033 -253.474)" fill="#fafafa"/>
    <path id="Path_5531" data-name="Path 5531" d="M381.73,423.018c0,.067-3.9.122-8.7.122s-8.7-.055-8.7-.122,3.9-.118,8.7-.118S381.73,422.939,381.73,423.018Z" transform="translate(-221.395 -256.986)" fill="#fafafa"/>
    <path id="Path_5532" data-name="Path 5532" d="M370.452,402.08a35.922,35.922,0,0,1,0,5.81,34.752,34.752,0,0,1,0-5.81Z" transform="translate(-225.041 -244.334)" fill="#fafafa"/>
    <path id="Path_5533" data-name="Path 5533" d="M387.688,402.08a38.532,38.532,0,0,1,0,6.018,38.523,38.523,0,0,1,0-6.018Z" transform="translate(-235.517 -244.334)" fill="#fafafa"/>
    <path id="Path_5534" data-name="Path 5534" d="M403.868,402a40.1,40.1,0,0,1,0,6.14,40.093,40.093,0,0,1,0-6.14Z" transform="translate(-245.349 -244.286)" fill="#fafafa"/>
    <path id="Path_5535" data-name="Path 5535" d="M379.876,401.9c0,.063-4.873.118-10.883.118s-10.883-.055-10.883-.118,4.869-.118,10.883-.118S379.876,401.831,379.876,401.9Z" transform="translate(-217.615 -244.152)" fill="#fafafa"/>
    <rect id="Rectangle_920" data-name="Rectangle 920" width="30.233" height="31.515" transform="translate(138.891 0.008)" fill="#e0e0e0"/>
    <rect id="Rectangle_921" data-name="Rectangle 921" width="30.233" height="31.515" transform="translate(136.843 0.008)" fill="#fafafa"/>
    <path id="Path_5536" data-name="Path 5536" d="M379.032,31.535H348.78V0h30.252Zm-30.236,0H379V.02H348.8Z" transform="translate(-211.945)" fill="#e0e0e0"/>
    <rect id="Rectangle_922" data-name="Rectangle 922" width="22.107" height="23.041" transform="translate(140.907 4.245)" fill="#fff"/>
    <path id="Path_5537" data-name="Path 5537" d="M352.913,70a3.629,3.629,0,0,1-.545.632c-.353.392-.851.879-1.4,1.428S349.9,73.1,349.52,73.441a3.8,3.8,0,0,1-.64.534,3.434,3.434,0,0,1,.541-.632c.353-.392.851-.879,1.408-1.428s1.071-1.04,1.448-1.385a3.437,3.437,0,0,1,.636-.53Z" transform="translate(-212.006 -42.537)" fill="#e0e0e0"/>
    <path id="Path_5538" data-name="Path 5538" d="M415.5,69.8a3.553,3.553,0,0,1,.636.545c.373.353.879.851,1.424,1.408s1.036,1.067,1.385,1.444a3.423,3.423,0,0,1,.53.639,3.807,3.807,0,0,1-.639-.545c-.373-.353-.879-.851-1.428-1.408s-1.036-1.067-1.385-1.444A3.573,3.573,0,0,1,415.5,69.8Z" transform="translate(-252.489 -42.416)" fill="#e0e0e0"/>
    <path id="Path_5539" data-name="Path 5539" d="M415.35,4.832A3.723,3.723,0,0,1,415.9,4.2c.353-.373.851-.875,1.4-1.424s1.051-1.044,1.444-1.389a3.569,3.569,0,0,1,.64-.534,3.432,3.432,0,0,1-.541.632c-.353.392-.851.879-1.408,1.428S416.362,3.949,416,4.295a3.492,3.492,0,0,1-.647.537Z" transform="translate(-252.398 -0.517)" fill="#e0e0e0"/>
    <path id="Path_5540" data-name="Path 5540" d="M352.85,4.873a3.359,3.359,0,0,1-.636-.545c-.373-.353-.879-.847-1.424-1.4s-1.036-1.067-1.385-1.444A3.419,3.419,0,0,1,348.88.84a3.585,3.585,0,0,1,.632.545c.373.349.879.847,1.428,1.4s1.036,1.071,1.385,1.448a3.658,3.658,0,0,1,.526.636Z" transform="translate(-212.006 -0.51)" fill="#e0e0e0"/>
    <path id="Path_5541" data-name="Path 5541" d="M381.108,33.586V31.906c0-1.091,0-2.68-.024-4.708,0-4.037-.024-9.785-.043-16.67l.086.086H359.086l.1-.1V33.562l-.082-.086,15.964.043,4.48.024h1.483a.432.432,0,0,1,.106,0H375.1l-16.015.043H359V10.36h22.229v.082c-.02,6.909-.035,12.676-.043,16.725,0,2.009,0,3.59-.024,4.677v1.542A.644.644,0,0,1,381.108,33.586Z" transform="translate(-218.156 -6.296)" fill="#e0e0e0"/>
    <rect id="Rectangle_923" data-name="Rectangle 923" width="7.376" height="7.376" transform="translate(148.271 12.08)" fill="#ebebeb"/>
    <rect id="Rectangle_924" data-name="Rectangle 924" width="34.525" height="50.045" transform="translate(2.86 49.802)" fill="#e0e0e0"/>
    <rect id="Rectangle_925" data-name="Rectangle 925" width="34.525" height="50.045" transform="translate(1.134 49.802)" fill="#f5f5f5"/>
    <rect id="Rectangle_926" data-name="Rectangle 926" width="25.944" height="39.201" transform="translate(5.422 55.224)" fill="#fff"/>
    <path id="Path_5542" data-name="Path 5542" d="M39.675,179.736v-2.9c0-1.875,0-4.614-.024-8.074,0-6.913-.024-16.7-.043-28.247l.067.114H13.734l.094-.094c0,14.787,0,28.424-.02,39.2l-.075-.075,18.886.039h5.245l-5.2.02-18.93.039H13.66v-.075c0-10.777,0-24.414-.02-39.2v-.094H39.765v.086c0,11.55-.031,21.358-.043,28.283V179.5A.679.679,0,0,1,39.675,179.736Z" transform="translate(-8.289 -85.312)" fill="#e0e0e0"/>
    <path id="Path_5543" data-name="Path 5543" d="M83.85,126.94a5.6,5.6,0,0,1-.612.895c-.392.537-.973,1.267-1.62,2.056s-1.259,1.487-1.707,1.962a6.049,6.049,0,0,1-.761.785,6.519,6.519,0,0,1,.659-.863l1.663-2.017,1.66-2.009a6.846,6.846,0,0,1,.718-.808Z" transform="translate(-48.098 -77.138)" fill="#e0e0e0"/>
    <path id="Path_5544" data-name="Path 5544" d="M80.29,240.36a32.08,32.08,0,0,0,4.527,5.661" transform="translate(-48.79 -146.061)" fill="#fff"/>
    <path id="Path_5545" data-name="Path 5545" d="M84.83,246.021a5.258,5.258,0,0,1-.785-.718c-.463-.471-1.079-1.142-1.707-1.926a24.263,24.263,0,0,1-1.5-2.091,5.255,5.255,0,0,1-.526-.926,6.975,6.975,0,0,1,.636.851c.392.537.918,1.267,1.542,2.048s1.22,1.463,1.656,1.962A7.538,7.538,0,0,1,84.83,246.021Z" transform="translate(-48.802 -146.061)" fill="#e0e0e0"/>
    <path id="Path_5546" data-name="Path 5546" d="M2.87,245.753q2.26-2.793,4.523-5.583" transform="translate(-1.744 -145.945)" fill="#fff"/>
    <path id="Path_5547" data-name="Path 5547" d="M7.394,240.17A34.155,34.155,0,0,1,5.2,243.018a33.952,33.952,0,0,1-2.334,2.746,34.561,34.561,0,0,1,2.189-2.852,35.268,35.268,0,0,1,2.334-2.742Z" transform="translate(-1.744 -145.945)" fill="#e0e0e0"/>
    <path id="Path_5548" data-name="Path 5548" d="M2.89,126.94a32.027,32.027,0,0,1,2.193,2.625,30.837,30.837,0,0,1,2.048,2.746,32.378,32.378,0,0,1-2.2-2.625A30.947,30.947,0,0,1,2.89,126.94Z" transform="translate(-1.756 -77.138)" fill="#e0e0e0"/>
    <rect id="Rectangle_927" data-name="Rectangle 927" width="8.686" height="24.665" transform="translate(14.594 63.184)" fill="#e0e0e0"/>
    <path id="Path_5549" data-name="Path 5549" d="M35.248,37.147a14.179,14.179,0,0,0-7.741,18.471L36.3,77.082l3.943-1.616L31.454,54a9.9,9.9,0,1,1,18.322-7.5L53.7,44.884A14.179,14.179,0,0,0,35.248,37.147Z" transform="translate(-16.075 -21.937)" fill="#ff725e"/>
    <g id="Group_3676" data-name="Group 3676" transform="translate(10.378 14.163)" opacity="0.3">
      <path id="Path_5550" data-name="Path 5550" d="M35.248,37.147a14.179,14.179,0,0,0-7.741,18.471L36.3,77.082l3.943-1.616L31.454,54a9.9,9.9,0,1,1,18.322-7.5L53.7,44.884A14.179,14.179,0,0,0,35.248,37.147Z" transform="translate(-26.453 -36.099)" fill="#fe8f0a"/>
    </g>
    <rect id="Rectangle_928" data-name="Rectangle 928" width="38.169" height="24.489" rx="5.81" transform="translate(11.759 47.463) rotate(-22.27)" fill="#fe8f0a"/>
    <g id="Group_3677" data-name="Group 3677" transform="translate(29.661 45.426)" opacity="0.5">
      <path id="Path_5551" data-name="Path 5551" d="M81.742,117.762a3.19,3.19,0,1,0-2.6,4.386l1.8,4.414,1.612-.659-1.809-4.418A3.17,3.17,0,0,0,81.742,117.762Z" transform="translate(-75.603 -115.788)"/>
    </g>
    <path id="Path_5552" data-name="Path 5552" d="M45.468,145.147c-.082.035-1.695-3.715-3.6-8.376s-3.394-8.47-3.311-8.5,1.695,3.715,3.6,8.38S45.546,145.116,45.468,145.147Z" transform="translate(-23.427 -77.946)" fill="#fafafa"/>
    <path id="Path_5553" data-name="Path 5553" d="M76.087,123.119a.938.938,0,0,1-.428-.055,3.825,3.825,0,0,1-1.059-.479,4.469,4.469,0,0,1-1.071-6.811,3.844,3.844,0,0,1,.883-.785,1.065,1.065,0,0,1,.392-.184,10.029,10.029,0,0,0-1.1,1.1,4.421,4.421,0,0,0,1.02,6.481A9.959,9.959,0,0,0,76.087,123.119Z" transform="translate(-43.998 -69.763)" fill="#fafafa"/>
    <path id="Path_5554" data-name="Path 5554" d="M16.037,144.957l.192-.557.365.463a2.444,2.444,0,0,0,1.13.785l.557.188-.479.369a2.475,2.475,0,0,0-.785,1.134l-.2.565-.365-.459a2.476,2.476,0,0,0-1.134-.785l-.553-.192.459-.365a2.444,2.444,0,0,0,.808-1.146Z" transform="translate(-8.975 -87.748)" fill="#4f9e55"/>
    <path id="Path_5555" data-name="Path 5555" d="M64.284,89.5l.11-.322.212.267a1.455,1.455,0,0,0,.659.467l.322.11-.267.212a1.424,1.424,0,0,0-.467.655l-.11.322-.212-.267a1.444,1.444,0,0,0-.655-.463l-.326-.11.271-.212A1.479,1.479,0,0,0,64.284,89.5Z" transform="translate(-38.618 -54.193)" fill="#4f9e55"/>
    <path id="Path_5556" data-name="Path 5556" d="M5.1,95.554l.322-.934.616.785a4.147,4.147,0,0,0,1.9,1.326l.934.318-.785.616a4.147,4.147,0,0,0-1.346,1.9l-.322.934-.612-.785a4.147,4.147,0,0,0-1.9-1.346L3,98.061l.785-.616A4.112,4.112,0,0,0,5.1,95.554Z" transform="translate(-1.823 -57.498)" fill="#fe8f0a"/>
    <path id="Path_5557" data-name="Path 5557" d="M174.85,179.989l-57.911-.035a12.617,12.617,0,0,1-12.609-12.617l.027-145.187A12.617,12.617,0,0,1,116.982,9.54l57.911.035A12.613,12.613,0,0,1,187.5,22.192l-.027,145.187A12.617,12.617,0,0,1,174.85,179.989Z" transform="translate(-63.399 -5.797)" fill="#263238"/>
    <path id="Path_5558" data-name="Path 5558" d="M180.762,22.677H169.534a2.789,2.789,0,0,0-2.711,2.856V27.57a2.789,2.789,0,0,1-2.746,2.848H142.193a2.793,2.793,0,0,1-2.727-2.852V25.5a2.793,2.793,0,0,0-2.727-2.852H122.98a8.839,8.839,0,0,0-8.843,8.831L114.11,173.2a8.839,8.839,0,0,0,8.831,8.839l57.8.031a8.831,8.831,0,0,0,8.839-8.831L189.6,31.52a8.831,8.831,0,0,0-8.843-8.843Z" transform="translate(-69.342 -13.764)" fill="#fff"/>
    <path id="Path_5559" data-name="Path 5559" d="M193.211,399.662a1.11,1.11,0,1,1-1.118-1.1A1.11,1.11,0,0,1,193.211,399.662Z" transform="translate(-116.06 -242.195)" fill="#263238"/>
    <path id="Path_5560" data-name="Path 5560" d="M209.051,399.532a1.11,1.11,0,1,1-1.118-1.1,1.11,1.11,0,0,1,1.118,1.1Z" transform="translate(-125.686 -242.116)" fill="#263238"/>
    <path id="Path_5561" data-name="Path 5561" d="M224.9,399.4a1.11,1.11,0,1,1-1.118-1.1A1.11,1.11,0,0,1,224.9,399.4Z" transform="translate(-135.317 -242.037)" fill="#263238"/>
    <path id="Path_5562" data-name="Path 5562" d="M274.794,59.126c0,.035-1.463.075-3.264.086s-3.26,0-3.26-.031,1.459-.075,3.26-.09S274.79,59.091,274.794,59.126Z" transform="translate(-163.021 -35.904)" fill="#263238"/>
    <path id="Path_5563" data-name="Path 5563" d="M274.824,63.384c0,.035-1.459.075-3.26.09s-3.264,0-3.264-.035,1.459-.075,3.264-.086S274.824,63.353,274.824,63.384Z" transform="translate(-163.039 -38.495)" fill="#263238"/>
    <path id="Path_5564" data-name="Path 5564" d="M274.894,67.636c0,.031-1.463.075-3.264.086s-3.26,0-3.26-.031,1.459-.075,3.26-.09S274.894,67.6,274.894,67.636Z" transform="translate(-163.082 -41.076)" fill="#263238"/>
    <path id="Path_5565" data-name="Path 5565" d="M133.67,64.166h.526l1.4-.027-.035.031V63.162a5.776,5.776,0,0,1,0-.581.526.526,0,0,1,.459-.424h.667a.538.538,0,0,1,.451.534v1.471l-.059-.055h1.758l-.059.063c0-.71,0-1.44-.02-2.189V61.42a.471.471,0,0,0-.071-.228A1.619,1.619,0,0,0,138.5,61l-.785-.757-.742-.73-.357-.353a.808.808,0,0,0-.369-.275.475.475,0,0,0-.392.078c-.106.09-.22.22-.326.322l-.632.636c-.392.416-.808.785-1.11,1.146a1.263,1.263,0,0,0-.086.659v-.337a.73.73,0,0,1,.1-.365c.326-.392.714-.749,1.114-1.177l.624-.639c.114-.11.208-.22.337-.337a.608.608,0,0,1,.506-.1.942.942,0,0,1,.416.3c.122.114.239.231.361.353l.745.73.785.753a1.474,1.474,0,0,1,.2.212.588.588,0,0,1,.09.294v2.809H137.1v-1.53a.428.428,0,0,0-.361-.432H136.1a.435.435,0,0,0-.392.345v1.609H133.8A.644.644,0,0,1,133.67,64.166Z" transform="translate(-81.228 -35.703)" fill="#263238"/>
    <path id="Path_5566" data-name="Path 5566" d="M163.292,154.893c0,1.357-1.02,2.2-2.652,2.2h-1.228v1.683H158v-6.1h2.64C162.272,152.68,163.292,153.523,163.292,154.893Zm-1.432,0c0-.671-.435-1.063-1.3-1.063h-1.15v2.115h1.15c.863,0,1.3-.392,1.3-1.051Z" transform="translate(-96.013 -92.78)" fill="#263238"/>
    <path id="Path_5567" data-name="Path 5567" d="M177.351,158.206v2.676h-1.279V160.3a1.538,1.538,0,0,1-1.428.651c-1.1,0-1.754-.608-1.754-1.42s.585-1.4,2.013-1.4h1.083c0-.585-.349-.926-1.083-.926a2.256,2.256,0,0,0-1.342.451l-.49-.949a3.629,3.629,0,0,1,2.024-.565C176.523,156.123,177.351,156.782,177.351,158.206Zm-1.357,1.177V158.9h-.934c-.636,0-.836.235-.836.549s.286.565.785.565a1,1,0,0,0,.985-.62Z" transform="translate(-105.061 -94.881)" fill="#263238"/>
    <path id="Path_5568" data-name="Path 5568" d="M186.24,160.421l.455-.977a3.185,3.185,0,0,0,1.628.451c.628,0,.863-.165.863-.428,0-.765-2.833.02-2.833-1.856,0-.887.785-1.514,2.17-1.514a3.829,3.829,0,0,1,1.8.392l-.451.969a2.691,2.691,0,0,0-1.354-.349c-.608,0-.871.192-.871.435,0,.785,2.833.027,2.833,1.875,0,.871-.812,1.487-2.213,1.487A4.045,4.045,0,0,1,186.24,160.421Z" transform="translate(-113.174 -94.856)" fill="#263238"/>
    <path id="Path_5569" data-name="Path 5569" d="M198,160.421l.451-.977a3.21,3.21,0,0,0,1.632.451c.628,0,.863-.165.863-.428,0-.765-2.833.02-2.833-1.856,0-.887.785-1.514,2.17-1.514a3.841,3.841,0,0,1,1.8.392l-.455.969a2.668,2.668,0,0,0-1.35-.349c-.612,0-.871.192-.871.435,0,.785,2.833.027,2.833,1.875,0,.871-.812,1.487-2.213,1.487A4.037,4.037,0,0,1,198,160.421Z" transform="translate(-120.32 -94.856)" fill="#263238"/>
    <path id="Path_5570" data-name="Path 5570" d="M217.354,156.27l-1.7,4.708h-1.322l-1.055-2.911-1.091,2.911h-1.306l-1.691-4.708h1.283l1.106,3.174,1.149-3.174h1.15L215,159.444l1.142-3.174Z" transform="translate(-127.12 -94.961)" fill="#263238"/>
    <path id="Path_5571" data-name="Path 5571" d="M230.37,158.513a2.581,2.581,0,1,1,2.578,2.413A2.41,2.41,0,0,1,230.37,158.513Zm3.774,0a1.2,1.2,0,1,0-1.2,1.3,1.177,1.177,0,0,0,1.2-1.3Z" transform="translate(-139.99 -94.858)" fill="#263238"/>
    <path id="Path_5572" data-name="Path 5572" d="M248.721,156.089v1.255a2.8,2.8,0,0,0-.306-.02,1.154,1.154,0,0,0-1.248,1.306v2.217H245.81V156.14h1.3v.62A1.891,1.891,0,0,1,248.721,156.089Z" transform="translate(-149.373 -94.847)" fill="#263238"/>
    <path id="Path_5573" data-name="Path 5573" d="M259.345,151.74v6.469h-1.3v-.541a1.809,1.809,0,0,1-1.463.608,2.413,2.413,0,1,1,0-4.826,1.793,1.793,0,0,1,1.4.565V151.74Zm-1.318,4.123a1.2,1.2,0,1,0-1.177,1.3,1.177,1.177,0,0,0,1.177-1.3Z" transform="translate(-154.453 -92.209)" fill="#263238"/>
    <path id="Path_5574" data-name="Path 5574" d="M193.49,180.922c0,.059-14.516.1-32.441.1s-32.449-.043-32.449-.1,14.516-.1,32.449-.1S193.49,180.867,193.49,180.922Z" transform="translate(-78.147 -109.88)" fill="#e0e0e0"/>
    <path id="Path_5575" data-name="Path 5575" d="M189.66,333.192c0,.055-14.516.1-32.445.1s-32.445-.047-32.445-.1,14.516-.1,32.445-.1S189.66,333.133,189.66,333.192Z" transform="translate(-75.82 -202.411)" fill="#e0e0e0"/>
    <path id="Path_5576" data-name="Path 5576" d="M196.927,344.622c0,.055-8.07.1-18.023.1s-18.023-.047-18.023-.1,8.066-.1,18.023-.1S196.927,344.567,196.927,344.622Z" transform="translate(-97.763 -209.356)" fill="#e0e0e0"/>
    <path id="Path_5577" data-name="Path 5577" d="M138.276,221.952l1.228.667-.553.922-1.24-.73.024,1.361h-1.059V222.8l-1.244.741-.541-.922,1.232-.667-1.232-.675.541-.926,1.244.745V219.72h1.059l-.024,1.377,1.24-.745.553.926Z" transform="translate(-81.969 -133.519)" fill="#4f9e55"/>
    <path id="Path_5578" data-name="Path 5578" d="M174.2,221.952l1.228.667-.553.922-1.24-.73.024,1.361h-1.063V222.8l-1.24.741-.541-.922,1.228-.667-1.228-.675.541-.926,1.24.745V219.72h1.063l-.024,1.377,1.24-.745.553.926Z" transform="translate(-103.797 -133.519)" fill="#4f9e55"/>
    <path id="Path_5579" data-name="Path 5579" d="M209.18,221.952l1.228.667-.553.922-1.224-.73.024,1.361H207.6V222.8l-1.244.741-.541-.922,1.232-.667-1.232-.675.541-.926,1.244.745V219.72h1.036l-.024,1.377,1.24-.745.553.926Z" transform="translate(-125.066 -133.519)" fill="#4f9e55"/>
    <path id="Path_5580" data-name="Path 5580" d="M243.032,221.952l1.228.667-.549.922-1.24-.73.024,1.361h-1.059V222.8l-1.244.741-.541-.922,1.232-.667-1.232-.675.541-.926,1.244.745V219.72h1.059l-.024,1.377,1.24-.745.553.926Z" transform="translate(-145.63 -133.519)" fill="#4f9e55"/>
    <path id="Path_5581" data-name="Path 5581" d="M276.632,221.952l1.232.667-.553.922-1.24-.73.02,1.361h-1.059V222.8l-1.24.741-.541-.922,1.228-.667-1.228-.675.541-.926,1.24.745V219.72h1.059l-.02,1.377,1.24-.745.553.926Z" transform="translate(-166.047 -133.519)" fill="#4f9e55"/>
    <path id="Path_5582" data-name="Path 5582" d="M135.591,222.257h-5.948a2.778,2.778,0,0,1-2.774-2.774v-10.55a2.778,2.778,0,0,1,2.774-2.774h5.948a2.774,2.774,0,0,1,2.77,2.774v10.55a2.774,2.774,0,0,1-2.77,2.774Zm-5.948-15.9a2.581,2.581,0,0,0-2.578,2.578v10.55a2.578,2.578,0,0,0,2.578,2.578h5.948a2.578,2.578,0,0,0,2.574-2.578v-10.55a2.578,2.578,0,0,0-2.574-2.578Z" transform="translate(-77.096 -125.278)" fill="#263238"/>
    <path id="Path_5583" data-name="Path 5583" d="M170.777,222.257h-5.944a2.778,2.778,0,0,1-2.774-2.774v-10.55a2.778,2.778,0,0,1,2.774-2.774h5.944a2.778,2.778,0,0,1,2.774,2.774v10.55a2.778,2.778,0,0,1-2.774,2.774Zm-5.944-15.9a2.582,2.582,0,0,0-2.578,2.578v10.55a2.578,2.578,0,0,0,2.578,2.578h5.944a2.578,2.578,0,0,0,2.578-2.578v-10.55a2.578,2.578,0,0,0-2.578-2.578Z" transform="translate(-98.48 -125.278)" fill="#263238"/>
    <path id="Path_5584" data-name="Path 5584" d="M205,222.257h-5.948a2.778,2.778,0,0,1-2.774-2.774v-10.55a2.778,2.778,0,0,1,2.774-2.774H205a2.774,2.774,0,0,1,2.77,2.774v10.55a2.774,2.774,0,0,1-2.77,2.774Zm-5.948-15.9a2.581,2.581,0,0,0-2.578,2.578v10.55a2.578,2.578,0,0,0,2.578,2.578H205a2.578,2.578,0,0,0,2.574-2.578v-10.55A2.578,2.578,0,0,0,205,206.356Z" transform="translate(-119.275 -125.278)" fill="#263238"/>
    <path id="Path_5585" data-name="Path 5585" d="M239.636,222.257H233.7a2.778,2.778,0,0,1-2.774-2.774v-10.55a2.778,2.778,0,0,1,2.774-2.774h5.948a2.774,2.774,0,0,1,2.77,2.774v10.55a2.774,2.774,0,0,1-2.786,2.774Zm-5.932-15.9a2.582,2.582,0,0,0-2.578,2.578v10.55a2.578,2.578,0,0,0,2.578,2.578h5.948a2.578,2.578,0,0,0,2.574-2.578v-10.55a2.578,2.578,0,0,0-2.574-2.578Z" transform="translate(-140.331 -125.278)" fill="#263238"/>
    <path id="Path_5586" data-name="Path 5586" d="M273.217,222.257h-5.944a2.778,2.778,0,0,1-2.774-2.774v-10.55a2.778,2.778,0,0,1,2.774-2.774h5.944a2.778,2.778,0,0,1,2.774,2.774v10.55a2.778,2.778,0,0,1-2.774,2.774Zm-5.944-15.9a2.578,2.578,0,0,0-2.578,2.578v10.55a2.578,2.578,0,0,0,2.578,2.578h5.944a2.578,2.578,0,0,0,2.578-2.578v-10.55a2.578,2.578,0,0,0-2.578-2.578Z" transform="translate(-160.73 -125.278)" fill="#263238"/>
    <path id="Path_5709" data-name="Path 5709" d="M5.834,0H60.779a5.834,5.834,0,1,1,0,11.668H5.834A5.834,5.834,0,0,1,5.834,0Z" transform="translate(49.868 109.721)" fill="#4f9e55"/>
    <path id="Path_5587" data-name="Path 5587" d="M190.57,288.57h1.793a1.972,1.972,0,1,1,0,3.923H190.57Zm1.75,3.194a1.224,1.224,0,1,0,0-2.444h-.836v2.444Z" transform="translate(-115.805 -175.357)" fill="#fff"/>
    <path id="Path_5588" data-name="Path 5588" d="M201.705,292.013a1.671,1.671,0,1,1,1.671,1.569,1.569,1.569,0,0,1-1.671-1.569Zm2.444,0a.785.785,0,1,0-.785.84.765.765,0,0,0,.785-.84Z" transform="translate(-122.569 -176.372)" fill="#fff"/>
    <path id="Path_5589" data-name="Path 5589" d="M214.809,292.132v1.738h-.879v-1.6c0-.49-.228-.714-.616-.714a.721.721,0,0,0-.726.816v1.5h-.879v-3.037h.84v.357a1.33,1.33,0,0,1,1-.392A1.178,1.178,0,0,1,214.809,292.132Z" transform="translate(-128.651 -176.71)" fill="#fff"/>
    <path id="Path_5590" data-name="Path 5590" d="M224.331,292.562h-2.3a.812.812,0,0,0,.867.612,1.032,1.032,0,0,0,.761-.294l.471.506a1.773,1.773,0,0,1-2.986-1.079,1.546,1.546,0,0,1,1.62-1.569,1.5,1.5,0,0,1,1.569,1.569A1.7,1.7,0,0,1,224.331,292.562Zm-2.307-.514h1.495a.757.757,0,0,0-1.495,0Z" transform="translate(-134.387 -176.673)" fill="#fff"/>
    <circle id="Ellipse_374" data-name="Ellipse 374" cx="11.789" cy="11.789" r="11.789" transform="translate(70.728 30.437)" fill="#4f9e55"/>
    <path id="Path_5591" data-name="Path 5591" d="M204.7,96.9h-.2V95.8a2.3,2.3,0,1,1,4.6,0v.9h-.2v-.9a2.1,2.1,0,1,0-4.206,0Z" transform="translate(-124.27 -56.818)" fill="#fff"/>
    <path id="Path_5592" data-name="Path 5592" d="M207.225,109.7h-5.846a.973.973,0,0,1-.969-.969v-5.846a.969.969,0,0,1,.969-.969h5.846a.969.969,0,0,1,.969.969v5.846A.973.973,0,0,1,207.225,109.7Zm-5.846-7.588a.785.785,0,0,0-.785.785v5.846a.785.785,0,0,0,.785.785h5.846a.785.785,0,0,0,.785-.785V102.9a.785.785,0,0,0-.785-.785Z" transform="translate(-121.784 -61.934)" fill="#fff"/>
    <path id="Path_5593" data-name="Path 5593" d="M208.978,109.486a.918.918,0,1,1,.918-.918A.918.918,0,0,1,208.978,109.486Zm0-1.64a.722.722,0,1,0,.722.722A.722.722,0,0,0,208.978,107.846Z" transform="translate(-126.433 -65.416)" fill="#fff"/>
    <rect id="Rectangle_930" data-name="Rectangle 930" width="0.196" height="1.656" transform="translate(82.419 43.929)" fill="#fff"/>
    <path id="Path_5594" data-name="Path 5594" d="M394.707,396.428l-7.4-17.078L378.81,384.8l9.008,15.611,4.516-2.024Z" transform="translate(-230.194 -230.522)" fill="#ffbe9d"/>
    <path id="Path_5595" data-name="Path 5595" d="M406.775,420.46l.243.483s9.867-.843,10.742.671l-16.336,8.133L398.94,424.2A10.471,10.471,0,0,0,406.775,420.46Z" transform="translate(-242.426 -255.503)" fill="#4f9e55"/>
    <g id="Group_3678" data-name="Group 3678" transform="translate(158.799 169.443)" opacity="0.6">
      <path id="Path_5596" data-name="Path 5596" d="M405,432.062a.742.742,0,0,0-.082.989.71.71,0,0,0,.981.09.785.785,0,0,0,.082-1.048.745.745,0,0,0-1.032.02" transform="translate(-404.765 -431.896)" fill="#fff"/>
    </g>
    <g id="Group_3679" data-name="Group 3679" transform="translate(158.401 165.603)" opacity="0.6">
      <path id="Path_5597" data-name="Path 5597" d="M404.346,430.747l-.6-1.338,15.873-7.3s.887-.047,1.059.506Z" transform="translate(-403.75 -422.107)" fill="#fff"/>
    </g>
    <path id="Path_5598" data-name="Path 5598" d="M418.051,421.7c.035.082-.345.318-.608.785s-.31.891-.392.895-.2-.514.129-1.055S418.032,421.617,418.051,421.7Z" transform="translate(-253.377 -256.244)" fill="#263238"/>
    <path id="Path_5599" data-name="Path 5599" d="M423.972,421.35c.059.067-.22.373-.322.847s0,.867-.086.9-.357-.392-.216-.973S423.933,421.271,423.972,421.35Z" transform="translate(-257.234 -256.036)" fill="#263238"/>
    <path id="Path_5600" data-name="Path 5600" d="M429.482,422.752c-.067.051-.392-.29-.392-.832s.275-.9.341-.847-.047.392-.031.84S429.557,422.7,429.482,422.752Z" transform="translate(-260.748 -255.873)" fill="#263238"/>
    <path id="Path_5601" data-name="Path 5601" d="M368.812,401.612,369.095,383l-9.985,1.471,1.781,17.937,4.951.012Z" transform="translate(-218.222 -232.74)" fill="#ffbe9d"/>
    <path id="Path_5602" data-name="Path 5602" d="M370.978,428.05l.028.541s9.337,3.3,9.51,5.034l-18.235.683.02-6.077A10.417,10.417,0,0,0,370.978,428.05Z" transform="translate(-220.149 -260.116)" fill="#4f9e55"/>
    <g id="Group_3680" data-name="Group 3680" transform="translate(143.572 169.979)" opacity="0.6">
      <path id="Path_5603" data-name="Path 5603" d="M366.45,433.269a.749.749,0,0,0-.479.871.718.718,0,0,0,.859.486.785.785,0,0,0,.506-.922.745.745,0,0,0-.949-.392" transform="translate(-365.953 -433.262)" fill="#fff"/>
    </g>
    <g id="Group_3681" data-name="Group 3681" transform="translate(142.131 172.607)" opacity="0.6">
      <path id="Path_5604" data-name="Path 5604" d="M362.28,441.545v-1.463l17.474-.122s.828.326.757.9Z" transform="translate(-362.28 -439.96)" fill="#fff"/>
    </g>
    <path id="Path_5605" data-name="Path 5605" d="M382.161,429.449c0,.086-.443.145-.871.447s-.643.687-.73.655.031-.553.557-.91S382.177,429.367,382.161,429.449Z" transform="translate(-231.242 -260.923)" fill="#263238"/>
    <path id="Path_5606" data-name="Path 5606" d="M387.829,431.338c.024.086-.353.251-.643.639s-.361.785-.447.785-.165-.5.2-.977S387.825,431.252,387.829,431.338Z" transform="translate(-234.967 -262.094)" fill="#263238"/>
    <path id="Path_5607" data-name="Path 5607" d="M392.438,434.7c-.078.023-.22-.42,0-.914s.62-.706.663-.635-.208.345-.392.753S392.528,434.687,392.438,434.7Z" transform="translate(-238.404 -263.206)" fill="#263238"/>
    <path id="Path_5608" data-name="Path 5608" d="M338.356,214.3l-.373-14.657-14.265.753-.479,1.742a78.426,78.426,0,0,0-1.867,8.156,34.411,34.411,0,0,0,1.569,18.29c2.413,6.56,6.183,19.036,6.183,19.036L343.275,286.7l16.478-5.418Z" transform="translate(-194.949 -121.316)" fill="#263238"/>
    <path id="Path_5609" data-name="Path 5609" d="M366.823,198.44l1.244,4.057c1.828,1.177,4.782,6.944,5.053,9.306a137.3,137.3,0,0,1,.247,19.926c-.459,7.8-4.316,53.427-4.316,53.427l-15.591.82,1.624-73.781.687-13.174Z" transform="translate(-214.789 -120.587)" fill="#263238"/>
    <path id="Path_5610" data-name="Path 5610" d="M319.42,221.21a2.509,2.509,0,0,0,.541.161,8.951,8.951,0,0,0,1.518.2,9.914,9.914,0,0,0,8.721-4.316,8.708,8.708,0,0,0,.757-1.334,2.434,2.434,0,0,0,.2-.526c-.039-.024-.333.73-1.083,1.769a10.228,10.228,0,0,1-8.588,4.257A20.527,20.527,0,0,1,319.42,221.21Z" transform="translate(-194.104 -130.893)" fill="#455a64"/>
    <path id="Path_5611" data-name="Path 5611" d="M386,210.239a1.063,1.063,0,0,0,.09.337,7.149,7.149,0,0,0,.361.883,11.331,11.331,0,0,0,4.112,4.665,8.627,8.627,0,0,0,.828.471,1.231,1.231,0,0,0,.326.129c.02-.031-.416-.271-1.067-.726a13.733,13.733,0,0,1-2.307-2.064,13.513,13.513,0,0,1-1.754-2.546C386.216,210.687,386.035,210.224,386,210.239Z" transform="translate(-234.563 -127.757)" fill="#455a64"/>
    <path id="Path_5612" data-name="Path 5612" d="M353.417,242s.039.1.106.3.161.51.286.9c.251.785.616,1.962,1.083,3.46l3.951,12.731c3.382,10.734,7.678,25.682,13.437,41.865q.989,2.907,1.962,5.74l.031.1-.1.031L357.7,312.54l-.09.031-.031-.09L348.1,286.2l-2.7-7.529c-.31-.871-.545-1.542-.71-2q-.118-.337-.177-.518l-.059-.177s.028.059.071.173l.2.514.738,1.993,2.746,7.509c2.354,6.442,5.653,15.556,9.541,26.247l-.118-.059,16.478-5.422-.067.133q-.965-2.837-1.962-5.744c-5.759-16.183-10.032-31.143-13.378-41.888-1.64-5.379-2.966-9.734-3.888-12.751-.451-1.5-.8-2.672-1.044-3.472-.118-.392-.2-.694-.267-.9Z" transform="translate(-209.32 -147.058)" fill="#455a64"/>
    <path id="Path_5613" data-name="Path 5613" d="M342.81,115.674s-.745-4.174-2.884-6.167-11.036-4.257-11.036-4.257.106,3.092-1.887,3.923A4.992,4.992,0,0,1,321.118,108a8.525,8.525,0,0,1-2.028-3.876s-10.561,1.538-12.064,4.4-3.076,13.731-3.076,13.731l9.573,1.51-.314,18.588,25.148-1.322-1.432-17.341,6.9.616Z" transform="translate(-184.703 -63.271)" fill="#455a64"/>
    <path id="Path_5614" data-name="Path 5614" d="M331.942,139.1a1.96,1.96,0,0,0,0-.42c0-.271-.024-.659-.051-1.138-.051-.961-.133-2.287-.243-3.751s-.216-2.786-.306-3.743c-.047-.483-.086-.867-.118-1.134a1.621,1.621,0,0,0-.075-.416,1.666,1.666,0,0,0,0,.42c0,.267.024.655.051,1.138.051.957.133,2.283.243,3.751s.216,2.785.306,3.743c.043.483.086.867.118,1.134A1.432,1.432,0,0,0,331.942,139.1Z" transform="translate(-201.223 -78.086)" fill="#263238"/>
    <path id="Path_5615" data-name="Path 5615" d="M389.805,132.88c-.059,0-.549,1.9-1.1,4.265a44.034,44.034,0,0,0-.887,4.316,43.618,43.618,0,0,0,1.1-4.265A44.036,44.036,0,0,0,389.805,132.88Z" transform="translate(-235.669 -80.748)" fill="#263238"/>
    <path id="Path_5616" data-name="Path 5616" d="M314.36,113.518c0,.039.455.1,1.177.326a8.239,8.239,0,0,1,4.453,3.48c.392.628.557,1.059.6,1.044a1.093,1.093,0,0,0-.09-.314,5.288,5.288,0,0,0-.392-.82,7.521,7.521,0,0,0-4.543-3.531,5.491,5.491,0,0,0-.875-.169A.934.934,0,0,0,314.36,113.518Z" transform="translate(-191.029 -68.978)" fill="#263238"/>
    <path id="Path_5617" data-name="Path 5617" d="M395.348,120a4.355,4.355,0,0,0-.373,1.326,4.413,4.413,0,0,0-.161,1.373,8.841,8.841,0,0,0,.534-2.7Z" transform="translate(-239.917 -72.921)" fill="#263238"/>
    <path id="Path_5618" data-name="Path 5618" d="M308.26,151.05s3.594,14.245,3.982,15.458,1.087,4.5,4.559,5.01c4.68.679,22.845-.926,22.845-.926l-3.66-4.163-16.16-3.629L317.1,152.443Z" transform="translate(-187.322 -91.789)" fill="#ffbe9d"/>
    <path id="Path_5619" data-name="Path 5619" d="M378.976,184a.968.968,0,0,0-.118.337,4.543,4.543,0,0,0-.133.969,5.536,5.536,0,0,0,.816,3.1,6.277,6.277,0,0,0,1.118,1.389,3.41,3.41,0,0,0,1.255.745,3.354,3.354,0,0,0,.969.169,1.153,1.153,0,0,0,.357-.031,7.369,7.369,0,0,1-1.271-.282,3.531,3.531,0,0,1-1.177-.745,6.837,6.837,0,0,1-1.067-1.357,5.806,5.806,0,0,1-.847-2.982C378.874,184.506,379.015,184,378.976,184Z" transform="translate(-230.139 -111.812)" fill="#eb996e"/>
    <path id="Path_5620" data-name="Path 5620" d="M316.171,143.836a1.541,1.541,0,0,1-.432-.043l-1.177-.169c-.981-.141-2.354-.3-3.841-.494a38.2,38.2,0,0,1-3.825-.667c-.483-.118-.871-.22-1.134-.31a1.828,1.828,0,0,1-.392-.149c0-.031.6.122,1.569.314s2.323.392,3.821.6,2.86.392,3.837.557c.49.086.883.169,1.153.235A1.523,1.523,0,0,1,316.171,143.836Z" transform="translate(-185.566 -86.29)" fill="#ff725e"/>
    <path id="Path_5621" data-name="Path 5621" d="M316.531,132.749a1.433,1.433,0,0,1-.369,0c-.239,0-.585,0-1.012-.031-.851-.043-2.028-.133-3.323-.294s-2.46-.365-3.3-.534c-.42-.082-.757-.157-.989-.216a1.146,1.146,0,0,1-.353-.114,11.515,11.515,0,0,1,1.369.184c.84.133,2,.31,3.292.471s2.46.275,3.311.353a10.232,10.232,0,0,1,1.369.18Z" transform="translate(-186.672 -79.946)" fill="#ff725e"/>
    <path id="Path_5622" data-name="Path 5622" d="M317.378,123.239a5,5,0,0,1-1.118,0,23.348,23.348,0,0,1-5.292-1,4.925,4.925,0,0,1-1.047-.392,7.28,7.28,0,0,1,1.087.255c.667.173,1.589.392,2.617.588s1.962.318,2.652.392A7.035,7.035,0,0,1,317.378,123.239Z" transform="translate(-188.331 -74.045)" fill="#ff725e"/>
    <path id="Path_5623" data-name="Path 5623" d="M332.414,112.28a7.986,7.986,0,0,1-1.263.392c-.785.2-1.879.451-3.091.694s-2.323.432-3.139.545a7.794,7.794,0,0,1-1.31.141,8.164,8.164,0,0,1,1.283-.286l3.107-.6,3.1-.636A8.907,8.907,0,0,1,332.414,112.28Z" transform="translate(-196.65 -68.23)" fill="#ff725e"/>
    <path id="Path_5624" data-name="Path 5624" d="M378.276,116.274a1.927,1.927,0,0,1-.447-.157l-1.2-.49c-1.008-.42-2.4-.993-3.959-1.6s-2.97-1.13-4-1.507l-1.212-.451a2.431,2.431,0,0,1-.439-.188,2.006,2.006,0,0,1,.467.11c.294.086.714.216,1.236.392,1.04.341,2.468.843,4.025,1.452s2.946,1.2,3.923,1.66c.5.228.9.416,1.177.553a2.1,2.1,0,0,1,.428.228Z" transform="translate(-223.029 -67.987)" fill="#ff725e"/>
    <path id="Path_5625" data-name="Path 5625" d="M355.733,128.519a.946.946,0,0,1-.243-.024l-.7-.114-2.55-.447c-2.154-.392-5.132-.9-8.443-1.3-1.656-.192-3.237-.33-4.68-.392s-2.746-.106-3.833-.09c-.545,0-1.04.024-1.475.035s-.8.031-1.11.051l-.7.035a1.088,1.088,0,0,1-.247,0,1.521,1.521,0,0,1,.243-.039l.7-.075c.306-.031.679-.067,1.114-.086s.93-.059,1.475-.067c1.095-.035,2.4,0,3.849.047s3.037.2,4.708.392c3.319.392,6.277.946,8.443,1.357,1.075.208,1.942.392,2.538.514l.691.149A1.213,1.213,0,0,1,355.733,128.519Z" transform="translate(-201.596 -76.563)" fill="#ff725e"/>
    <path id="Path_5626" data-name="Path 5626" d="M346.151,144.99a2.674,2.674,0,0,1-.537,0c-.349-.024-.847-.067-1.463-.129-1.236-.126-2.938-.353-4.8-.69s-3.531-.73-4.735-1.048c-.6-.157-1.083-.294-1.412-.392a2.416,2.416,0,0,1-.51-.18,2.933,2.933,0,0,1,.53.1l1.428.33c1.208.279,2.88.647,4.739.985s3.551.588,4.779.753l1.456.192a2.519,2.519,0,0,1,.53.078Z" transform="translate(-202.168 -86.624)" fill="#ff725e"/>
    <path id="Path_5627" data-name="Path 5627" d="M376.416,148.969a37.611,37.611,0,0,1-3.99.141,38.115,38.115,0,0,1-3.986-.067,37.425,37.425,0,0,1,3.986-.141A38.222,38.222,0,0,1,376.416,148.969Z" transform="translate(-223.892 -90.47)" fill="#ff725e"/>
    <path id="Path_5628" data-name="Path 5628" d="M343.61,159.593a1.6,1.6,0,0,1-.435-.02c-.275-.024-.679-.075-1.177-.145-.989-.137-2.354-.392-3.833-.726s-2.809-.734-3.755-1.048c-.475-.157-.855-.29-1.118-.392a1.867,1.867,0,0,1-.392-.173,1.538,1.538,0,0,1,.424.1l1.134.326c.957.275,2.279.639,3.758.985s2.829.608,3.809.785l1.157.212A1.963,1.963,0,0,1,343.61,159.593Z" transform="translate(-202.295 -95.46)" fill="#ff725e"/>
    <path id="Path_5629" data-name="Path 5629" d="M370.551,162.782a7.188,7.188,0,0,1-1.263,0c-.785-.027-1.856-.106-3.037-.259s-2.244-.353-3.005-.526a6.367,6.367,0,0,1-1.216-.337,9.613,9.613,0,0,1,1.248.192c.785.133,1.824.31,3,.463s2.244.251,3.017.318A8.5,8.5,0,0,1,370.551,162.782Z" transform="translate(-219.997 -98.237)" fill="#ff725e"/>
    <path id="Path_5630" data-name="Path 5630" d="M353.208,175.848a.828.828,0,0,1-.161.063c-.106.035-.263.09-.471.141a15.069,15.069,0,0,1-1.765.369,22.954,22.954,0,0,1-5.936.047,45.767,45.767,0,0,1-5.842-1.095c-.738-.18-1.33-.337-1.742-.447a4.79,4.79,0,0,1-.632-.2,3.8,3.8,0,0,1,.651.114l1.758.392a56.763,56.763,0,0,0,5.826,1.028,24.953,24.953,0,0,0,5.885,0c.749-.094,1.354-.208,1.769-.3A4.161,4.161,0,0,1,353.208,175.848Z" transform="translate(-204.58 -106.179)" fill="#ff725e"/>
    <path id="Path_5631" data-name="Path 5631" d="M395.82,139.862a11.951,11.951,0,0,1-1.989.161,8.1,8.1,0,0,1-2-.043,12.19,12.19,0,0,1,1.989-.165A7.972,7.972,0,0,1,395.82,139.862Z" transform="translate(-238.106 -84.937)" fill="#ff725e"/>
    <path id="Path_5632" data-name="Path 5632" d="M397.24,127.578a5.833,5.833,0,0,1-2.17-.141A5.622,5.622,0,0,1,397.24,127.578Z" transform="translate(-240.075 -77.412)" fill="#ff725e"/>
    <path id="Path_5633" data-name="Path 5633" d="M358.259,153.243c-.02-.035.412-.247,1-.734a7.226,7.226,0,0,0,.934-.953,7.663,7.663,0,0,0,.871-1.377,7.755,7.755,0,0,0,.537-1.538,7.02,7.02,0,0,0,.161-1.322c.02-.785-.082-1.232-.043-1.24s.047.11.094.322a2.741,2.741,0,0,1,.063.392,4.979,4.979,0,0,1,.035.526,6.276,6.276,0,0,1-.122,1.361,7.263,7.263,0,0,1-.537,1.593,7.344,7.344,0,0,1-.91,1.4,6.233,6.233,0,0,1-.993.945,4.311,4.311,0,0,1-.432.3,2.3,2.3,0,0,1-.345.192C358.377,153.212,358.267,153.259,358.259,153.243Z" transform="translate(-217.705 -88.769)" fill="#263238"/>
    <g id="Group_3682" data-name="Group 3682" transform="translate(138.302 60.657)" opacity="0.3">
      <path id="Path_5634" data-name="Path 5634" d="M358.138,154.61l-1.53,2.264a7.238,7.238,0,0,1-4.088,2.546,4.276,4.276,0,0,0,5.618-4.81Z" transform="translate(-352.52 -154.61)"/>
    </g>
    <path id="Path_5635" data-name="Path 5635" d="M371.718,72.2a7.607,7.607,0,0,0,4.21-.859,8.971,8.971,0,0,1-3.676-5.394,39.363,39.363,0,0,1-1.346-8.05L367.43,73.346a9.357,9.357,0,0,0,5.512-.428A1.526,1.526,0,0,1,371.718,72.2Z" transform="translate(-223.278 -35.184)" fill="#263238"/>
    <path id="Path_5636" data-name="Path 5636" d="M336.251,86.41a10.887,10.887,0,0,1-.84-5.524L328.4,78.23a12.374,12.374,0,0,1-2.236,5.269c-.428.581-.938,1.255-.738,1.962a1.475,1.475,0,0,0,1.087.918,4.224,4.224,0,0,0,1.491,0l-.895.977a53.723,53.723,0,0,1,9.137-.946Z" transform="translate(-197.729 -47.538)" fill="#263238"/>
    <path id="Path_5637" data-name="Path 5637" d="M339.024,40.227c-2.209-.231-4.076.738-5.838,2.091a11.291,11.291,0,0,0-3.649,12.315,8.682,8.682,0,0,0,4.618,5.03,8.775,8.775,0,0,0,8.957-1.569,10.989,10.989,0,0,0,3.574-8.557,10.553,10.553,0,0,0-2.075-6.156,8.039,8.039,0,0,0-5.587-3.139" transform="translate(-199.91 -24.424)" fill="#263238"/>
    <path id="Path_5638" data-name="Path 5638" d="M339.632,48.124a12.173,12.173,0,0,0,.145-2.68,5.842,5.842,0,0,1,3.39-4.516,8.574,8.574,0,0,1,5.8-.275,7.807,7.807,0,0,1,3.8,2.134,6.132,6.132,0,0,1,1.487,5.43l-10.079-.785a11.03,11.03,0,0,1-2.9,2.189,2.06,2.06,0,0,1-1.028.235.926.926,0,0,1-.82-.588A1.9,1.9,0,0,1,339.632,48.124Z" transform="translate(-206.241 -24.482)" fill="#263238"/>
    <path id="Path_5639" data-name="Path 5639" d="M349.29,48.168l-8.6,2.417a1.636,1.636,0,0,0-1.416,1.695l1.342,18.855a5.885,5.885,0,0,0,1.459,3.476l.9,1.016a4.31,4.31,0,0,0,7.148-1,2.074,2.074,0,0,0,.165-.506,3.163,3.163,0,0,0,.055-.432,13.644,13.644,0,0,0-.035-2.864c-.024-1.687-.043-2.377-.043-2.354s3.531-.683,4.151-5.34a49.284,49.284,0,0,0-.188-9.176C353.986,51.165,352.051,47.8,349.29,48.168Z" transform="translate(-206.17 -29.254)" fill="#ffbe9d"/>
    <path id="Path_5640" data-name="Path 5640" d="M371.354,69.687a.592.592,0,0,1-.561.612.565.565,0,0,1-.624-.518.592.592,0,0,1,.557-.616.569.569,0,0,1,.628.522Z" transform="translate(-224.943 -42.028)" fill="#263238"/>
    <path id="Path_5641" data-name="Path 5641" d="M371.765,67.081c-.075.082-.534-.239-1.177-.22s-1.1.349-1.177.275.035-.177.235-.333a1.624,1.624,0,0,1,.934-.314,1.569,1.569,0,0,1,.938.275C371.73,66.9,371.8,67.042,371.765,67.081Z" transform="translate(-224.467 -40.403)" fill="#263238"/>
    <path id="Path_5642" data-name="Path 5642" d="M355.915,70.509a.6.6,0,0,1-.557.616.573.573,0,0,1-.628-.522.6.6,0,0,1,.557-.608.573.573,0,0,1,.628.514Z" transform="translate(-215.561 -42.533)" fill="#263238"/>
    <path id="Path_5643" data-name="Path 5643" d="M355.746,67.8c-.075.082-.534-.239-1.177-.22s-1.1.349-1.177.275.039-.177.239-.333a1.624,1.624,0,0,1,.934-.314,1.569,1.569,0,0,1,.934.275C355.707,67.629,355.777,67.766,355.746,67.8Z" transform="translate(-214.733 -40.841)" fill="#263238"/>
    <path id="Path_5644" data-name="Path 5644" d="M364.972,72.413a4.433,4.433,0,0,1,1.036-.216c.165,0,.318-.055.341-.169a.851.851,0,0,0-.122-.483l-.518-1.232a22.668,22.668,0,0,1-1.177-3.225,22.238,22.238,0,0,1,1.428,3.139l.494,1.236a.937.937,0,0,1,.1.639.392.392,0,0,1-.263.247,1.091,1.091,0,0,1-.275.047A4.236,4.236,0,0,1,364.972,72.413Z" transform="translate(-221.514 -40.768)" fill="#263238"/>
    <path id="Path_5645" data-name="Path 5645" d="M357.62,97.621a11.809,11.809,0,0,1-6.25-1.491s1.644,3.166,6.277,2.609Z" transform="translate(-213.519 -58.416)" fill="#eb996e"/>
    <path id="Path_5646" data-name="Path 5646" d="M362.131,83.983a1.15,1.15,0,0,0-1.044-.392,1.036,1.036,0,0,0-.718.392.675.675,0,0,0-.031.785.785.785,0,0,0,.844.188,2.409,2.409,0,0,0,.808-.51.69.69,0,0,0,.177-.192.22.22,0,0,0,0-.239" transform="translate(-218.902 -50.789)" fill="#eb996e"/>
    <path id="Path_5647" data-name="Path 5647" d="M360.752,81.92c.1,0,.122.683.73,1.177a3.267,3.267,0,0,0,1.353.479c.008.086-.161.137-.475.157a1.746,1.746,0,0,1-1.126-.361,1.5,1.5,0,0,1-.569-.977C360.63,82.089,360.7,81.916,360.752,81.92Z" transform="translate(-219.162 -49.781)" fill="#263238"/>
    <path id="Path_5648" data-name="Path 5648" d="M355.056,63.111c-.059.173-.7.11-1.448.22s-1.35.33-1.456.177c-.047-.075.055-.239.294-.416a2.487,2.487,0,0,1,1.071-.392,2.448,2.448,0,0,1,1.142.1C354.938,62.9,355.079,63.025,355.056,63.111Z" transform="translate(-213.988 -38.085)" fill="#263238"/>
    <path id="Path_5649" data-name="Path 5649" d="M371.4,59.868c-.106.145-.553,0-1.083,0s-.977.122-1.083-.027c-.047-.071.02-.22.212-.361a1.569,1.569,0,0,1,1.746,0C371.387,59.644,371.454,59.793,371.4,59.868Z" transform="translate(-224.368 -35.983)" fill="#263238"/>
    <path id="Path_5650" data-name="Path 5650" d="M335.31,46.989c.73-2.715,4.437-6.587,7.246-6.52l4.594,2.479a4.315,4.315,0,0,1-2.778,3.433c-.785.279-1.726.392-2.166,1.087s-.122,1.714-.537,2.452c-.573,1.02-2.268,1.051-2.684,2.146-.184.479-.051,1.032-.243,1.507a3,3,0,0,1-2.444,1.314c-.659-.177-.71-1.279-.949-1.848a3.068,3.068,0,0,1-.188-2.052C335.385,49.665,334.961,48.284,335.31,46.989Z" transform="translate(-203.611 -24.591)" fill="#263238"/>
    <path id="Path_5651" data-name="Path 5651" d="M338.054,76.528c0-.345-.432-1.15-.785-1.177-.918-.122-2.554,0-2.511,2.311.067,3.162,3.225,2.444,3.229,2.354S338.086,77.717,338.054,76.528Z" transform="translate(-203.424 -45.77)" fill="#ffbe9d"/>
    <path id="Path_5652" data-name="Path 5652" d="M338.26,80.378a1.063,1.063,0,0,1-.145.082.553.553,0,0,1-.412,0,1.358,1.358,0,0,1-.655-1.208,1.785,1.785,0,0,1,.137-.785.647.647,0,0,1,.392-.432.286.286,0,0,1,.329.145c.043.086.027.153.043.157s.067-.055.039-.184a.365.365,0,0,0-.129-.2.42.42,0,0,0-.306-.075.785.785,0,0,0-.565.5,1.852,1.852,0,0,0-.173.887,1.421,1.421,0,0,0,.828,1.346.592.592,0,0,0,.5-.09C338.256,80.453,338.271,80.382,338.26,80.378Z" transform="translate(-204.673 -47.325)" fill="#eb996e"/>
    <path id="Path_5653" data-name="Path 5653" d="M324.13,52.434h0c-.055-.989-1.326-1.55-2.3-1.711a4.112,4.112,0,0,0-2.805.726,2.018,2.018,0,0,0-1.048,1.314c-.075.577.514,1.208,1.04.973a1.871,1.871,0,1,0,2.02,3.076,4.19,4.19,0,0,1-1.495,2.354,4.708,4.708,0,0,0,4.59-6.724Z" transform="translate(-193.161 -30.809)" fill="#263238"/>
    <path id="Path_5654" data-name="Path 5654" d="M319.809,83.58c0-.153.392-.22.969-.392a5.492,5.492,0,0,0,3.413-2.668c.3-.506.463-.875.612-.851s.235.447.078,1.122a4.221,4.221,0,0,1-4.006,3.139C320.182,83.913,319.789,83.721,319.809,83.58Z" transform="translate(-194.34 -48.412)" fill="#263238"/>
    <path id="Path_5655" data-name="Path 5655" d="M328.783,58.865a2.9,2.9,0,0,1-.18-.938,6.987,6.987,0,0,1,1.177-4.4,2.9,2.9,0,0,1,.624-.726,10.49,10.49,0,0,0-1.373,2.884,10.525,10.525,0,0,0-.247,3.182Z" transform="translate(-199.673 -32.085)" fill="#ff725e"/>
    <path id="Path_5656" data-name="Path 5656" d="M363.38,44.366c.373,1.267,2.432,2.782,3.354,3.727,1.758,1.8,2.122,2.413,2.385,6.67a8.956,8.956,0,0,0,1-4.661A6.873,6.873,0,0,0,368,45.7a5.367,5.367,0,0,0-4.622-1.342" transform="translate(-220.817 -26.904)" fill="#263238"/>
    <path id="Path_5657" data-name="Path 5657" d="M393.455,132.042s-2.111,8.768-2.978,12.554c-.922,4.025-2.923,13.155-8.274,11.836-4.072-1.008-3.166-6.277-3.166-6.277L382.5,138.1l3.217.365,2.954-7.27,3.186-3.358Z" transform="translate(-230.279 -77.685)" fill="#ffbe9d"/>
    <path id="Path_5658" data-name="Path 5658" d="M382.321,166.731a4.532,4.532,0,0,1-.106-1.962,6.145,6.145,0,0,1,.753-1.985,17.306,17.306,0,0,1,1.569-2.126,16.933,16.933,0,0,0,1.569-2.166,13.132,13.132,0,0,0,.949-1.962,12.112,12.112,0,0,0,.439-1.4,2.3,2.3,0,0,0,.1-.53,3.388,3.388,0,0,0-.18.506c-.106.33-.263.785-.5,1.365a14.338,14.338,0,0,1-.977,1.918,18.586,18.586,0,0,1-1.569,2.13,15.978,15.978,0,0,0-1.569,2.162,6.021,6.021,0,0,0-.734,2.064,3.8,3.8,0,0,0,.063,1.471,2.588,2.588,0,0,0,.129.392C382.289,166.688,382.313,166.731,382.321,166.731Z" transform="translate(-232.143 -93.947)" fill="#eb996e"/>
    <path id="Path_5659" data-name="Path 5659" d="M403.12,127.3c0-.157.078-2.707.129-3.378a3.414,3.414,0,0,1,.349-1.208,1.028,1.028,0,0,1,1.6-.286l.059.055a4.511,4.511,0,0,1,1.259-1.522c.749-.486,1.365-.824,2.009-.435a1.11,1.11,0,0,1,.62.926s.953-.129,1.365.259,0,1.542,0,1.542.847-.255,1.055.361a1.722,1.722,0,0,1-.18,1.263s.671.2.745.694-.667,1.032-.667,1.032l-2.326,1.852a4.441,4.441,0,0,1-1.793,2.354C405.729,131.446,403.12,127.3,403.12,127.3Z" transform="translate(-244.966 -73.139)" fill="#ffbe9d"/>
    <path id="Path_5660" data-name="Path 5660" d="M405.845,131c.023,0,.02.1-.051.22a.785.785,0,0,1-.392.341.812.812,0,0,1-.534.02c-.129-.043-.192-.106-.18-.129a2.019,2.019,0,0,0,.64-.086C405.649,131.239,405.79,131,405.845,131Z" transform="translate(-245.918 -79.606)" fill="#eb996e"/>
    <path id="Path_5661" data-name="Path 5661" d="M411.869,123.845c-.035.047-.259-.11-.3-.392s.129-.514.177-.479,0,.22.031.447S411.912,123.8,411.869,123.845Z" transform="translate(-250.098 -74.726)" fill="#eb996e"/>
    <path id="Path_5662" data-name="Path 5662" d="M416.39,127.73a2.436,2.436,0,0,1-.514.541,15.8,15.8,0,0,1-1.448,1.063,2.264,2.264,0,0,1-.926.428.832.832,0,0,1-.785-.29.581.581,0,0,1-.063-.573c.063-.129.141-.157.149-.149s-.043.063-.075.177a.545.545,0,0,0,.106.455.718.718,0,0,0,.655.192,2.22,2.22,0,0,0,.836-.416c.585-.392,1.106-.734,1.471-1A4.11,4.11,0,0,1,416.39,127.73Z" transform="translate(-250.731 -77.618)" fill="#eb996e"/>
    <path id="Path_5663" data-name="Path 5663" d="M418.055,131.91a15.029,15.029,0,0,1-2.217,1.126,2.263,2.263,0,0,1-.961.282.757.757,0,0,1-.722-.428.439.439,0,0,1,0-.345.428.428,0,0,1,.169-.2c.129-.067.212-.031.208-.02a.341.341,0,0,0-.161.086.334.334,0,0,0-.075.412.616.616,0,0,0,.585.3,2.267,2.267,0,0,0,.875-.282A14.48,14.48,0,0,1,418.055,131.91Z" transform="translate(-251.651 -80.159)" fill="#eb996e"/>
    <path id="Path_5664" data-name="Path 5664" d="M418.788,135.639c0,.024-.126.118-.392.18a1.8,1.8,0,0,1-.463.051,1.3,1.3,0,0,1-.577-.133.349.349,0,0,1-.169-.333.553.553,0,0,1,.126-.286,1.8,1.8,0,0,1,.333-.322c.212-.161.369-.208.392-.184s-.11.118-.282.294a2.7,2.7,0,0,0-.275.326c-.09.133-.122.263,0,.33a1.259,1.259,0,0,0,.475.114,2.21,2.21,0,0,0,.428,0C418.627,135.651,418.78,135.608,418.788,135.639Z" transform="translate(-253.514 -81.797)" fill="#eb996e"/>
    <path id="Path_5665" data-name="Path 5665" d="M409.759,135.185a1.9,1.9,0,1,0-2.409,1.762l-.02.526.518.392-.545.3-.024.663.518.392-.545.306-.02.569.314.239-.33.184v.33l.392.447.785-.467.149-3.923A1.9,1.9,0,0,0,409.759,135.185Zm-1.848-1.459a.541.541,0,1,1-.391.143.545.545,0,0,1,.391-.143Z" transform="translate(-246.693 -80.954)" fill="#263238"/>
    <path id="Path_5666" data-name="Path 5666" d="M409.759,135.185a1.9,1.9,0,1,0-2.409,1.762l-.02.526.518.392-.545.3-.024.663.518.392-.545.306-.02.569.314.239-.33.184v.33l.392.447.785-.467.149-3.923A1.9,1.9,0,0,0,409.759,135.185Zm-1.848-1.459a.541.541,0,1,1-.391.143.545.545,0,0,1,.391-.143Z" transform="translate(-246.693 -80.954)" fill="none"/>
    <path id="Path_5667" data-name="Path 5667" d="M410.035,134.488a.623.623,0,0,0-.129.02.546.546,0,0,0-.3.188.53.53,0,0,0-.09.494.522.522,0,0,0,.479.361.534.534,0,0,0,.506-.322.541.541,0,0,0-.055-.5.553.553,0,0,0-.282-.212c-.078-.024-.129-.024-.129-.027h.027a.392.392,0,0,1,.1,0,.542.542,0,0,1,.3.208.561.561,0,0,1,.067.538.546.546,0,0,1-.208.255.588.588,0,0,1-.337.1.58.58,0,0,1-.318-.126.561.561,0,0,1-.188-.271.573.573,0,0,1,.106-.53.549.549,0,0,1,.322-.188.509.509,0,0,1,.1,0Z" transform="translate(-248.817 -81.717)" fill="#263238"/>
    <path id="Path_5668" data-name="Path 5668" d="M409.649,135.293v.149a1.859,1.859,0,0,1-.447,1.032,1.962,1.962,0,0,1-.785.541h0c-.039,1.016-.086,2.354-.141,3.923h0l-.785.467h0l-.392-.447h0v-.33h0l.33-.188v.039l-.318-.235h0a5.465,5.465,0,0,1,.02-.569h0l.545-.306v.039l-.518-.392h0v-.663h0l.545-.3v.039l-.518-.392h0a4.786,4.786,0,0,1,.02-.53v.024a1.962,1.962,0,0,1-.785-.439,1.763,1.763,0,0,1-.286-.334,1.915,1.915,0,0,1,3.044-2.319,1.844,1.844,0,0,1,.365.671l.023.071v.071a.24.24,0,0,0,.024.129c.024.039,0,.145,0,.2v.126a.2.2,0,0,1,0,.043v-.169a.679.679,0,0,0-.024-.2.918.918,0,0,0-.027-.126v-.071l-.024-.071a1.873,1.873,0,1,0-3.531,1.244,1.814,1.814,0,0,0,.2.392,1.847,1.847,0,0,0,.283.326,1.91,1.91,0,0,0,.765.428h.02v.02a4.865,4.865,0,0,1-.02.53h0l.522.392.027.024h-.031l-.545.306h0v.639l.518.392.027.02h-.031l-.545.3v-.02a5.324,5.324,0,0,1-.02.569v-.02l.318.239h.027l-.031.02-.33.184v.31h0l.392.447H407.5l.785-.467v.02c.063-1.569.114-2.919.153-3.923h0a1.938,1.938,0,0,0,.761-.53,1.876,1.876,0,0,0,.353-.6,2.025,2.025,0,0,0,.1-.42v-.114a.243.243,0,0,0,0-.2Z" transform="translate(-246.583 -81.063)" fill="#263238"/>
    <path id="Path_5669" data-name="Path 5669" d="M409.247,134.941a1.9,1.9,0,1,0-2.409,1.762h0l-.02.53.518.392-.545.306-.024.659.518.392-.545.3-.023.569.318.239-.333.184v.333l.392.447.785-.471.149-3.923A1.9,1.9,0,0,0,409.247,134.941Zm-1.848-1.459a.225.225,0,1,1,0-.02Z" transform="translate(-246.378 -80.8)" fill="#ff725e"/>
    <path id="Path_5670" data-name="Path 5670" d="M409.247,134.941a1.9,1.9,0,1,0-2.409,1.762h0l-.02.53.518.392-.545.306-.024.659.518.392-.545.3-.023.569.318.239-.333.184v.333l.392.447.785-.471.149-3.923A1.9,1.9,0,0,0,409.247,134.941Zm-1.848-1.459a.225.225,0,1,1,0-.02Z" transform="translate(-246.378 -80.8)" fill="none"/>
    <path id="Path_5671" data-name="Path 5671" d="M409.52,134.212a.674.674,0,0,0-.133.02.553.553,0,0,0-.294.188.526.526,0,1,0,.891.534.518.518,0,0,0-.051-.5.545.545,0,0,0-.282-.212,1.319,1.319,0,0,0-.129-.031h.133a.546.546,0,0,1,.306.212.565.565,0,0,1,.067.534.553.553,0,0,1-.208.259.565.565,0,0,1-.341.1.553.553,0,0,1-.33-.126.533.533,0,0,1-.188-.271.553.553,0,0,1,.106-.53.545.545,0,0,1,.318-.184.333.333,0,0,1,.1,0Z" transform="translate(-248.498 -81.55)" fill="#263238"/>
    <path id="Path_5672" data-name="Path 5672" d="M409.193,134.962v.149a1.889,1.889,0,0,1-1.232,1.569h0c-.035,1.016-.082,2.354-.137,3.923h0l-.785.467h-.02l-.392-.447h0v-.33h0l.33-.184v.039l-.314-.239h0a5.519,5.519,0,0,1,.02-.569h0l.545-.3v.039l-.518-.392h0V138.5a4.073,4.073,0,0,1,.02-.486h0l.545-.3v.039c-.173-.129-.345-.263-.518-.392h0a4.73,4.73,0,0,1,.02-.53v.024a1.934,1.934,0,0,1-1.075-.785,1.764,1.764,0,0,1-.2-.392,1.925,1.925,0,0,1,2.417-2.515,1.906,1.906,0,0,1,.836.577,1.8,1.8,0,0,1,.365.667l.024.075v.071a.233.233,0,0,0,.024.126c.024.039,0,.149,0,.2v.086a.377.377,0,0,0,0-.043V134.8a.778.778,0,0,0-.02-.2c-.02-.078-.02-.082-.027-.126V134.4l-.024-.071a1.864,1.864,0,0,0-.369-.663,1.883,1.883,0,0,0-3.19,1.907,2.01,2.01,0,0,0,.2.392,1.7,1.7,0,0,0,.283.326,1.867,1.867,0,0,0,.765.428h.02a4.779,4.779,0,0,1-.02.53h0l.518.392.031.024h-.031l-.545.306v-.02a4.054,4.054,0,0,1-.02.486v.157l.518.392.031.024h-.031l-.545.306h0a4.476,4.476,0,0,1-.024.569v-.02l.318.235.027.024h-.031l-.333.184v.314h0l.392.447h-.027l.785-.467h0c.059-1.569.114-2.919.153-3.923h0a1.9,1.9,0,0,0,1.118-1.126,1.96,1.96,0,0,0,.1-.42v-.11a.141.141,0,0,1,.024-.063Z" transform="translate(-246.323 -80.821)" fill="#263238"/>
    <path id="Path_5673" data-name="Path 5673" d="M409.369,135.334a2.542,2.542,0,0,0-.047-.392,1.543,1.543,0,0,0-.169-.451,1.684,1.684,0,0,0-.392-.483,1.612,1.612,0,0,0-.683-.333,1.667,1.667,0,0,0-1.3.247c-.067.047-.129.1-.192.153a1.886,1.886,0,0,0-.169.184,1.652,1.652,0,0,0-.075,1.962,1.91,1.91,0,0,0,.157.2,1.429,1.429,0,0,0,.18.165,1.6,1.6,0,0,0,.392.243,1.675,1.675,0,0,0,.867.106,1.652,1.652,0,0,0,.706-.282,1.671,1.671,0,0,0,.443-.455,1.717,1.717,0,0,0,.2-.432,2.682,2.682,0,0,0,.078-.392v.235a.631.631,0,0,1-.039.173,1.531,1.531,0,0,1-.2.443,1.675,1.675,0,0,1-2.052.655,1.569,1.569,0,0,1-.42-.247,1.875,1.875,0,0,1-.188-.169,1.57,1.57,0,0,1-.157-.2,1.683,1.683,0,0,1,.074-2,1.572,1.572,0,0,1,.173-.188,1.855,1.855,0,0,1,.2-.157,1.668,1.668,0,0,1,.435-.216,1.746,1.746,0,0,1,.895-.035,1.675,1.675,0,0,1,1.271,1.3,1,1,0,0,1,.024.173.841.841,0,0,1,0,.129v.075Z" transform="translate(-246.727 -81.193)" fill="#263238"/>
    <path id="Path_5674" data-name="Path 5674" d="M409.974,134.619a1.347,1.347,0,0,0-.024-.157.62.62,0,0,0-.22-.349.589.589,0,0,0-.259-.122.581.581,0,0,0-.326,0,.628.628,0,0,0-.294.2.613.613,0,0,0-.129.361.614.614,0,0,0,.706.636.647.647,0,0,0,.267-.106.628.628,0,0,0,.243-.33,1.36,1.36,0,0,0,.035-.153v.039a.6.6,0,0,1-.02.118.64.64,0,0,1-.243.353.65.65,0,0,1-.926-.165.647.647,0,0,1,.027-.785.7.7,0,0,1,.318-.22.663.663,0,0,1,.349,0,.647.647,0,0,1,.487.506.447.447,0,0,1,0,.118A.27.27,0,0,1,409.974,134.619Z" transform="translate(-248.337 -81.38)" fill="#263238"/>
    <path id="Path_5675" data-name="Path 5675" d="M411,146.362s0-.894.051-2,.086-2,.1-2,0,.9-.051,2S411.024,146.362,411,146.362Z" transform="translate(-249.755 -86.509)" fill="#263238"/>
    <path id="Path_5676" data-name="Path 5676" d="M410.455,130.973a.267.267,0,0,1-.255,0V128.56l.255.02Z" transform="translate(-249.269 -78.123)" fill="#e0e0e0"/>
    <path id="Path_5677" data-name="Path 5677" d="M410.319,131a.267.267,0,0,1-.129-.035h0V128.54l.275.02v2.409h0A.27.27,0,0,1,410.319,131Zm-.114-.051a.243.243,0,0,0,.232,0v-2.377H410.2Z" transform="translate(-249.263 -78.111)" fill="#263238"/>
    <path id="Path_5678" data-name="Path 5678" d="M405.684,125.54a5.289,5.289,0,0,0,.679.5.918.918,0,0,1,.416.7.851.851,0,0,1-.5.663,1.569,1.569,0,0,1-2.126-.639" transform="translate(-245.592 -76.288)" fill="#ffbe9d"/>
    <path id="Path_5679" data-name="Path 5679" d="M404.146,126.761a3.9,3.9,0,0,0,.534.479,1.55,1.55,0,0,0,1.569.043.667.667,0,0,0,.392-.683,1.11,1.11,0,0,0-.435-.569c-.373-.251-.581-.471-.549-.494a4.935,4.935,0,0,1,.632.373,1.177,1.177,0,0,1,.541.647.726.726,0,0,1-.082.53,1.149,1.149,0,0,1-.392.392,1.648,1.648,0,0,1-1,.2,1.6,1.6,0,0,1-.785-.306A1.1,1.1,0,0,1,404.146,126.761Z" transform="translate(-245.588 -76.284)" fill="#eb996e"/>
    <path id="Path_5680" data-name="Path 5680" d="M412.083,122.964a9.3,9.3,0,0,0-1.177,1.726,1.46,1.46,0,0,0-.177.62.616.616,0,0,0,.286.545.628.628,0,0,0,.537,0,1.6,1.6,0,0,0,.447-.318,10.793,10.793,0,0,0,1.459-1.62,1.588,1.588,0,0,0,.259-.463.632.632,0,0,0-.031-.514" transform="translate(-249.59 -74.708)" fill="#ffbe9d"/>
    <path id="Path_5681" data-name="Path 5681" d="M413.544,122.92a.418.418,0,0,1,.11.294,1.267,1.267,0,0,1-.322.785,9.3,9.3,0,0,1-.785.965c-.157.173-.33.345-.514.522a1.961,1.961,0,0,1-.667.475.738.738,0,0,1-.451,0,.6.6,0,0,1-.345-.294.961.961,0,0,1,0-.785,4.9,4.9,0,0,1,.628-1.083,4.824,4.824,0,0,1,.745-.863,9.126,9.126,0,0,1-.624.946,5.362,5.362,0,0,0-.565,1.063.785.785,0,0,0,0,.624.435.435,0,0,0,.553.18,1.825,1.825,0,0,0,.588-.424c.184-.173.357-.341.514-.506a12.07,12.07,0,0,0,.785-.922,1.306,1.306,0,0,0,.361-.7,1.5,1.5,0,0,0-.012-.279Z" transform="translate(-249.443 -74.696)" fill="#eb996e"/>
    <path id="Path_5682" data-name="Path 5682" d="M170.269,444.11c0,.059-38.122.1-85.134.1S0,444.169,0,444.11,38.114,444,85.134,444,170.269,444.055,170.269,444.11Z" transform="translate(0 -269.808)" fill="#263238"/>
    <path id="Path_5683" data-name="Path 5683" d="M39.215,272.406c3.731-5.712,3.59-14.061-.871-19.224-1.385-1.6-3.319-3-5.43-2.817a5.732,5.732,0,0,0-4.559,4.1,13.446,13.446,0,0,0-.043,6.442c.541,2.986,1.448,6.046,3.531,8.262s4.708,4.688,7.384,3.233" transform="translate(-16.978 -152.131)" fill="#4f9e55"/>
    <path id="Path_5684" data-name="Path 5684" d="M40.954,359.541a8.537,8.537,0,0,0-2.381-9.694,3.569,3.569,0,0,0-3.052-.957,2.932,2.932,0,0,0-1.962,2.527,7.062,7.062,0,0,0,.553,3.323,8.287,8.287,0,0,0,2.562,3.923c1.267.942,3.044,1.852,4.288.863" transform="translate(-20.38 -211.964)" fill="#4f9e55"/>
    <path id="Path_5685" data-name="Path 5685" d="M75.05,349.694a12.346,12.346,0,0,1,6.222-13.033,5.192,5.192,0,0,1,4.61-.459,4.325,4.325,0,0,1,2.056,4.163,10.217,10.217,0,0,1-1.773,4.543,12.066,12.066,0,0,1-4.79,4.826c-2.079.981-4.857,1.73-6.324-.039" transform="translate(-45.473 -204.079)" fill="#4f9e55"/>
    <path id="Path_5686" data-name="Path 5686" d="M72.938,309.279c-1.789-5.767,1.244-12.762,6.277-16.085,1.569-1.028,3.554-1.742,5.308-1.075a5.062,5.062,0,0,1,2.88,4.6,11.927,11.927,0,0,1-1.53,5.493,14.147,14.147,0,0,1-5.006,6.175c-2.3,1.385-6.034,2.766-7.945.879" transform="translate(-44.008 -177.356)" fill="#fe8f0a"/>
    <path id="Path_5687" data-name="Path 5687" d="M64.579,370.92a1.334,1.334,0,0,0,.055-.282c.031-.208.075-.475.122-.8.024-.177.051-.369.082-.581s.082-.443.129-.687c.094-.49.192-1.055.353-1.663.075-.306.153-.628.231-.961s.2-.675.3-1.032c.192-.714.479-1.456.745-2.244a39.084,39.084,0,0,1,5.1-9.526c.51-.659.969-1.3,1.459-1.86l.7-.816.687-.73c.42-.471.832-.863,1.177-1.212.177-.177.341-.341.5-.49l.439-.392.6-.545a1.144,1.144,0,0,0,.2-.2,1.177,1.177,0,0,0-.231.165l-.636.51-.455.392-.514.475c-.369.341-.785.73-1.224,1.177l-.69.722-.7.816c-.5.553-.969,1.2-1.491,1.856a41.875,41.875,0,0,0-2.919,4.606,41.242,41.242,0,0,0-2.217,4.979c-.263.785-.541,1.546-.726,2.268-.1.357-.2.706-.29,1.04s-.149.659-.22.969c-.149.616-.235,1.177-.318,1.679-.039.247-.078.479-.114.694s-.039.392-.059.585c-.031.333-.055.6-.075.812A.941.941,0,0,0,64.579,370.92Z" transform="translate(-39.238 -210.797)" fill="#263238"/>
    <path id="Path_5688" data-name="Path 5688" d="M64.03,347.046a.42.42,0,0,0,0-.114,1.87,1.87,0,0,0-.024-.337c-.027-.31-.071-.741-.118-1.279-.027-.282-.059-.588-.094-.926s-.031-.71-.055-1.106c-.027-.785-.1-1.691-.075-2.691v-1.569c0-.545.055-1.11.082-1.7.039-1.177.2-2.417.341-3.727a53.332,53.332,0,0,1,4.861-16.391c.6-1.177,1.138-2.307,1.746-3.311.3-.506.561-1.008.855-1.467l.847-1.318c.522-.851,1.075-1.569,1.53-2.217.235-.318.443-.624.651-.894l.581-.726.785-1.008.2-.267c.043-.063.067-.094.063-.1s-.031.024-.082.082l-.22.251-.836.981-.6.714c-.212.267-.428.569-.667.887-.467.64-1.032,1.35-1.569,2.2-.275.416-.565.855-.863,1.314s-.569.957-.871,1.463c-.616,1-1.177,2.138-1.773,3.315a52.179,52.179,0,0,0-4.881,16.458c-.137,1.318-.29,2.57-.318,3.751-.024.589-.071,1.153-.075,1.7s0,1.071,0,1.569c0,1,.071,1.907.114,2.7.027.392.043.785.075,1.106s.078.647.114.926c.067.541.122.965.161,1.279a1.951,1.951,0,0,0,.051.33A.467.467,0,0,0,64.03,347.046Z" transform="translate(-38.56 -185.887)" fill="#263238"/>
    <path id="Path_5689" data-name="Path 5689" d="M40.14,268a.784.784,0,0,0,.051.106l.161.3c.153.279.369.659.636,1.138.137.247.3.518.463.824l.5,1,.577,1.153c.192.412.392.859.585,1.322s.424.946.632,1.459.392,1.051.62,1.609c.106.275.216.557.326.847l.3.887.624,1.856c.785,2.558,1.542,5.41,2.173,8.435s1.044,5.948,1.361,8.608.475,5.073.53,7.1c.051,1.012.063,1.93.063,2.746v3.711a.455.455,0,0,0,0,.118.55.55,0,0,0,0-.118,1.869,1.869,0,0,1,.024-.337c0-.318.035-.753.063-1.306s.043-1.259.043-2.068,0-1.726-.027-2.746c-.035-2.028-.216-4.441-.479-7.117a86.675,86.675,0,0,0-1.346-8.631,84.833,84.833,0,0,0-2.2-8.455l-.636-1.879c-.1-.3-.2-.6-.306-.891l-.333-.847-.636-1.609c-.212-.51-.439-.993-.647-1.456s-.392-.906-.6-1.318-.392-.785-.592-1.149-.361-.691-.518-1-.337-.569-.483-.816l-.679-1.118-.18-.286A.581.581,0,0,0,40.14,268Z" transform="translate(-24.392 -162.857)" fill="#263238"/>
    <path id="Path_5690" data-name="Path 5690" d="M43.38,357.3a5.2,5.2,0,0,0,.392.694c.275.439.647,1.083,1.087,1.891s.926,1.789,1.416,2.9a35.107,35.107,0,0,1,1.373,3.7,37.993,37.993,0,0,1,.957,3.837,28.046,28.046,0,0,1,.467,3.194c.075.918.149,1.659.169,2.173a4.762,4.762,0,0,0,.067.785,5.688,5.688,0,0,0,.027-.8,21.289,21.289,0,0,0-.09-2.185c-.09-.922-.208-2.017-.42-3.221a36.487,36.487,0,0,0-.946-3.864,34.847,34.847,0,0,0-1.4-3.723,32.3,32.3,0,0,0-1.467-2.9c-.463-.785-.859-1.432-1.177-1.856a5.218,5.218,0,0,0-.455-.628Z" transform="translate(-26.361 -217.123)" fill="#263238"/>
    <path id="Path_5691" data-name="Path 5691" d="M57.873,401.58H41.47l1.985,16.756H55.829Z" transform="translate(-25.2 -244.03)" fill="#455a64"/>
    <path id="Path_5692" data-name="Path 5692" d="M58.13,439.68l-1.393,1.809H44.312l-1.432-1.754Z" transform="translate(-26.057 -267.183)" fill="#263238"/>
    <path id="Path_5693" data-name="Path 5693" d="M43.1,413.952c0,.067,3.405.122,7.6.122s7.6-.055,7.6-.122-3.4-.122-7.6-.122S43.1,413.9,43.1,413.952Z" transform="translate(-26.191 -251.474)" fill="#fafafa"/>
    <path id="Path_5694" data-name="Path 5694" d="M43.1,416.806c0,.067,3.405.122,7.6.122s7.6-.055,7.6-.122-3.4-.126-7.6-.126S43.1,416.731,43.1,416.806Z" transform="translate(-26.191 -253.206)" fill="#fafafa"/>
    <path id="Path_5695" data-name="Path 5695" d="M43.62,419.552c0,.067,3.284.122,7.336.122s7.336-.055,7.336-.122-3.284-.122-7.336-.122S43.62,419.485,43.62,419.552Z" transform="translate(-26.507 -254.877)" fill="#fafafa"/>
    <path id="Path_5696" data-name="Path 5696" d="M76.883,309.56a.683.683,0,0,0,0,.157,2.23,2.23,0,0,0,.035.455c.043.42.1.985.169,1.671.149,1.408.369,3.35.62,5.493a.725.725,0,0,0,.027.243v.071h.075c2.107.035,4,.055,5.371.059h2.228a.5.5,0,0,0-.153-.02l-.439-.024L83.2,317.6c-1.369-.035-3.264-.074-5.371-.11l.078.075a.748.748,0,0,0-.027-.243c-.251-2.146-.486-4.088-.667-5.493L77,310.164c-.027-.18-.051-.33-.071-.451S76.891,309.556,76.883,309.56Z" transform="translate(-46.717 -188.112)" fill="#263238"/>
    <path id="Path_5697" data-name="Path 5697" d="M86.389,296.79a.47.47,0,0,0,0,.161v2.2c.024,1.459.063,3.476.118,5.7v.353h.086a51.622,51.622,0,0,1,5.524-.133c.7.024,1.271.051,1.663.071l.451.024a.611.611,0,0,0,.157,0,.682.682,0,0,0-.153-.031l-.451-.051c-.392-.039-.957-.086-1.663-.122a43.366,43.366,0,0,0-5.532.075l.09.078v-.263c-.055-2.224-.114-4.241-.165-5.7-.027-.71-.051-1.295-.067-1.726a2.371,2.371,0,0,0-.027-.471.75.75,0,0,0-.031-.165Z" transform="translate(-52.492 -180.352)" fill="#263238"/>
    <path id="Path_5698" data-name="Path 5698" d="M95.338,292.44a3.139,3.139,0,0,0-.1.479c-.063.341-.141.785-.243,1.318-.212,1.114-.541,2.648-1.012,4.316l-.051.177.169-.078.2-.094a14.034,14.034,0,0,1,4.37-1.267c.585-.071,1.059-.1,1.385-.11a3.951,3.951,0,0,0,.514-.027.675.675,0,0,1-.133-.02,2.537,2.537,0,0,0-.392,0,11.458,11.458,0,0,0-1.4.059,13.218,13.218,0,0,0-4.429,1.248l-.2.094.118.1a42.769,42.769,0,0,0,.965-4.355c.094-.557.157-1.012.192-1.326a2.416,2.416,0,0,0,.051-.51Z" transform="translate(-57.079 -177.709)" fill="#263238"/>
    <path id="Path_5699" data-name="Path 5699" d="M38.49,364.932c0,.027.475-.023,1.24-.051a20.943,20.943,0,0,1,2.982.094l.687.086h.078v-.078c.18-.993.33-1.867.428-2.5a7.3,7.3,0,0,0,.129-1.008,6.516,6.516,0,0,0-.235.989c-.129.624-.3,1.495-.483,2.483l.094-.063c-.224-.035-.455-.063-.694-.09a16.775,16.775,0,0,0-3.005-.047c-.392.027-.694.067-.906.1a1.251,1.251,0,0,0-.314.082Z" transform="translate(-23.389 -219.663)" fill="#263238"/>
    <path id="Path_5700" data-name="Path 5700" d="M34.54,356.491c0,.024.459-.082,1.2-.173a13.222,13.222,0,0,1,2.911-.031l.514.067h.086v-.086c.1-1.02.184-1.922.239-2.574a6.669,6.669,0,0,0,.051-1.044,7.561,7.561,0,0,0-.161,1.032c-.082.647-.184,1.55-.294,2.57l.094-.075-.522-.067a11.3,11.3,0,0,0-2.942.078,8.367,8.367,0,0,0-.875.184,1.048,1.048,0,0,0-.3.118Z" transform="translate(-20.989 -214.297)" fill="#263238"/>
    <path id="Path_5701" data-name="Path 5701" d="M31.7,281.355a.706.706,0,0,0,.165.086l.479.212,1.773.757L40,284.843l.318.129.075.031.031-.075c.969-2.189,1.84-4.159,2.483-5.606l.73-1.695.192-.463a1.024,1.024,0,0,0,.055-.165.592.592,0,0,0-.086.153l-.212.447-.785,1.675c-.651,1.444-1.542,3.405-2.53,5.587l.11-.043-.326-.129L34.172,282.3l-1.793-.706-.49-.184A1.027,1.027,0,0,0,31.7,281.355Z" transform="translate(-19.263 -168.326)" fill="#263238"/>
    <path id="Path_5702" data-name="Path 5702" d="M28,263.467a1.154,1.154,0,0,0,.145.106c.1.063.255.169.432.279l1.6,1,5.343,3.256.082.051.035-.094c.031-.082.067-.169.1-.259l2.24-6.038c.271-.761.494-1.385.659-1.84l.173-.5a.679.679,0,0,0,.047-.177.844.844,0,0,0-.078.165q-.082.2-.2.494c-.177.451-.42,1.067-.71,1.816-.592,1.569-1.4,3.684-2.287,6.026-.031.086-.067.177-.094.259l.118-.043-5.367-3.217-1.628-.953-.447-.251A.836.836,0,0,0,28,263.467Z" transform="translate(-17.015 -157.54)" fill="#263238"/>
    <path id="Path_5703" data-name="Path 5703" d="M29.24,254.206a2.933,2.933,0,0,0,.353.208c.231.126.565.314.969.565a17.154,17.154,0,0,1,2.97,2.327l.208.2-.071-.279c-.071-.294-.137-.6-.188-.922a10.7,10.7,0,0,1,.231-4.371,12.949,12.949,0,0,1,.42-1.271,2.969,2.969,0,0,0,.177-.463,3.03,3.03,0,0,0-.235.435,9.89,9.89,0,0,0-.757,5.7c.051.322.122.636.2.934l.137-.078a15.788,15.788,0,0,0-3.033-2.3c-.416-.239-.757-.412-1-.526A1.725,1.725,0,0,0,29.24,254.206Z" transform="translate(-17.768 -152.04)" fill="#263238"/>
    <path id="Path_5704" data-name="Path 5704" d="M77,354.15a2.043,2.043,0,0,0,.075.424c.055.271.137.663.228,1.153a28.555,28.555,0,0,1,.443,3.884v.075h.039l.369.024c1.628.1,3.1.177,4.166.228l1.263.047a2.476,2.476,0,0,0,.479-.008,2.388,2.388,0,0,0-.459-.059l-1.259-.1c-1.067-.078-2.538-.177-4.163-.275l-.369-.024.078.078a24.5,24.5,0,0,0-.5-3.892c-.106-.486-.2-.879-.282-1.146A2.271,2.271,0,0,0,77,354.15Z" transform="translate(-46.791 -215.208)" fill="#263238"/>
    <path id="Path_5705" data-name="Path 5705" d="M85.158,342.37a2.181,2.181,0,0,0,.027.428c.035.3.078.694.133,1.177.118.989.294,2.354.5,3.892v.071h.071l.526.031c1.667.114,3.17.286,4.257.428l1.287.173a2.323,2.323,0,0,0,.471.047,2.751,2.751,0,0,0-.463-.11c-.3-.059-.738-.141-1.279-.224-1.083-.173-2.589-.365-4.261-.479l-.53-.031.078.071c-.212-1.538-.392-2.9-.557-3.888-.071-.467-.133-.855-.18-1.157A2.134,2.134,0,0,0,85.158,342.37Z" transform="translate(-51.748 -208.05)" fill="#263238"/>
    <path id="Path_5706" data-name="Path 5706" d="M94.825,337.3c-.024,0,.078.451.192,1.177a20.675,20.675,0,0,1,.267,2.9v.118h.094l.275-.035a25.545,25.545,0,0,1,3.1-.184h.946a1.253,1.253,0,0,0,.345,0,1.334,1.334,0,0,0-.341-.055c-.224-.023-.545-.047-.945-.063a19.4,19.4,0,0,0-3.139.137l-.279.035.094.078a17.032,17.032,0,0,0-.318-2.919c-.075-.365-.145-.659-.2-.855A1.043,1.043,0,0,0,94.825,337.3Z" transform="translate(-57.621 -204.969)" fill="#263238"/>
    <path id="Path_5707" data-name="Path 5707" d="M39.75,349.07a14.61,14.61,0,0,0,.734,1.667,14.16,14.16,0,0,0,.785,1.636,7.56,7.56,0,0,0-.636-1.707,7.8,7.8,0,0,0-.883-1.6Z" transform="translate(-24.155 -212.121)" fill="#263238"/>
    <path id="Path_5708" data-name="Path 5708" d="M34.5,354.6a17.112,17.112,0,0,1,1.864.392,17.315,17.315,0,0,1,1.75.745,4.238,4.238,0,0,0-1.7-.9A4.238,4.238,0,0,0,34.5,354.6Z" transform="translate(-20.965 -215.469)" fill="#263238"/>
  </g>
</svg>
