<svg xmlns="http://www.w3.org/2000/svg" width="183.413" height="27.055" viewBox="0 0 183.413 27.055"><defs><style>.a{fill:#4f9e55;}.b{fill:#fe8f0a;}</style></defs><g transform="translate(-18.76 -15.479)"><path class="a" d="M79.1,26.542c-.318.1-.636.2-.967.276a20.232,20.232,0,0,1-2.469.272,3.15,3.15,0,0,1-1.46-.276A6.323,6.323,0,0,1,71.567,24.9a4.8,4.8,0,0,1-1.087-3.063,11.394,11.394,0,0,1,.175-1.455,3.947,3.947,0,0,1,1.184-2.008,11.053,11.053,0,0,1,6.374-2.823,4.421,4.421,0,0,1,2.344.216c.078,0,.17.083.29.1A14.278,14.278,0,0,1,82.694,17.1,3.164,3.164,0,0,1,83.7,18.482a4.813,4.813,0,0,1,.387,1.165,3.261,3.261,0,0,1-.175,2.344c-.345.622-.723,1.3-1.147,1.911A6.416,6.416,0,0,1,81.386,25.2,7.88,7.88,0,0,1,79.1,26.542Zm2.183-3.809c1.326-1.722.092-6.222-2.929-5.6A14.277,14.277,0,0,0,74.206,18.9,9.806,9.806,0,0,0,73.1,20.025c-.58.7,1.115,4.946,2.34,5.011a5.849,5.849,0,0,0,.852,0c.332-.078.746-.143,1.128-.253A11.661,11.661,0,0,0,80.58,23.3a4.946,4.946,0,0,0,.7-.562Z" transform="translate(-27.9 0)"/><path class="a" d="M65.532,41.037c.092.244.18.488.253.746a15.224,15.224,0,0,1,.309,1.925,2.418,2.418,0,0,1-.161,1.151A4.91,4.91,0,0,1,64.551,47a3.767,3.767,0,0,1-2.358.967,9.791,9.791,0,0,1-1.147-.078,3.109,3.109,0,0,1-1.63-.852,8.658,8.658,0,0,1-2.459-4.882,3.523,3.523,0,0,1,.074-1.842c0-.064.06-.138.069-.23A10.722,10.722,0,0,1,58.02,38.6a2.51,2.51,0,0,1,1.036-.847,3.878,3.878,0,0,1,.921-.35,2.607,2.607,0,0,1,1.842.046,17.343,17.343,0,0,1,1.543.829A4.914,4.914,0,0,1,64.426,39.3,6.116,6.116,0,0,1,65.532,41.037Zm-3.077-1.561c-1.382-.972-4.877.17-4.269,2.51a11.224,11.224,0,0,0,1.538,3.169,8.327,8.327,0,0,0,.921.824c.566.424,3.832-1.064,3.836-2.031a5.335,5.335,0,0,0-.037-.663c-.074-.263-.143-.58-.244-.875a9.156,9.156,0,0,0-1.285-2.423A3.551,3.551,0,0,0,62.455,39.476Z" transform="translate(-20.557 -11.746)"/><path class="a" d="M93.011,55.033c-.382.147-.765.295-1.179.415a24.082,24.082,0,0,1-3.113.493,4.3,4.3,0,0,1-1.967-.295,10.293,10.293,0,0,1-3.952-2.4,7.829,7.829,0,0,1-2.271-4.007,16.756,16.756,0,0,1-.18-1.939,4.375,4.375,0,0,1,.963-2.722,11.678,11.678,0,0,1,7.456-4.081,5.812,5.812,0,0,1,3.086.166c.106,0,.244.1.405.115a23.092,23.092,0,0,1,2.727,1.552,5.292,5.292,0,0,1,1.69,1.764,7.5,7.5,0,0,1,.834,1.529,4.5,4.5,0,0,1,.433,3.118,24.812,24.812,0,0,1-.921,2.6,6.448,6.448,0,0,1-1.409,1.787A8.06,8.06,0,0,1,93.011,55.033Zm2.4-5.987c1.23-2.358-4.477-7.484-8.212-6.5a9.432,9.432,0,0,0-3.79,1.9A10.189,10.189,0,0,0,82.3,46c-.557.949,2.694,7.687,4.3,7.705a14.727,14.727,0,0,0,1.736.327,11.466,11.466,0,0,0,1.382-.391,6.208,6.208,0,0,0,2.639-1.515c.226-.239,2.892-2.832,3.053-3.1Z" transform="translate(-33.224 -13.421)"/><path class="b" d="M34.354,23.641v.2a2.192,2.192,0,0,1-2.2,2.2H26.741a2.2,2.2,0,0,0-2.2,2.2v.847a2.192,2.192,0,0,0,2.2,2.2h3.182a2.2,2.2,0,0,1,2.2,2.2h0a2.2,2.2,0,0,1-2.2,2.2H26.741a2.192,2.192,0,0,0-2.2,2.2v5.278a2.2,2.2,0,0,1-2.2,2.2H20.961a2.2,2.2,0,0,1-2.2-2.2V23.641a2.2,2.2,0,0,1,2.2-2.2h11.2a2.2,2.2,0,0,1,2.2,2.2Z" transform="translate(0 -3.215)"/><path class="b" d="M152.545,39.59a10.538,10.538,0,0,1-4.329,4.246,13.817,13.817,0,0,1-6.65,1.524h-6.282A2.763,2.763,0,0,1,132.52,42.6V24.175a2.763,2.763,0,0,1,2.763-2.74h6.3a14.01,14.01,0,0,1,6.664,1.492,10.358,10.358,0,0,1,4.3,4.2,12.587,12.587,0,0,1,1.506,6.227A12.679,12.679,0,0,1,152.545,39.59Zm-6.227-1.2a6.63,6.63,0,0,0,1.879-5.039,6.723,6.723,0,0,0-1.879-5.066,7.311,7.311,0,0,0-5.264-1.8h0a2.763,2.763,0,0,0-2.763,2.74v8.216a2.763,2.763,0,0,0,2.763,2.74h0a7.331,7.331,0,0,0,5.278-1.8Z" transform="translate(-61.367 -3.21)"/><path class="b" d="M201.823,41.7a6.807,6.807,0,0,1-2.842,2.538,10.036,10.036,0,0,1-4.55.949,10.7,10.7,0,0,1-6.637-1.967,6.908,6.908,0,0,1-1.474-1.5,2.542,2.542,0,0,1,2.119-3.984h.682a2.667,2.667,0,0,1,2.381,1.359,2.763,2.763,0,0,0,.585.774,2.957,2.957,0,0,0,2.114.778,2.455,2.455,0,0,0,1.759-.608,2.137,2.137,0,0,0,.645-1.626,2.1,2.1,0,0,0-.613-1.524,4.643,4.643,0,0,0-1.469-.995c-.59-.263-1.382-.571-2.441-.921a29.546,29.546,0,0,1-3.684-1.511,6.812,6.812,0,0,1-2.473-2.165,6.282,6.282,0,0,1-1.032-3.74,6.337,6.337,0,0,1,1.082-3.684,6.908,6.908,0,0,1,3-2.386,10.925,10.925,0,0,1,4.38-.829,9.822,9.822,0,0,1,6.346,1.9,6.969,6.969,0,0,1,1.105,1.105,2.551,2.551,0,0,1-2.049,4.09h-.875a2.662,2.662,0,0,1-2.257-1.382,2.6,2.6,0,0,0-.405-.516,2.524,2.524,0,0,0-1.879-.7,2.4,2.4,0,0,0-1.64.543,1.976,1.976,0,0,0-.626,1.589,2.013,2.013,0,0,0,.557,1.437,4.283,4.283,0,0,0,1.4.967q.847.373,2.436.944a26.644,26.644,0,0,1,3.744,1.566,7.189,7.189,0,0,1,2.505,2.215,6.365,6.365,0,0,1,1.045,3.79A6.581,6.581,0,0,1,201.823,41.7Z" transform="translate(-89.616 -2.793)"/><path class="b" d="M251.4,24.332V42.474a2.892,2.892,0,0,1-2.892,2.892h-.037a2.892,2.892,0,0,1-2.888-2.892v-4.2a2.892,2.892,0,0,0-2.892-2.888h-3.284a2.892,2.892,0,0,0-2.9,2.888v4.2a2.892,2.892,0,0,1-2.9,2.888h0a2.892,2.892,0,0,1-2.892-2.892V24.332a2.892,2.892,0,0,1,2.892-2.892h0a2.892,2.892,0,0,1,2.892,2.892v3.491a2.892,2.892,0,0,0,2.892,2.888h3.284a2.892,2.892,0,0,0,2.906-2.888V24.332a2.892,2.892,0,0,1,2.892-2.892h.037A2.892,2.892,0,0,1,251.4,24.332Z" transform="translate(-114.34 -3.215)"/><path class="b" d="M296.655,41.221h-5.9a2.151,2.151,0,0,0-2.031,1.451l-.5,1.465a2.142,2.142,0,0,1-2.026,1.451h-1.483A2.142,2.142,0,0,1,282.7,42.7l7.185-19.472A2.142,2.142,0,0,1,291.9,21.85h3.684a2.146,2.146,0,0,1,2.013,1.382L304.784,42.7a2.142,2.142,0,0,1-2.013,2.883h-1.58a2.142,2.142,0,0,1-2.026-1.451l-.5-1.465A2.151,2.151,0,0,0,296.655,41.221Zm-.921-7.231h0a2.146,2.146,0,0,0-4.062,0h0a2.146,2.146,0,0,0,2.031,2.837h0a2.146,2.146,0,0,0,2.04-2.837Z" transform="translate(-142.311 -3.437)"/><path class="b" d="M349.984,44.941l-4.7-8.2a.834.834,0,0,0-.723-.419h0a.843.843,0,0,0-.838.838v7.369a.834.834,0,0,1-.834.834h-4.117a.834.834,0,0,1-.834-.834V22.272a.834.834,0,0,1,.834-.838h9.045a10.676,10.676,0,0,1,4.808.981,6.784,6.784,0,0,1,2.943,2.69,7.728,7.728,0,0,1,.981,3.91,6.655,6.655,0,0,1-4.606,6.632.843.843,0,0,0-.461,1.225l4.361,7.222a.834.834,0,0,1-.714,1.267H350.7a.834.834,0,0,1-.718-.419ZM343.725,31.53a.843.843,0,0,0,.838.838h2.763a3.611,3.611,0,0,0,2.538-.765,2.929,2.929,0,0,0,.815-2.248,2.994,2.994,0,0,0-.829-2.234,3.457,3.457,0,0,0-2.524-.815h-2.763a.843.843,0,0,0-.838.838Z" transform="translate(-172.179 -3.21)"/><path class="b" d="M390.455,26.879v3.339a.838.838,0,0,0,.838.834h6.425a.838.838,0,0,1,.838.834v2.708a.838.838,0,0,1-.838.824h-6.425a.838.838,0,0,0-.838.834v3.643a.838.838,0,0,0,.838.834h7.433a.838.838,0,0,1,.834.838v2.966a.834.834,0,0,1-.834.834H385.5a.834.834,0,0,1-.834-.834V22.274a.834.834,0,0,1,.834-.834h13.223a.834.834,0,0,1,.834.834v2.934a.834.834,0,0,1-.834.834h-7.433A.843.843,0,0,0,390.455,26.879Z" transform="translate(-197.387 -3.215)"/></g></svg>