<svg xmlns="http://www.w3.org/2000/svg" width="156.596" height="23.099" viewBox="0 0 156.596 23.099"><defs><style>.a{fill:#fe8f0a;}.b{fill:#4f9e55;}</style></defs><g transform="translate(-18.76 -15.479)"><path class="a" d="M77.837,24.925c-.271.083-.543.169-.826.236a17.275,17.275,0,0,1-2.108.232,2.69,2.69,0,0,1-1.247-.236,5.4,5.4,0,0,1-2.249-1.636,4.1,4.1,0,0,1-.928-2.615,9.729,9.729,0,0,1,.149-1.243,3.37,3.37,0,0,1,1.011-1.714,9.437,9.437,0,0,1,5.442-2.41,3.775,3.775,0,0,1,2,.185c.067,0,.146.071.248.083a12.19,12.19,0,0,1,1.577,1.058,2.7,2.7,0,0,1,.861,1.18,4.109,4.109,0,0,1,.33.995,2.784,2.784,0,0,1-.149,2c-.295.531-.617,1.109-.979,1.632a5.478,5.478,0,0,1-1.18,1.1,6.728,6.728,0,0,1-1.954,1.148ZM79.7,21.673c1.132-1.471.079-5.312-2.5-4.778A12.19,12.19,0,0,0,73.661,18.4a8.371,8.371,0,0,0-.944.959c-.5.594.952,4.223,2,4.278a4.994,4.994,0,0,0,.727,0c.283-.067.637-.122.963-.216a9.956,9.956,0,0,0,2.7-1.27,4.224,4.224,0,0,0,.6-.48Z" transform="translate(-31.383 0)"/><path class="a" d="M64.265,40.484c.079.208.153.417.216.637a13,13,0,0,1,.263,1.644,2.064,2.064,0,0,1-.138.983,4.192,4.192,0,0,1-1.18,1.828,3.217,3.217,0,0,1-2.013.826,8.36,8.36,0,0,1-.979-.067,2.654,2.654,0,0,1-1.392-.727,7.392,7.392,0,0,1-2.1-4.168,3.008,3.008,0,0,1,.063-1.573c0-.055.051-.118.059-.2a9.153,9.153,0,0,1,.786-1.27,2.143,2.143,0,0,1,.885-.724,3.311,3.311,0,0,1,.786-.3,2.226,2.226,0,0,1,1.573.039,14.808,14.808,0,0,1,1.317.708,4.2,4.2,0,0,1,.908.873,5.222,5.222,0,0,1,.944,1.486Zm-2.627-1.333c-1.18-.83-4.164.145-3.645,2.143A9.582,9.582,0,0,0,59.307,44a7.109,7.109,0,0,0,.786.7c.484.362,3.272-.908,3.276-1.734a4.553,4.553,0,0,0-.031-.566c-.063-.224-.122-.5-.208-.747a7.817,7.817,0,0,0-1.1-2.068A3.031,3.031,0,0,0,61.638,39.151Z" transform="translate(-23.123 -13.212)"/><path class="a" d="M91.16,52.887c-.326.126-.653.252-1.007.354a20.562,20.562,0,0,1-2.658.421,3.669,3.669,0,0,1-1.679-.252,8.788,8.788,0,0,1-3.374-2.053A6.685,6.685,0,0,1,80.5,47.936a14.307,14.307,0,0,1-.153-1.655,3.736,3.736,0,0,1,.822-2.324,9.971,9.971,0,0,1,6.366-3.484,4.962,4.962,0,0,1,2.635.142c.09,0,.208.087.346.1a19.715,19.715,0,0,1,2.328,1.325,4.518,4.518,0,0,1,1.443,1.506A6.4,6.4,0,0,1,95,44.85a3.842,3.842,0,0,1,.37,2.662,21.183,21.183,0,0,1-.786,2.218,5.5,5.5,0,0,1-1.2,1.526A6.881,6.881,0,0,1,91.16,52.887Zm2.053-5.112c1.05-2.013-3.822-6.39-7.011-5.548a8.053,8.053,0,0,0-3.236,1.624,8.7,8.7,0,0,0-.948,1.325c-.476.81,2.3,6.563,3.673,6.579a12.575,12.575,0,0,0,1.482.279,9.791,9.791,0,0,0,1.18-.334,5.3,5.3,0,0,0,2.253-1.294c.193-.2,2.469-2.418,2.607-2.65Z" transform="translate(-37.372 -15.096)"/><path class="b" d="M32.074,23.32v.173A1.872,1.872,0,0,1,30.2,25.368H25.575a1.876,1.876,0,0,0-1.876,1.88v.724a1.872,1.872,0,0,0,1.876,1.876h2.717a1.88,1.88,0,0,1,1.88,1.88h0a1.88,1.88,0,0,1-1.88,1.88H25.575A1.872,1.872,0,0,0,23.7,35.482v4.506a1.88,1.88,0,0,1-1.88,1.88H20.64a1.88,1.88,0,0,1-1.88-1.88V23.32a1.88,1.88,0,0,1,1.88-1.88H30.2a1.876,1.876,0,0,1,1.876,1.88Z" transform="translate(0 -3.617)"/><path class="b" d="M149.617,36.935a9,9,0,0,1-3.7,3.625,11.8,11.8,0,0,1-5.678,1.3h-5.364A2.359,2.359,0,0,1,132.52,39.5V23.773a2.359,2.359,0,0,1,2.359-2.34h5.375a11.962,11.962,0,0,1,5.69,1.274,8.843,8.843,0,0,1,3.673,3.582,10.747,10.747,0,0,1,1.286,5.316A10.825,10.825,0,0,1,149.617,36.935ZM144.3,35.908a5.661,5.661,0,0,0,1.6-4.3,5.74,5.74,0,0,0-1.6-4.325,6.242,6.242,0,0,0-4.495-1.534h0a2.359,2.359,0,0,0-2.359,2.34V35.1a2.359,2.359,0,0,0,2.359,2.34h0a6.259,6.259,0,0,0,4.506-1.534Z" transform="translate(-69.027 -3.611)"/><path class="b" d="M199.347,38.62a5.812,5.812,0,0,1-2.426,2.167,8.568,8.568,0,0,1-3.885.81,9.137,9.137,0,0,1-5.666-1.679,5.9,5.9,0,0,1-1.258-1.278,2.171,2.171,0,0,1,1.809-3.4h.582a2.277,2.277,0,0,1,2.033,1.16,2.359,2.359,0,0,0,.5.661,2.525,2.525,0,0,0,1.8.665,2.1,2.1,0,0,0,1.5-.519,1.825,1.825,0,0,0,.551-1.388,1.793,1.793,0,0,0-.523-1.3,3.963,3.963,0,0,0-1.254-.849c-.5-.224-1.18-.488-2.084-.786a25.225,25.225,0,0,1-3.146-1.29,5.816,5.816,0,0,1-2.112-1.848,5.364,5.364,0,0,1-.881-3.193,5.411,5.411,0,0,1,.924-3.146,5.9,5.9,0,0,1,2.56-2.037,9.327,9.327,0,0,1,3.74-.708,8.386,8.386,0,0,1,5.419,1.62,5.949,5.949,0,0,1,.944.944,2.178,2.178,0,0,1-1.75,3.492h-.747a2.273,2.273,0,0,1-1.927-1.18,2.221,2.221,0,0,0-.346-.44,2.155,2.155,0,0,0-1.6-.594,2.053,2.053,0,0,0-1.4.464,1.687,1.687,0,0,0-.535,1.357,1.718,1.718,0,0,0,.476,1.227,3.657,3.657,0,0,0,1.2.826q.724.319,2.08.806a22.747,22.747,0,0,1,3.2,1.337,6.138,6.138,0,0,1,2.139,1.891,5.434,5.434,0,0,1,.893,3.236A5.619,5.619,0,0,1,199.347,38.62Z" transform="translate(-100.802 -3.141)"/><path class="b" d="M248.38,23.909V39.4a2.469,2.469,0,0,1-2.469,2.469h-.031a2.469,2.469,0,0,1-2.465-2.469V35.816a2.469,2.469,0,0,0-2.469-2.465h-2.8a2.469,2.469,0,0,0-2.473,2.465V39.4a2.469,2.469,0,0,1-2.477,2.465h0A2.469,2.469,0,0,1,230.72,39.4V23.909a2.469,2.469,0,0,1,2.469-2.469h0a2.469,2.469,0,0,1,2.469,2.469V26.89a2.469,2.469,0,0,0,2.469,2.465h2.8a2.469,2.469,0,0,0,2.481-2.465V23.909a2.469,2.469,0,0,1,2.469-2.469h.031A2.469,2.469,0,0,1,248.38,23.909Z" transform="translate(-128.613 -3.617)"/><path class="b" d="M294.6,38.389h-5.037a1.836,1.836,0,0,0-1.734,1.239l-.425,1.25a1.829,1.829,0,0,1-1.73,1.239H284.4a1.828,1.828,0,0,1-1.718-2.462L288.82,23.03a1.828,1.828,0,0,1,1.718-1.18h3.146a1.832,1.832,0,0,1,1.718,1.18l6.134,16.625a1.828,1.828,0,0,1-1.718,2.462h-1.349a1.828,1.828,0,0,1-1.73-1.239l-.425-1.25A1.836,1.836,0,0,0,294.6,38.389Zm-.786-6.174h0a1.832,1.832,0,0,0-3.468,0h0a1.832,1.832,0,0,0,1.734,2.422h0a1.832,1.832,0,0,0,1.742-2.422Z" transform="translate(-160.076 -3.866)"/><path class="b" d="M348.223,41.5l-4.011-7a.712.712,0,0,0-.617-.358h0a.72.72,0,0,0-.716.716v6.292a.712.712,0,0,1-.712.712h-3.515a.712.712,0,0,1-.712-.712v-19a.712.712,0,0,1,.712-.716h7.723a9.115,9.115,0,0,1,4.105.838,5.792,5.792,0,0,1,2.513,2.3,6.6,6.6,0,0,1,.838,3.338,5.682,5.682,0,0,1-3.932,5.662.72.72,0,0,0-.393,1.046l3.724,6.166a.712.712,0,0,1-.609,1.081h-3.783a.712.712,0,0,1-.613-.358Zm-5.344-11.451a.72.72,0,0,0,.716.716h2.359a3.083,3.083,0,0,0,2.167-.653,2.5,2.5,0,0,0,.7-1.919,2.556,2.556,0,0,0-.708-1.907,2.952,2.952,0,0,0-2.155-.7h-2.359a.72.72,0,0,0-.716.716Z" transform="translate(-193.672 -3.61)"/><path class="b" d="M389.609,26.084v2.851a.716.716,0,0,0,.716.712h5.485a.716.716,0,0,1,.716.712V32.67a.716.716,0,0,1-.716.7h-5.485a.716.716,0,0,0-.716.712V37.2a.716.716,0,0,0,.716.712h6.347a.716.716,0,0,1,.712.716v2.532a.712.712,0,0,1-.712.712H385.382a.712.712,0,0,1-.712-.712v-19a.712.712,0,0,1,.712-.712h11.289a.712.712,0,0,1,.712.712v2.5a.712.712,0,0,1-.712.712h-6.347A.72.72,0,0,0,389.609,26.084Z" transform="translate(-222.027 -3.617)"/></g></svg>