<svg xmlns="http://www.w3.org/2000/svg" xmlns:xlink="http://www.w3.org/1999/xlink" width="215.73" height="215.73" viewBox="0 0 215.73 215.73"><defs><style>.a{fill:url(#a);}.b,.h,.k{fill:#4f9e55;}.c,.i,.m,.n,.y{fill:#fff;}.c{opacity:0.62;}.d{opacity:0.79;}.e{opacity:0.76;}.f{fill:#fdfefd;}.g{fill:url(#b);}.h{opacity:0.65;}.j{opacity:0.71;}.k,.l{opacity:0.75;}.m{opacity:0.6;}.n{opacity:0.72;}.o{fill:url(#c);}.p{fill:url(#d);}.q{fill:url(#e);}.r{opacity:0.3;}.s{fill:url(#f);}.t{fill:url(#g);}.u{fill:url(#h);}.v{fill:url(#i);}.w{fill:url(#j);}.x{fill:url(#k);}.y{opacity:0.7;}.z{fill:url(#l);}.aa{fill:url(#m);}.ab{fill:url(#n);}.ac{fill:url(#o);}.ad{fill:url(#p);}</style><linearGradient id="a" x1="1.125" y1="1.299" x2="0.238" y2="0.189" gradientUnits="objectBoundingBox"><stop offset="0" stop-color="#c1f8c5"/><stop offset="1" stop-color="#f0fff1"/></linearGradient><linearGradient id="b" x1="0.001" y1="-23.781" x2="0.314" y2="-8.56" gradientUnits="objectBoundingBox"><stop offset="0" stop-color="#c1f8c5"/><stop offset="1" stop-color="#c1f8c5"/></linearGradient><linearGradient id="c" x1="0.931" y1="-1.137" x2="0.163" y2="1.779" gradientUnits="objectBoundingBox"><stop offset="0" stop-color="#ffa158"/><stop offset="1" stop-color="#fe8f0a"/></linearGradient><linearGradient id="d" x1="0.833" y1="-0.519" x2="0.312" y2="1.076" gradientUnits="objectBoundingBox"><stop offset="0" stop-color="#fe8f0a"/><stop offset="1" stop-color="#f0944d"/></linearGradient><linearGradient id="e" x1="1.68" y1="-5.847" x2="-0.099" y2="3.847" gradientUnits="objectBoundingBox"><stop offset="0" stop-color="#fe8f0a"/><stop offset="1" stop-color="#fe7062"/></linearGradient><linearGradient id="f" x1="0.589" y1="15.58" x2="1.538" y2="15.58" xlink:href="#d"/><linearGradient id="g" x1="44.493" y1="170.555" x2="46.078" y2="170.555" gradientUnits="objectBoundingBox"><stop offset="0" stop-color="#ff928e"/><stop offset="1" stop-color="#fe7062"/></linearGradient><linearGradient id="h" x1="30.907" y1="224.089" x2="31.64" y2="224.089" xlink:href="#g"/><linearGradient id="i" x1="0.649" y1="16.691" x2="1.672" y2="16.691" xlink:href="#d"/><linearGradient id="j" x1="-10.64" y1="184.672" x2="-9.128" y2="184.672" xlink:href="#g"/><linearGradient id="k" x1="0.627" y1="0.057" x2="0.255" y2="1.352" xlink:href="#d"/><linearGradient id="l" x1="-40.265" y1="272.354" x2="-39.547" y2="272.354" xlink:href="#g"/><linearGradient id="m" x1="-1.388" y1="30.276" x2="-0.575" y2="30.276" xlink:href="#d"/><linearGradient id="n" x1="-2.411" y1="24.243" x2="-1.028" y2="24.243" xlink:href="#d"/><linearGradient id="o" x1="-64.128" y1="233.082" x2="-62.374" y2="233.082" xlink:href="#g"/><linearGradient id="p" x1="0.739" y1="-0.264" x2="0.183" y2="1.514" xlink:href="#d"/></defs><g transform="translate(-87 -174)"><path class="a" d="M207.379,186.041a77.975,77.975,0,0,1-11.933,10c-38.927,27.8-84.989,19.7-94.778,17.717-14.456-2.922-42.4-8.571-62.6-32.221C7.5,145.766,12.263,89.4,35.973,52.2c4.336-6.806,27.243-44.579,73.8-50.636,28.176-3.666,61.02,3.728,84.8,23.562C244.5,66.757,240.948,150.864,207.379,186.041Z" transform="translate(70.345 173.344)"/><g transform="translate(13 43)"><path class="b" d="M1454.77,1245.89s33.872-85.567,84.19-94.914a1.409,1.409,0,0,1,1.663,1.455C1540.114,1162.985,1533.668,1218.844,1454.77,1245.89Z" transform="translate(-1263.416 -921.84)"/><path class="c" d="M1550.443,1378.707c-2.569,3.667-5.262,7.237-7.991,10.78-.682.886-1.378,1.761-2.067,2.642s-1.373,1.766-2.078,2.632l-2.112,2.607c-.707.867-1.4,1.746-2.122,2.6-1.437,1.713-2.862,3.437-4.311,5.14l-4.393,5.072c-2.979,3.335-5.958,6.673-9.029,9.925l-2.286,2.456c-.753.828-1.552,1.612-2.324,2.419l-4.666,4.825-4.786,4.706c-.8.781-1.592,1.574-2.406,2.342l-2.469,2.273c-1.649,1.512-3.281,3.044-4.958,4.526l-5.1,4.368-1.28,1.085c-.43.357-.849.729-1.288,1.075l-2.634,2.081c-.875.7-1.763,1.378-2.642,2.068s-1.765,1.375-2.653,2.054a.155.155,0,0,1-.2-.24l0,0q1.273-1.092,2.557-2.168c.855-.721,1.7-1.445,2.565-2.156l2.575-2.141c.849-.725,1.672-1.481,2.514-2.214l5.044-4.408,4.94-4.524,2.472-2.26c.413-.376.806-.772,1.212-1.156l1.211-1.156,4.846-4.627c3.151-3.164,6.356-6.28,9.4-9.552,1.537-1.621,3.092-3.226,4.578-4.9s3.008-3.3,4.495-4.972l4.408-5.05c1.454-1.7,2.882-3.414,4.326-5.12.727-.849,1.421-1.724,2.13-2.587l2.119-2.6c.708-.863,1.39-1.749,2.087-2.622s1.391-1.749,2.075-2.632c2.727-3.539,5.416-7.113,7.976-10.769h0a.156.156,0,1,1,.254.18Z" transform="translate(-1283.939 -1135.693)"/><g class="d" transform="translate(183.147 160)"><path class="b" d="M1318.08,114.972s16.466-75.56,66.174-114.729a1.134,1.134,0,0,1,1.806.613C1389.186,13.508,1405.466,94.212,1318.08,114.972Z" transform="translate(-1318.08 0.003)"/><path class="c" d="M1419.822,364.463c-.571,2.192-1.235,4.352-1.936,6.5s-1.441,4.286-2.222,6.406q-2.358,6.359-5.129,12.557c-.458,1.034-.94,2.057-1.409,3.085s-.982,2.037-1.471,3.057-1.01,2.024-1.52,3.033l-.771,1.511-.8,1.5c-2.125,3.993-4.364,7.929-6.776,11.758s-4.935,7.589-7.648,11.213c-.336.455-.665.915-1.006,1.367l-1.04,1.34-1.043,1.339c-.349.445-.687.9-1.053,1.331l-2.162,2.617-.541.652-.562.636-1.125,1.271a132.235,132.235,0,0,1-19.863,18.426.135.135,0,0,1-.167-.212h0l2.622-2.138,1.313-1.065,1.27-1.116,2.538-2.234,2.453-2.325c.406-.39.824-.768,1.224-1.164l1.188-1.2c.789-.805,1.593-1.594,2.368-2.411,1.522-1.661,3.08-3.288,4.529-5.014l1.1-1.277.553-.639.532-.656,2.138-2.616c.36-.431.7-.884,1.043-1.328l1.031-1.338,1.031-1.338c.338-.45.664-.91,1-1.364,2.687-3.617,5.177-7.376,7.572-11.191s4.658-7.715,6.786-11.686l.8-1.49.774-1.5c.511-1,1.038-2,1.526-3.016,1-2.019,1.966-4.056,2.916-6.1q2.83-6.14,5.258-12.459,1.232-3.15,2.338-6.348.556-1.6,1.075-3.207c.351-1.071.686-2.149,1-3.229v0a.135.135,0,0,1,.261.071Z" transform="translate(-1358.926 -342.419)"/></g><g class="e" transform="translate(104 164.597)"><path class="b" d="M53.323,182.874S46.905,115.846,7.978,76.842a.987.987,0,0,0-1.621.343C2.342,87.8-20.079,155.887,53.323,182.874Z" transform="translate(-0.009 -76.551)"/><path class="c" d="M171.133,401.948c.664,3.865,1.523,7.7,2.506,11.5q1.451,5.7,3.267,11.31c.612,1.861,1.238,3.723,1.894,5.572.316.929.669,1.844,1.008,2.762l.513,1.381.54,1.369c1.432,3.652,2.974,7.262,4.661,10.8s3.436,7.052,5.384,10.456c.24.427.474.857.721,1.282l.752,1.261.752,1.261c.253.42.5.846.764,1.256l1.576,2.483.392.622.411.609.822,1.219c1.072,1.642,2.249,3.211,3.392,4.8.584.787,1.2,1.553,1.795,2.33l.9,1.162c.3.384.627.754.937,1.134L206,478.8l1.959,2.2.981,1.1,1.023,1.058L212,485.271h0a.135.135,0,0,1-.19.191,114.517,114.517,0,0,1-15.293-17.972l-.841-1.215-.42-.608-.4-.62-1.6-2.487c-.272-.411-.518-.841-.773-1.261l-.762-1.267-.764-1.265c-.249-.425-.486-.857-.73-1.286-1.972-3.413-3.758-6.931-5.456-10.487s-3.217-7.2-4.64-10.869l-.534-1.378-.51-1.387c-.336-.926-.686-1.847-1-2.78s-.653-1.861-.955-2.8-.609-1.873-.9-2.815a153.626,153.626,0,0,1-5.371-22.987.135.135,0,0,1,.267-.043Z" transform="translate(-160.605 -382.301)"/></g><path class="b" d="M285.96,16.055c-.557,26.3-2.365,117.032-1.5,149.185.092,3.406,2.426,6.14,5.337,6.252,14.4.551,67.193,1.949,90.746.793,4.906-.24,8.808-4.89,8.909-10.633.49-27.609,1.57-105.263-1-140.834-.307-4.263-3.167-7.656-6.805-8.082-15.684-1.836-68.7-6.322-89.051-4.777C288.927,8.238,286.051,11.754,285.96,16.055Z" transform="translate(-163.162 152.818)"/><path class="f" d="M379.454,172.378c-.775,21.23-3.22,91.862-2.445,117.977.113,3.817,2.685,6.905,5.945,7.127,13.421.919,59.207,2.942,78.893,1.1,3.543-.332,6.326-3.686,6.518-7.839,1-21.66,3.862-87.429,3.118-113.249-.12-4.12-2.846-7.484-6.356-7.853-14.519-1.525-63.173-5.153-79.9-4.083C382.086,165.755,379.588,168.7,379.454,172.378Z" transform="translate(-250.231 4.566)"/><path class="g" d="M1019.58,75.427h0a1.433,1.433,0,0,0,1.227,1.515c3.4.208,12.983.8,17.265,1.088a1.448,1.448,0,0,0,1.347-1.8l-.028-.166a1.4,1.4,0,0,0-1.153-1.223,141.747,141.747,0,0,0-17.414-.929A1.428,1.428,0,0,0,1019.58,75.427Z" transform="translate(-854.357 90.568)"/><path class="h" d="M20.086,0A20.086,20.086,0,1,1,0,20.086,20.086,20.086,0,0,1,20.086,0Z" transform="translate(151.83 181.3)"/><path class="i" d="M1040.656,471.814c0,3.4-2.757,7.073-6.159,7.073s-6.158-3.672-6.158-7.073a6.168,6.168,0,0,1,12.317,0Z" transform="translate(-862.591 -278.018)"/><path class="i" d="M936.912,724.44h15.035a3.639,3.639,0,0,0,3.466-2.53l.809-2.528a3.636,3.636,0,0,0-2.2-4.523c-6.118-2.237-12.444-1.95-18.924.207a3.624,3.624,0,0,0-2.322,4.392l.623,2.3A3.638,3.638,0,0,0,936.912,724.44Z" transform="translate(-772.648 -510.476)"/><g class="j" transform="translate(136.328 242.148)"><path class="h" d="M5.7,0H68.416a5.7,5.7,0,0,1,0,11.4H5.7A5.7,5.7,0,1,1,5.7,0Z" transform="translate(0.4 0)"/><rect class="h" width="74.118" height="11.403" rx="5.701" transform="translate(0 18.604)"/><path class="h" d="M7.244,0H40.637a7.244,7.244,0,0,1,7.244,7.244v.049a7.244,7.244,0,0,1-7.244,7.244H7.244A7.244,7.244,0,0,1,0,7.293V7.244A7.244,7.244,0,0,1,7.244,0Z" transform="translate(12.02 37.659)"/></g><rect class="k" width="44.146" height="6.335" rx="3.167" transform="translate(140.011 244.73)"/><g class="l" transform="translate(138.146 262.738)"><circle class="b" cx="2.601" cy="2.601" r="2.601" transform="translate(0 1.99) rotate(-22.5)"/><circle class="b" cx="2.601" cy="2.601" r="2.601" transform="translate(7.934 0.93)"/><circle class="b" cx="2.601" cy="2.601" r="2.601" transform="translate(14.273 5.793) rotate(-76.72)"/><circle class="b" cx="2.601" cy="2.601" r="2.601" transform="translate(21.937 1.397)"/><circle class="b" cx="2.601" cy="2.601" r="2.601" transform="translate(29.073 1.33)"/><circle class="b" cx="2.601" cy="2.601" r="2.601" transform="translate(36.208 1.464)"/></g><path class="m" d="M2127.576,993.081a.184.184,0,0,0,.181-.14c.894-3.712.488-6.757-1.207-9.049-2.812-3.8-8.279-4.18-8.333-4.184a.187.187,0,0,0-.194.172.179.179,0,0,0,.044.133.182.182,0,0,0,.127.061c.053,0,5.354.371,8.063,4.039,1.626,2.2,2.01,5.142,1.141,8.743a.183.183,0,0,0,.135.221A.2.2,0,0,0,2127.576,993.081Z" transform="translate(-1886.841 -760.879)"/><path class="n" d="M1650.6,715.959a.106.106,0,0,0,.029,0,.092.092,0,0,0,.057-.116c-.692-2.06-2.687-1.753-4.8-1.429a9.235,9.235,0,0,1-3.893.07c-.876-.259-1.4-.661-1.546-1.2-.257-.908.642-1.922.651-1.932a.091.091,0,1,0-.136-.12,2.616,2.616,0,0,0-.692,2.1c.168.6.73,1.043,1.67,1.321a9.4,9.4,0,0,0,3.973-.065c2.122-.325,3.956-.608,4.6,1.307A.092.092,0,0,0,1650.6,715.959Z" transform="translate(-1437.731 -508.487)"/><path class="o" d="M2148.81,176.841c0-9.427,7.986-17.072,17.572-17.071a16.343,16.343,0,0,1,16.643,16.172c0,8.93-7.34,16.556-16.643,17.048C2156.8,193.493,2148.81,186.27,2148.81,176.841Z" transform="translate(-1915.78 9.824)"/><path class="p" d="M2175.51,201.181c0-8.545,7.239-15.472,15.926-15.471a14.812,14.812,0,0,1,15.083,14.656,15.791,15.791,0,0,1-15.083,15.449A14.812,14.812,0,0,1,2175.51,201.181Z" transform="translate(-1940.877 -14.558)"/><path class="i" d="M2332.429,263.389H2331V257.7a4.428,4.428,0,0,1,3.89-4.391l2.918-.354a4.423,4.423,0,0,1,4.961,4.391v4.965h-1.427v-4.965a3,3,0,0,0-3.357-2.975l-2.919.355a3,3,0,0,0-2.634,2.974Z" transform="translate(-2087.031 -77.735)"/><path class="i" d="M2310.9,395.132l12.511-.693a.887.887,0,0,1,.936.885v9.908a.886.886,0,0,1-.886.888h-12.21a.886.886,0,0,1-.886-.857l-.3-9.218A.887.887,0,0,1,2310.9,395.132Z" transform="translate(-2067.35 -210.753)"/><path class="q" d="M2398.5,440.915l-.757-2.177a.73.73,0,0,1,.166-.752,2.061,2.061,0,1,0-2.765.154.734.734,0,0,1,.241.812l-.683,1.963a.735.735,0,0,0,.694.976h2.414a.735.735,0,0,0,.692-.976Z" transform="translate(-2146.606 -248.388)"/><g class="r" transform="translate(105.084 284.64)"><path class="s" d="M59.479,2180.53a.724.724,0,0,1-.24.907c-.639.426-1.305.827-1.982,1.2a.656.656,0,0,1-.9-.3l-.006-.013a.721.721,0,0,1,.29-.937c.641-.349,1.275-.732,1.882-1.135a.652.652,0,0,1,.926.219A.71.71,0,0,1,59.479,2180.53Zm-5.25,2.68a.653.653,0,0,1,.031.077.714.714,0,0,1-.4.9c-.716.267-1.451.506-2.183.708a.67.67,0,0,1-.82-.5.707.707,0,0,1,.477-.86c.7-.192,1.393-.42,2.073-.673A.66.66,0,0,1,54.229,2183.211Zm-5.683,1.4a.743.743,0,0,1,.065.23.694.694,0,0,1-.586.781c-.754.093-1.521.153-2.282.18a.706.706,0,0,1-.045-1.408c.721-.024,1.449-.081,2.165-.169a.666.666,0,0,1,.683.387Zm-5.843.028a.727.727,0,0,1,.066.388.677.677,0,0,1-.737.625c-.755-.087-1.517-.208-2.262-.36a.707.707,0,0,1-.531-.827.67.67,0,0,1,.786-.555c.708.145,1.431.261,2.148.343a.673.673,0,0,1,.53.387Zm-5.7-1.342a.733.733,0,0,1,.034.541.66.66,0,0,1-.851.436c-.717-.26-1.434-.555-2.13-.878a.72.72,0,0,1-.344-.929.657.657,0,0,1,.884-.36c.661.307,1.343.589,2.024.835a.679.679,0,0,1,.383.356Zm-5.284-2.632a.734.734,0,0,1-.029.684.651.651,0,0,1-.923.228c-.646-.421-1.283-.875-1.893-1.351a.729.729,0,0,1-.14-.986.649.649,0,0,1,.938-.144c.58.453,1.185.885,1.8,1.284a.69.69,0,0,1,.246.286Zm-12.379-22.391a.736.736,0,0,1,.07.289c.025.756.082,1.522.17,2.275a.692.692,0,0,1-.584.781.68.68,0,0,1-.747-.616c-.092-.793-.153-1.6-.18-2.4a.689.689,0,0,1,.647-.727.669.669,0,0,1,.625.394Zm7.783,18.6a.729.729,0,0,1-.12.807.648.648,0,0,1-.949.007c-.54-.561-1.066-1.152-1.561-1.759a.731.731,0,0,1,.074-.993.648.648,0,0,1,.943.08c.469.576.967,1.141,1.481,1.67A.689.689,0,0,1,27.118,2176.869Zm-6.92-12.527a.758.758,0,0,1,.048.133c.186.732.4,1.466.65,2.18a.713.713,0,0,1-.4.9.66.66,0,0,1-.858-.423c-.258-.752-.488-1.523-.684-2.294a.707.707,0,0,1,.475-.861A.66.66,0,0,1,20.2,2164.342Zm3.243,7.753a.724.724,0,0,1-.24.906.653.653,0,0,1-.926-.217c-.408-.672-.794-1.372-1.147-2.08,0,0,0-.009-.007-.013a.72.72,0,0,1,.289-.937.655.655,0,0,1,.906.3c.335.672.7,1.337,1.09,1.976a.471.471,0,0,1,.037.065Z" transform="translate(-18.063 -2152.943)"/><path class="t" d="M21.581,2076.089a.736.736,0,0,1,.063.416c-.05.36-.094.726-.131,1.089a.677.677,0,0,1-.737.625.7.7,0,0,1-.6-.776c.04-.387.085-.767.138-1.146a.662.662,0,0,1,1.264-.208Z" transform="translate(-20.048 -2075.698)"/></g><g class="r" transform="translate(115.117 261.232)"><path class="u" d="M187.274,1771.069a.725.725,0,0,1-.21.885c-.282.21-.563.43-.841.654a.649.649,0,0,1-.941-.125.727.727,0,0,1,.117-.988c.289-.236.585-.468.881-.689a.652.652,0,0,1,.936.166.731.731,0,0,1,.058.1Z" transform="translate(-185.139 -1765.583)"/><path class="v" d="M286.8,1701.5q.207.436.4.882a.72.72,0,0,1-.331.932.66.66,0,0,1-.889-.351c-.3-.686-.622-1.359-.967-2.005a.721.721,0,0,1,.257-.961.655.655,0,0,1,.913.272C286.394,1700.669,286.6,1701.082,286.8,1701.5Zm1.647,4.367a.736.736,0,0,1,.042.112c.216.753.4,1.524.558,2.291a.7.7,0,0,1-.517.833.674.674,0,0,1-.8-.545c-.147-.729-.325-1.462-.53-2.177a.708.708,0,0,1,.449-.876A.66.66,0,0,1,288.444,1705.863Zm-4.2-8.7a.726.726,0,0,1-.2.874.651.651,0,0,1-.94-.139c-.428-.594-.885-1.178-1.361-1.734a.73.73,0,0,1,.05-.994.648.648,0,0,1,.947.055c.5.586.982,1.2,1.433,1.826a.687.687,0,0,1,.066.112Zm5.24,14.643a.74.74,0,0,1,.068.264c.053.781.075,1.578.065,2.363a.671.671,0,1,1-1.341-.022c.009-.745-.011-1.5-.06-2.244a.691.691,0,0,1,.621-.751A.668.668,0,0,1,289.486,1711.808Zm-9.194-19.035a.732.732,0,0,1-.088.768.648.648,0,0,1-.945.082c-.54-.48-1.109-.945-1.689-1.381a.728.728,0,0,1-.159-.983.649.649,0,0,1,.935-.164c.611.456,1.209.944,1.779,1.451A.71.71,0,0,1,280.292,1692.773Zm-4.773-3.374a.735.735,0,0,1-.005.64.654.654,0,0,1-.9.3c-.63-.346-1.281-.669-1.935-.961a.721.721,0,0,1-.36-.923.661.661,0,0,1,.878-.375c.688.305,1.373.644,2.036,1.01a.688.688,0,0,1,.291.315Zm-5.357-2.2a.733.733,0,0,1,.047.5.665.665,0,0,1-.821.5c-.687-.194-1.389-.36-2.087-.494a.7.7,0,0,1-.54-.819.672.672,0,0,1,.781-.567c.734.141,1.473.315,2.2.52a.679.679,0,0,1,.424.37Zm-5.683-.924a.733.733,0,0,1,.069.342.683.683,0,0,1-.7.675c-.71-.032-1.429-.033-2.138,0a.7.7,0,0,1-.06-1.407c.746-.032,1.5-.032,2.251,0a.673.673,0,0,1,.575.392Zm-5.738.409a.711.711,0,0,1,.06.187.7.7,0,0,1-.54.818c-.7.132-1.4.3-2.083.492a.669.669,0,0,1-.823-.5.707.707,0,0,1,.471-.864c.721-.2,1.459-.379,2.194-.518a.661.661,0,0,1,.722.383Zm-5.5,1.722c.006.013.011.026.017.04a.716.716,0,0,1-.355.922c-.48.213-.961.444-1.429.687q-.254.133-.5.27a.656.656,0,0,1-.905-.3.712.712,0,0,1,.282-.95q.262-.144.529-.283c.492-.256,1-.5,1.5-.721a.661.661,0,0,1,.865.338Z" transform="translate(-246.084 -1685.859)"/><path class="w" d="M881.243,2212.581a.731.731,0,0,1,.06.42c-.055.376-.12.76-.187,1.137a.671.671,0,0,1-.787.555.706.706,0,0,1-.53-.828q.1-.54.18-1.081a.661.661,0,0,1,1.261-.2Z" transform="translate(-838.073 -2180.584)"/></g><path class="x" d="M172.834,1839.53a.343.343,0,0,0-.071-.375l-2.775-2.757a18.319,18.319,0,0,0,.174-5.651l2.933-2.551a.339.339,0,0,0,.093-.369l-1.615-4.5a.314.314,0,0,0-.3-.213l-3.811.106a17.211,17.211,0,0,0-3.686-4.132l.352-3.989a.333.333,0,0,0-.18-.331l-4.17-1.99a.3.3,0,0,0-.357.073l-2.623,2.912a15.847,15.847,0,0,0-5.381-.2l-2.436-3.087a.306.306,0,0,0-.352-.1l-4.281,1.684a.328.328,0,0,0-.2.317l.11,4a16.928,16.928,0,0,0-3.925,3.861l-3.8-.379a.311.311,0,0,0-.315.191l-1.884,4.375a.341.341,0,0,0,.07.375l2.774,2.757a18.3,18.3,0,0,0-.173,5.652l-2.933,2.55a.339.339,0,0,0-.093.369l1.616,4.5a.314.314,0,0,0,.3.214l3.811-.106a17.22,17.22,0,0,0,3.686,4.132l-.352,3.988a.333.333,0,0,0,.183.331l4.17,1.99a.3.3,0,0,0,.357-.073l2.619-2.907a15.841,15.841,0,0,0,5.381.2l2.436,3.086a.3.3,0,0,0,.352.1l4.281-1.686a.328.328,0,0,0,.2-.317l-.11-4a16.922,16.922,0,0,0,3.925-3.861l3.8.379a.31.31,0,0,0,.315-.191Z" transform="translate(-21.914 -1543.53)"/><path class="y" d="M392.873,2078.051a4.979,4.979,0,0,1-1.492,6.11,4.472,4.472,0,0,1-6.4-1.22,5,5,0,0,1-.753-3.614,4.811,4.811,0,0,1,1.9-3.108,4.471,4.471,0,0,1,6.4,1.221A4.846,4.846,0,0,1,392.873,2078.051Zm-7.281,3.773a3.9,3.9,0,0,0,.267.473,3.425,3.425,0,0,0,4.909.936,3.825,3.825,0,0,0,.88-5.154,3.429,3.429,0,0,0-4.909-.936,3.689,3.689,0,0,0-1.456,2.385A3.849,3.849,0,0,0,385.592,2081.824Z" transform="translate(-257.084 -1790.74)"/><path class="y" d="M292.247,1963.856q.257.544.465,1.12h0q.065.18.124.364a12.473,12.473,0,0,1,.447,1.845.053.053,0,0,0,0,.025c0,.025.008.049.011.073.007.047.014.094.021.141a.286.286,0,0,1-.145.294.243.243,0,0,1-.081.026.271.271,0,0,1-.3-.24,11.875,11.875,0,0,0-.579-2.333,10.977,10.977,0,0,0-7.887-7.1,10.216,10.216,0,0,0-6,.474,10.492,10.492,0,0,0-1.017.463,10.968,10.968,0,0,0-5,5.447,11.76,11.76,0,0,0-.262,8.655,10.516,10.516,0,0,0,14.887,6.169,10.818,10.818,0,0,0,3.633-3.083.277.277,0,0,1,.091-.077.259.259,0,0,1,.286.032.291.291,0,0,1,.044.4,11.367,11.367,0,0,1-3.815,3.237,10.975,10.975,0,0,1-1.053.48,11.2,11.2,0,0,1-14.575-6.956,12.345,12.345,0,0,1,.276-9.086,11.5,11.5,0,0,1,5.245-5.719,11.213,11.213,0,0,1,1.067-.486,10.748,10.748,0,0,1,8.652.31A11.546,11.546,0,0,1,292.247,1963.856Z" transform="translate(-150.553 -1679.729)"/><g class="r" transform="translate(143.084 316.929)"><path class="z" d="M1116.608,2753.074a.45.45,0,0,1-.09.512c-.258.25-.527.5-.8.73a.4.4,0,0,1-.583-.06.448.448,0,0,1,.06-.612c.259-.223.515-.457.761-.7a.4.4,0,0,1,.586.025A.474.474,0,0,1,1116.608,2753.074Z" transform="translate(-1087.173 -2744.462)"/><path class="aa" d="M677.808,2624.061a.447.447,0,0,1-.15.561,17.927,17.927,0,0,1-1.588.935l-.345.175a.422.422,0,0,1-.552-.21.444.444,0,0,1,.2-.578q.167-.082.33-.167a16.914,16.914,0,0,0,1.514-.891.4.4,0,0,1,.572.137A.145.145,0,0,1,677.808,2624.061Zm-3.89,1.917a.416.416,0,0,1,.023.06.439.439,0,0,1-.264.549,17.3,17.3,0,0,1-2.132.585.42.42,0,0,1-.487-.344.433.433,0,0,1,.325-.51,16.513,16.513,0,0,0,2.034-.558.408.408,0,0,1,.5.218Zm-4.217.868a.456.456,0,0,1,.042.163.427.427,0,0,1-.384.464,16.971,16.971,0,0,1-2.206.016.428.428,0,0,1-.392-.458.421.421,0,0,1,.435-.411,16.056,16.056,0,0,0,2.1-.015A.412.412,0,0,1,669.7,2626.846Zm-4.3-.249a.455.455,0,0,1,.037.27.415.415,0,0,1-.48.351,17.258,17.258,0,0,1-2.144-.552.44.44,0,0,1-.273-.544.41.41,0,0,1,.518-.286,16.44,16.44,0,0,0,2.042.525A.417.417,0,0,1,665.406,2626.6Zm-4.111-1.343a.454.454,0,0,1,.007.372.407.407,0,0,1-.548.218,18.014,18.014,0,0,1-1.952-1.081.448.448,0,0,1-.14-.6.4.4,0,0,1,.569-.145,17.019,17.019,0,0,0,1.861,1.031A.419.419,0,0,1,661.295,2625.254Zm-3.677-2.348a.452.452,0,0,1-.046.463.4.4,0,0,1-.581.07,18.125,18.125,0,0,1-1.641-1.547.451.451,0,0,1,0-.615.4.4,0,0,1,.586.005,17.434,17.434,0,0,0,1.565,1.475.423.423,0,0,1,.114.148Zm-3.02-3.219a.449.449,0,0,1-.12.541.4.4,0,0,1-.581-.082,19.037,19.037,0,0,1-1.232-1.921.45.45,0,0,1,.147-.6.4.4,0,0,1,.567.156,18.085,18.085,0,0,0,1.176,1.835.455.455,0,0,1,.045.068Zm-2.911-6.03a.43.43,0,0,1,.026.072,18.794,18.794,0,0,0,.61,1.813c.035.09.07.179.107.265a.444.444,0,0,1-.215.572.4.4,0,0,1-.545-.227c-.039-.094-.076-.187-.113-.281a19.417,19.417,0,0,1-.638-1.9.437.437,0,0,1,.28-.54A.408.408,0,0,1,651.687,2613.657Z" transform="translate(-650.901 -2613.415)"/></g><g class="r" transform="translate(159.909 293.443)"><path class="ab" d="M947.355,2232.522a.446.446,0,0,1-.18.58.406.406,0,0,1-.558-.189,18.238,18.238,0,0,0-1.054-1.871.451.451,0,0,1,.11-.6.4.4,0,0,1,.576.12,19.165,19.165,0,0,1,1.106,1.962Zm.853,2.042a.347.347,0,0,1,.018.043,19.645,19.645,0,0,1,.63,2.182.435.435,0,0,1-.306.523.416.416,0,0,1-.5-.323,18.87,18.87,0,0,0-.6-2.082.441.441,0,0,1,.244-.559.407.407,0,0,1,.512.213Zm-3.228-5.722a.451.451,0,0,1-.1.521.4.4,0,0,1-.3.106.4.4,0,0,1-.283-.148,17.672,17.672,0,0,0-1.455-1.549.451.451,0,0,1-.031-.615.4.4,0,0,1,.585-.032,18.645,18.645,0,0,1,1.524,1.622.461.461,0,0,1,.058.094Zm4.21,10.047a.443.443,0,0,1,.041.145,19.475,19.475,0,0,1,.111,2.276.414.414,0,1,1-.828-.011,18.857,18.857,0,0,0-.106-2.17.429.429,0,0,1,.365-.48.412.412,0,0,1,.416.238Zm-7.359-13.021a.454.454,0,0,1-.031.443.4.4,0,0,1-.577.107,16.914,16.914,0,0,0-1.765-1.137.447.447,0,0,1-.172-.589.4.4,0,0,1,.56-.18,17.835,17.835,0,0,1,1.851,1.193A.418.418,0,0,1,941.83,2225.869Zm-3.735-2.093a.453.453,0,0,1,.016.35.408.408,0,0,1-.536.249,16.78,16.78,0,0,0-1.972-.661.438.438,0,0,1-.3-.529.412.412,0,0,1,.5-.315,17.519,17.519,0,0,1,2.068.695.419.419,0,0,1,.22.208Zm-4.1-1.094a.448.448,0,0,1,.04.248.421.421,0,0,1-.463.376,16.144,16.144,0,0,0-2.065-.146.435.435,0,0,1,0-.87,17.129,17.129,0,0,1,2.165.152.422.422,0,0,1,.317.24Z" transform="translate(-931.087 -2222.29)"/><path class="ac" d="M1216.872,2569.247a.454.454,0,0,1,.04.252c-.047.368-.105.738-.171,1.1a.415.415,0,0,1-.486.343.437.437,0,0,1-.328-.511c.063-.342.12-.695.163-1.046a.41.41,0,0,1,.781-.134Z" transform="translate(-1198.815 -2548.188)"/></g><path class="ad" d="M742.249,2324.495a.23.23,0,0,0-.047-.251l-1.856-1.845a12.272,12.272,0,0,0,.116-3.783l1.962-1.707a.228.228,0,0,0,.06-.248l-1.081-3.011a.211.211,0,0,0-.2-.143l-2.55.071a11.5,11.5,0,0,0-2.466-2.762l.235-2.669a.223.223,0,0,0-.12-.222l-2.79-1.333a.2.2,0,0,0-.24.049l-1.752,1.945a10.614,10.614,0,0,0-3.6-.131l-1.63-2.065a.2.2,0,0,0-.235-.066l-2.864,1.129a.221.221,0,0,0-.136.212l.074,2.679a11.308,11.308,0,0,0-2.626,2.582l-2.542-.254a.209.209,0,0,0-.211.129l-1.261,2.927a.228.228,0,0,0,.047.251l1.857,1.845a12.236,12.236,0,0,0-.116,3.783l-1.963,1.707a.227.227,0,0,0-.06.247l1.081,3.012a.211.211,0,0,0,.2.143l2.55-.071a11.48,11.48,0,0,0,2.466,2.762l-.236,2.669a.223.223,0,0,0,.12.222l2.8,1.334a.2.2,0,0,0,.24-.049l1.753-1.946a10.584,10.584,0,0,0,3.6.131l1.63,2.066a.2.2,0,0,0,.235.066l2.865-1.128a.221.221,0,0,0,.136-.213l-.073-2.678a11.354,11.354,0,0,0,2.627-2.582l2.538.251a.208.208,0,0,0,.21-.128Z" transform="translate(-569.226 -2007.822)"/><path class="y" d="M888.721,2483.224a3.415,3.415,0,0,1,.276,2.042,3.278,3.278,0,0,1-1.294,2.116,3.046,3.046,0,0,1-4.361-.831,3.4,3.4,0,0,1,.781-4.58,2.99,2.99,0,0,1,2.342-.532,3.114,3.114,0,0,1,2.021,1.364A3.451,3.451,0,0,1,888.721,2483.224Zm-4.872,2.522a2.479,2.479,0,0,0,.172.307,2.24,2.24,0,0,0,3.208.611,2.409,2.409,0,0,0,.952-1.557,2.506,2.506,0,0,0-.377-1.811h0a2.291,2.291,0,0,0-1.485-1,2.2,2.2,0,0,0-1.724.392A2.5,2.5,0,0,0,883.849,2485.746Z" transform="translate(-725.773 -2172.385)"/><path class="y" d="M818.741,2403.856q.176.371.317.764a8.547,8.547,0,0,1,.408,1.615l.011.074a.439.439,0,0,1-.225.453.41.41,0,0,1-.124.041.42.42,0,0,1-.471-.368,7.666,7.666,0,0,0-.375-1.51h0c-.009-.026-.019-.053-.029-.08a7.289,7.289,0,0,0-1.982-2.927,7.039,7.039,0,0,0-1.585-1.063l-.014-.007-.043-.021a6.626,6.626,0,0,0-5.335-.192,6.835,6.835,0,0,0-.661.3,7.105,7.105,0,0,0-3.235,3.527,7.61,7.61,0,0,0-.169,5.6,7.186,7.186,0,0,0,3.652,4.1,6.623,6.623,0,0,0,5.335.191,6.768,6.768,0,0,0,.65-.3,7.01,7.01,0,0,0,2.352-2,.414.414,0,0,1,.14-.12.4.4,0,0,1,.442.05.451.451,0,0,1,.067.612,7.847,7.847,0,0,1-2.631,2.233,7.706,7.706,0,0,1-.727.331,7.416,7.416,0,0,1-5.967-.215,8,8,0,0,1-4.083-4.585,8.514,8.514,0,0,1,.19-6.268,7.944,7.944,0,0,1,3.619-3.946,7.594,7.594,0,0,1,10.471,3.7Z" transform="translate(-651.679 -2095.229)"/></g></g></svg>