<svg xmlns="http://www.w3.org/2000/svg" xmlns:xlink="http://www.w3.org/1999/xlink" width="188.231" height="187.181" viewBox="0 0 188.231 187.181"><defs><style>.a{fill:url(#a);}.b{fill:url(#b);}.c{fill:none;}.aj,.d{fill:#c1f8c5;}.d{opacity:0.231;}.e{fill:url(#c);}.f{clip-path:url(#d);}.g{opacity:0.9;}.ax,.bk,.bv,.g,.h{mix-blend-mode:soft-light;}.ac,.ae,.ag,.ao,.aw,.ax,.az,.bb,.bk,.br,.bv,.bw,.g,.h,.s,.u,.x{isolation:isolate;}.az,.h{opacity:0.7;}.ax,.bv,.i{fill:#fff;}.j{fill:url(#e);}.k{clip-path:url(#f);}.l{fill:#fcfdfe;}.m{fill:url(#g);}.n{fill:url(#h);}.o{fill:url(#i);}.p{fill:url(#j);}.q{fill:url(#k);}.r{fill:url(#l);}.ac,.ae,.ag,.s,.u,.x{opacity:0.4;}.ac,.ae,.ag,.ao,.aw,.az,.bb,.br,.bw,.s,.u,.x{mix-blend-mode:multiply;}.s{fill:url(#m);}.t{fill:url(#n);}.u{fill:url(#o);}.v{fill:url(#p);}.w{fill:url(#q);}.y{fill:url(#r);}.z{fill:url(#s);}.aa{fill:url(#t);}.ab{fill:url(#u);}.ac{fill:url(#v);}.ad{fill:url(#w);}.ae{fill:url(#x);}.af{fill:url(#y);}.ag{fill:url(#z);}.ah{fill:url(#aa);}.ai{fill:url(#ab);}.ak{fill:#f0944d;}.al{fill:url(#ac);}.am{fill:url(#ad);}.an{fill:url(#ae);}.ao,.aw,.br{opacity:0.3;}.ap{fill:#e6e6e6;}.aq{fill:#d8dee8;}.ar{fill:url(#af);}.as{fill:url(#ag);}.at{fill:url(#ah);}.au{fill:url(#aj);}.av{fill:#b7b9c5;}.aw{fill:url(#al);}.ax{opacity:0.5;}.ay{fill:url(#am);}.az{fill:url(#an);}.ba{fill:url(#ao);}.bb,.bw{opacity:0.2;}.bb{fill:url(#ap);}.bc{fill:url(#aq);}.bd{fill:url(#ar);}.be{fill:url(#as);}.bf{clip-path:url(#at);}.bg{fill:url(#au);}.bh{clip-path:url(#av);}.bi{fill:url(#aw);}.bj{fill:url(#ax);}.bk{opacity:0.48;}.bl{fill:url(#ay);}.bm{fill:url(#az);}.bn{fill:url(#ba);}.bo{fill:url(#bc);}.bp{fill:url(#bd);}.bq{fill:url(#be);}.br{fill:url(#bf);}.bs{fill:url(#bg);}.bt{fill:url(#bh);}.bu{fill:url(#bi);}.bw{fill:url(#bj);}.bx{fill:url(#bk);}.by{fill:url(#bl);}.bz{fill:url(#bm);}</style><linearGradient id="a" x1="0.694" y1="0.413" x2="1.175" y2="-0.217" gradientUnits="objectBoundingBox"><stop offset="0" stop-color="#ff9085"/><stop offset="1" stop-color="#fb6fbb"/></linearGradient><linearGradient id="b" x1="0.375" y1="0.208" x2="0.493" y2="0.687" gradientUnits="objectBoundingBox"><stop offset="0" stop-color="#e38ddd"/><stop offset="1" stop-color="#9571f6"/></linearGradient><linearGradient id="c" x1="0.694" y1="0.413" x2="1.175" y2="-0.217" gradientUnits="objectBoundingBox"><stop offset="0" stop-color="#c1f8c5"/><stop offset="1" stop-color="#4f9e55"/></linearGradient><clipPath id="d"><path class="a" d="M1588.062,687.45c-4.256-6.765-.692-18.363,3.9-25.23,5.359-8.019,9.968-6.372,13.65-12.932,6.855-12.215-6.307-22.932-.369-35.8,4.854-10.518,15.494-7.346,20.339-19.239,3.495-8.581-.363-14.357,5.142-20.824.47-.552,5.631-6.441,12.148-5.607,6.578.842,10.689,8.04,12.118,13.055,2.64,9.268-3.495,12.456-4.4,24.591-1.229,16.523,9.419,20.395,6,32.373-2.823,9.891-10.735,9.533-13.648,20.566-2.705,10.242,3.135,14.273.655,20.989C1637.888,694.841,1596.742,701.248,1588.062,687.45Z" transform="translate(-1586.155 -567.738)"/></clipPath><linearGradient id="e" x1="0.375" y1="0.208" x2="0.493" y2="0.687" xlink:href="#c"/><clipPath id="f"><path class="b" d="M280.8,348.8a12.8,12.8,0,0,0,5.933-1.119c5.61-3.914,16.589-10.561,18.281-17.591.289-1.2-4.649-3.9-5.058-5.207-2.731-2.487-3.831-3.178-5.267-6.815-4.238-10.739,16.369-22.211-.122-33.466-12.078-8.243-24.754-7.075-17.012-27.366s2.8-63.058-23.488-55.262c-15.086,4.475-7.7,25.982-18.116,37.016-9.9,10.485-7.758,22.25,3.111,33.658s2.123,14.974-5.263,25.554c-8.872,12.709,12.061,21.809,22.085,25.185C263.958,326.114,282.677,338.481,280.8,348.8Z" transform="translate(-229.597 -201.041)"/></clipPath><linearGradient id="g" x1="2.849" y1="0.721" x2="3.38" y2="0.721" gradientUnits="objectBoundingBox"><stop offset="0" stop-color="#fe8f0a"/><stop offset="0.31" stop-color="#fba94a"/><stop offset="1" stop-color="#f0944d"/></linearGradient><linearGradient id="h" x1="9.739" y1="3.644" x2="10.669" y2="3.644" gradientUnits="objectBoundingBox"><stop offset="0" stop-color="#ffc444"/><stop offset="0.31" stop-color="#fba94a"/><stop offset="1" stop-color="#f36f56"/></linearGradient><linearGradient id="i" x1="11.66" y1="3.969" x2="12.571" y2="3.969" xlink:href="#h"/><linearGradient id="j" x1="16.498" y1="4.403" x2="17.366" y2="4.403" xlink:href="#h"/><linearGradient id="k" x1="16.031" y1="4.164" x2="17.062" y2="4.164" xlink:href="#h"/><linearGradient id="l" x1="24.062" y1="4.357" x2="25.299" y2="4.357" xlink:href="#h"/><linearGradient id="m" x1="3.387" y1="0.72" x2="3.615" y2="0.72" gradientUnits="objectBoundingBox"><stop offset="0" stop-color="#fe8f0a"/><stop offset="0.31" stop-color="#fba94a"/><stop offset="1" stop-color="#fe8f0a"/></linearGradient><linearGradient id="n" y1="0.5" x2="1" y2="0.5" gradientUnits="objectBoundingBox"><stop offset="0" stop-color="#aa80f9"/><stop offset="1" stop-color="#6165d7"/></linearGradient><linearGradient id="o" x1="-3.75" y1="0.569" x2="-3.649" y2="2.202" xlink:href="#n"/><linearGradient id="p" x1="-3.795" y1="-1.378" x2="-2.577" y2="1.393" xlink:href="#n"/><linearGradient id="q" y1="0.5" x2="1" y2="0.5" gradientUnits="objectBoundingBox"><stop offset="0" stop-color="#4f9e55"/><stop offset="1" stop-color="#4f9e55"/></linearGradient><linearGradient id="r" x1="-3.345" y1="1.74" x2="-2.395" y2="1.74" gradientUnits="objectBoundingBox"><stop offset="0" stop-color="#f0944d"/><stop offset="1" stop-color="#f0944d"/></linearGradient><linearGradient id="s" x1="-2.773" y1="1.028" x2="-1.59" y2="1.028" xlink:href="#n"/><linearGradient id="t" x1="-4.762" y1="1.149" x2="0.218" y2="-0.774" xlink:href="#n"/><linearGradient id="u" y1="0.5" x2="1" y2="0.5" gradientUnits="objectBoundingBox"><stop offset="0" stop-color="#f0944d"/><stop offset="1" stop-color="#fe8f0a"/></linearGradient><linearGradient id="v" x1="-6.594" y1="0.737" x2="-5.745" y2="0.737" xlink:href="#n"/><linearGradient id="w" x1="0" y1="0.5" x2="1" y2="0.5" xlink:href="#q"/><linearGradient id="x" x1="-4.654" y1="1.604" x2="-3.377" y2="1.604" xlink:href="#n"/><linearGradient id="y" y1="0.5" x2="1" y2="0.5" gradientUnits="objectBoundingBox"><stop offset="0" stop-color="#b7b9c5"/><stop offset="1" stop-color="#b7b9c5"/></linearGradient><linearGradient id="z" x1="-3.739" y1="1.194" x2="-2.821" y2="1.194" xlink:href="#n"/><linearGradient id="aa" x1="-12.63" y1="0.161" x2="-12.668" y2="3.531" xlink:href="#n"/><linearGradient id="ab" x1="0.474" y1="1.439" x2="0.56" y2="-1.474" xlink:href="#n"/><linearGradient id="ac" x1="0.208" y1="0.496" x2="0.894" y2="0.511" gradientUnits="objectBoundingBox"><stop offset="0" stop-color="#ebeff2"/><stop offset="1" stop-color="#fff"/></linearGradient><linearGradient id="ad" x1="0" y1="0.5" x2="1" y2="0.5" xlink:href="#u"/><linearGradient id="ae" x1="0.241" y1="0.511" x2="0.57" y2="0.758" xlink:href="#ac"/><linearGradient id="af" x1="0" y1="0.5" x2="1" y2="0.5" xlink:href="#ac"/><linearGradient id="ag" x1="0" y1="0.5" x2="1" y2="0.5" xlink:href="#ac"/><linearGradient id="ah" x1="0" y1="0.5" x2="1" y2="0.5" xlink:href="#ac"/><linearGradient id="aj" x1="0.487" y1="1.104" x2="0.532" y2="-1.021" xlink:href="#ac"/><linearGradient id="al" x1="0" y1="0.5" x2="1" y2="0.5" xlink:href="#a"/><linearGradient id="am" x1="-0.685" y1="-0.402" x2="0.877" y2="0.803" xlink:href="#h"/><linearGradient id="an" x1="0.52" y1="0.483" x2="-1.183" y2="1.311" xlink:href="#h"/><linearGradient id="ao" x1="0.516" y1="0.48" x2="0.105" y2="1.548" gradientUnits="objectBoundingBox"><stop offset="0" stop-color="#74d07b"/><stop offset="0.31" stop-color="#4f9e55"/><stop offset="1" stop-color="#4f9e55"/></linearGradient><linearGradient id="ap" x1="0.47" y1="0.617" x2="0.149" y2="1.434" xlink:href="#h"/><linearGradient id="aq" x1="0.25" y1="0.491" x2="1.307" y2="0.491" gradientUnits="objectBoundingBox"><stop offset="0" stop-color="#9fa2b1"/><stop offset="1" stop-color="#9fa2b1"/></linearGradient><linearGradient id="ar" x1="0.674" y1="0.638" x2="0.819" y2="0.405" xlink:href="#q"/><linearGradient id="as" x1="9.809" y1="-1.98" x2="-20.978" y2="79.483" gradientUnits="objectBoundingBox"><stop offset="0" stop-color="#ffc444"/><stop offset="1" stop-color="#f36f56"/></linearGradient><clipPath id="at"><path class="c" d="M239.193,1196.8l-40.967.9a1.8,1.8,0,0,0-1.757,1.994l7.722,86.39a1.906,1.906,0,0,0,2.078,1.74l40.434-3.943a1.847,1.847,0,0,0,1.613-2.028l-7.164-83.216A1.992,1.992,0,0,0,239.193,1196.8Z" transform="translate(-196.462 -1196.804)"/></clipPath><linearGradient id="au" x1="-0.035" y1="-0.917" x2="0.825" y2="2.358" gradientUnits="objectBoundingBox"><stop offset="0" stop-color="#4f9e55"/><stop offset="1" stop-color="#65fa70"/></linearGradient><clipPath id="av"><path class="c" d="M272.363,1565.548l-44.107,4.316-6.217-69.55,44.558-1.764Z" transform="translate(-222.04 -1498.55)"/></clipPath><linearGradient id="aw" x1="-0.06" y1="-0.02" x2="0.559" y2="1.04" xlink:href="#n"/><linearGradient id="ax" x1="-0.918" y1="3.016" x2="-11.108" y2="21.1" xlink:href="#h"/><linearGradient id="ay" x1="0" y1="0.501" x2="1" y2="0.501" xlink:href="#as"/><linearGradient id="az" x1="0" y1="0.5" x2="1" y2="0.5" xlink:href="#as"/><linearGradient id="ba" x1="0" y1="0.5" x2="1" y2="0.5" xlink:href="#as"/><linearGradient id="bc" x1="0" y1="0.5" x2="1" y2="0.5" xlink:href="#as"/><linearGradient id="bd" x1="0" y1="0.5" x2="1" y2="0.5" xlink:href="#as"/><linearGradient id="be" x1="0.492" y1="-0.599" x2="0.505" y2="1.584" gradientUnits="objectBoundingBox"><stop offset="0" stop-color="#fe8f0a"/><stop offset="1" stop-color="#f0944d"/></linearGradient><linearGradient id="bf" x1="0" y1="0.5" x2="1" y2="0.5" xlink:href="#n"/><linearGradient id="bg" x1="4.095" y1="1.967" x2="4.127" y2="-0.575" xlink:href="#c"/><linearGradient id="bh" x1="2.661" y1="0.101" x2="3.408" y2="1.924" gradientUnits="objectBoundingBox"><stop offset="0" stop-color="#4f9e55"/><stop offset="0.31" stop-color="#4f9e55"/><stop offset="1" stop-color="#4f9e55"/></linearGradient><linearGradient id="bi" x1="2.039" y1="0.793" x2="3.869" y2="0.389" gradientUnits="objectBoundingBox"><stop offset="0" stop-color="#c1f8c5"/><stop offset="0.31" stop-color="#4f9e55"/><stop offset="1" stop-color="#4f9e55"/></linearGradient><linearGradient id="bj" x1="0" y1="0.5" x2="1" y2="0.5" xlink:href="#n"/><linearGradient id="bk" x1="-7.006" y1="4.003" x2="-7.64" y2="2.49" gradientUnits="objectBoundingBox"><stop offset="0" stop-color="#c1f8c5"/><stop offset="1" stop-color="#c1f8c5"/></linearGradient><linearGradient id="bl" x1="5.171" y1="-1.207" x2="4.838" y2="0.714" xlink:href="#r"/><linearGradient id="bm" x1="1.247" y1="0.5" x2="2.247" y2="0.5" gradientUnits="objectBoundingBox"><stop offset="0" stop-color="#fe8f0a"/><stop offset="0.48" stop-color="#a87ff8"/><stop offset="0.65" stop-color="#a17df5"/><stop offset="0.77" stop-color="#9678ef"/><stop offset="0.87" stop-color="#8572e8"/><stop offset="0.95" stop-color="#6f6add"/><stop offset="1" stop-color="#6165d7"/></linearGradient></defs><g transform="translate(-93 -127)"><path class="d" d="M185.465,79.951c-5.1-33.394-26.02-74.422-67.344-78.715,0,0-31.377-3.817-62.307,1.968C37.456,6.636,21.36,16.855,11.175,31.543A61.46,61.46,0,0,0,1.717,81.214c2.682,11.09,4.494,22.567,4,33.963-.866,19.833-.368,38.345,18.88,50.173,17.185,10.561,38.814,19.875,59.448,21.507A132.612,132.612,0,0,0,127.3,182.52C196.179,163.915,190.567,113.346,185.465,79.951Z" transform="translate(92.997 127)"/><path class="e" d="M1588.062,687.45c-4.256-6.765-.692-18.363,3.9-25.23,5.359-8.019,9.968-6.372,13.65-12.932,6.855-12.215-6.307-22.932-.369-35.8,4.854-10.518,15.494-7.346,20.339-19.239,3.495-8.581-.363-14.357,5.142-20.824.47-.552,5.631-6.441,12.148-5.607,6.578.842,10.689,8.04,12.118,13.055,2.64,9.268-3.495,12.456-4.4,24.591-1.229,16.523,9.419,20.395,6,32.373-2.823,9.891-10.735,9.533-13.648,20.566-2.705,10.242,3.135,14.273.655,20.989C1637.888,694.841,1596.742,701.248,1588.062,687.45Z" transform="translate(-1386.552 -402.581)"/><g class="f" transform="translate(199.604 165.157)"><g class="g" transform="translate(7.569 -5.99)"><g class="h" transform="translate(0 3.907)"><path class="i" d="M1698.92,669.23a.148.148,0,0,1-.02-.294,47.076,47.076,0,0,0,19.256-7.073c5.484-3.536,11.157-7.191,13.519-13.668,1.787-4.895.6-8.425-.883-12.9a41.932,41.932,0,0,1-2.621-18.184c.368-4.8.826-10.764,4.794-16.524a20.624,20.624,0,0,1,6.639-6.138c2.117-1.362,3.789-2.436,4.7-5.2,1.484-4.515.3-8.324-1.075-12.733a48.141,48.141,0,0,1-2.133-8.917c-1.142-9.484,3.031-19.85,12.395-30.808a.147.147,0,0,1,.224.192c-9.309,10.893-13.455,21.182-12.326,30.58a48.1,48.1,0,0,0,2.122,8.864c1.389,4.458,2.589,8.308,1.075,12.913-.941,2.864-2.737,4.018-4.818,5.357a20.362,20.362,0,0,0-6.555,6.057c-3.923,5.695-4.378,11.619-4.742,16.379a41.689,41.689,0,0,0,2.606,18.068c1.51,4.525,2.7,8.1.881,13.09-2.4,6.569-8.111,10.252-13.636,13.814a47.381,47.381,0,0,1-19.375,7.118Z" transform="translate(-1698.776 -536.744)"/></g><g class="h" transform="translate(25.304 31.776)"><path class="i" d="M2082.6,990.441a.147.147,0,0,1-.134-.084c-6.06-12.635-7.259-22.529-7.2-28.6a29.609,29.609,0,0,1,1.609-10.283.148.148,0,0,1,.269.116,29.339,29.339,0,0,0-1.586,10.192c-.058,6.039,1.138,15.877,7.168,28.452a.147.147,0,0,1-.134.211Z" transform="translate(-2075.266 -951.401)"/></g><g class="h" transform="translate(29.393 54.414)"><path class="i" d="M2136.261,1325.073a.148.148,0,0,1-.042-.289c16.12-4.821,23.828-14.467,27.457-21.709a37.569,37.569,0,0,0,4.051-14.7.148.148,0,0,1,.147-.146h0a.147.147,0,0,1,.146.149,37.871,37.871,0,0,1-4.083,14.828c-3.653,7.3-11.414,17.01-27.635,21.86A.14.14,0,0,1,2136.261,1325.073Z" transform="translate(-2136.115 -1288.23)"/></g><g class="h" transform="translate(6.658 84.044)"><path class="i" d="M1816.736,1770.565a.147.147,0,0,1-.093-.032c-12.5-10.1-16.764-20.793-18.143-27.983a32.147,32.147,0,0,1,.006-13.338.147.147,0,0,1,.284.079,31.9,31.9,0,0,0,0,13.219c1.373,7.137,5.615,17.753,18.037,27.793a.148.148,0,0,1,.054.1.146.146,0,0,1-.032.108A.144.144,0,0,1,1816.736,1770.565Z" transform="translate(-1797.834 -1729.104)"/></g><g class="h" transform="translate(42.441)"><path class="i" d="M2330.4,511.877a.148.148,0,0,1-.062-.282c11.6-5.342,16.344-13.976,18.277-20.278a33.626,33.626,0,0,0,1.431-12.539.147.147,0,0,1,.292-.036,33.957,33.957,0,0,1-1.438,12.649c-1.949,6.364-6.731,15.081-18.439,20.471A.151.151,0,0,1,2330.4,511.877Z" transform="translate(-2330.258 -478.614)"/></g></g></g><path class="j" d="M280.8,348.8a12.8,12.8,0,0,0,5.933-1.119c5.61-3.914,16.589-10.561,18.281-17.591.289-1.2-4.649-3.9-5.058-5.207-2.731-2.487-3.831-3.178-5.267-6.815-4.238-10.739,16.369-22.211-.122-33.466-12.078-8.243-24.754-7.075-17.012-27.366s2.8-63.058-23.488-55.262c-15.086,4.475-7.7,25.982-18.116,37.016-9.9,10.485-7.758,22.25,3.111,33.658s2.123,14.974-5.263,25.554c-8.872,12.709,12.061,21.809,22.085,25.185C263.958,326.114,282.677,338.481,280.8,348.8Z" transform="translate(-121.167 -60.529)"/><g class="k" transform="translate(108.431 140.512)"><g class="h" transform="translate(-2.013 -3.673)"><path class="l" d="M645.458,288.45l.224-.242c-37.259-34.628-49.935-87.607-33.909-141.725l-.317-.093c-7.595,25.647-8.757,52.047-3.36,76.345A126.637,126.637,0,0,0,645.458,288.45Z" transform="translate(-577.529 -146.39)"/><path class="l" d="M228.167,1714.358c13.912-.3,35.1,6.022,47.231,14.1l.183-.275c-12.182-8.105-33.454-14.45-47.421-14.15Z" transform="translate(-226.243 -1608.659)"/><path class="l" d="M1055.861,1494.356l.283-.17c-3.9-6.493-4.372-14.709-1.4-24.421,2.182-7.124,6.132-14.865,11.738-23.018l-.269-.187c-5.629,8.18-9.594,15.958-11.784,23.108C1051.427,1479.473,1051.909,1487.779,1055.861,1494.356Z" transform="translate(-995.169 -1359.177)"/><path class="l" d="M229.572,908.225l.291-.155c-6.725-12.617-20.087-19.508-30.113-23.07l-.11.312C209.611,888.851,222.9,895.7,229.572,908.225Z" transform="translate(-199.64 -835.359)"/><path class="l" d="M605.21,303.384l.322.073c3.562-15.709,16.527-26.562,23.938-31.634l-.186-.272C621.833,276.648,608.8,287.564,605.21,303.384Z" transform="translate(-577.952 -263.138)"/></g></g><path class="m" d="M1282.309,63.6c-9.477,30.9-13.96,52.748-22.313,50.186a4.724,4.724,0,0,1-1.835-1.087c-2.12-1.967-3.36-6.116-3.746-11.829a69.323,69.323,0,0,1-.049-7.7c.146-3.26.481-6.812,1-10.6.345-2.5.672-5.13,1.179-7.816.842-4.471,2.034-9.14,3.034-14.079l.007-.024V60.65l2.3-7.5a99.454,99.454,0,0,1,4.006-11.416.668.668,0,0,1,.038-.091v0c.17-.554.353-1.1.553-1.635.017-.056.041-.116.063-.171.336-.935.71-1.844,1.092-2.739.046-.115.094-.223.134-.336.329-.768.657-1.536.981-2.29.021-.05.041-.1.061-.151,1.858-4.447,3.789-8.563,5.739-12.272,1.3-2.479,2.616-4.772,3.92-6.863,5.888-9.409,11.642-14.594,15.846-13.307a3.118,3.118,0,0,1,.352.128C1302.365,5.266,1291.653,33.148,1282.309,63.6Z" transform="translate(-1076.984 125.43)"/><path class="n" d="M1566.692,208.8c-.636,2.072-4.545,2.718-8.727,1.435a14.794,14.794,0,0,1-2-.766c1.3-2.479,2.616-4.772,3.92-6.863.128.034.255.073.382.112C1564.453,204.005,1567.33,206.727,1566.692,208.8Z" transform="translate(-1358.395 -61.993)"/><path class="o" d="M1435.579,495.5c-.636,2.071-4.533,2.679-8.715,1.4-.249-.077-.514-.1-.754-.189.941-2.524,1.942-4.974,2.9-7.249l.122.037C1433.318,490.78,1436.217,493.425,1435.579,495.5Z" transform="translate(-1237.263 -329.564)"/><path class="p" d="M1340.08,775.964c-.548,1.785-3.53,2.51-7.02,1.856l.007-.023v-.009l2.238-7.3C1338.567,771.9,1340.629,774.174,1340.08,775.964Z" transform="translate(-1150.467 -591.706)"/><path class="q" d="M1277.977,1095.128c-.577,1.882-3.841,2.585-7.567,1.748.345-2.5.672-5.13,1.179-7.816C1275.751,1090.345,1278.61,1093.057,1277.977,1095.128Z" transform="translate(-1092.027 -888.865)"/><path class="r" d="M1259.478,1368.626c-.443,1.442-2.467,2.194-5.063,2.083a69.324,69.324,0,0,1-.049-7.7C1257.821,1364.407,1260.044,1366.773,1259.478,1368.626Z" transform="translate(-1076.984 -1144.403)"/><path class="s" d="M1336.129,68.1c-9.476,30.9-13.96,52.748-22.313,50.186a4.723,4.723,0,0,1-1.835-1.087c1.446-2.384,3.667-5.3,6.129-8.8,4.973-7.089,11.848-26.61,14.106-42.535s10.485-39.227,14.607-51.069A23.472,23.472,0,0,0,1348.5,6.5C1356.185,9.76,1345.472,37.642,1336.129,68.1Z" transform="translate(-1130.803 120.937)"/><path class="t" d="M1469.907,963.834a10.416,10.416,0,0,0,.067,3.371,3.883,3.883,0,0,0,1.378,2.823,3.219,3.219,0,0,0,.652.374,3.625,3.625,0,0,1,.792.3c.37.269.527.846.82,1.2a4.068,4.068,0,0,0,2.774,1.45,2.382,2.382,0,0,1,.781.149,4.31,4.31,0,0,1,.714.562,2.4,2.4,0,0,0,1.5.514,5.387,5.387,0,0,0,1.546-.278c.589-.174,1.178-.354,1.767-.53s1.177-.341,1.76-.53a3.466,3.466,0,0,0,1.329-.716,3.5,3.5,0,0,0,.764-1.386,1.641,1.641,0,0,1,.393-.677,1.684,1.684,0,0,1,.712-.294,5.18,5.18,0,0,0,2.672-1.411,3.117,3.117,0,0,0,.806-2.543,2.445,2.445,0,0,0-.05-.24.451.451,0,0,0,.217-.251,4.59,4.59,0,0,0-1.672-5.121,7.907,7.907,0,0,0-1.421-.681c-.471-.209-.7-.681-1.041-1.046a2.726,2.726,0,0,0-2.657-.57,2.32,2.32,0,0,1-1.3-.067c-.489-.208-.916-.534-1.4-.746a2.6,2.6,0,0,0-1.555-.2,10.692,10.692,0,0,1-1.418.336,6.533,6.533,0,0,1-1.59-.341,5.338,5.338,0,0,0-1.463-.083,5.133,5.133,0,0,0-2.844,1.1,3.19,3.19,0,0,0-.991,1.315,3.3,3.3,0,0,0-.173.806,1.2,1.2,0,0,1-.2.683,7.425,7.425,0,0,1-.6.569,3.45,3.45,0,0,0-.5.642A4.369,4.369,0,0,0,1469.907,963.834Z" transform="translate(-1278.012 -765.85)"/><path class="u" d="M1471.071,1022.59c.929,1.747,2.048,3.411,2.957,5.17a7.146,7.146,0,0,0,2.579,2.252,4.016,4.016,0,0,0,3.516.134c2.242-.826,3.637-2.875,6.155-3.159a12.667,12.667,0,0,1,4.872.34,3.133,3.133,0,0,1-.819,2.44,5.148,5.148,0,0,1-2.672,1.411,1.71,1.71,0,0,0-.712.294,1.649,1.649,0,0,0-.393.677,2.738,2.738,0,0,1-2.094,2.1c-.582.19-1.173.354-1.76.53s-1.178.356-1.767.53a5.369,5.369,0,0,1-1.546.278,2.4,2.4,0,0,1-1.5-.514,4.212,4.212,0,0,0-.714-.562,2.37,2.37,0,0,0-.781-.149,4.073,4.073,0,0,1-2.775-1.45c-.292-.351-.45-.927-.819-1.2a3.505,3.505,0,0,0-.792-.3,3.225,3.225,0,0,1-.652-.374,3.879,3.879,0,0,1-1.378-2.823,10.452,10.452,0,0,1-.067-3.371,4.38,4.38,0,0,1,.569-1.524,3.454,3.454,0,0,1,.5-.642C1471,1022.65,1471.038,1022.618,1471.071,1022.59Z" transform="translate(-1278.01 -826.863)"/><path class="v" d="M1387.182,753.124a6.3,6.3,0,0,0-3.682-2.119,3.7,3.7,0,0,0-1.419-3.957,5.442,5.442,0,0,0-5.438-.225,6.479,6.479,0,0,0-8.1,8.286,4.261,4.261,0,0,0-2.89,2.881,4.514,4.514,0,0,0,1.621,4.753,26.378,26.378,0,0,0,2.3,1.526,9.242,9.242,0,0,1,2.016,2.016,6.265,6.265,0,0,0,5.117,2.257,6.143,6.143,0,0,0,4.4-2.323,4.988,4.988,0,0,0,3.55.464,5.785,5.785,0,0,0,3.9-3.086A10.155,10.155,0,0,0,1387.182,753.124Z" transform="translate(-1180.715 -569.055)"/><path class="w" d="M1506.013,568.683a10.316,10.316,0,0,0,4.871-2.241c1.432-1.427,1.19-4.312,1.772-5.041s2.295-1.246,3.414-2.621c1.62-2,2.151-4.742.981-6.427-.5-.725-1.975-1.887-1.776-2.951.227-.524,1.891-1.5,1.661-4.737a8.061,8.061,0,0,0-6.788-7.559c-1-.583-.877-2.83-3.495-3.914s-4.268.587-5.223.03a12.606,12.606,0,0,0-5.6-2.016,9.618,9.618,0,0,0-7.333,3.37,10.409,10.409,0,0,0-1.273,1.755c-.152.259-.193.353-.491.366-.352.016-.692.011-1.049.048a9.374,9.374,0,0,0-3.883,1.108,8.461,8.461,0,0,0-3.807,6.478c-.146,2.266,2.126,6.328,1.886,7.007s-2.584,2.89-2.477,5.609a8.684,8.684,0,0,0,4.974,7.814c1.378.666,5.182,1.546,6.187,2.218s.806,3.9,2.384,5.329c1.712,1.554,3.588,1.452,6.215.7,1.421-.4,2.278-.217,3.454-1.192a4.754,4.754,0,0,0,4.273-1.442C1505.4,569.876,1505.088,568.813,1506.013,568.683Z" transform="translate(-1285.103 -368.502)"/><g class="x" transform="translate(192.289 162.701)"><path class="y" d="M1655.824,540.545c-3.608-.519-6.216,2.487-9.569,2.906s-4.148-3.974-5.993-6.236a4.854,4.854,0,0,0-2.375-1.875,8.525,8.525,0,0,0-4.068-.067c.182-.243.374-.48.581-.707a9.617,9.617,0,0,1,7.333-3.37,12.567,12.567,0,0,1,5.6,2.016c.956.556,2.6-1.113,5.223-.03s2.494,3.331,3.495,3.914a7.984,7.984,0,0,1,6.619,6.345l-.214-.162A12.809,12.809,0,0,0,1655.824,540.545Z" transform="translate(-1623.302 -531.193)"/><path class="z" d="M1481.73,617.143a7.668,7.668,0,0,1,2.65-.933c-1.411,1.2-3.422,2.784-2.487,4.488,1.56,2.853,4.831,4.646,5.759,8.009.948,3.587-2.577,5.829-5.451,7.165a1.7,1.7,0,0,0-.744,2.385,8.222,8.222,0,0,0,5.841,5.175c6.277,1.293,12.219-.491,18.567-.9,1.68-.153,3.149,1.069,4.423,2.027.6-.532,1.176-1.083,1.74-1.65a5.358,5.358,0,0,1-1.21,2.823,10.317,10.317,0,0,1-4.871,2.241c-.924.13-.617,1.193-1.129,1.694a4.748,4.748,0,0,1-4.273,1.442c-1.176.975-2.033.787-3.455,1.192-2.628.748-4.5.85-6.216-.7-1.577-1.432-1.378-4.657-2.384-5.329s-4.809-1.552-6.187-2.218a8.686,8.686,0,0,1-4.974-7.814c-.107-2.716,2.238-4.931,2.477-5.609s-2.032-4.74-1.886-7.006A8.463,8.463,0,0,1,1481.73,617.143Z" transform="translate(-1477.327 -610.496)"/></g><path class="aa" d="M1595.324,744.61c9.251,7.41,11.883,20.74,11.883,20.74l8.61-5.387c-11.791-13.536-9.041-19.126-9.141-24.908,0,0-.717-1.407-1.214.208a24.047,24.047,0,0,0-.035,8.151c-2.785-4.123-2.348-7.724-3.315-8.827-.329-.375-1.247-.269-1.247-.269a72.383,72.383,0,0,0,6.634,20.247s-5.908-10.249-9.227-12.568c-.621-.421-1.048.109-.552,1.09a31.559,31.559,0,0,1,3.2,4.779c-2.967-2.567-3.464-3.184-4.509-4.056S1594.846,743.634,1595.324,744.61Z" transform="translate(-1394.937 -557.952)"/><path class="ab" d="M1875.748,713.865a3.1,3.1,0,0,0,2.223-2.573,6.376,6.376,0,0,0-.986-4.4,6.629,6.629,0,0,0-7.019-2.84,2.724,2.724,0,0,0-2.146-1.488,2.554,2.554,0,0,0-2.123.874,4.833,4.833,0,0,0-1.4.128,2.71,2.71,0,0,0-2.089,2.434c-1.552.561-2.379,2.5-2.487,4.068a3.958,3.958,0,0,0,.924,3.183c.35.34.817.41.861.936a4.712,4.712,0,0,0,.287,1.458,4.412,4.412,0,0,0,2,2.186,3.987,3.987,0,0,0,1.245.417,13.7,13.7,0,0,1,1.553.019,3.109,3.109,0,0,1,.745.52,3.349,3.349,0,0,0,.68.38,3.438,3.438,0,0,0,1.43.222,5.746,5.746,0,0,0,2.627-.93C1873.719,717.466,1875.469,715.847,1875.748,713.865Z" transform="translate(-1641.713 -528.342)"/><path class="ac" d="M1862.462,799.086c.438.47,1.081,1.315,1.4,1.06,2.883-2.467,6.6-.714,9.824-.1,1.9.336,2.893-1.733,3.444-3.139a10.889,10.889,0,0,0,.672-2.143,5.783,5.783,0,0,1,.156,2.535,3.09,3.09,0,0,1-2.223,2.572c-.28,1.983-2.029,3.6-3.675,4.6a5.746,5.746,0,0,1-2.627.93,3.439,3.439,0,0,1-1.43-.222,3.361,3.361,0,0,1-.68-.38,3.125,3.125,0,0,0-.745-.52,13.828,13.828,0,0,0-1.553-.019,3.985,3.985,0,0,1-1.245-.417,4.411,4.411,0,0,1-2-2.186,4.719,4.719,0,0,1-.287-1.458c-.044-.526-.512-.6-.861-.936a3.96,3.96,0,0,1-.924-3.183c.006-.083.014-.167.023-.251C1860.623,796.9,1861.471,798.009,1862.462,799.086Z" transform="translate(-1641.694 -614.345)"/><path class="ad" d="M1402.181,786.8a12.014,12.014,0,0,0-3.44-1.774,4.451,4.451,0,0,0-3.6-.151,3.676,3.676,0,0,0-.733.454,4.1,4.1,0,0,1-.74.634c-.47.226-1.142.067-1.656.173a4.677,4.677,0,0,0-2.979,2.009,2.7,2.7,0,0,1-.577.706,4.957,4.957,0,0,1-.958.415,2.75,2.75,0,0,0-1.344,1.237,6.191,6.191,0,0,0-.563,1.711c-.146.69-.287,1.382-.431,2.073s-.3,1.374-.426,2.066a3.921,3.921,0,0,0,0,1.732,4.013,4.013,0,0,0,.981,1.528,1.919,1.919,0,0,1,.471.767,1.89,1.89,0,0,1-.092.879,5.936,5.936,0,0,0-.032,3.469,3.58,3.58,0,0,0,2.127,2.2c.089.032.179.058.269.081a.517.517,0,0,0,.134.356,5.266,5.266,0,0,0,6.081,1.11,9.09,9.09,0,0,0,1.463-1.062,4.1,4.1,0,0,1,1.625-.479c1.2-.307,1.637-1.305,2.026-2.37a2.651,2.651,0,0,1,.778-1.27c.477-.38,1.039-.634,1.519-1.008a3.018,3.018,0,0,0,1.052-1.46,12.6,12.6,0,0,1,.434-1.613,7.449,7.449,0,0,1,1.213-1.418,6.12,6.12,0,0,0,.883-1.432,5.892,5.892,0,0,0,.443-3.471,3.667,3.667,0,0,0-.786-1.719,3.788,3.788,0,0,0-.719-.614,1.376,1.376,0,0,1-.58-.575,8.538,8.538,0,0,1-.243-.921,3.958,3.958,0,0,0-.375-.856A5.036,5.036,0,0,0,1402.181,786.8Z" transform="translate(-1198.578 -604.82)"/><path class="ae" d="M1387.536,814.172a4.673,4.673,0,0,0,.958-.415,2.7,2.7,0,0,0,.577-.706,4.721,4.721,0,0,1,2.255-1.8l-.233.369a2.544,2.544,0,0,0-.275.7c-1.019,1.845-2.863,3.934-1.844,5.819.489,1.03,1.885,1.467,2.426,2.436.917,1.385.347,3.189.663,4.8.163,1.172-.05,2.548,1.294,3.047a10.788,10.788,0,0,0,6.932.1,3.555,3.555,0,0,0-.464.946c-.389,1.065-.826,2.063-2.026,2.37a4.065,4.065,0,0,0-1.625.479,9.091,9.091,0,0,1-1.463,1.062,5.269,5.269,0,0,1-6.081-1.11.517.517,0,0,1-.134-.356c-.091-.023-.181-.049-.269-.081a3.586,3.586,0,0,1-2.126-2.2,5.935,5.935,0,0,1,.031-3.469,1.959,1.959,0,0,0,.093-.879,1.879,1.879,0,0,0-.471-.767,3.152,3.152,0,0,1-.98-3.26c.126-.692.283-1.378.425-2.066s.284-1.382.431-2.073a6.185,6.185,0,0,1,.563-1.711A2.75,2.75,0,0,1,1387.536,814.172Z" transform="translate(-1198.615 -629.727)"/><path class="af" d="M1612.861,605.9a6.509,6.509,0,0,0-4.176,1.366,3.828,3.828,0,0,0-4.024-1.646,5.633,5.633,0,0,0-3.934,4.026,6.936,6.936,0,0,0-2.981,3.68,6.865,6.865,0,0,0,3.752,8.279,4.407,4.407,0,0,0,.218,4.213,4.67,4.67,0,0,0,4.776,2.04,27.366,27.366,0,0,0,2.768-.716,9.651,9.651,0,0,1,2.945-.159,6.478,6.478,0,0,0,5.275-2.374,6.351,6.351,0,0,0,1.254-4.987,5.149,5.149,0,0,0,2.812-2.409,5.979,5.979,0,0,0,.322-5.131A10.5,10.5,0,0,0,1612.861,605.9Z" transform="translate(-1397.056 -437.83)"/><path class="ag" d="M1599.425,647.358c.948,2.344,3.639,2.721,5.952,2.68,2.7-.134,3.812,2.761,5.962,4.033a1.018,1.018,0,0,0,1.294-.062c1.854-1.977,1.385-4.647,1.1-7.164-.2-1,.581-1.692,1.569-2.008a2.782,2.782,0,0,1,2.285.866,7.777,7.777,0,0,0,.61-8.132,9.671,9.671,0,0,1,3.709,4.4,5.978,5.978,0,0,1-.322,5.131,5.146,5.146,0,0,1-2.812,2.409,6.351,6.351,0,0,1-1.254,4.987,6.479,6.479,0,0,1-5.275,2.374,9.647,9.647,0,0,0-2.945.159,27.344,27.344,0,0,1-2.768.716,4.67,4.67,0,0,1-4.776-2.04,4.407,4.407,0,0,1-.218-4.213,6.865,6.865,0,0,1-3.752-8.279,6.753,6.753,0,0,1,1.6-2.584A9.4,9.4,0,0,0,1599.425,647.358Z" transform="translate(-1397.093 -467.719)"/><path class="ah" d="M1781.65,1109.856c-1.21-1.008-8.883,2.386-8.609,5.386S1784.034,1111.842,1781.65,1109.856Z" transform="translate(-1560.87 -908.095)"/><path class="ai" d="M904.147,248.591l-25.787-.19v-5.957a.977.977,0,0,1,1.032-.975l23.834,1.357a.977.977,0,0,1,.921.975Z" transform="translate(-726.327 -98.238)"/><path class="aj" d="M908.537,248.591l-25.787-1.469v-4.679a.976.976,0,0,1,1.032-.975l23.834,1.357a.977.977,0,0,1,.921.975Z" transform="translate(-730.422 -98.238)"/><path class="ak" d="M1113.48,488.487l-25.17,1.4V416.7l25.17,1.4Z" transform="translate(-922.166 -261.694)"/><path class="al" d="M1105.214,581.031c-6.427,1.626,3.635,9.97-2.043,11.713-4.508,1.385-3.971-11.172-8.1-7.607-4.178,3.61,1.37,14.376,4.181,22.643,2.788,8.195,2.933,20.028-5.455,17.952a17.257,17.257,0,0,1-5.49-2.368v19.571l25.17-1.4V583.819A8.106,8.106,0,0,0,1105.214,581.031Z" transform="translate(-922.166 -414.741)"/><path class="am" d="M739.4,490.53l-25.154-4.622V425.376L739.4,417.39Z" transform="translate(-573.246 -262.338)"/><path class="an" d="M739.4,327.8l-25.154,7.986,11.391-14.441h0Z" transform="translate(-573.246 -172.752)"/><g class="ao" transform="translate(141.004 148.598)"><path class="ap" d="M725.641,321.35,714.25,335.791l14.728-12.876Z" transform="translate(-714.25 -321.35)"/></g><path class="aq" d="M714.24,1125.2v14.176L739.394,1144v-19.548c-4.291-2.721-6.3-5.8-13.285-6.474C721.554,1117.533,717.243,1121.439,714.24,1125.2Z" transform="translate(-573.237 -915.805)"/><path class="ar" d="M755.9,878.614v.025l3.861,1.479v2.047L755.9,883.89v.026l6.308-.036v2.191l-9.931-.147v-2.151l5.615-2.561v-.026l-5.615-2.2v-2.2l9.931-.788v2.245Z" transform="translate(-608.72 -690.125)"/><path class="as" d="M762.211,806.9l-9.931,1v-2.309l9.931-1.233Z" transform="translate(-608.72 -623.3)"/><path class="at" d="M752.28,678.644l7.858-1.317v-4.11l2.073-.428v6.571L752.28,680.8Z" transform="translate(-608.72 -500.572)"/><path class="at" d="M752.28,533.87l4.023-.983v-.026l-4.023-1.743v-2.432L756.8,530.7l5.41-5.108v2.682l-4.906,4.344v.026l4.906-1.2v2.313l-9.931,2.213Z" transform="translate(-608.72 -363.266)"/><path class="au" d="M883.73,321.35l25.722,1.157,13.2,6.65L897.493,327.8Z" transform="translate(-731.336 -172.752)"/><path class="ap" d="M897.493,327.8,883.73,321.35l1.927,2.61Z" transform="translate(-731.336 -172.752)"/><path class="av" d="M1342.955,536.689a1.1,1.1,0,0,0-.71-.628,1.77,1.77,0,0,0-1.989.849c-1.812,3.129-.179,10.724-.179,10.724h1.22a16.081,16.081,0,0,1,1.613-9.953A1.2,1.2,0,0,0,1342.955,536.689Z" transform="translate(-1156.382 -372.974)"/><path class="af" d="M1188.524,675.82a74.347,74.347,0,0,1-1.644,7.8,22.045,22.045,0,0,1-3.944,8.238c-3.008,3.531-6.017,1.569-12.818,1.569-4.373,0-5.78-1.887-8.132-5.175-2.665-3.718-5.99-6.99-7.039-11.6-.96-4.227.646-8.6,4.26-10.211h0c1.053-.924,2.277-.767,3.657-.7,1.067.048,2.083.08,3.072.1a19.7,19.7,0,0,0,6.945-.913c3.562-1.186,11.627-3.135,14.4.724C1189.174,668.273,1189.027,672.829,1188.524,675.82Z" transform="translate(-984.069 -491.779)"/><path class="aw" d="M1186.88,726.27a22.044,22.044,0,0,1-3.944,8.238c-3.008,3.531-6.017,1.569-12.818,1.569-4.373,0-5.78-1.887-8.132-5.175-2.665-3.718-5.99-6.99-7.039-11.6-.96-4.227.646-8.6,4.26-10.211h0s-4.458,11.073,3.651,13.362,8.7,11.553,15.891,7.564A39.85,39.85,0,0,1,1186.88,726.27Z" transform="translate(-984.069 -534.433)"/><path class="ax" d="M1481.263,699.059s-6.54-1.108-4.578,3.61,7.326,9.244,9.156,6S1485.056,700.279,1481.263,699.059Z" transform="translate(-1284.096 -524.97)"/><path class="ay" d="M627.416,875.578l-3.285,40.342-.531,9.49c-1.164,6.124-2.391,10.4-3.507,10.427-2.585.047-6.265-4.647-9.021-8.483-1.117-1.562-2.078-2.983-2.756-3.881-2.344-3.125.585-31.243,1.367-34.953s1.3-32.742,1.038-34.171,2.083-13.668,2.083-13.668l3.421,3.905.226.257,5.2-2.991L624,845.5S626.175,863.9,627.416,875.578Z" transform="translate(-473.6 -657.179)"/><path class="az" d="M678.034,891.864l-3.285,40.342-.531,9.49c-1.164,6.123-2.391,10.4-3.507,10.427-2.586.047-6.265-4.647-9.022-8.482,2.055-7.841,7.045-27.173,6.765-29.133-.305-2.21-1.383-44.575-1.61-53.633l.226.257,5.2-2.991,2.342,3.645S676.793,880.187,678.034,891.864Z" transform="translate(-524.219 -673.465)"/><path class="ba" d="M880.144,957.69a8.661,8.661,0,0,1-8.3,8.888c-23.83.992-78.91,6.694-80.714-.063-2.078-7.81,5.99-43.215,5.733-47.644s-1.827-42.693-1.827-42.693l4.023,1,1.187.3,8.591-3.9,7.553,4.167,9.888-4.167L833.828,878l7.552-3.123L847.63,878l7.81-4.428,4.945,3.9,8.068-3.9L873.14,878l4.951-4.428.258,4.167S879.558,935.211,880.144,957.69Z" transform="translate(-644.637 -687.858)"/><path class="bb" d="M876.043,1001.491a8.7,8.7,0,0,1-4.2,1.288c-23.83.992-78.91,6.694-80.714-.062-2.078-7.81,5.99-43.215,5.733-47.644s-1.827-42.693-1.827-42.693l4.023,1a44.484,44.484,0,0,1,7.863,6.318c8.8,11.9-2.672,34.406,12.568,42.365,9.813,5.116,22.307,1.008,31.813,6.873a18.388,18.388,0,0,1,7.9,10.5c1.265,4.523-.188,9.88,3.163,13.7C865.577,996.8,871.1,998.906,876.043,1001.491Z" transform="translate(-644.637 -724.06)"/><path class="bc" d="M184.69,1131.974l7.877,88.394a2.384,2.384,0,0,1-2.067,2.644l-42.62,4.39c-2.55.134-3.9-1.248-4.014-2.637l-7.56-91.776c-.112-1.355,1.155-2.632,3.674-2.725l42.229-.62A2.539,2.539,0,0,1,184.69,1131.974Z" transform="translate(-34.139 -926.722)"/><path class="bd" d="M209.66,1128.518l7.949,88.924a2.4,2.4,0,0,1-2.079,2.66l-44.224,4.082a2.5,2.5,0,0,1-2.678-2.316L161,1129.537a2.293,2.293,0,0,1,2.245-2.524l43.92-.839A2.555,2.555,0,0,1,209.66,1128.518Z" transform="translate(-57.174 -923.485)"/><path class="be" d="M519.561,1160.823a.768.768,0,0,1-.743.857.9.9,0,0,1-.889-.823.768.768,0,0,1,.745-.857A.9.9,0,0,1,519.561,1160.823Z" transform="translate(-390.114 -955.037)"/><g class="bf" transform="translate(106.204 207.436)"><path class="i" d="M259.319,1420.527l-44.514,2.012L213.64,1409.5l44.6-1.532Z" transform="translate(-212.485 -1393.778)"/><path class="aq" d="M272.363,1565.548l-44.107,4.316-6.217-69.55,44.558-1.764Z" transform="translate(-220.321 -1478.27)"/><path class="bg" d="M238.04,1190.663l-44.571,1.688-1.859-20.8,44.706-.92Z" transform="translate(-191.936 -1172.389)"/><path class="i" d="M578.622,1303.189l-16.069.473-.143-1.631,16.073-.451Z" transform="translate(-537.815 -1294.538)"/><path class="i" d="M582.684,1348.958l-16.062.515-.142-1.63,16.065-.493Z" transform="translate(-541.611 -1337.232)"/><g class="bh" transform="translate(1.719 20.28)"><path class="i" d="M241.535,2092a1.959,1.959,0,0,1-1.635-.874l-19.434-29.2-18.721,1.367-11.793,24.352a1.961,1.961,0,1,1-3.531-1.71l12.289-25.372a1.96,1.96,0,0,1,1.622-1.1l20.989-1.528a1.964,1.964,0,0,1,1.776.869l20.068,30.152a1.961,1.961,0,0,1-1.631,3.049Z" transform="translate(-188.632 -2020.329)"/><path class="i" d="M232.723,1513.022a1.961,1.961,0,0,1-1.949-1.79l-2.745-31.221-22.149-42.224a1.961,1.961,0,1,1,3.474-1.822l22.33,42.573a1.957,1.957,0,0,1,.216.739l2.779,31.612a1.961,1.961,0,0,1-1.781,2.126C232.839,1513.018,232.78,1513.022,232.723,1513.022Z" transform="translate(-206.756 -1439.192)"/><path class="i" d="M569.6,1531.232a1.384,1.384,0,0,1-.119-2.764l13.481-1.176-4.744-54.66a1.384,1.384,0,1,1,2.756-.239l4.864,56.039a1.385,1.385,0,0,1-1.259,1.5l-14.859,1.3C569.676,1531.23,569.636,1531.232,569.6,1531.232Z" transform="translate(-544.94 -1472.911)"/><path class="i" d="M333.449,1784.287a.807.807,0,0,1-.571-.237l-24.782-24.82c-1.281.416-4.973,1.61-8.655,2.756-2.665.828-4.8,1.469-6.358,1.9-.953.269-1.652.455-2.176.571.962,2.679,4.059,10.826,6.211,16.439a.808.808,0,0,1-1.509.578c-.016-.044-1.68-4.392-3.313-8.693-.958-2.527-1.717-4.544-2.255-5.994-.305-.823-.556-1.511-.728-1.994-.312-.88-.5-1.412.134-1.748a.805.805,0,0,1,.584-.067c1.479-.157,11.762-3.389,18.036-5.437a.807.807,0,0,1,.822.2l25.131,25.169a.807.807,0,0,1-.571,1.376ZM290.5,1763.3Zm0,0Zm-.02-.027.02.027Zm0,0ZM290.476,1763.268Z" transform="translate(-284.524 -1740.1)"/><path class="i" d="M537.147,1443.109a.807.807,0,0,1-.8-.74l-2-22.763a.808.808,0,0,1,1.609-.14l1.994,22.765a.807.807,0,0,1-.734.874A.483.483,0,0,1,537.147,1443.109Z" transform="translate(-513.354 -1424.093)"/><path class="bi" d="M293.878,1454.97a.576.576,0,0,1-.481-.256l-.589-.882a.577.577,0,1,1,.959-.641l.589.881a.576.576,0,0,1-.478.9Zm-2.641-3.951a.577.577,0,0,1-.481-.256l-2.051-3.069a.577.577,0,0,1,.959-.641l2.051,3.07a.576.576,0,0,1-.479.9Zm-4.1-6.139a.575.575,0,0,1-.48-.256l-2.051-3.07a.577.577,0,0,1,.959-.641l2.051,3.07a.577.577,0,0,1-.479.9Zm-4.1-6.14a.575.575,0,0,1-.48-.257l-2.052-3.069a.577.577,0,0,1,.96-.641l2.051,3.07a.577.577,0,0,1-.479.9Zm-4.1-6.139a.577.577,0,0,1-.48-.257l-2.051-3.069a.577.577,0,0,1,.959-.641l2.042,3.07a.577.577,0,0,1-.479.9Zm-14.242-5.641-.7-1.336a.577.577,0,0,1,1.022-.538l.349.666,2.178-.159a.577.577,0,0,1,.083,1.151Zm6.572-.481a.577.577,0,0,1-.042-1.153l3.741-.273.341.511a.577.577,0,0,1-.923.69l-3.074.224Zm-8.476-3.815a.576.576,0,0,1-.511-.309l-1.715-3.269a.577.577,0,1,1,1.022-.538l1.714,3.271a.577.577,0,0,1-.51.845Zm-3.428-6.539a.577.577,0,0,1-.511-.309l-1.717-3.272a.577.577,0,0,1,1.022-.538l1.715,3.27a.577.577,0,0,1-.51.845Zm-3.428-6.539a.578.578,0,0,1-.511-.309l-1.715-3.27a.577.577,0,1,1,1.022-.538l1.715,3.27a.578.578,0,0,1-.511.845Zm-3.428-6.539a.576.576,0,0,1-.511-.309l-1.715-3.27a.578.578,0,0,1,1.022-.538l1.714,3.27a.577.577,0,0,1-.51.845Zm-3.428-6.54a.576.576,0,0,1-.511-.309l-1.715-3.269a.577.577,0,0,1,1.022-.538l1.715,3.27a.577.577,0,0,1-.51.845Zm-3.428-6.539a.577.577,0,0,1-.511-.309l-.924-1.74-.2-1.939a.578.578,0,1,1,1.149-.117l.177,1.718.806,1.546a.577.577,0,0,1-.51.845Zm-1.43-7.142a.577.577,0,0,1-.573-.518l-.379-3.672a.577.577,0,1,1,1.147-.119l.379,3.672a.577.577,0,0,1-.514.633l-.071,0Z" transform="translate(-241.838 -1386.101)"/></g></g><circle class="bj" cx="3.054" cy="3.054" r="3.054" transform="translate(117.54 249.901) rotate(-45)"/><g class="bk" transform="translate(103.819 203.417)"><path class="i" d="M199.025,1199.66c-4.287-14.979-16.787-13.481-20.526-27.018-3.07-11.116,4.009-16.976-.285-26.283a20.875,20.875,0,0,0-9.226-9.359l-5.751.109a2.3,2.3,0,0,0-2.245,2.524l7.628,92.332a2.5,2.5,0,0,0,2.678,2.316l36.263-3.347a37.878,37.878,0,0,1-6.049-10.865C198.28,1210.919,201.4,1207.944,199.025,1199.66Z" transform="translate(-160.984 -1137)"/></g><g class="ao" transform="translate(110.818 210.104)"><path class="bl" d="M282.5,1326.369l-16.655.131a.568.568,0,0,1-.568-.47l-.143-1.114a.425.425,0,0,1,.45-.476h16.743a.494.494,0,0,1,.485.443l.093,1.039a.4.4,0,0,1-.4.447Z" transform="translate(-265.126 -1318.53)"/><path class="bm" d="M286.44,1359.148l2.127,5.377a.9.9,0,0,0,.861.548l10.9-.356a.684.684,0,0,0,.669-.57l.831-5.146Zm4.78,5.01a.357.357,0,0,1-.363.393l-.389.012a.442.442,0,0,1-.455-.37l-.495-4.162a.355.355,0,0,1,.368-.4l.395,0a.457.457,0,0,1,.458.385Zm2.151-.063a.354.354,0,0,1-.358.39l-.382.012a.434.434,0,0,1-.446-.367l-.47-4.127a.353.353,0,0,1,.364-.392l.387,0a.448.448,0,0,1,.449.381Zm2.116-.062a.352.352,0,0,1-.354.386l-.376.011a.425.425,0,0,1-.437-.364l-.447-4.092a.35.35,0,0,1,.36-.388l.381,0a.439.439,0,0,1,.44.377Zm2.083-.061a.349.349,0,0,1-.349.383l-.37.012a.418.418,0,0,1-.428-.361l-.424-4.058a.349.349,0,0,1,.355-.386l.374,0a.43.43,0,0,1,.431.375Zm2.047-.061a.347.347,0,0,1-.345.38l-.364.011a.411.411,0,0,1-.42-.358l-.4-4.025a.346.346,0,0,1,.351-.382l.368,0a.424.424,0,0,1,.422.372Z" transform="translate(-285.007 -1350.767)"/><path class="bn" d="M294.279,1301.725a.668.668,0,0,1-.892-.059.565.565,0,0,1-.042-.835.669.669,0,0,1,.894.063A.564.564,0,0,1,294.279,1301.725Z" transform="translate(-291.294 -1296.374)"/><path class="bm" d="M307.048,1236.575a.287.287,0,0,0-.391.021l-4.9,4.442a.256.256,0,0,0-.042.375.3.3,0,0,0,.4-.029l4.885-4.436A.261.261,0,0,0,307.048,1236.575Z" transform="translate(-299.197 -1236.507)"/><path class="bo" d="M482.406,1302.845a.564.564,0,0,0,.8-.053.572.572,0,0,0-.129-.792.563.563,0,0,0-.8.05A.573.573,0,0,0,482.406,1302.845Z" transform="translate(-467.581 -1297.468)"/><path class="bp" d="M400,1237.111c.074-.092.25-.075.392.04l5.558,4.462c.134.107.184.269.113.357s-.237.077-.372-.03l-5.568-4.455C399.981,1237.371,399.926,1237.2,400,1237.111Z" transform="translate(-390.905 -1237.015)"/></g><path class="i" d="M285.825,1323.095l-16.655.134a.57.57,0,0,1-.569-.471l-.142-1.114a.425.425,0,0,1,.45-.475h16.744a.5.5,0,0,1,.485.444l.093,1.038a.4.4,0,0,1-.4.443Z" transform="translate(-157.413 -1105.375)"/><path class="i" d="M289.77,1355.846l2.127,5.377a.9.9,0,0,0,.861.548l10.9-.357a.685.685,0,0,0,.672-.57l.831-5.144Zm4.78,5.01a.358.358,0,0,1-.363.394l-.389.012a.443.443,0,0,1-.455-.37l-.5-4.164a.356.356,0,0,1,.369-.4l.395,0a.456.456,0,0,1,.458.384Zm2.151-.063a.355.355,0,0,1-.358.391l-.382.012a.434.434,0,0,1-.446-.367l-.47-4.127a.353.353,0,0,1,.364-.392l.387-.005a.449.449,0,0,1,.449.381Zm2.116-.062a.352.352,0,0,1-.354.387l-.376.012a.426.426,0,0,1-.437-.364l-.447-4.092a.351.351,0,0,1,.36-.388l.381,0a.439.439,0,0,1,.44.378Zm2.084-.061a.351.351,0,0,1-.35.384l-.37.011a.419.419,0,0,1-.429-.362l-.423-4.058a.348.348,0,0,1,.355-.386l.374,0a.43.43,0,0,1,.431.374Zm2.046-.06a.348.348,0,0,1-.345.38l-.364.011a.41.41,0,0,1-.42-.358l-.4-4.025a.345.345,0,0,1,.35-.382l.368,0a.424.424,0,0,1,.423.372Z" transform="translate(-177.295 -1137.584)"/><path class="i" d="M297.609,1298.391a.668.668,0,0,1-.892-.059.565.565,0,0,1-.042-.835.668.668,0,0,1,.893.063A.563.563,0,0,1,297.609,1298.391Z" transform="translate(-183.582 -1083.159)"/><path class="i" d="M310.377,1233.246a.287.287,0,0,0-.391.021l-4.9,4.441a.257.257,0,0,0-.042.375.3.3,0,0,0,.4-.029l4.885-4.436A.261.261,0,0,0,310.377,1233.246Z" transform="translate(-191.483 -1023.298)"/><path class="i" d="M485.737,1299.514a.564.564,0,0,0,.794-.052.573.573,0,0,0-.128-.792.563.563,0,0,0-.8.05A.573.573,0,0,0,485.737,1299.514Z" transform="translate(-359.868 -1084.256)"/><path class="i" d="M403.329,1233.783c.074-.093.25-.075.393.039l5.558,4.462c.134.108.185.269.114.358s-.238.077-.372-.03l-5.568-4.454C403.309,1234.043,403.254,1233.876,403.329,1233.783Z" transform="translate(-283.191 -1023.806)"/><path class="bq" d="M1026.26,1844.555c33.251.256,58.509-.027,60.1-14.193.915-8.172-8.67-29.149-14.467-35.835-9.168-10.569-23.885-11.089-44.022-11.649-18.935-.528-30.6-.853-39.816,7.308-8.613,7.628-17.939,37.282-12.575,44.612C980.455,1841.6,994.513,1844.31,1026.26,1844.555Z" transform="translate(-815.443 -1535.837)"/><path class="br" d="M1116.71,2206.36s-3.979-1.908-7.365,0-.341-8.845,3.682-10.067,8.693-4.032,16.515-3.788,54.521-2.621,59.891-.945,11.089,8.521,8.639,11.82-7.939-1.03-9.807-1.187S1116.71,2206.36,1116.71,2206.36Z" transform="translate(-940.427 -1916.774)"/><path class="bs" d="M1589.876,1764.325l3.892,1a1.444,1.444,0,0,1,.858,2.179c-2.65,4.133-9.671,14.509-14.066,15.727-4.545,1.262-13.039-11.886-15.861-16.514a1.444,1.444,0,0,1,.8-2.128l2.859-.9a18.849,18.849,0,0,1,7.238-.826l10.639.861A21.819,21.819,0,0,1,1589.876,1764.325Z" transform="translate(-1366.34 -1517.317)"/><path class="bt" d="M1228.33,2001.414l55.612,2.689v-56l-55.612,2.69Z" transform="translate(-1052.775 -1690.17)"/><path class="bu" d="M2055.78,2004.1l19.943-3.832v-48.6l-19.943-3.575Z" transform="translate(-1824.613 -1690.17)"/><path class="bv" d="M1583.917,1962.27v8.755l-14.887.651v-8.505Z" transform="translate(-1370.577 -1703.388)"/><path class="bv" d="M2173.083,1969.127l-8.353-1.5v8.624l8.353.906Z" transform="translate(-1926.241 -1708.387)"/><path class="i" d="M2236.535,2212.916s.063-9.124-2.695-11.67-6.054-2.121-6.846-2.334,2.487,3.288,3.024,7.744S2233.713,2212.067,2236.535,2212.916Z" transform="translate(-1984.206 -1924.117)"/><path class="i" d="M1203.016,2364.774s2.883-5.767,7.318-7.153,2.661.111,0,3.577-2.661,8.565-5.1,9.231S1201.8,2368.325,1203.016,2364.774Z" transform="translate(-1028.679 -2071.689)"/><path class="i" d="M1675.271,1597.161l-7.984,8.7-8.087-10.3s1.371-1.034,2.036-5.345a34.9,34.9,0,0,0,.349-5.591c-.007-1.046-.048-2.265-.134-3.419h13.039s-.054.381-.135,1.038a.2.2,0,0,1,0,.052c-.067.579-.155,1.344-.24,2.241v.025C1673.7,1588.955,1673.333,1596.2,1675.271,1597.161Z" transform="translate(-1454.687 -1347.929)"/><path class="bw" d="M1702.234,1582.24a.093.093,0,0,1,0,.036c-.067.579-.155,1.335-.24,2.234a3.6,3.6,0,0,1-1.259.995c-3.544,1.833-3.681,3.6-5.822,5.56s-5.828-.88-5.828-.88v-.005a34.516,34.516,0,0,0,.364-5.633c1.21-.9,3.119-2.223,4.944-3.377h7.266a3.19,3.19,0,0,1,.579,1.034A.2.2,0,0,0,1702.234,1582.24Z" transform="translate(-1482.559 -1347.901)"/><path class="bx" d="M1590.723,1273.893c-4.678-4.5,1.718-4.807,5.254-7.569,1.008-.789-.081-6.68,6.713-3.625,7.011,3.153,6.894.515,8.05,3.666.706,1.924,4.125,5.31,3.345,7.355a25.244,25.244,0,0,1-2.922,4.869c-1.546,2.218-1.439,2.146-1.913,2.792a35.09,35.09,0,0,1-7.347,7.191,24.328,24.328,0,0,0-1.168-4.07,21.479,21.479,0,0,0-2.6-4.839C1595.63,1276.321,1592.553,1275.653,1590.723,1273.893Z" transform="translate(-1389.273 -1050.021)"/><path class="i" d="M1612.169,1406.055s-4.167,6.2-11.88,5.363c-6.908-.755-7.243-16.332-2.674-19.437a8.752,8.752,0,0,1,6.875-.584c1.4.46,1.857,1.075,4.167,1.778,2.127.652,2.745.44,3.371,1.016.782.719,1.3,2.42-.251,6.9,1.38-1.28,2.99-1.725,4.09-1.143a2.364,2.364,0,0,1,.883.941C1617.638,1402.706,1615.918,1404.9,1612.169,1406.055Z" transform="translate(-1394.404 -1170.482)"/><path class="by" d="M1628.355,1221.743s-.36,3.36-2.038,2.449c-6.183-3.365-18.576-7.057-22.179-3.459,0,0-1.747-15.535,13.509-14.444,6.318.451,9.405,3.621,10.895,6.969C1630.359,1217.341,1628.355,1221.743,1628.355,1221.743Z" transform="translate(-1403.269 -998.164)"/><path class="bz" d="M1564.8,1350.608c.386.107-5.435-4.469-5.435-4.469s-5.633-4.026-15.919-2.054c-5.133.984,2.077,5.026,2.077,5.026S1547.563,1345.82,1564.8,1350.608Z" transform="translate(-1344.995 -1126.243)"/></g></svg>