<svg xmlns="http://www.w3.org/2000/svg" width="61.917" height="58.744" viewBox="0 0 61.917 58.744"><defs><style>.a{fill:#4f9e55;}</style></defs><g transform="translate(-13.868 -15.479)"><path class="a" d="M46.19,39.5c-.69.21-1.38.43-2.1.6a43.931,43.931,0,0,1-5.36.59,6.84,6.84,0,0,1-3.17-.6,13.73,13.73,0,0,1-5.72-4.16,10.43,10.43,0,0,1-2.36-6.65,24.74,24.74,0,0,1,.38-3.16,8.57,8.57,0,0,1,2.57-4.36,24,24,0,0,1,13.84-6.13,9.6,9.6,0,0,1,5.09.47c.17,0,.37.18.63.21A31,31,0,0,1,54,19a6.87,6.87,0,0,1,2.19,3A10.45,10.45,0,0,1,57,24.52a7.08,7.08,0,0,1-.38,5.09c-.75,1.35-1.57,2.82-2.49,4.15a13.93,13.93,0,0,1-3,2.81A17.11,17.11,0,0,1,46.19,39.5Zm4.74-8.27c2.88-3.74.2-13.51-6.36-12.15a31,31,0,0,0-9,3.83,21.29,21.29,0,0,0-2.4,2.44c-1.26,1.51,2.42,10.74,5.08,10.88a12.7,12.7,0,0,0,1.85,0c.72-.17,1.62-.31,2.45-.55a25.32,25.32,0,0,0,6.86-3.23A10.74,10.74,0,0,0,50.93,31.23Z"/><path class="a" d="M32.68,45.47c.2.53.39,1.06.55,1.62a33.06,33.06,0,0,1,.67,4.18,5.25,5.25,0,0,1-.35,2.5,10.66,10.66,0,0,1-3,4.65,8.18,8.18,0,0,1-5.12,2.1,21.26,21.26,0,0,1-2.49-.17A6.75,6.75,0,0,1,19.4,58.5a18.8,18.8,0,0,1-5.34-10.6,7.65,7.65,0,0,1,.16-4c0-.14.13-.3.15-.5a23.28,23.28,0,0,1,2-3.23,5.45,5.45,0,0,1,2.25-1.84,8.42,8.42,0,0,1,1.95-.76,5.66,5.66,0,0,1,4,.1,37.659,37.659,0,0,1,3.35,1.8,10.67,10.67,0,0,1,2.31,2.22A13.28,13.28,0,0,1,32.68,45.47ZM26,42.08c-3-2.08-10.57.37-9.25,5.45a24.37,24.37,0,0,0,3.34,6.88,18.08,18.08,0,0,0,2,1.79c1.23.92,8.32-2.31,8.33-4.41a11.581,11.581,0,0,0-.08-1.44c-.16-.57-.31-1.26-.53-1.9A19.88,19.88,0,0,0,27,43.19,7.71,7.71,0,0,0,26,42.08Z"/><path class="a" d="M64.84,72.22c-.83.32-1.66.64-2.56.9a52.289,52.289,0,0,1-6.76,1.07,9.33,9.33,0,0,1-4.27-.64,22.35,22.35,0,0,1-8.58-5.22,17,17,0,0,1-4.93-8.7,36.381,36.381,0,0,1-.39-4.21,9.5,9.5,0,0,1,2.09-5.91c4-4.93,9.48-7.73,16.19-8.86a12.62,12.62,0,0,1,6.7.36c.23,0,.53.22.88.25a50.14,50.14,0,0,1,5.92,3.37,11.49,11.49,0,0,1,3.67,3.83,16.279,16.279,0,0,1,1.81,3.32,9.77,9.77,0,0,1,.94,6.77,53.869,53.869,0,0,1-2,5.64,14,14,0,0,1-3.06,3.88A17.5,17.5,0,0,1,64.84,72.22Zm5.22-13c2.67-5.12-9.72-16.25-17.83-14.11A20.48,20.48,0,0,0,44,49.24a22.121,22.121,0,0,0-2.41,3.37c-1.21,2.06,5.85,16.69,9.34,16.73.79,0,3,.87,3.77.71a24.9,24.9,0,0,0,3-.85,13.48,13.48,0,0,0,5.73-3.29c.49-.52,6.28-6.15,6.63-6.74Z"/></g></svg>